%TF.GenerationSoftware,KiCad,Pcbnew,7.0.7*%
%TF.CreationDate,2023-10-08T15:08:31+08:00*%
%TF.ProjectId,RM_47mm,524d5f34-376d-46d2-9e6b-696361645f70,rev?*%
%TF.SameCoordinates,Original*%
%TF.FileFunction,Drillmap*%
%TF.FilePolarity,Positive*%
%FSLAX45Y45*%
G04 Gerber Fmt 4.5, Leading zero omitted, Abs format (unit mm)*
G04 Created by KiCad (PCBNEW 7.0.7) date 2023-10-08 15:08:31*
%MOMM*%
%LPD*%
G01*
G04 APERTURE LIST*
%ADD10C,0.200000*%
%ADD11C,0.065000*%
G04 APERTURE END LIST*
D10*
X17000000Y-10000000D02*
G75*
G03*
X17000000Y-10000000I-2000000J0D01*
G01*
D11*
X14678500Y-8528000D02*
X14743500Y-8593000D01*
X14743500Y-8528000D02*
X14678500Y-8593000D01*
X15256500Y-8528000D02*
X15321500Y-8593000D01*
X15321500Y-8528000D02*
X15256500Y-8593000D01*
D10*
X13250777Y-12321484D02*
X13250777Y-12121484D01*
X13250777Y-12121484D02*
X13298396Y-12121484D01*
X13298396Y-12121484D02*
X13326967Y-12131008D01*
X13326967Y-12131008D02*
X13346015Y-12150055D01*
X13346015Y-12150055D02*
X13355539Y-12169103D01*
X13355539Y-12169103D02*
X13365062Y-12207198D01*
X13365062Y-12207198D02*
X13365062Y-12235769D01*
X13365062Y-12235769D02*
X13355539Y-12273865D01*
X13355539Y-12273865D02*
X13346015Y-12292912D01*
X13346015Y-12292912D02*
X13326967Y-12311960D01*
X13326967Y-12311960D02*
X13298396Y-12321484D01*
X13298396Y-12321484D02*
X13250777Y-12321484D01*
X13450777Y-12321484D02*
X13450777Y-12188150D01*
X13450777Y-12226246D02*
X13460301Y-12207198D01*
X13460301Y-12207198D02*
X13469824Y-12197674D01*
X13469824Y-12197674D02*
X13488872Y-12188150D01*
X13488872Y-12188150D02*
X13507920Y-12188150D01*
X13574586Y-12321484D02*
X13574586Y-12188150D01*
X13574586Y-12121484D02*
X13565062Y-12131008D01*
X13565062Y-12131008D02*
X13574586Y-12140531D01*
X13574586Y-12140531D02*
X13584110Y-12131008D01*
X13584110Y-12131008D02*
X13574586Y-12121484D01*
X13574586Y-12121484D02*
X13574586Y-12140531D01*
X13698396Y-12321484D02*
X13679348Y-12311960D01*
X13679348Y-12311960D02*
X13669824Y-12292912D01*
X13669824Y-12292912D02*
X13669824Y-12121484D01*
X13803158Y-12321484D02*
X13784110Y-12311960D01*
X13784110Y-12311960D02*
X13774586Y-12292912D01*
X13774586Y-12292912D02*
X13774586Y-12121484D01*
X14031729Y-12321484D02*
X14031729Y-12121484D01*
X14031729Y-12121484D02*
X14098396Y-12264341D01*
X14098396Y-12264341D02*
X14165062Y-12121484D01*
X14165062Y-12121484D02*
X14165062Y-12321484D01*
X14346015Y-12321484D02*
X14346015Y-12216722D01*
X14346015Y-12216722D02*
X14336491Y-12197674D01*
X14336491Y-12197674D02*
X14317443Y-12188150D01*
X14317443Y-12188150D02*
X14279348Y-12188150D01*
X14279348Y-12188150D02*
X14260301Y-12197674D01*
X14346015Y-12311960D02*
X14326967Y-12321484D01*
X14326967Y-12321484D02*
X14279348Y-12321484D01*
X14279348Y-12321484D02*
X14260301Y-12311960D01*
X14260301Y-12311960D02*
X14250777Y-12292912D01*
X14250777Y-12292912D02*
X14250777Y-12273865D01*
X14250777Y-12273865D02*
X14260301Y-12254817D01*
X14260301Y-12254817D02*
X14279348Y-12245293D01*
X14279348Y-12245293D02*
X14326967Y-12245293D01*
X14326967Y-12245293D02*
X14346015Y-12235769D01*
X14441253Y-12188150D02*
X14441253Y-12388150D01*
X14441253Y-12197674D02*
X14460301Y-12188150D01*
X14460301Y-12188150D02*
X14498396Y-12188150D01*
X14498396Y-12188150D02*
X14517443Y-12197674D01*
X14517443Y-12197674D02*
X14526967Y-12207198D01*
X14526967Y-12207198D02*
X14536491Y-12226246D01*
X14536491Y-12226246D02*
X14536491Y-12283388D01*
X14536491Y-12283388D02*
X14526967Y-12302436D01*
X14526967Y-12302436D02*
X14517443Y-12311960D01*
X14517443Y-12311960D02*
X14498396Y-12321484D01*
X14498396Y-12321484D02*
X14460301Y-12321484D01*
X14460301Y-12321484D02*
X14441253Y-12311960D01*
X14622205Y-12302436D02*
X14631729Y-12311960D01*
X14631729Y-12311960D02*
X14622205Y-12321484D01*
X14622205Y-12321484D02*
X14612682Y-12311960D01*
X14612682Y-12311960D02*
X14622205Y-12302436D01*
X14622205Y-12302436D02*
X14622205Y-12321484D01*
X14622205Y-12197674D02*
X14631729Y-12207198D01*
X14631729Y-12207198D02*
X14622205Y-12216722D01*
X14622205Y-12216722D02*
X14612682Y-12207198D01*
X14612682Y-12207198D02*
X14622205Y-12197674D01*
X14622205Y-12197674D02*
X14622205Y-12216722D01*
D11*
X12925000Y-12617500D02*
X12990000Y-12682500D01*
X12990000Y-12617500D02*
X12925000Y-12682500D01*
D10*
X13288872Y-12541484D02*
X13307920Y-12541484D01*
X13307920Y-12541484D02*
X13326967Y-12551008D01*
X13326967Y-12551008D02*
X13336491Y-12560531D01*
X13336491Y-12560531D02*
X13346015Y-12579579D01*
X13346015Y-12579579D02*
X13355539Y-12617674D01*
X13355539Y-12617674D02*
X13355539Y-12665293D01*
X13355539Y-12665293D02*
X13346015Y-12703388D01*
X13346015Y-12703388D02*
X13336491Y-12722436D01*
X13336491Y-12722436D02*
X13326967Y-12731960D01*
X13326967Y-12731960D02*
X13307920Y-12741484D01*
X13307920Y-12741484D02*
X13288872Y-12741484D01*
X13288872Y-12741484D02*
X13269824Y-12731960D01*
X13269824Y-12731960D02*
X13260301Y-12722436D01*
X13260301Y-12722436D02*
X13250777Y-12703388D01*
X13250777Y-12703388D02*
X13241253Y-12665293D01*
X13241253Y-12665293D02*
X13241253Y-12617674D01*
X13241253Y-12617674D02*
X13250777Y-12579579D01*
X13250777Y-12579579D02*
X13260301Y-12560531D01*
X13260301Y-12560531D02*
X13269824Y-12551008D01*
X13269824Y-12551008D02*
X13288872Y-12541484D01*
X13441253Y-12722436D02*
X13450777Y-12731960D01*
X13450777Y-12731960D02*
X13441253Y-12741484D01*
X13441253Y-12741484D02*
X13431729Y-12731960D01*
X13431729Y-12731960D02*
X13441253Y-12722436D01*
X13441253Y-12722436D02*
X13441253Y-12741484D01*
X13622205Y-12541484D02*
X13584110Y-12541484D01*
X13584110Y-12541484D02*
X13565062Y-12551008D01*
X13565062Y-12551008D02*
X13555539Y-12560531D01*
X13555539Y-12560531D02*
X13536491Y-12589103D01*
X13536491Y-12589103D02*
X13526967Y-12627198D01*
X13526967Y-12627198D02*
X13526967Y-12703388D01*
X13526967Y-12703388D02*
X13536491Y-12722436D01*
X13536491Y-12722436D02*
X13546015Y-12731960D01*
X13546015Y-12731960D02*
X13565062Y-12741484D01*
X13565062Y-12741484D02*
X13603158Y-12741484D01*
X13603158Y-12741484D02*
X13622205Y-12731960D01*
X13622205Y-12731960D02*
X13631729Y-12722436D01*
X13631729Y-12722436D02*
X13641253Y-12703388D01*
X13641253Y-12703388D02*
X13641253Y-12655769D01*
X13641253Y-12655769D02*
X13631729Y-12636722D01*
X13631729Y-12636722D02*
X13622205Y-12627198D01*
X13622205Y-12627198D02*
X13603158Y-12617674D01*
X13603158Y-12617674D02*
X13565062Y-12617674D01*
X13565062Y-12617674D02*
X13546015Y-12627198D01*
X13546015Y-12627198D02*
X13536491Y-12636722D01*
X13536491Y-12636722D02*
X13526967Y-12655769D01*
X13822205Y-12541484D02*
X13726967Y-12541484D01*
X13726967Y-12541484D02*
X13717443Y-12636722D01*
X13717443Y-12636722D02*
X13726967Y-12627198D01*
X13726967Y-12627198D02*
X13746015Y-12617674D01*
X13746015Y-12617674D02*
X13793634Y-12617674D01*
X13793634Y-12617674D02*
X13812682Y-12627198D01*
X13812682Y-12627198D02*
X13822205Y-12636722D01*
X13822205Y-12636722D02*
X13831729Y-12655769D01*
X13831729Y-12655769D02*
X13831729Y-12703388D01*
X13831729Y-12703388D02*
X13822205Y-12722436D01*
X13822205Y-12722436D02*
X13812682Y-12731960D01*
X13812682Y-12731960D02*
X13793634Y-12741484D01*
X13793634Y-12741484D02*
X13746015Y-12741484D01*
X13746015Y-12741484D02*
X13726967Y-12731960D01*
X13726967Y-12731960D02*
X13717443Y-12722436D01*
X13955539Y-12541484D02*
X13974586Y-12541484D01*
X13974586Y-12541484D02*
X13993634Y-12551008D01*
X13993634Y-12551008D02*
X14003158Y-12560531D01*
X14003158Y-12560531D02*
X14012682Y-12579579D01*
X14012682Y-12579579D02*
X14022205Y-12617674D01*
X14022205Y-12617674D02*
X14022205Y-12665293D01*
X14022205Y-12665293D02*
X14012682Y-12703388D01*
X14012682Y-12703388D02*
X14003158Y-12722436D01*
X14003158Y-12722436D02*
X13993634Y-12731960D01*
X13993634Y-12731960D02*
X13974586Y-12741484D01*
X13974586Y-12741484D02*
X13955539Y-12741484D01*
X13955539Y-12741484D02*
X13936491Y-12731960D01*
X13936491Y-12731960D02*
X13926967Y-12722436D01*
X13926967Y-12722436D02*
X13917443Y-12703388D01*
X13917443Y-12703388D02*
X13907920Y-12665293D01*
X13907920Y-12665293D02*
X13907920Y-12617674D01*
X13907920Y-12617674D02*
X13917443Y-12579579D01*
X13917443Y-12579579D02*
X13926967Y-12560531D01*
X13926967Y-12560531D02*
X13936491Y-12551008D01*
X13936491Y-12551008D02*
X13955539Y-12541484D01*
X14107920Y-12741484D02*
X14107920Y-12608150D01*
X14107920Y-12627198D02*
X14117443Y-12617674D01*
X14117443Y-12617674D02*
X14136491Y-12608150D01*
X14136491Y-12608150D02*
X14165063Y-12608150D01*
X14165063Y-12608150D02*
X14184110Y-12617674D01*
X14184110Y-12617674D02*
X14193634Y-12636722D01*
X14193634Y-12636722D02*
X14193634Y-12741484D01*
X14193634Y-12636722D02*
X14203158Y-12617674D01*
X14203158Y-12617674D02*
X14222205Y-12608150D01*
X14222205Y-12608150D02*
X14250777Y-12608150D01*
X14250777Y-12608150D02*
X14269824Y-12617674D01*
X14269824Y-12617674D02*
X14279348Y-12636722D01*
X14279348Y-12636722D02*
X14279348Y-12741484D01*
X14374586Y-12741484D02*
X14374586Y-12608150D01*
X14374586Y-12627198D02*
X14384110Y-12617674D01*
X14384110Y-12617674D02*
X14403158Y-12608150D01*
X14403158Y-12608150D02*
X14431729Y-12608150D01*
X14431729Y-12608150D02*
X14450777Y-12617674D01*
X14450777Y-12617674D02*
X14460301Y-12636722D01*
X14460301Y-12636722D02*
X14460301Y-12741484D01*
X14460301Y-12636722D02*
X14469824Y-12617674D01*
X14469824Y-12617674D02*
X14488872Y-12608150D01*
X14488872Y-12608150D02*
X14517443Y-12608150D01*
X14517443Y-12608150D02*
X14536491Y-12617674D01*
X14536491Y-12617674D02*
X14546015Y-12636722D01*
X14546015Y-12636722D02*
X14546015Y-12741484D01*
X14936491Y-12531960D02*
X14765063Y-12789103D01*
X15193634Y-12541484D02*
X15212682Y-12541484D01*
X15212682Y-12541484D02*
X15231729Y-12551008D01*
X15231729Y-12551008D02*
X15241253Y-12560531D01*
X15241253Y-12560531D02*
X15250777Y-12579579D01*
X15250777Y-12579579D02*
X15260301Y-12617674D01*
X15260301Y-12617674D02*
X15260301Y-12665293D01*
X15260301Y-12665293D02*
X15250777Y-12703388D01*
X15250777Y-12703388D02*
X15241253Y-12722436D01*
X15241253Y-12722436D02*
X15231729Y-12731960D01*
X15231729Y-12731960D02*
X15212682Y-12741484D01*
X15212682Y-12741484D02*
X15193634Y-12741484D01*
X15193634Y-12741484D02*
X15174586Y-12731960D01*
X15174586Y-12731960D02*
X15165063Y-12722436D01*
X15165063Y-12722436D02*
X15155539Y-12703388D01*
X15155539Y-12703388D02*
X15146015Y-12665293D01*
X15146015Y-12665293D02*
X15146015Y-12617674D01*
X15146015Y-12617674D02*
X15155539Y-12579579D01*
X15155539Y-12579579D02*
X15165063Y-12560531D01*
X15165063Y-12560531D02*
X15174586Y-12551008D01*
X15174586Y-12551008D02*
X15193634Y-12541484D01*
X15346015Y-12722436D02*
X15355539Y-12731960D01*
X15355539Y-12731960D02*
X15346015Y-12741484D01*
X15346015Y-12741484D02*
X15336491Y-12731960D01*
X15336491Y-12731960D02*
X15346015Y-12722436D01*
X15346015Y-12722436D02*
X15346015Y-12741484D01*
X15479348Y-12541484D02*
X15498396Y-12541484D01*
X15498396Y-12541484D02*
X15517444Y-12551008D01*
X15517444Y-12551008D02*
X15526967Y-12560531D01*
X15526967Y-12560531D02*
X15536491Y-12579579D01*
X15536491Y-12579579D02*
X15546015Y-12617674D01*
X15546015Y-12617674D02*
X15546015Y-12665293D01*
X15546015Y-12665293D02*
X15536491Y-12703388D01*
X15536491Y-12703388D02*
X15526967Y-12722436D01*
X15526967Y-12722436D02*
X15517444Y-12731960D01*
X15517444Y-12731960D02*
X15498396Y-12741484D01*
X15498396Y-12741484D02*
X15479348Y-12741484D01*
X15479348Y-12741484D02*
X15460301Y-12731960D01*
X15460301Y-12731960D02*
X15450777Y-12722436D01*
X15450777Y-12722436D02*
X15441253Y-12703388D01*
X15441253Y-12703388D02*
X15431729Y-12665293D01*
X15431729Y-12665293D02*
X15431729Y-12617674D01*
X15431729Y-12617674D02*
X15441253Y-12579579D01*
X15441253Y-12579579D02*
X15450777Y-12560531D01*
X15450777Y-12560531D02*
X15460301Y-12551008D01*
X15460301Y-12551008D02*
X15479348Y-12541484D01*
X15622206Y-12560531D02*
X15631729Y-12551008D01*
X15631729Y-12551008D02*
X15650777Y-12541484D01*
X15650777Y-12541484D02*
X15698396Y-12541484D01*
X15698396Y-12541484D02*
X15717444Y-12551008D01*
X15717444Y-12551008D02*
X15726967Y-12560531D01*
X15726967Y-12560531D02*
X15736491Y-12579579D01*
X15736491Y-12579579D02*
X15736491Y-12598627D01*
X15736491Y-12598627D02*
X15726967Y-12627198D01*
X15726967Y-12627198D02*
X15612682Y-12741484D01*
X15612682Y-12741484D02*
X15736491Y-12741484D01*
X15917444Y-12541484D02*
X15822206Y-12541484D01*
X15822206Y-12541484D02*
X15812682Y-12636722D01*
X15812682Y-12636722D02*
X15822206Y-12627198D01*
X15822206Y-12627198D02*
X15841253Y-12617674D01*
X15841253Y-12617674D02*
X15888872Y-12617674D01*
X15888872Y-12617674D02*
X15907920Y-12627198D01*
X15907920Y-12627198D02*
X15917444Y-12636722D01*
X15917444Y-12636722D02*
X15926967Y-12655769D01*
X15926967Y-12655769D02*
X15926967Y-12703388D01*
X15926967Y-12703388D02*
X15917444Y-12722436D01*
X15917444Y-12722436D02*
X15907920Y-12731960D01*
X15907920Y-12731960D02*
X15888872Y-12741484D01*
X15888872Y-12741484D02*
X15841253Y-12741484D01*
X15841253Y-12741484D02*
X15822206Y-12731960D01*
X15822206Y-12731960D02*
X15812682Y-12722436D01*
X16098396Y-12541484D02*
X16060301Y-12541484D01*
X16060301Y-12541484D02*
X16041253Y-12551008D01*
X16041253Y-12551008D02*
X16031729Y-12560531D01*
X16031729Y-12560531D02*
X16012682Y-12589103D01*
X16012682Y-12589103D02*
X16003158Y-12627198D01*
X16003158Y-12627198D02*
X16003158Y-12703388D01*
X16003158Y-12703388D02*
X16012682Y-12722436D01*
X16012682Y-12722436D02*
X16022206Y-12731960D01*
X16022206Y-12731960D02*
X16041253Y-12741484D01*
X16041253Y-12741484D02*
X16079348Y-12741484D01*
X16079348Y-12741484D02*
X16098396Y-12731960D01*
X16098396Y-12731960D02*
X16107920Y-12722436D01*
X16107920Y-12722436D02*
X16117444Y-12703388D01*
X16117444Y-12703388D02*
X16117444Y-12655769D01*
X16117444Y-12655769D02*
X16107920Y-12636722D01*
X16107920Y-12636722D02*
X16098396Y-12627198D01*
X16098396Y-12627198D02*
X16079348Y-12617674D01*
X16079348Y-12617674D02*
X16041253Y-12617674D01*
X16041253Y-12617674D02*
X16022206Y-12627198D01*
X16022206Y-12627198D02*
X16012682Y-12636722D01*
X16012682Y-12636722D02*
X16003158Y-12655769D01*
X16193634Y-12541484D02*
X16193634Y-12579579D01*
X16269825Y-12541484D02*
X16269825Y-12579579D01*
X16565063Y-12817674D02*
X16555539Y-12808150D01*
X16555539Y-12808150D02*
X16536491Y-12779579D01*
X16536491Y-12779579D02*
X16526968Y-12760531D01*
X16526968Y-12760531D02*
X16517444Y-12731960D01*
X16517444Y-12731960D02*
X16507920Y-12684341D01*
X16507920Y-12684341D02*
X16507920Y-12646246D01*
X16507920Y-12646246D02*
X16517444Y-12598627D01*
X16517444Y-12598627D02*
X16526968Y-12570055D01*
X16526968Y-12570055D02*
X16536491Y-12551008D01*
X16536491Y-12551008D02*
X16555539Y-12522436D01*
X16555539Y-12522436D02*
X16565063Y-12512912D01*
X16631729Y-12560531D02*
X16641253Y-12551008D01*
X16641253Y-12551008D02*
X16660301Y-12541484D01*
X16660301Y-12541484D02*
X16707920Y-12541484D01*
X16707920Y-12541484D02*
X16726968Y-12551008D01*
X16726968Y-12551008D02*
X16736491Y-12560531D01*
X16736491Y-12560531D02*
X16746015Y-12579579D01*
X16746015Y-12579579D02*
X16746015Y-12598627D01*
X16746015Y-12598627D02*
X16736491Y-12627198D01*
X16736491Y-12627198D02*
X16622206Y-12741484D01*
X16622206Y-12741484D02*
X16746015Y-12741484D01*
X16984111Y-12741484D02*
X16984111Y-12541484D01*
X17069825Y-12741484D02*
X17069825Y-12636722D01*
X17069825Y-12636722D02*
X17060301Y-12617674D01*
X17060301Y-12617674D02*
X17041253Y-12608150D01*
X17041253Y-12608150D02*
X17012682Y-12608150D01*
X17012682Y-12608150D02*
X16993634Y-12617674D01*
X16993634Y-12617674D02*
X16984111Y-12627198D01*
X17193634Y-12741484D02*
X17174587Y-12731960D01*
X17174587Y-12731960D02*
X17165063Y-12722436D01*
X17165063Y-12722436D02*
X17155539Y-12703388D01*
X17155539Y-12703388D02*
X17155539Y-12646246D01*
X17155539Y-12646246D02*
X17165063Y-12627198D01*
X17165063Y-12627198D02*
X17174587Y-12617674D01*
X17174587Y-12617674D02*
X17193634Y-12608150D01*
X17193634Y-12608150D02*
X17222206Y-12608150D01*
X17222206Y-12608150D02*
X17241253Y-12617674D01*
X17241253Y-12617674D02*
X17250777Y-12627198D01*
X17250777Y-12627198D02*
X17260301Y-12646246D01*
X17260301Y-12646246D02*
X17260301Y-12703388D01*
X17260301Y-12703388D02*
X17250777Y-12722436D01*
X17250777Y-12722436D02*
X17241253Y-12731960D01*
X17241253Y-12731960D02*
X17222206Y-12741484D01*
X17222206Y-12741484D02*
X17193634Y-12741484D01*
X17374587Y-12741484D02*
X17355539Y-12731960D01*
X17355539Y-12731960D02*
X17346015Y-12712912D01*
X17346015Y-12712912D02*
X17346015Y-12541484D01*
X17526968Y-12731960D02*
X17507920Y-12741484D01*
X17507920Y-12741484D02*
X17469825Y-12741484D01*
X17469825Y-12741484D02*
X17450777Y-12731960D01*
X17450777Y-12731960D02*
X17441253Y-12712912D01*
X17441253Y-12712912D02*
X17441253Y-12636722D01*
X17441253Y-12636722D02*
X17450777Y-12617674D01*
X17450777Y-12617674D02*
X17469825Y-12608150D01*
X17469825Y-12608150D02*
X17507920Y-12608150D01*
X17507920Y-12608150D02*
X17526968Y-12617674D01*
X17526968Y-12617674D02*
X17536492Y-12636722D01*
X17536492Y-12636722D02*
X17536492Y-12655769D01*
X17536492Y-12655769D02*
X17441253Y-12674817D01*
X17612682Y-12731960D02*
X17631730Y-12741484D01*
X17631730Y-12741484D02*
X17669825Y-12741484D01*
X17669825Y-12741484D02*
X17688873Y-12731960D01*
X17688873Y-12731960D02*
X17698396Y-12712912D01*
X17698396Y-12712912D02*
X17698396Y-12703388D01*
X17698396Y-12703388D02*
X17688873Y-12684341D01*
X17688873Y-12684341D02*
X17669825Y-12674817D01*
X17669825Y-12674817D02*
X17641253Y-12674817D01*
X17641253Y-12674817D02*
X17622206Y-12665293D01*
X17622206Y-12665293D02*
X17612682Y-12646246D01*
X17612682Y-12646246D02*
X17612682Y-12636722D01*
X17612682Y-12636722D02*
X17622206Y-12617674D01*
X17622206Y-12617674D02*
X17641253Y-12608150D01*
X17641253Y-12608150D02*
X17669825Y-12608150D01*
X17669825Y-12608150D02*
X17688873Y-12617674D01*
X17765063Y-12817674D02*
X17774587Y-12808150D01*
X17774587Y-12808150D02*
X17793634Y-12779579D01*
X17793634Y-12779579D02*
X17803158Y-12760531D01*
X17803158Y-12760531D02*
X17812682Y-12731960D01*
X17812682Y-12731960D02*
X17822206Y-12684341D01*
X17822206Y-12684341D02*
X17822206Y-12646246D01*
X17822206Y-12646246D02*
X17812682Y-12598627D01*
X17812682Y-12598627D02*
X17803158Y-12570055D01*
X17803158Y-12570055D02*
X17793634Y-12551008D01*
X17793634Y-12551008D02*
X17774587Y-12522436D01*
X17774587Y-12522436D02*
X17765063Y-12512912D01*
X18126968Y-12817674D02*
X18117444Y-12808150D01*
X18117444Y-12808150D02*
X18098396Y-12779579D01*
X18098396Y-12779579D02*
X18088873Y-12760531D01*
X18088873Y-12760531D02*
X18079349Y-12731960D01*
X18079349Y-12731960D02*
X18069825Y-12684341D01*
X18069825Y-12684341D02*
X18069825Y-12646246D01*
X18069825Y-12646246D02*
X18079349Y-12598627D01*
X18079349Y-12598627D02*
X18088873Y-12570055D01*
X18088873Y-12570055D02*
X18098396Y-12551008D01*
X18098396Y-12551008D02*
X18117444Y-12522436D01*
X18117444Y-12522436D02*
X18126968Y-12512912D01*
X18203158Y-12608150D02*
X18203158Y-12741484D01*
X18203158Y-12627198D02*
X18212682Y-12617674D01*
X18212682Y-12617674D02*
X18231730Y-12608150D01*
X18231730Y-12608150D02*
X18260301Y-12608150D01*
X18260301Y-12608150D02*
X18279349Y-12617674D01*
X18279349Y-12617674D02*
X18288873Y-12636722D01*
X18288873Y-12636722D02*
X18288873Y-12741484D01*
X18412682Y-12741484D02*
X18393634Y-12731960D01*
X18393634Y-12731960D02*
X18384111Y-12722436D01*
X18384111Y-12722436D02*
X18374587Y-12703388D01*
X18374587Y-12703388D02*
X18374587Y-12646246D01*
X18374587Y-12646246D02*
X18384111Y-12627198D01*
X18384111Y-12627198D02*
X18393634Y-12617674D01*
X18393634Y-12617674D02*
X18412682Y-12608150D01*
X18412682Y-12608150D02*
X18441254Y-12608150D01*
X18441254Y-12608150D02*
X18460301Y-12617674D01*
X18460301Y-12617674D02*
X18469825Y-12627198D01*
X18469825Y-12627198D02*
X18479349Y-12646246D01*
X18479349Y-12646246D02*
X18479349Y-12703388D01*
X18479349Y-12703388D02*
X18469825Y-12722436D01*
X18469825Y-12722436D02*
X18460301Y-12731960D01*
X18460301Y-12731960D02*
X18441254Y-12741484D01*
X18441254Y-12741484D02*
X18412682Y-12741484D01*
X18536492Y-12608150D02*
X18612682Y-12608150D01*
X18565063Y-12541484D02*
X18565063Y-12712912D01*
X18565063Y-12712912D02*
X18574587Y-12731960D01*
X18574587Y-12731960D02*
X18593634Y-12741484D01*
X18593634Y-12741484D02*
X18612682Y-12741484D01*
X18831730Y-12608150D02*
X18831730Y-12808150D01*
X18831730Y-12617674D02*
X18850777Y-12608150D01*
X18850777Y-12608150D02*
X18888873Y-12608150D01*
X18888873Y-12608150D02*
X18907920Y-12617674D01*
X18907920Y-12617674D02*
X18917444Y-12627198D01*
X18917444Y-12627198D02*
X18926968Y-12646246D01*
X18926968Y-12646246D02*
X18926968Y-12703388D01*
X18926968Y-12703388D02*
X18917444Y-12722436D01*
X18917444Y-12722436D02*
X18907920Y-12731960D01*
X18907920Y-12731960D02*
X18888873Y-12741484D01*
X18888873Y-12741484D02*
X18850777Y-12741484D01*
X18850777Y-12741484D02*
X18831730Y-12731960D01*
X19041254Y-12741484D02*
X19022206Y-12731960D01*
X19022206Y-12731960D02*
X19012682Y-12712912D01*
X19012682Y-12712912D02*
X19012682Y-12541484D01*
X19203158Y-12741484D02*
X19203158Y-12636722D01*
X19203158Y-12636722D02*
X19193635Y-12617674D01*
X19193635Y-12617674D02*
X19174587Y-12608150D01*
X19174587Y-12608150D02*
X19136492Y-12608150D01*
X19136492Y-12608150D02*
X19117444Y-12617674D01*
X19203158Y-12731960D02*
X19184111Y-12741484D01*
X19184111Y-12741484D02*
X19136492Y-12741484D01*
X19136492Y-12741484D02*
X19117444Y-12731960D01*
X19117444Y-12731960D02*
X19107920Y-12712912D01*
X19107920Y-12712912D02*
X19107920Y-12693865D01*
X19107920Y-12693865D02*
X19117444Y-12674817D01*
X19117444Y-12674817D02*
X19136492Y-12665293D01*
X19136492Y-12665293D02*
X19184111Y-12665293D01*
X19184111Y-12665293D02*
X19203158Y-12655769D01*
X19269825Y-12608150D02*
X19346015Y-12608150D01*
X19298396Y-12541484D02*
X19298396Y-12712912D01*
X19298396Y-12712912D02*
X19307920Y-12731960D01*
X19307920Y-12731960D02*
X19326968Y-12741484D01*
X19326968Y-12741484D02*
X19346015Y-12741484D01*
X19488873Y-12731960D02*
X19469825Y-12741484D01*
X19469825Y-12741484D02*
X19431730Y-12741484D01*
X19431730Y-12741484D02*
X19412682Y-12731960D01*
X19412682Y-12731960D02*
X19403158Y-12712912D01*
X19403158Y-12712912D02*
X19403158Y-12636722D01*
X19403158Y-12636722D02*
X19412682Y-12617674D01*
X19412682Y-12617674D02*
X19431730Y-12608150D01*
X19431730Y-12608150D02*
X19469825Y-12608150D01*
X19469825Y-12608150D02*
X19488873Y-12617674D01*
X19488873Y-12617674D02*
X19498396Y-12636722D01*
X19498396Y-12636722D02*
X19498396Y-12655769D01*
X19498396Y-12655769D02*
X19403158Y-12674817D01*
X19669825Y-12741484D02*
X19669825Y-12541484D01*
X19669825Y-12731960D02*
X19650777Y-12741484D01*
X19650777Y-12741484D02*
X19612682Y-12741484D01*
X19612682Y-12741484D02*
X19593635Y-12731960D01*
X19593635Y-12731960D02*
X19584111Y-12722436D01*
X19584111Y-12722436D02*
X19574587Y-12703388D01*
X19574587Y-12703388D02*
X19574587Y-12646246D01*
X19574587Y-12646246D02*
X19584111Y-12627198D01*
X19584111Y-12627198D02*
X19593635Y-12617674D01*
X19593635Y-12617674D02*
X19612682Y-12608150D01*
X19612682Y-12608150D02*
X19650777Y-12608150D01*
X19650777Y-12608150D02*
X19669825Y-12617674D01*
X19746016Y-12817674D02*
X19755539Y-12808150D01*
X19755539Y-12808150D02*
X19774587Y-12779579D01*
X19774587Y-12779579D02*
X19784111Y-12760531D01*
X19784111Y-12760531D02*
X19793635Y-12731960D01*
X19793635Y-12731960D02*
X19803158Y-12684341D01*
X19803158Y-12684341D02*
X19803158Y-12646246D01*
X19803158Y-12646246D02*
X19793635Y-12598627D01*
X19793635Y-12598627D02*
X19784111Y-12570055D01*
X19784111Y-12570055D02*
X19774587Y-12551008D01*
X19774587Y-12551008D02*
X19755539Y-12522436D01*
X19755539Y-12522436D02*
X19746016Y-12512912D01*
M02*
