%TF.GenerationSoftware,KiCad,Pcbnew,7.0.7*%
%TF.CreationDate,2023-10-08T15:01:22+08:00*%
%TF.ProjectId,RM_47mm,524d5f34-376d-46d2-9e6b-696361645f70,rev?*%
%TF.SameCoordinates,Original*%
%TF.FileFunction,Legend,Bot*%
%TF.FilePolarity,Positive*%
%FSLAX46Y46*%
G04 Gerber Fmt 4.6, Leading zero omitted, Abs format (unit mm)*
G04 Created by KiCad (PCBNEW 7.0.7) date 2023-10-08 15:01:22*
%MOMM*%
%LPD*%
G01*
G04 APERTURE LIST*
%ADD10C,0.150000*%
%ADD11C,0.140000*%
%ADD12C,0.100000*%
%ADD13C,0.120000*%
G04 APERTURE END LIST*
D10*
X138927255Y-101257390D02*
X139003445Y-101219295D01*
X139003445Y-101219295D02*
X139117731Y-101219295D01*
X139117731Y-101219295D02*
X139232017Y-101257390D01*
X139232017Y-101257390D02*
X139308207Y-101333580D01*
X139308207Y-101333580D02*
X139346302Y-101409771D01*
X139346302Y-101409771D02*
X139384398Y-101562152D01*
X139384398Y-101562152D02*
X139384398Y-101676438D01*
X139384398Y-101676438D02*
X139346302Y-101828819D01*
X139346302Y-101828819D02*
X139308207Y-101905009D01*
X139308207Y-101905009D02*
X139232017Y-101981200D01*
X139232017Y-101981200D02*
X139117731Y-102019295D01*
X139117731Y-102019295D02*
X139041540Y-102019295D01*
X139041540Y-102019295D02*
X138927255Y-101981200D01*
X138927255Y-101981200D02*
X138889159Y-101943104D01*
X138889159Y-101943104D02*
X138889159Y-101676438D01*
X138889159Y-101676438D02*
X139041540Y-101676438D01*
X138546302Y-102019295D02*
X138546302Y-101219295D01*
X138546302Y-101219295D02*
X138089159Y-102019295D01*
X138089159Y-102019295D02*
X138089159Y-101219295D01*
X137708207Y-102019295D02*
X137708207Y-101219295D01*
X137708207Y-101219295D02*
X137517731Y-101219295D01*
X137517731Y-101219295D02*
X137403445Y-101257390D01*
X137403445Y-101257390D02*
X137327255Y-101333580D01*
X137327255Y-101333580D02*
X137289160Y-101409771D01*
X137289160Y-101409771D02*
X137251064Y-101562152D01*
X137251064Y-101562152D02*
X137251064Y-101676438D01*
X137251064Y-101676438D02*
X137289160Y-101828819D01*
X137289160Y-101828819D02*
X137327255Y-101905009D01*
X137327255Y-101905009D02*
X137403445Y-101981200D01*
X137403445Y-101981200D02*
X137517731Y-102019295D01*
X137517731Y-102019295D02*
X137708207Y-102019295D01*
X139193922Y-97719295D02*
X138698684Y-97719295D01*
X138698684Y-97719295D02*
X138965350Y-98024057D01*
X138965350Y-98024057D02*
X138851065Y-98024057D01*
X138851065Y-98024057D02*
X138774874Y-98062152D01*
X138774874Y-98062152D02*
X138736779Y-98100247D01*
X138736779Y-98100247D02*
X138698684Y-98176438D01*
X138698684Y-98176438D02*
X138698684Y-98366914D01*
X138698684Y-98366914D02*
X138736779Y-98443104D01*
X138736779Y-98443104D02*
X138774874Y-98481200D01*
X138774874Y-98481200D02*
X138851065Y-98519295D01*
X138851065Y-98519295D02*
X139079636Y-98519295D01*
X139079636Y-98519295D02*
X139155827Y-98481200D01*
X139155827Y-98481200D02*
X139193922Y-98443104D01*
X138470112Y-97719295D02*
X138203445Y-98519295D01*
X138203445Y-98519295D02*
X137936779Y-97719295D01*
X137746303Y-97719295D02*
X137251065Y-97719295D01*
X137251065Y-97719295D02*
X137517731Y-98024057D01*
X137517731Y-98024057D02*
X137403446Y-98024057D01*
X137403446Y-98024057D02*
X137327255Y-98062152D01*
X137327255Y-98062152D02*
X137289160Y-98100247D01*
X137289160Y-98100247D02*
X137251065Y-98176438D01*
X137251065Y-98176438D02*
X137251065Y-98366914D01*
X137251065Y-98366914D02*
X137289160Y-98443104D01*
X137289160Y-98443104D02*
X137327255Y-98481200D01*
X137327255Y-98481200D02*
X137403446Y-98519295D01*
X137403446Y-98519295D02*
X137632017Y-98519295D01*
X137632017Y-98519295D02*
X137708208Y-98481200D01*
X137708208Y-98481200D02*
X137746303Y-98443104D01*
X140870113Y-100856200D02*
X140755827Y-100894295D01*
X140755827Y-100894295D02*
X140565351Y-100894295D01*
X140565351Y-100894295D02*
X140489160Y-100856200D01*
X140489160Y-100856200D02*
X140451065Y-100818104D01*
X140451065Y-100818104D02*
X140412970Y-100741914D01*
X140412970Y-100741914D02*
X140412970Y-100665723D01*
X140412970Y-100665723D02*
X140451065Y-100589533D01*
X140451065Y-100589533D02*
X140489160Y-100551438D01*
X140489160Y-100551438D02*
X140565351Y-100513342D01*
X140565351Y-100513342D02*
X140717732Y-100475247D01*
X140717732Y-100475247D02*
X140793922Y-100437152D01*
X140793922Y-100437152D02*
X140832017Y-100399057D01*
X140832017Y-100399057D02*
X140870113Y-100322866D01*
X140870113Y-100322866D02*
X140870113Y-100246676D01*
X140870113Y-100246676D02*
X140832017Y-100170485D01*
X140832017Y-100170485D02*
X140793922Y-100132390D01*
X140793922Y-100132390D02*
X140717732Y-100094295D01*
X140717732Y-100094295D02*
X140527255Y-100094295D01*
X140527255Y-100094295D02*
X140412970Y-100132390D01*
X140146303Y-100094295D02*
X139955827Y-100894295D01*
X139955827Y-100894295D02*
X139803446Y-100322866D01*
X139803446Y-100322866D02*
X139651065Y-100894295D01*
X139651065Y-100894295D02*
X139460589Y-100094295D01*
X138698683Y-100818104D02*
X138736779Y-100856200D01*
X138736779Y-100856200D02*
X138851064Y-100894295D01*
X138851064Y-100894295D02*
X138927255Y-100894295D01*
X138927255Y-100894295D02*
X139041541Y-100856200D01*
X139041541Y-100856200D02*
X139117731Y-100780009D01*
X139117731Y-100780009D02*
X139155826Y-100703819D01*
X139155826Y-100703819D02*
X139193922Y-100551438D01*
X139193922Y-100551438D02*
X139193922Y-100437152D01*
X139193922Y-100437152D02*
X139155826Y-100284771D01*
X139155826Y-100284771D02*
X139117731Y-100208580D01*
X139117731Y-100208580D02*
X139041541Y-100132390D01*
X139041541Y-100132390D02*
X138927255Y-100094295D01*
X138927255Y-100094295D02*
X138851064Y-100094295D01*
X138851064Y-100094295D02*
X138736779Y-100132390D01*
X138736779Y-100132390D02*
X138698683Y-100170485D01*
X137974874Y-100894295D02*
X138355826Y-100894295D01*
X138355826Y-100894295D02*
X138355826Y-100094295D01*
X137708207Y-100894295D02*
X137708207Y-100094295D01*
X137251064Y-100894295D02*
X137593922Y-100437152D01*
X137251064Y-100094295D02*
X137708207Y-100551438D01*
X140641541Y-99731200D02*
X140527255Y-99769295D01*
X140527255Y-99769295D02*
X140336779Y-99769295D01*
X140336779Y-99769295D02*
X140260588Y-99731200D01*
X140260588Y-99731200D02*
X140222493Y-99693104D01*
X140222493Y-99693104D02*
X140184398Y-99616914D01*
X140184398Y-99616914D02*
X140184398Y-99540723D01*
X140184398Y-99540723D02*
X140222493Y-99464533D01*
X140222493Y-99464533D02*
X140260588Y-99426438D01*
X140260588Y-99426438D02*
X140336779Y-99388342D01*
X140336779Y-99388342D02*
X140489160Y-99350247D01*
X140489160Y-99350247D02*
X140565350Y-99312152D01*
X140565350Y-99312152D02*
X140603445Y-99274057D01*
X140603445Y-99274057D02*
X140641541Y-99197866D01*
X140641541Y-99197866D02*
X140641541Y-99121676D01*
X140641541Y-99121676D02*
X140603445Y-99045485D01*
X140603445Y-99045485D02*
X140565350Y-99007390D01*
X140565350Y-99007390D02*
X140489160Y-98969295D01*
X140489160Y-98969295D02*
X140298683Y-98969295D01*
X140298683Y-98969295D02*
X140184398Y-99007390D01*
X139917731Y-98969295D02*
X139727255Y-99769295D01*
X139727255Y-99769295D02*
X139574874Y-99197866D01*
X139574874Y-99197866D02*
X139422493Y-99769295D01*
X139422493Y-99769295D02*
X139232017Y-98969295D01*
X138927254Y-99769295D02*
X138927254Y-98969295D01*
X138927254Y-98969295D02*
X138736778Y-98969295D01*
X138736778Y-98969295D02*
X138622492Y-99007390D01*
X138622492Y-99007390D02*
X138546302Y-99083580D01*
X138546302Y-99083580D02*
X138508207Y-99159771D01*
X138508207Y-99159771D02*
X138470111Y-99312152D01*
X138470111Y-99312152D02*
X138470111Y-99426438D01*
X138470111Y-99426438D02*
X138508207Y-99578819D01*
X138508207Y-99578819D02*
X138546302Y-99655009D01*
X138546302Y-99655009D02*
X138622492Y-99731200D01*
X138622492Y-99731200D02*
X138736778Y-99769295D01*
X138736778Y-99769295D02*
X138927254Y-99769295D01*
X138127254Y-99769295D02*
X138127254Y-98969295D01*
X137593921Y-98969295D02*
X137441540Y-98969295D01*
X137441540Y-98969295D02*
X137365350Y-99007390D01*
X137365350Y-99007390D02*
X137289159Y-99083580D01*
X137289159Y-99083580D02*
X137251064Y-99235961D01*
X137251064Y-99235961D02*
X137251064Y-99502628D01*
X137251064Y-99502628D02*
X137289159Y-99655009D01*
X137289159Y-99655009D02*
X137365350Y-99731200D01*
X137365350Y-99731200D02*
X137441540Y-99769295D01*
X137441540Y-99769295D02*
X137593921Y-99769295D01*
X137593921Y-99769295D02*
X137670112Y-99731200D01*
X137670112Y-99731200D02*
X137746302Y-99655009D01*
X137746302Y-99655009D02*
X137784398Y-99502628D01*
X137784398Y-99502628D02*
X137784398Y-99235961D01*
X137784398Y-99235961D02*
X137746302Y-99083580D01*
X137746302Y-99083580D02*
X137670112Y-99007390D01*
X137670112Y-99007390D02*
X137593921Y-98969295D01*
X145452381Y-113254819D02*
X145785714Y-112778628D01*
X146023809Y-113254819D02*
X146023809Y-112254819D01*
X146023809Y-112254819D02*
X145642857Y-112254819D01*
X145642857Y-112254819D02*
X145547619Y-112302438D01*
X145547619Y-112302438D02*
X145500000Y-112350057D01*
X145500000Y-112350057D02*
X145452381Y-112445295D01*
X145452381Y-112445295D02*
X145452381Y-112588152D01*
X145452381Y-112588152D02*
X145500000Y-112683390D01*
X145500000Y-112683390D02*
X145547619Y-112731009D01*
X145547619Y-112731009D02*
X145642857Y-112778628D01*
X145642857Y-112778628D02*
X146023809Y-112778628D01*
X145023809Y-112731009D02*
X144690476Y-112731009D01*
X144547619Y-113254819D02*
X145023809Y-113254819D01*
X145023809Y-113254819D02*
X145023809Y-112254819D01*
X145023809Y-112254819D02*
X144547619Y-112254819D01*
X144166666Y-113207200D02*
X144023809Y-113254819D01*
X144023809Y-113254819D02*
X143785714Y-113254819D01*
X143785714Y-113254819D02*
X143690476Y-113207200D01*
X143690476Y-113207200D02*
X143642857Y-113159580D01*
X143642857Y-113159580D02*
X143595238Y-113064342D01*
X143595238Y-113064342D02*
X143595238Y-112969104D01*
X143595238Y-112969104D02*
X143642857Y-112873866D01*
X143642857Y-112873866D02*
X143690476Y-112826247D01*
X143690476Y-112826247D02*
X143785714Y-112778628D01*
X143785714Y-112778628D02*
X143976190Y-112731009D01*
X143976190Y-112731009D02*
X144071428Y-112683390D01*
X144071428Y-112683390D02*
X144119047Y-112635771D01*
X144119047Y-112635771D02*
X144166666Y-112540533D01*
X144166666Y-112540533D02*
X144166666Y-112445295D01*
X144166666Y-112445295D02*
X144119047Y-112350057D01*
X144119047Y-112350057D02*
X144071428Y-112302438D01*
X144071428Y-112302438D02*
X143976190Y-112254819D01*
X143976190Y-112254819D02*
X143738095Y-112254819D01*
X143738095Y-112254819D02*
X143595238Y-112302438D01*
X143166666Y-112731009D02*
X142833333Y-112731009D01*
X142690476Y-113254819D02*
X143166666Y-113254819D01*
X143166666Y-113254819D02*
X143166666Y-112254819D01*
X143166666Y-112254819D02*
X142690476Y-112254819D01*
X142404761Y-112254819D02*
X141833333Y-112254819D01*
X142119047Y-113254819D02*
X142119047Y-112254819D01*
X157952380Y-112254819D02*
X157714285Y-113254819D01*
X157714285Y-113254819D02*
X157523809Y-112540533D01*
X157523809Y-112540533D02*
X157333333Y-113254819D01*
X157333333Y-113254819D02*
X157095238Y-112254819D01*
X156714285Y-113254819D02*
X156714285Y-112254819D01*
X156142857Y-113254819D02*
X156571428Y-112683390D01*
X156142857Y-112254819D02*
X156714285Y-112826247D01*
X155714285Y-112254819D02*
X155714285Y-113064342D01*
X155714285Y-113064342D02*
X155666666Y-113159580D01*
X155666666Y-113159580D02*
X155619047Y-113207200D01*
X155619047Y-113207200D02*
X155523809Y-113254819D01*
X155523809Y-113254819D02*
X155333333Y-113254819D01*
X155333333Y-113254819D02*
X155238095Y-113207200D01*
X155238095Y-113207200D02*
X155190476Y-113159580D01*
X155190476Y-113159580D02*
X155142857Y-113064342D01*
X155142857Y-113064342D02*
X155142857Y-112254819D01*
X154666666Y-113254819D02*
X154666666Y-112254819D01*
X154666666Y-112254819D02*
X154285714Y-112254819D01*
X154285714Y-112254819D02*
X154190476Y-112302438D01*
X154190476Y-112302438D02*
X154142857Y-112350057D01*
X154142857Y-112350057D02*
X154095238Y-112445295D01*
X154095238Y-112445295D02*
X154095238Y-112588152D01*
X154095238Y-112588152D02*
X154142857Y-112683390D01*
X154142857Y-112683390D02*
X154190476Y-112731009D01*
X154190476Y-112731009D02*
X154285714Y-112778628D01*
X154285714Y-112778628D02*
X154666666Y-112778628D01*
X140136609Y-104076242D02*
X139755656Y-103809575D01*
X140136609Y-103619099D02*
X139336609Y-103619099D01*
X139336609Y-103619099D02*
X139336609Y-103923861D01*
X139336609Y-103923861D02*
X139374704Y-104000051D01*
X139374704Y-104000051D02*
X139412799Y-104038146D01*
X139412799Y-104038146D02*
X139488990Y-104076242D01*
X139488990Y-104076242D02*
X139603275Y-104076242D01*
X139603275Y-104076242D02*
X139679466Y-104038146D01*
X139679466Y-104038146D02*
X139717561Y-104000051D01*
X139717561Y-104000051D02*
X139755656Y-103923861D01*
X139755656Y-103923861D02*
X139755656Y-103619099D01*
X139336609Y-104342908D02*
X139336609Y-104876242D01*
X139336609Y-104876242D02*
X140136609Y-104533384D01*
X144114031Y-98360610D02*
X143733078Y-98093943D01*
X144114031Y-97903467D02*
X143314031Y-97903467D01*
X143314031Y-97903467D02*
X143314031Y-98208229D01*
X143314031Y-98208229D02*
X143352126Y-98284419D01*
X143352126Y-98284419D02*
X143390221Y-98322514D01*
X143390221Y-98322514D02*
X143466412Y-98360610D01*
X143466412Y-98360610D02*
X143580697Y-98360610D01*
X143580697Y-98360610D02*
X143656888Y-98322514D01*
X143656888Y-98322514D02*
X143694983Y-98284419D01*
X143694983Y-98284419D02*
X143733078Y-98208229D01*
X143733078Y-98208229D02*
X143733078Y-97903467D01*
X143314031Y-98627276D02*
X143314031Y-99122514D01*
X143314031Y-99122514D02*
X143618793Y-98855848D01*
X143618793Y-98855848D02*
X143618793Y-98970133D01*
X143618793Y-98970133D02*
X143656888Y-99046324D01*
X143656888Y-99046324D02*
X143694983Y-99084419D01*
X143694983Y-99084419D02*
X143771174Y-99122514D01*
X143771174Y-99122514D02*
X143961650Y-99122514D01*
X143961650Y-99122514D02*
X144037840Y-99084419D01*
X144037840Y-99084419D02*
X144075936Y-99046324D01*
X144075936Y-99046324D02*
X144114031Y-98970133D01*
X144114031Y-98970133D02*
X144114031Y-98741562D01*
X144114031Y-98741562D02*
X144075936Y-98665371D01*
X144075936Y-98665371D02*
X144037840Y-98627276D01*
X147766666Y-91894819D02*
X148099999Y-91418628D01*
X148338094Y-91894819D02*
X148338094Y-90894819D01*
X148338094Y-90894819D02*
X147957142Y-90894819D01*
X147957142Y-90894819D02*
X147861904Y-90942438D01*
X147861904Y-90942438D02*
X147814285Y-90990057D01*
X147814285Y-90990057D02*
X147766666Y-91085295D01*
X147766666Y-91085295D02*
X147766666Y-91228152D01*
X147766666Y-91228152D02*
X147814285Y-91323390D01*
X147814285Y-91323390D02*
X147861904Y-91371009D01*
X147861904Y-91371009D02*
X147957142Y-91418628D01*
X147957142Y-91418628D02*
X148338094Y-91418628D01*
X146909523Y-91228152D02*
X146909523Y-91894819D01*
X147147618Y-90847200D02*
X147385713Y-91561485D01*
X147385713Y-91561485D02*
X146766666Y-91561485D01*
X145761904Y-95254819D02*
X145761904Y-96064342D01*
X145761904Y-96064342D02*
X145714285Y-96159580D01*
X145714285Y-96159580D02*
X145666666Y-96207200D01*
X145666666Y-96207200D02*
X145571428Y-96254819D01*
X145571428Y-96254819D02*
X145380952Y-96254819D01*
X145380952Y-96254819D02*
X145285714Y-96207200D01*
X145285714Y-96207200D02*
X145238095Y-96159580D01*
X145238095Y-96159580D02*
X145190476Y-96064342D01*
X145190476Y-96064342D02*
X145190476Y-95254819D01*
X144190476Y-96254819D02*
X144761904Y-96254819D01*
X144476190Y-96254819D02*
X144476190Y-95254819D01*
X144476190Y-95254819D02*
X144571428Y-95397676D01*
X144571428Y-95397676D02*
X144666666Y-95492914D01*
X144666666Y-95492914D02*
X144761904Y-95540533D01*
X159639580Y-97433333D02*
X159687200Y-97385714D01*
X159687200Y-97385714D02*
X159734819Y-97242857D01*
X159734819Y-97242857D02*
X159734819Y-97147619D01*
X159734819Y-97147619D02*
X159687200Y-97004762D01*
X159687200Y-97004762D02*
X159591961Y-96909524D01*
X159591961Y-96909524D02*
X159496723Y-96861905D01*
X159496723Y-96861905D02*
X159306247Y-96814286D01*
X159306247Y-96814286D02*
X159163390Y-96814286D01*
X159163390Y-96814286D02*
X158972914Y-96861905D01*
X158972914Y-96861905D02*
X158877676Y-96909524D01*
X158877676Y-96909524D02*
X158782438Y-97004762D01*
X158782438Y-97004762D02*
X158734819Y-97147619D01*
X158734819Y-97147619D02*
X158734819Y-97242857D01*
X158734819Y-97242857D02*
X158782438Y-97385714D01*
X158782438Y-97385714D02*
X158830057Y-97433333D01*
X159734819Y-97909524D02*
X159734819Y-98100000D01*
X159734819Y-98100000D02*
X159687200Y-98195238D01*
X159687200Y-98195238D02*
X159639580Y-98242857D01*
X159639580Y-98242857D02*
X159496723Y-98338095D01*
X159496723Y-98338095D02*
X159306247Y-98385714D01*
X159306247Y-98385714D02*
X158925295Y-98385714D01*
X158925295Y-98385714D02*
X158830057Y-98338095D01*
X158830057Y-98338095D02*
X158782438Y-98290476D01*
X158782438Y-98290476D02*
X158734819Y-98195238D01*
X158734819Y-98195238D02*
X158734819Y-98004762D01*
X158734819Y-98004762D02*
X158782438Y-97909524D01*
X158782438Y-97909524D02*
X158830057Y-97861905D01*
X158830057Y-97861905D02*
X158925295Y-97814286D01*
X158925295Y-97814286D02*
X159163390Y-97814286D01*
X159163390Y-97814286D02*
X159258628Y-97861905D01*
X159258628Y-97861905D02*
X159306247Y-97909524D01*
X159306247Y-97909524D02*
X159353866Y-98004762D01*
X159353866Y-98004762D02*
X159353866Y-98195238D01*
X159353866Y-98195238D02*
X159306247Y-98290476D01*
X159306247Y-98290476D02*
X159258628Y-98338095D01*
X159258628Y-98338095D02*
X159163390Y-98385714D01*
D11*
X153174252Y-91892116D02*
X153212348Y-91930212D01*
X153212348Y-91930212D02*
X153326633Y-91968307D01*
X153326633Y-91968307D02*
X153402824Y-91968307D01*
X153402824Y-91968307D02*
X153517110Y-91930212D01*
X153517110Y-91930212D02*
X153593300Y-91854021D01*
X153593300Y-91854021D02*
X153631395Y-91777831D01*
X153631395Y-91777831D02*
X153669491Y-91625450D01*
X153669491Y-91625450D02*
X153669491Y-91511164D01*
X153669491Y-91511164D02*
X153631395Y-91358783D01*
X153631395Y-91358783D02*
X153593300Y-91282592D01*
X153593300Y-91282592D02*
X153517110Y-91206402D01*
X153517110Y-91206402D02*
X153402824Y-91168307D01*
X153402824Y-91168307D02*
X153326633Y-91168307D01*
X153326633Y-91168307D02*
X153212348Y-91206402D01*
X153212348Y-91206402D02*
X153174252Y-91244497D01*
X152412348Y-91968307D02*
X152869491Y-91968307D01*
X152640919Y-91968307D02*
X152640919Y-91168307D01*
X152640919Y-91168307D02*
X152717110Y-91282592D01*
X152717110Y-91282592D02*
X152793300Y-91358783D01*
X152793300Y-91358783D02*
X152869491Y-91396878D01*
X151650443Y-91968307D02*
X152107586Y-91968307D01*
X151879014Y-91968307D02*
X151879014Y-91168307D01*
X151879014Y-91168307D02*
X151955205Y-91282592D01*
X151955205Y-91282592D02*
X152031395Y-91358783D01*
X152031395Y-91358783D02*
X152107586Y-91396878D01*
D12*
X153618080Y-94509780D02*
X153618080Y-95043114D01*
X153808556Y-94205019D02*
X153999033Y-94776447D01*
X153999033Y-94776447D02*
X153503794Y-94776447D01*
X153199032Y-94966923D02*
X153160937Y-95005019D01*
X153160937Y-95005019D02*
X153199032Y-95043114D01*
X153199032Y-95043114D02*
X153237128Y-95005019D01*
X153237128Y-95005019D02*
X153199032Y-94966923D01*
X153199032Y-94966923D02*
X153199032Y-95043114D01*
X152894271Y-94243114D02*
X152360937Y-94243114D01*
X152360937Y-94243114D02*
X152703795Y-95043114D01*
X151713318Y-94509780D02*
X151713318Y-95043114D01*
X152056175Y-94509780D02*
X152056175Y-94928828D01*
X152056175Y-94928828D02*
X152018080Y-95005019D01*
X152018080Y-95005019D02*
X151941890Y-95043114D01*
X151941890Y-95043114D02*
X151827604Y-95043114D01*
X151827604Y-95043114D02*
X151751413Y-95005019D01*
X151751413Y-95005019D02*
X151713318Y-94966923D01*
X151446651Y-94509780D02*
X151141889Y-94509780D01*
X151332365Y-95043114D02*
X151332365Y-94357399D01*
X151332365Y-94357399D02*
X151294270Y-94281209D01*
X151294270Y-94281209D02*
X151218080Y-94243114D01*
X151218080Y-94243114D02*
X151141889Y-94243114D01*
D10*
X142641693Y-107400730D02*
X142679789Y-107438826D01*
X142679789Y-107438826D02*
X142794074Y-107476921D01*
X142794074Y-107476921D02*
X142870265Y-107476921D01*
X142870265Y-107476921D02*
X142984551Y-107438826D01*
X142984551Y-107438826D02*
X143060741Y-107362635D01*
X143060741Y-107362635D02*
X143098836Y-107286445D01*
X143098836Y-107286445D02*
X143136932Y-107134064D01*
X143136932Y-107134064D02*
X143136932Y-107019778D01*
X143136932Y-107019778D02*
X143098836Y-106867397D01*
X143098836Y-106867397D02*
X143060741Y-106791206D01*
X143060741Y-106791206D02*
X142984551Y-106715016D01*
X142984551Y-106715016D02*
X142870265Y-106676921D01*
X142870265Y-106676921D02*
X142794074Y-106676921D01*
X142794074Y-106676921D02*
X142679789Y-106715016D01*
X142679789Y-106715016D02*
X142641693Y-106753111D01*
X141879789Y-107476921D02*
X142336932Y-107476921D01*
X142108360Y-107476921D02*
X142108360Y-106676921D01*
X142108360Y-106676921D02*
X142184551Y-106791206D01*
X142184551Y-106791206D02*
X142260741Y-106867397D01*
X142260741Y-106867397D02*
X142336932Y-106905492D01*
X141575027Y-106753111D02*
X141536931Y-106715016D01*
X141536931Y-106715016D02*
X141460741Y-106676921D01*
X141460741Y-106676921D02*
X141270265Y-106676921D01*
X141270265Y-106676921D02*
X141194074Y-106715016D01*
X141194074Y-106715016D02*
X141155979Y-106753111D01*
X141155979Y-106753111D02*
X141117884Y-106829302D01*
X141117884Y-106829302D02*
X141117884Y-106905492D01*
X141117884Y-106905492D02*
X141155979Y-107019778D01*
X141155979Y-107019778D02*
X141613122Y-107476921D01*
X141613122Y-107476921D02*
X141117884Y-107476921D01*
X136819199Y-105946673D02*
X136857295Y-105908577D01*
X136857295Y-105908577D02*
X136895390Y-105794292D01*
X136895390Y-105794292D02*
X136895390Y-105718101D01*
X136895390Y-105718101D02*
X136857295Y-105603815D01*
X136857295Y-105603815D02*
X136781104Y-105527625D01*
X136781104Y-105527625D02*
X136704914Y-105489530D01*
X136704914Y-105489530D02*
X136552533Y-105451434D01*
X136552533Y-105451434D02*
X136438247Y-105451434D01*
X136438247Y-105451434D02*
X136285866Y-105489530D01*
X136285866Y-105489530D02*
X136209675Y-105527625D01*
X136209675Y-105527625D02*
X136133485Y-105603815D01*
X136133485Y-105603815D02*
X136095390Y-105718101D01*
X136095390Y-105718101D02*
X136095390Y-105794292D01*
X136095390Y-105794292D02*
X136133485Y-105908577D01*
X136133485Y-105908577D02*
X136171580Y-105946673D01*
X136895390Y-106708577D02*
X136895390Y-106251434D01*
X136895390Y-106480006D02*
X136095390Y-106480006D01*
X136095390Y-106480006D02*
X136209675Y-106403815D01*
X136209675Y-106403815D02*
X136285866Y-106327625D01*
X136285866Y-106327625D02*
X136323961Y-106251434D01*
X136095390Y-106975244D02*
X136095390Y-107470482D01*
X136095390Y-107470482D02*
X136400152Y-107203816D01*
X136400152Y-107203816D02*
X136400152Y-107318101D01*
X136400152Y-107318101D02*
X136438247Y-107394292D01*
X136438247Y-107394292D02*
X136476342Y-107432387D01*
X136476342Y-107432387D02*
X136552533Y-107470482D01*
X136552533Y-107470482D02*
X136743009Y-107470482D01*
X136743009Y-107470482D02*
X136819199Y-107432387D01*
X136819199Y-107432387D02*
X136857295Y-107394292D01*
X136857295Y-107394292D02*
X136895390Y-107318101D01*
X136895390Y-107318101D02*
X136895390Y-107089530D01*
X136895390Y-107089530D02*
X136857295Y-107013339D01*
X136857295Y-107013339D02*
X136819199Y-106975244D01*
X150193333Y-88354819D02*
X150193333Y-89069104D01*
X150193333Y-89069104D02*
X150240952Y-89211961D01*
X150240952Y-89211961D02*
X150336190Y-89307200D01*
X150336190Y-89307200D02*
X150479047Y-89354819D01*
X150479047Y-89354819D02*
X150574285Y-89354819D01*
X149193333Y-89354819D02*
X149764761Y-89354819D01*
X149479047Y-89354819D02*
X149479047Y-88354819D01*
X149479047Y-88354819D02*
X149574285Y-88497676D01*
X149574285Y-88497676D02*
X149669523Y-88592914D01*
X149669523Y-88592914D02*
X149764761Y-88640533D01*
X139127887Y-111028565D02*
X139461220Y-110552374D01*
X139699315Y-111028565D02*
X139699315Y-110028565D01*
X139699315Y-110028565D02*
X139318363Y-110028565D01*
X139318363Y-110028565D02*
X139223125Y-110076184D01*
X139223125Y-110076184D02*
X139175506Y-110123803D01*
X139175506Y-110123803D02*
X139127887Y-110219041D01*
X139127887Y-110219041D02*
X139127887Y-110361898D01*
X139127887Y-110361898D02*
X139175506Y-110457136D01*
X139175506Y-110457136D02*
X139223125Y-110504755D01*
X139223125Y-110504755D02*
X139318363Y-110552374D01*
X139318363Y-110552374D02*
X139699315Y-110552374D01*
X138270744Y-110028565D02*
X138461220Y-110028565D01*
X138461220Y-110028565D02*
X138556458Y-110076184D01*
X138556458Y-110076184D02*
X138604077Y-110123803D01*
X138604077Y-110123803D02*
X138699315Y-110266660D01*
X138699315Y-110266660D02*
X138746934Y-110457136D01*
X138746934Y-110457136D02*
X138746934Y-110838088D01*
X138746934Y-110838088D02*
X138699315Y-110933326D01*
X138699315Y-110933326D02*
X138651696Y-110980946D01*
X138651696Y-110980946D02*
X138556458Y-111028565D01*
X138556458Y-111028565D02*
X138365982Y-111028565D01*
X138365982Y-111028565D02*
X138270744Y-110980946D01*
X138270744Y-110980946D02*
X138223125Y-110933326D01*
X138223125Y-110933326D02*
X138175506Y-110838088D01*
X138175506Y-110838088D02*
X138175506Y-110599993D01*
X138175506Y-110599993D02*
X138223125Y-110504755D01*
X138223125Y-110504755D02*
X138270744Y-110457136D01*
X138270744Y-110457136D02*
X138365982Y-110409517D01*
X138365982Y-110409517D02*
X138556458Y-110409517D01*
X138556458Y-110409517D02*
X138651696Y-110457136D01*
X138651696Y-110457136D02*
X138699315Y-110504755D01*
X138699315Y-110504755D02*
X138746934Y-110599993D01*
X134074819Y-93646666D02*
X134789104Y-93646666D01*
X134789104Y-93646666D02*
X134931961Y-93599047D01*
X134931961Y-93599047D02*
X135027200Y-93503809D01*
X135027200Y-93503809D02*
X135074819Y-93360952D01*
X135074819Y-93360952D02*
X135074819Y-93265714D01*
X134170057Y-94075238D02*
X134122438Y-94122857D01*
X134122438Y-94122857D02*
X134074819Y-94218095D01*
X134074819Y-94218095D02*
X134074819Y-94456190D01*
X134074819Y-94456190D02*
X134122438Y-94551428D01*
X134122438Y-94551428D02*
X134170057Y-94599047D01*
X134170057Y-94599047D02*
X134265295Y-94646666D01*
X134265295Y-94646666D02*
X134360533Y-94646666D01*
X134360533Y-94646666D02*
X134503390Y-94599047D01*
X134503390Y-94599047D02*
X135074819Y-94027619D01*
X135074819Y-94027619D02*
X135074819Y-94646666D01*
X144102168Y-101646885D02*
X143721215Y-101380218D01*
X144102168Y-101189742D02*
X143302168Y-101189742D01*
X143302168Y-101189742D02*
X143302168Y-101494504D01*
X143302168Y-101494504D02*
X143340263Y-101570694D01*
X143340263Y-101570694D02*
X143378358Y-101608789D01*
X143378358Y-101608789D02*
X143454549Y-101646885D01*
X143454549Y-101646885D02*
X143568834Y-101646885D01*
X143568834Y-101646885D02*
X143645025Y-101608789D01*
X143645025Y-101608789D02*
X143683120Y-101570694D01*
X143683120Y-101570694D02*
X143721215Y-101494504D01*
X143721215Y-101494504D02*
X143721215Y-101189742D01*
X143378358Y-101951646D02*
X143340263Y-101989742D01*
X143340263Y-101989742D02*
X143302168Y-102065932D01*
X143302168Y-102065932D02*
X143302168Y-102256408D01*
X143302168Y-102256408D02*
X143340263Y-102332599D01*
X143340263Y-102332599D02*
X143378358Y-102370694D01*
X143378358Y-102370694D02*
X143454549Y-102408789D01*
X143454549Y-102408789D02*
X143530739Y-102408789D01*
X143530739Y-102408789D02*
X143645025Y-102370694D01*
X143645025Y-102370694D02*
X144102168Y-101913551D01*
X144102168Y-101913551D02*
X144102168Y-102408789D01*
X163484249Y-86513246D02*
X162911829Y-87085666D01*
X162911829Y-87085666D02*
X162810814Y-87119338D01*
X162810814Y-87119338D02*
X162743470Y-87119338D01*
X162743470Y-87119338D02*
X162642455Y-87085666D01*
X162642455Y-87085666D02*
X162507768Y-86950979D01*
X162507768Y-86950979D02*
X162474096Y-86849964D01*
X162474096Y-86849964D02*
X162474096Y-86782620D01*
X162474096Y-86782620D02*
X162507768Y-86681605D01*
X162507768Y-86681605D02*
X163080188Y-86109185D01*
X162709798Y-85873483D02*
X162709798Y-85806140D01*
X162709798Y-85806140D02*
X162676127Y-85705124D01*
X162676127Y-85705124D02*
X162507768Y-85536766D01*
X162507768Y-85536766D02*
X162406753Y-85503094D01*
X162406753Y-85503094D02*
X162339409Y-85503094D01*
X162339409Y-85503094D02*
X162238394Y-85536766D01*
X162238394Y-85536766D02*
X162171050Y-85604109D01*
X162171050Y-85604109D02*
X162103707Y-85738796D01*
X162103707Y-85738796D02*
X162103707Y-86546918D01*
X162103707Y-86546918D02*
X161665974Y-86109185D01*
X149630088Y-112398411D02*
X149249135Y-112131744D01*
X149630088Y-111941268D02*
X148830088Y-111941268D01*
X148830088Y-111941268D02*
X148830088Y-112246030D01*
X148830088Y-112246030D02*
X148868183Y-112322220D01*
X148868183Y-112322220D02*
X148906278Y-112360315D01*
X148906278Y-112360315D02*
X148982469Y-112398411D01*
X148982469Y-112398411D02*
X149096754Y-112398411D01*
X149096754Y-112398411D02*
X149172945Y-112360315D01*
X149172945Y-112360315D02*
X149211040Y-112322220D01*
X149211040Y-112322220D02*
X149249135Y-112246030D01*
X149249135Y-112246030D02*
X149249135Y-111941268D01*
X148830088Y-113122220D02*
X148830088Y-112741268D01*
X148830088Y-112741268D02*
X149211040Y-112703172D01*
X149211040Y-112703172D02*
X149172945Y-112741268D01*
X149172945Y-112741268D02*
X149134850Y-112817458D01*
X149134850Y-112817458D02*
X149134850Y-113007934D01*
X149134850Y-113007934D02*
X149172945Y-113084125D01*
X149172945Y-113084125D02*
X149211040Y-113122220D01*
X149211040Y-113122220D02*
X149287231Y-113160315D01*
X149287231Y-113160315D02*
X149477707Y-113160315D01*
X149477707Y-113160315D02*
X149553897Y-113122220D01*
X149553897Y-113122220D02*
X149591993Y-113084125D01*
X149591993Y-113084125D02*
X149630088Y-113007934D01*
X149630088Y-113007934D02*
X149630088Y-112817458D01*
X149630088Y-112817458D02*
X149591993Y-112741268D01*
X149591993Y-112741268D02*
X149553897Y-112703172D01*
X142735710Y-105844698D02*
X143002377Y-105463745D01*
X143192853Y-105844698D02*
X143192853Y-105044698D01*
X143192853Y-105044698D02*
X142888091Y-105044698D01*
X142888091Y-105044698D02*
X142811901Y-105082793D01*
X142811901Y-105082793D02*
X142773806Y-105120888D01*
X142773806Y-105120888D02*
X142735710Y-105197079D01*
X142735710Y-105197079D02*
X142735710Y-105311364D01*
X142735710Y-105311364D02*
X142773806Y-105387555D01*
X142773806Y-105387555D02*
X142811901Y-105425650D01*
X142811901Y-105425650D02*
X142888091Y-105463745D01*
X142888091Y-105463745D02*
X143192853Y-105463745D01*
X141973806Y-105844698D02*
X142430949Y-105844698D01*
X142202377Y-105844698D02*
X142202377Y-105044698D01*
X142202377Y-105044698D02*
X142278568Y-105158983D01*
X142278568Y-105158983D02*
X142354758Y-105235174D01*
X142354758Y-105235174D02*
X142430949Y-105273269D01*
X151316241Y-117101352D02*
X151173384Y-117148971D01*
X151173384Y-117148971D02*
X150935289Y-117148971D01*
X150935289Y-117148971D02*
X150840051Y-117101352D01*
X150840051Y-117101352D02*
X150792432Y-117053732D01*
X150792432Y-117053732D02*
X150744813Y-116958494D01*
X150744813Y-116958494D02*
X150744813Y-116863256D01*
X150744813Y-116863256D02*
X150792432Y-116768018D01*
X150792432Y-116768018D02*
X150840051Y-116720399D01*
X150840051Y-116720399D02*
X150935289Y-116672780D01*
X150935289Y-116672780D02*
X151125765Y-116625161D01*
X151125765Y-116625161D02*
X151221003Y-116577542D01*
X151221003Y-116577542D02*
X151268622Y-116529923D01*
X151268622Y-116529923D02*
X151316241Y-116434685D01*
X151316241Y-116434685D02*
X151316241Y-116339447D01*
X151316241Y-116339447D02*
X151268622Y-116244209D01*
X151268622Y-116244209D02*
X151221003Y-116196590D01*
X151221003Y-116196590D02*
X151125765Y-116148971D01*
X151125765Y-116148971D02*
X150887670Y-116148971D01*
X150887670Y-116148971D02*
X150744813Y-116196590D01*
X150411479Y-116148971D02*
X150173384Y-117148971D01*
X150173384Y-117148971D02*
X149982908Y-116434685D01*
X149982908Y-116434685D02*
X149792432Y-117148971D01*
X149792432Y-117148971D02*
X149554337Y-116148971D01*
X149268622Y-116148971D02*
X148649575Y-116148971D01*
X148649575Y-116148971D02*
X148982908Y-116529923D01*
X148982908Y-116529923D02*
X148840051Y-116529923D01*
X148840051Y-116529923D02*
X148744813Y-116577542D01*
X148744813Y-116577542D02*
X148697194Y-116625161D01*
X148697194Y-116625161D02*
X148649575Y-116720399D01*
X148649575Y-116720399D02*
X148649575Y-116958494D01*
X148649575Y-116958494D02*
X148697194Y-117053732D01*
X148697194Y-117053732D02*
X148744813Y-117101352D01*
X148744813Y-117101352D02*
X148840051Y-117148971D01*
X148840051Y-117148971D02*
X149125765Y-117148971D01*
X149125765Y-117148971D02*
X149221003Y-117101352D01*
X149221003Y-117101352D02*
X149268622Y-117053732D01*
X156034279Y-100375007D02*
X156081899Y-100327388D01*
X156081899Y-100327388D02*
X156129518Y-100184531D01*
X156129518Y-100184531D02*
X156129518Y-100089293D01*
X156129518Y-100089293D02*
X156081899Y-99946436D01*
X156081899Y-99946436D02*
X155986660Y-99851198D01*
X155986660Y-99851198D02*
X155891422Y-99803579D01*
X155891422Y-99803579D02*
X155700946Y-99755960D01*
X155700946Y-99755960D02*
X155558089Y-99755960D01*
X155558089Y-99755960D02*
X155367613Y-99803579D01*
X155367613Y-99803579D02*
X155272375Y-99851198D01*
X155272375Y-99851198D02*
X155177137Y-99946436D01*
X155177137Y-99946436D02*
X155129518Y-100089293D01*
X155129518Y-100089293D02*
X155129518Y-100184531D01*
X155129518Y-100184531D02*
X155177137Y-100327388D01*
X155177137Y-100327388D02*
X155224756Y-100375007D01*
X156129518Y-101327388D02*
X156129518Y-100755960D01*
X156129518Y-101041674D02*
X155129518Y-101041674D01*
X155129518Y-101041674D02*
X155272375Y-100946436D01*
X155272375Y-100946436D02*
X155367613Y-100851198D01*
X155367613Y-100851198D02*
X155415232Y-100755960D01*
X155129518Y-101946436D02*
X155129518Y-102041674D01*
X155129518Y-102041674D02*
X155177137Y-102136912D01*
X155177137Y-102136912D02*
X155224756Y-102184531D01*
X155224756Y-102184531D02*
X155319994Y-102232150D01*
X155319994Y-102232150D02*
X155510470Y-102279769D01*
X155510470Y-102279769D02*
X155748565Y-102279769D01*
X155748565Y-102279769D02*
X155939041Y-102232150D01*
X155939041Y-102232150D02*
X156034279Y-102184531D01*
X156034279Y-102184531D02*
X156081899Y-102136912D01*
X156081899Y-102136912D02*
X156129518Y-102041674D01*
X156129518Y-102041674D02*
X156129518Y-101946436D01*
X156129518Y-101946436D02*
X156081899Y-101851198D01*
X156081899Y-101851198D02*
X156034279Y-101803579D01*
X156034279Y-101803579D02*
X155939041Y-101755960D01*
X155939041Y-101755960D02*
X155748565Y-101708341D01*
X155748565Y-101708341D02*
X155510470Y-101708341D01*
X155510470Y-101708341D02*
X155319994Y-101755960D01*
X155319994Y-101755960D02*
X155224756Y-101803579D01*
X155224756Y-101803579D02*
X155177137Y-101851198D01*
X155177137Y-101851198D02*
X155129518Y-101946436D01*
D13*
%TO.C,SW1*%
X146200000Y-111750000D02*
X141800000Y-111750000D01*
X146200000Y-110050000D02*
X146200000Y-109950000D01*
X141800000Y-110050000D02*
X141800000Y-109950000D01*
X141800000Y-108250000D02*
X146200000Y-108250000D01*
%TO.C,SW2*%
X153800000Y-108250000D02*
X158200000Y-108250000D01*
X153800000Y-110050000D02*
X153800000Y-109950000D01*
X158200000Y-110050000D02*
X158200000Y-109950000D01*
X158200000Y-111750000D02*
X153800000Y-111750000D01*
%TO.C,R7*%
X139260788Y-106748966D02*
X139260788Y-106274450D01*
X140305788Y-106748966D02*
X140305788Y-106274450D01*
%TO.C,R3*%
X141495627Y-98792828D02*
X141495627Y-98318312D01*
X142540627Y-98792828D02*
X142540627Y-98318312D01*
%TO.C,R4*%
X147362742Y-92477500D02*
X147837258Y-92477500D01*
X147362742Y-93522500D02*
X147837258Y-93522500D01*
%TO.C,U1*%
X153610000Y-103610000D02*
X153610000Y-103160000D01*
X153610000Y-96840000D02*
X154900000Y-96840000D01*
X153610000Y-96390000D02*
X153610000Y-96840000D01*
X153160000Y-103610000D02*
X153610000Y-103610000D01*
X153160000Y-96390000D02*
X153610000Y-96390000D01*
X146840000Y-103610000D02*
X146390000Y-103610000D01*
X146840000Y-96390000D02*
X146390000Y-96390000D01*
X146390000Y-103610000D02*
X146390000Y-103160000D01*
X146390000Y-96390000D02*
X146390000Y-96840000D01*
%TO.C,C9*%
X157990000Y-97439420D02*
X157990000Y-97720580D01*
X156970000Y-97439420D02*
X156970000Y-97720580D01*
%TO.C,C11*%
X152640580Y-93510000D02*
X152359420Y-93510000D01*
X152640580Y-92490000D02*
X152359420Y-92490000D01*
%TO.C,G\u002A\u002A\u002A*%
G36*
X164315235Y-95796990D02*
G01*
X164308837Y-95803388D01*
X164302439Y-95796990D01*
X164308837Y-95790592D01*
X164315235Y-95796990D01*
G37*
G36*
X163867376Y-95899358D02*
G01*
X163860978Y-95905756D01*
X163854580Y-95899358D01*
X163860978Y-95892960D01*
X163867376Y-95899358D01*
G37*
G36*
X164494378Y-96065705D02*
G01*
X164487980Y-96072103D01*
X164481582Y-96065705D01*
X164487980Y-96059307D01*
X164494378Y-96065705D01*
G37*
G36*
X164878257Y-96411197D02*
G01*
X164871859Y-96417595D01*
X164865461Y-96411197D01*
X164871859Y-96404799D01*
X164878257Y-96411197D01*
G37*
G36*
X164942237Y-97268527D02*
G01*
X164935839Y-97274925D01*
X164929441Y-97268527D01*
X164935839Y-97262129D01*
X164942237Y-97268527D01*
G37*
G36*
X164635134Y-97652406D02*
G01*
X164628736Y-97658804D01*
X164622338Y-97652406D01*
X164628736Y-97646008D01*
X164635134Y-97652406D01*
G37*
G36*
X164468786Y-97703590D02*
G01*
X164462388Y-97709988D01*
X164455990Y-97703590D01*
X164462388Y-97697192D01*
X164468786Y-97703590D01*
G37*
G36*
X164972636Y-97137973D02*
G01*
X164971028Y-97142643D01*
X164965236Y-97144333D01*
X164939038Y-97142643D01*
X164936868Y-97138200D01*
X164955033Y-97136189D01*
X164972636Y-97137973D01*
G37*
G36*
X163573069Y-97837947D02*
G01*
X163572145Y-97844721D01*
X163564538Y-97846478D01*
X163563006Y-97844602D01*
X163564538Y-97829417D01*
X163568387Y-97827415D01*
X163573069Y-97837947D01*
G37*
G36*
X165024527Y-109624950D02*
G01*
X165028344Y-109630766D01*
X165023816Y-109633302D01*
X165003818Y-109631776D01*
X164997895Y-109627171D01*
X165011549Y-109624046D01*
X165024527Y-109624950D01*
G37*
G36*
X163661789Y-95783668D02*
G01*
X163670221Y-95789686D01*
X163673721Y-95798282D01*
X163655690Y-95795008D01*
X163646361Y-95790202D01*
X163642043Y-95781332D01*
X163645041Y-95779735D01*
X163661789Y-95783668D01*
G37*
G36*
X164355026Y-95971568D02*
G01*
X164362187Y-95983262D01*
X164363754Y-95992073D01*
X164347298Y-95987187D01*
X164338744Y-95981725D01*
X164336102Y-95967029D01*
X164341879Y-95962281D01*
X164355026Y-95971568D01*
G37*
G36*
X164558358Y-96059259D02*
G01*
X164549132Y-96073798D01*
X164528935Y-96083523D01*
X164511925Y-96081119D01*
X164513798Y-96073230D01*
X164531670Y-96059894D01*
X164550616Y-96052413D01*
X164558358Y-96059259D01*
G37*
G36*
X164904364Y-97115293D02*
G01*
X164912131Y-97123358D01*
X164902017Y-97135358D01*
X164892695Y-97139220D01*
X164880124Y-97132959D01*
X164878640Y-97126834D01*
X164884948Y-97111941D01*
X164904364Y-97115293D01*
G37*
G36*
X164815995Y-109617699D02*
G01*
X164825679Y-109626061D01*
X164816047Y-109633109D01*
X164804147Y-109634677D01*
X164789998Y-109628006D01*
X164792100Y-109615356D01*
X164797157Y-109613003D01*
X164815995Y-109617699D01*
G37*
G36*
X164378823Y-95899358D02*
G01*
X164377246Y-95908020D01*
X164366419Y-95931348D01*
X164359295Y-95940035D01*
X164354015Y-95937746D01*
X164355591Y-95929083D01*
X164366419Y-95905756D01*
X164373543Y-95897069D01*
X164378823Y-95899358D01*
G37*
G36*
X163039250Y-96609900D02*
G01*
X163048434Y-96622330D01*
X163045992Y-96628445D01*
X163028485Y-96635126D01*
X163019345Y-96633285D01*
X163016444Y-96622330D01*
X163019063Y-96618835D01*
X163036393Y-96609534D01*
X163039250Y-96609900D01*
G37*
G36*
X164993446Y-97279999D02*
G01*
X165005088Y-97288680D01*
X164995984Y-97309603D01*
X164985433Y-97316176D01*
X164970996Y-97300832D01*
X164966529Y-97293328D01*
X164963847Y-97280089D01*
X164981033Y-97278474D01*
X164993446Y-97279999D01*
G37*
G36*
X163125210Y-97459711D02*
G01*
X163123644Y-97469245D01*
X163112414Y-97479660D01*
X163109378Y-97479315D01*
X163099618Y-97467619D01*
X163100106Y-97464029D01*
X163112414Y-97447670D01*
X163119006Y-97446466D01*
X163125210Y-97459711D01*
G37*
G36*
X164438016Y-97714964D02*
G01*
X164434144Y-97735436D01*
X164427679Y-97749295D01*
X164415526Y-97753490D01*
X164414306Y-97752419D01*
X164414388Y-97737635D01*
X164424194Y-97719096D01*
X164437165Y-97709988D01*
X164438016Y-97714964D01*
G37*
G36*
X163544839Y-97774062D02*
G01*
X163564538Y-97782498D01*
X163566061Y-97784271D01*
X163566457Y-97797640D01*
X163560992Y-97798886D01*
X163544704Y-97789109D01*
X163538027Y-97780459D01*
X163542785Y-97773967D01*
X163544839Y-97774062D01*
G37*
G36*
X163882548Y-97854095D02*
G01*
X163892968Y-97872070D01*
X163891352Y-97881927D01*
X163883371Y-97881816D01*
X163880941Y-97879029D01*
X163860978Y-97860685D01*
X163857485Y-97855043D01*
X163870575Y-97850939D01*
X163882548Y-97854095D01*
G37*
G36*
X165031809Y-107871185D02*
G01*
X165027018Y-107877922D01*
X165006217Y-107882783D01*
X164991393Y-107881871D01*
X164980625Y-107877878D01*
X164985545Y-107873708D01*
X165006217Y-107866280D01*
X165021619Y-107864603D01*
X165031809Y-107871185D01*
G37*
G36*
X164926501Y-109598156D02*
G01*
X164925489Y-109607050D01*
X164900650Y-109610043D01*
X164895339Y-109609948D01*
X164881379Y-109606961D01*
X164890442Y-109598092D01*
X164901011Y-109593098D01*
X164919233Y-109592645D01*
X164926501Y-109598156D01*
G37*
G36*
X165031809Y-110941422D02*
G01*
X165029647Y-110947120D01*
X165012615Y-110953816D01*
X165003870Y-110953260D01*
X164993421Y-110948787D01*
X164995779Y-110945475D01*
X165012615Y-110936393D01*
X165022430Y-110934381D01*
X165031809Y-110941422D01*
G37*
G36*
X163092541Y-97531492D02*
G01*
X163098795Y-97539058D01*
X163091851Y-97561787D01*
X163088146Y-97569345D01*
X163072675Y-97581764D01*
X163059265Y-97576962D01*
X163057522Y-97556436D01*
X163064729Y-97541565D01*
X163081916Y-97530844D01*
X163092541Y-97531492D01*
G37*
G36*
X164592049Y-97617217D02*
G01*
X164589176Y-97625577D01*
X164599190Y-97634222D01*
X164608745Y-97635900D01*
X164599945Y-97641686D01*
X164575696Y-97645747D01*
X164566921Y-97636815D01*
X164578605Y-97619948D01*
X164592331Y-97610831D01*
X164592049Y-97617217D01*
G37*
G36*
X164494773Y-97770517D02*
G01*
X164497369Y-97789505D01*
X164493404Y-97801917D01*
X164486938Y-97812355D01*
X164482112Y-97808140D01*
X164470254Y-97789505D01*
X164469815Y-97788679D01*
X164465275Y-97771194D01*
X164480685Y-97766655D01*
X164494773Y-97770517D01*
G37*
G36*
X164813211Y-110093287D02*
G01*
X164817587Y-110097287D01*
X164835120Y-110114683D01*
X164833949Y-110121135D01*
X164814278Y-110122078D01*
X164797734Y-110117872D01*
X164788686Y-110096486D01*
X164789272Y-110082311D01*
X164795275Y-110078500D01*
X164813211Y-110093287D01*
G37*
G36*
X164286464Y-95782592D02*
G01*
X164286391Y-95797748D01*
X164272191Y-95826814D01*
X164269967Y-95830810D01*
X164260149Y-95846126D01*
X164256611Y-95840849D01*
X164256650Y-95812488D01*
X164256715Y-95810110D01*
X164261591Y-95780259D01*
X164273648Y-95774436D01*
X164286464Y-95782592D01*
G37*
G36*
X164103008Y-97846337D02*
G01*
X164092176Y-97857460D01*
X164074606Y-97882733D01*
X164066978Y-97895748D01*
X164060951Y-97899668D01*
X164059704Y-97879534D01*
X164060632Y-97861621D01*
X164064667Y-97850743D01*
X164071404Y-97849504D01*
X164093458Y-97843138D01*
X164105736Y-97840466D01*
X164103008Y-97846337D01*
G37*
G36*
X164199682Y-97962708D02*
G01*
X164198754Y-97980621D01*
X164194720Y-97991499D01*
X164187982Y-97992738D01*
X164165929Y-97999104D01*
X164153651Y-98001776D01*
X164156379Y-97995905D01*
X164167210Y-97984782D01*
X164184781Y-97959509D01*
X164192408Y-97946495D01*
X164198436Y-97942574D01*
X164199682Y-97962708D01*
G37*
G36*
X162953511Y-96128316D02*
G01*
X162964283Y-96131013D01*
X162997765Y-96135116D01*
X163039883Y-96137227D01*
X163106016Y-96138372D01*
X163042987Y-96155669D01*
X163038309Y-96156928D01*
X162988114Y-96165749D01*
X162956615Y-96160472D01*
X162947618Y-96154649D01*
X162934827Y-96138839D01*
X162936542Y-96127473D01*
X162953511Y-96128316D01*
G37*
G36*
X165031809Y-106691099D02*
G01*
X165030382Y-106693423D01*
X165013212Y-106703916D01*
X164983586Y-106717349D01*
X164950358Y-106730203D01*
X164922388Y-106738958D01*
X164908530Y-106740093D01*
X164912371Y-106736099D01*
X164933746Y-106724566D01*
X164968115Y-106709074D01*
X164994095Y-106698879D01*
X165021268Y-106690644D01*
X165031809Y-106691099D01*
G37*
G36*
X164959307Y-110965444D02*
G01*
X164935786Y-110977527D01*
X164925034Y-110982382D01*
X164884729Y-110998823D01*
X164852612Y-111009558D01*
X164844602Y-111010940D01*
X164848392Y-111006169D01*
X164871913Y-110994085D01*
X164882665Y-110989230D01*
X164922970Y-110972790D01*
X164955086Y-110962054D01*
X164963097Y-110960672D01*
X164959307Y-110965444D01*
G37*
G36*
X164541106Y-95901874D02*
G01*
X164547535Y-95904476D01*
X164554279Y-95911195D01*
X164537574Y-95919277D01*
X164520465Y-95927596D01*
X164487604Y-95962541D01*
X164468660Y-96018391D01*
X164459985Y-96065705D01*
X164444614Y-96028164D01*
X164437667Y-95987194D01*
X164447887Y-95947543D01*
X164471453Y-95916284D01*
X164503987Y-95899150D01*
X164541106Y-95901874D01*
G37*
G36*
X164961431Y-96366411D02*
G01*
X164974315Y-96388741D01*
X164980134Y-96398401D01*
X164979492Y-96398417D01*
X164963640Y-96398781D01*
X164933100Y-96399473D01*
X164932058Y-96399496D01*
X164903962Y-96399317D01*
X164898779Y-96395975D01*
X164913944Y-96387921D01*
X164931814Y-96375430D01*
X164942691Y-96354858D01*
X164942756Y-96353302D01*
X164947978Y-96347759D01*
X164961431Y-96366411D01*
G37*
G36*
X165068517Y-96692708D02*
G01*
X165068398Y-96705421D01*
X165055844Y-96736885D01*
X165022212Y-96755825D01*
X165015791Y-96757676D01*
X164997839Y-96757054D01*
X164993421Y-96738356D01*
X164995333Y-96722860D01*
X165003018Y-96713417D01*
X165010269Y-96714320D01*
X165044212Y-96709595D01*
X165061376Y-96689509D01*
X165062716Y-96684538D01*
X165066674Y-96676284D01*
X165068517Y-96692708D01*
G37*
G36*
X164593998Y-95937278D02*
G01*
X164611883Y-95957811D01*
X164614867Y-95981724D01*
X164611142Y-95992028D01*
X164605885Y-96017029D01*
X164600750Y-96025712D01*
X164580946Y-96019312D01*
X164568757Y-96011817D01*
X164563815Y-95999257D01*
X164575846Y-95976942D01*
X164577800Y-95973903D01*
X164587968Y-95949121D01*
X164579916Y-95930213D01*
X164578514Y-95928557D01*
X164578318Y-95925395D01*
X164593998Y-95937278D01*
G37*
G36*
X164060738Y-95740488D02*
G01*
X164063304Y-95749962D01*
X164052237Y-95774597D01*
X164044356Y-95791346D01*
X164034597Y-95837888D01*
X164046970Y-95881005D01*
X164053105Y-95896643D01*
X164049138Y-95905609D01*
X164034746Y-95898960D01*
X164015255Y-95877317D01*
X164002567Y-95853138D01*
X163995336Y-95822582D01*
X163997034Y-95808611D01*
X164010251Y-95776553D01*
X164031077Y-95750291D01*
X164052884Y-95739408D01*
X164060738Y-95740488D01*
G37*
G36*
X164135068Y-95746204D02*
G01*
X164154560Y-95767847D01*
X164167248Y-95792026D01*
X164174479Y-95822582D01*
X164172780Y-95836553D01*
X164159564Y-95868611D01*
X164138737Y-95894873D01*
X164116931Y-95905756D01*
X164109077Y-95904676D01*
X164106511Y-95895202D01*
X164117577Y-95870567D01*
X164125459Y-95853818D01*
X164135217Y-95807276D01*
X164122845Y-95764159D01*
X164116709Y-95748521D01*
X164120677Y-95739555D01*
X164135068Y-95746204D01*
G37*
G36*
X163776107Y-103232255D02*
G01*
X163790201Y-103253841D01*
X163797486Y-103273829D01*
X163800030Y-103299218D01*
X163786883Y-103320058D01*
X163754723Y-103344872D01*
X163731311Y-103360257D01*
X163698208Y-103375579D01*
X163672666Y-103374360D01*
X163647653Y-103357425D01*
X163630793Y-103338348D01*
X163627217Y-103316922D01*
X163643918Y-103293662D01*
X163682476Y-103264345D01*
X163723114Y-103239244D01*
X163755077Y-103227259D01*
X163776107Y-103232255D01*
G37*
G36*
X164940080Y-109488892D02*
G01*
X164992442Y-109491153D01*
X165022318Y-109496091D01*
X165031809Y-109503972D01*
X165029906Y-109508337D01*
X165009496Y-109517709D01*
X164971028Y-109523166D01*
X164938057Y-109524683D01*
X164880402Y-109524356D01*
X164832869Y-109520336D01*
X164800586Y-109513178D01*
X164788686Y-109503438D01*
X164789407Y-109501140D01*
X164806186Y-109494122D01*
X164846075Y-109490015D01*
X164910247Y-109488678D01*
X164940080Y-109488892D01*
G37*
G36*
X163975840Y-97850781D02*
G01*
X163990627Y-97853455D01*
X163997756Y-97864345D01*
X163999327Y-97889230D01*
X163997443Y-97933890D01*
X163995696Y-97961707D01*
X163991174Y-97995956D01*
X163983564Y-98012677D01*
X163971221Y-98017091D01*
X163961898Y-98015699D01*
X163953489Y-98003269D01*
X163954482Y-97972623D01*
X163954252Y-97930535D01*
X163946180Y-97889450D01*
X163938656Y-97863387D01*
X163944162Y-97852632D01*
X163967210Y-97850716D01*
X163975840Y-97850781D01*
G37*
G36*
X163968620Y-100803890D02*
G01*
X163987111Y-100828524D01*
X163997461Y-100862760D01*
X163990302Y-100901473D01*
X163964475Y-100931970D01*
X163923816Y-100950137D01*
X163872158Y-100951860D01*
X163871218Y-100951727D01*
X163838465Y-100945202D01*
X163825383Y-100935461D01*
X163826194Y-100918283D01*
X163827029Y-100915588D01*
X163842345Y-100889313D01*
X163868873Y-100857412D01*
X163900054Y-100826472D01*
X163929330Y-100803078D01*
X163950141Y-100793816D01*
X163968620Y-100803890D01*
G37*
G36*
X164792510Y-97455831D02*
G01*
X164801573Y-97463735D01*
X164834626Y-97487514D01*
X164862005Y-97500647D01*
X164867725Y-97502225D01*
X164883069Y-97512398D01*
X164877683Y-97531917D01*
X164877612Y-97532050D01*
X164868990Y-97544106D01*
X164857280Y-97545609D01*
X164836708Y-97534929D01*
X164801498Y-97510440D01*
X164771179Y-97490775D01*
X164740959Y-97476065D01*
X164723712Y-97473877D01*
X164722595Y-97474502D01*
X164719915Y-97470047D01*
X164730402Y-97450538D01*
X164751548Y-97418265D01*
X164792510Y-97455831D01*
G37*
G36*
X164939038Y-96993021D02*
G01*
X164968718Y-97001616D01*
X165009970Y-97011932D01*
X165035648Y-97023428D01*
X165056045Y-97047702D01*
X165059535Y-97059126D01*
X165058600Y-97102199D01*
X165034769Y-97136949D01*
X165025064Y-97144586D01*
X165021662Y-97143808D01*
X165032859Y-97124528D01*
X165040889Y-97107687D01*
X165039140Y-97077992D01*
X165013142Y-97055284D01*
X164963267Y-97040014D01*
X164934232Y-97033413D01*
X164910590Y-97021943D01*
X164903849Y-97005491D01*
X164904658Y-96995702D01*
X164913833Y-96987668D01*
X164939038Y-96993021D01*
G37*
G36*
X164927878Y-106340911D02*
G01*
X164979783Y-106342015D01*
X165011547Y-106345123D01*
X165027458Y-106350914D01*
X165031809Y-106360063D01*
X165031542Y-106362847D01*
X165024552Y-106371042D01*
X165004866Y-106376058D01*
X164968195Y-106378570D01*
X164910247Y-106379257D01*
X164892617Y-106379215D01*
X164840712Y-106378111D01*
X164808948Y-106375003D01*
X164793036Y-106369213D01*
X164788686Y-106360063D01*
X164788953Y-106357279D01*
X164795943Y-106349084D01*
X164815629Y-106344068D01*
X164852300Y-106341556D01*
X164910247Y-106340869D01*
X164927878Y-106340911D01*
G37*
G36*
X164910219Y-107726911D02*
G01*
X164961747Y-107729287D01*
X165003025Y-107733444D01*
X165025202Y-107739615D01*
X165031809Y-107748426D01*
X165027291Y-107755967D01*
X165007957Y-107762535D01*
X164970110Y-107766985D01*
X164910219Y-107769941D01*
X164909045Y-107769980D01*
X164853017Y-107771497D01*
X164817715Y-107770941D01*
X164798386Y-107767472D01*
X164790275Y-107760247D01*
X164788628Y-107748426D01*
X164788629Y-107748179D01*
X164790347Y-107736444D01*
X164798610Y-107729291D01*
X164818174Y-107725878D01*
X164853792Y-107725366D01*
X164910219Y-107726911D01*
G37*
G36*
X164927878Y-108170735D02*
G01*
X164979783Y-108171839D01*
X165011547Y-108174947D01*
X165027458Y-108180737D01*
X165031809Y-108189887D01*
X165031542Y-108192671D01*
X165024552Y-108200866D01*
X165004866Y-108205881D01*
X164968195Y-108208394D01*
X164910247Y-108209081D01*
X164892617Y-108209039D01*
X164840712Y-108207935D01*
X164808948Y-108204827D01*
X164793036Y-108199036D01*
X164788686Y-108189887D01*
X164788953Y-108187103D01*
X164795943Y-108178907D01*
X164815629Y-108173892D01*
X164852300Y-108171380D01*
X164910247Y-108170693D01*
X164927878Y-108170735D01*
G37*
G36*
X163225157Y-109503553D02*
G01*
X163249454Y-109516710D01*
X163282765Y-109538804D01*
X163307535Y-109555518D01*
X163350136Y-109581088D01*
X163384493Y-109598104D01*
X163386532Y-109598920D01*
X163419369Y-109613755D01*
X163441910Y-109626747D01*
X163450916Y-109635824D01*
X163456216Y-109662576D01*
X163437797Y-109692499D01*
X163405494Y-109709525D01*
X163366730Y-109705133D01*
X163325313Y-109680918D01*
X163284649Y-109638882D01*
X163248142Y-109581026D01*
X163230722Y-109544765D01*
X163218878Y-109515314D01*
X163216559Y-109501829D01*
X163225157Y-109503553D01*
G37*
G36*
X164812543Y-111025503D02*
G01*
X164847063Y-111041521D01*
X164866136Y-111050098D01*
X164915118Y-111070275D01*
X164964630Y-111088834D01*
X164992109Y-111099899D01*
X165020715Y-111115789D01*
X165031809Y-111128516D01*
X165031804Y-111128782D01*
X165022566Y-111134295D01*
X164994408Y-111128741D01*
X164945436Y-111111752D01*
X164897785Y-111093729D01*
X164853707Y-111077242D01*
X164823875Y-111066288D01*
X164799466Y-111052495D01*
X164788686Y-111035738D01*
X164788686Y-111035600D01*
X164789338Y-111023135D01*
X164795296Y-111019572D01*
X164812543Y-111025503D01*
G37*
G36*
X164678949Y-97533727D02*
G01*
X164692578Y-97555133D01*
X164711914Y-97597498D01*
X164712224Y-97598225D01*
X164728142Y-97639887D01*
X164737146Y-97672250D01*
X164737295Y-97688362D01*
X164735240Y-97689790D01*
X164715241Y-97689274D01*
X164684910Y-97678897D01*
X164674616Y-97673983D01*
X164661835Y-97666008D01*
X164670323Y-97666196D01*
X164671856Y-97666573D01*
X164690757Y-97669577D01*
X164697198Y-97663296D01*
X164691423Y-97643241D01*
X164673679Y-97604924D01*
X164662640Y-97579995D01*
X164656226Y-97552548D01*
X164662886Y-97534639D01*
X164668479Y-97530015D01*
X164678949Y-97533727D01*
G37*
G36*
X164171920Y-97853302D02*
G01*
X164179352Y-97861849D01*
X164185779Y-97883117D01*
X164172995Y-97907357D01*
X164139290Y-97939060D01*
X164117792Y-97957189D01*
X164102241Y-97973942D01*
X164102516Y-97985412D01*
X164116144Y-97997883D01*
X164130013Y-98010970D01*
X164128677Y-98016636D01*
X164112980Y-98011996D01*
X164087755Y-97997171D01*
X164076602Y-97988408D01*
X164061178Y-97963819D01*
X164070584Y-97938963D01*
X164105108Y-97912434D01*
X164116648Y-97905241D01*
X164141119Y-97883077D01*
X164144694Y-97861681D01*
X164142789Y-97845830D01*
X164151544Y-97838928D01*
X164171920Y-97853302D01*
G37*
G36*
X164393575Y-95829168D02*
G01*
X164404142Y-95839161D01*
X164395014Y-95860970D01*
X164388266Y-95868040D01*
X164360069Y-95887299D01*
X164321155Y-95907367D01*
X164279650Y-95924690D01*
X164243686Y-95935713D01*
X164221391Y-95936882D01*
X164209677Y-95929848D01*
X164209689Y-95919970D01*
X164220007Y-95910053D01*
X164237320Y-95886562D01*
X164242547Y-95878292D01*
X164249194Y-95870460D01*
X164245876Y-95884272D01*
X164244352Y-95892120D01*
X164250222Y-95896310D01*
X164269898Y-95888699D01*
X164307248Y-95868277D01*
X164339875Y-95850508D01*
X164372277Y-95834963D01*
X164390369Y-95828980D01*
X164393575Y-95829168D01*
G37*
G36*
X163626812Y-96427831D02*
G01*
X163628493Y-96429301D01*
X163653169Y-96439155D01*
X163688232Y-96443187D01*
X163692713Y-96443116D01*
X163727214Y-96438175D01*
X163749653Y-96427831D01*
X163757434Y-96422715D01*
X163763025Y-96431906D01*
X163763998Y-96463020D01*
X163763515Y-96475575D01*
X163760699Y-96496707D01*
X163756534Y-96497569D01*
X163751478Y-96492227D01*
X163723213Y-96484308D01*
X163673001Y-96481574D01*
X163645934Y-96481291D01*
X163615549Y-96478830D01*
X163603088Y-96472651D01*
X163603689Y-96461334D01*
X163607132Y-96450871D01*
X163611456Y-96426785D01*
X163613828Y-96419748D01*
X163626812Y-96427831D01*
G37*
G36*
X165025931Y-96615096D02*
G01*
X165046691Y-96631958D01*
X165057274Y-96647790D01*
X165053027Y-96655056D01*
X165032857Y-96648483D01*
X165020729Y-96643964D01*
X164982827Y-96641874D01*
X164943514Y-96650630D01*
X164915876Y-96668043D01*
X164905518Y-96692307D01*
X164913753Y-96722251D01*
X164942351Y-96746581D01*
X164974227Y-96762708D01*
X164939618Y-96762897D01*
X164919891Y-96760937D01*
X164905117Y-96748248D01*
X164896423Y-96717321D01*
X164895941Y-96714571D01*
X164894453Y-96674767D01*
X164901422Y-96641742D01*
X164912521Y-96625492D01*
X164945580Y-96605522D01*
X164986506Y-96601389D01*
X165025931Y-96615096D01*
G37*
G36*
X163813352Y-97846106D02*
G01*
X163831480Y-97854909D01*
X163836198Y-97874722D01*
X163834264Y-97883108D01*
X163829727Y-97915433D01*
X163826242Y-97956300D01*
X163822465Y-97991903D01*
X163814388Y-98011743D01*
X163799756Y-98017081D01*
X163792605Y-98016523D01*
X163783386Y-98009411D01*
X163781233Y-97989232D01*
X163784793Y-97949912D01*
X163787967Y-97924798D01*
X163793615Y-97887391D01*
X163798214Y-97865211D01*
X163798368Y-97864711D01*
X163794935Y-97853051D01*
X163771590Y-97853840D01*
X163750068Y-97855107D01*
X163739416Y-97848969D01*
X163747184Y-97840703D01*
X163773713Y-97838874D01*
X163813352Y-97846106D01*
G37*
G36*
X163619953Y-95772264D02*
G01*
X163601859Y-95786021D01*
X163598948Y-95788216D01*
X163577220Y-95820226D01*
X163575229Y-95861157D01*
X163593498Y-95903637D01*
X163600364Y-95912068D01*
X163629471Y-95928085D01*
X163659768Y-95921452D01*
X163684524Y-95892960D01*
X163694738Y-95873611D01*
X163699861Y-95870752D01*
X163700840Y-95889311D01*
X163700167Y-95897139D01*
X163684715Y-95923266D01*
X163654664Y-95939589D01*
X163617783Y-95944704D01*
X163581839Y-95937210D01*
X163554600Y-95915705D01*
X163537126Y-95877782D01*
X163538262Y-95834493D01*
X163561512Y-95798061D01*
X163605058Y-95773609D01*
X163617357Y-95770081D01*
X163619953Y-95772264D01*
G37*
G36*
X164884248Y-96232806D02*
G01*
X164892187Y-96244649D01*
X164901748Y-96264474D01*
X164903668Y-96276413D01*
X164895824Y-96273079D01*
X164891708Y-96272165D01*
X164871485Y-96279768D01*
X164842208Y-96296946D01*
X164811140Y-96318773D01*
X164785541Y-96340320D01*
X164772672Y-96356659D01*
X164771225Y-96359029D01*
X164760795Y-96354307D01*
X164745812Y-96331565D01*
X164735777Y-96310917D01*
X164732721Y-96296889D01*
X164742613Y-96297310D01*
X164743817Y-96297672D01*
X164765354Y-96293735D01*
X164796633Y-96279001D01*
X164829307Y-96258619D01*
X164855032Y-96237738D01*
X164865461Y-96221509D01*
X164870358Y-96218890D01*
X164884248Y-96232806D01*
G37*
G36*
X164948956Y-109923482D02*
G01*
X164996265Y-109947746D01*
X165026743Y-109987410D01*
X165031788Y-109999214D01*
X165041658Y-110029992D01*
X165039682Y-110055704D01*
X165025726Y-110090088D01*
X165008001Y-110128476D01*
X165015013Y-110087360D01*
X165017507Y-110036773D01*
X165001983Y-109991861D01*
X164966089Y-109961229D01*
X164956089Y-109956594D01*
X164904226Y-109946989D01*
X164854500Y-109958600D01*
X164814832Y-109989922D01*
X164810277Y-109995559D01*
X164793984Y-110010663D01*
X164788686Y-110003380D01*
X164789618Y-109997018D01*
X164805765Y-109971312D01*
X164835712Y-109945397D01*
X164871265Y-109925373D01*
X164904229Y-109917343D01*
X164948956Y-109923482D01*
G37*
G36*
X163671658Y-97816504D02*
G01*
X163681253Y-97819714D01*
X163700411Y-97829325D01*
X163699472Y-97835771D01*
X163688767Y-97840532D01*
X163660111Y-97861727D01*
X163630757Y-97891215D01*
X163607881Y-97921277D01*
X163598660Y-97944194D01*
X163594991Y-97959796D01*
X163578420Y-97960878D01*
X163567898Y-97957368D01*
X163545516Y-97953111D01*
X163542103Y-97948406D01*
X163552961Y-97933003D01*
X163564847Y-97918538D01*
X163573069Y-97899656D01*
X163573097Y-97899075D01*
X163583156Y-97882188D01*
X163605836Y-97860641D01*
X163607709Y-97859133D01*
X163627654Y-97836895D01*
X163632404Y-97818710D01*
X163631390Y-97811604D01*
X163642032Y-97808996D01*
X163671658Y-97816504D01*
G37*
G36*
X164887068Y-106749091D02*
G01*
X164876434Y-106757640D01*
X164850120Y-106769076D01*
X164807880Y-106784373D01*
X164903641Y-106821740D01*
X164915253Y-106826225D01*
X164960890Y-106842953D01*
X164996647Y-106854683D01*
X165015606Y-106859106D01*
X165025395Y-106864660D01*
X165031809Y-106886265D01*
X165028348Y-106904290D01*
X165015814Y-106901120D01*
X165010942Y-106898070D01*
X164984664Y-106885168D01*
X164943593Y-106867152D01*
X164894252Y-106846931D01*
X164872281Y-106837950D01*
X164829448Y-106818673D01*
X164799778Y-106802780D01*
X164788686Y-106793035D01*
X164794019Y-106785569D01*
X164815564Y-106771551D01*
X164844704Y-106757650D01*
X164871669Y-106748344D01*
X164886692Y-106748111D01*
X164887068Y-106749091D01*
G37*
G36*
X163806731Y-96050799D02*
G01*
X163810654Y-96051190D01*
X163864865Y-96063824D01*
X163911473Y-96086224D01*
X163937243Y-96108261D01*
X163943363Y-96129027D01*
X163925812Y-96148808D01*
X163883782Y-96170055D01*
X163883309Y-96170253D01*
X163843237Y-96184412D01*
X163819516Y-96187571D01*
X163814557Y-96180082D01*
X163830769Y-96162299D01*
X163860978Y-96137330D01*
X163798163Y-96155901D01*
X163787974Y-96158852D01*
X163732996Y-96171672D01*
X163699532Y-96172979D01*
X163688232Y-96162734D01*
X163691942Y-96157394D01*
X163713507Y-96144384D01*
X163747627Y-96129550D01*
X163786567Y-96116090D01*
X163822590Y-96107202D01*
X163824205Y-96106907D01*
X163834534Y-96101815D01*
X163826228Y-96091861D01*
X163796998Y-96074087D01*
X163745814Y-96045403D01*
X163806731Y-96050799D01*
G37*
G36*
X164840999Y-96419537D02*
G01*
X164858269Y-96429105D01*
X164866207Y-96434753D01*
X164893751Y-96445573D01*
X164932601Y-96456384D01*
X164958915Y-96462854D01*
X164993163Y-96472329D01*
X165011384Y-96478835D01*
X165010380Y-96484576D01*
X164992416Y-96498713D01*
X164960200Y-96516765D01*
X164935793Y-96529720D01*
X164902235Y-96550448D01*
X164883027Y-96566276D01*
X164879952Y-96570019D01*
X164869206Y-96575930D01*
X164861827Y-96558631D01*
X164859476Y-96543769D01*
X164863583Y-96537995D01*
X164865743Y-96538610D01*
X164885922Y-96535007D01*
X164916772Y-96523507D01*
X164961431Y-96503747D01*
X164893327Y-96483064D01*
X164856080Y-96468821D01*
X164825592Y-96451352D01*
X164808093Y-96434795D01*
X164806989Y-96422444D01*
X164825683Y-96417595D01*
X164840999Y-96419537D01*
G37*
G36*
X163835386Y-97562659D02*
G01*
X163838891Y-97563483D01*
X163877109Y-97577755D01*
X163915587Y-97598858D01*
X163957399Y-97626814D01*
X163923792Y-97653996D01*
X163922066Y-97655368D01*
X163874515Y-97682670D01*
X163816884Y-97702338D01*
X163763523Y-97709409D01*
X163757638Y-97709154D01*
X163748734Y-97705628D01*
X163759037Y-97696218D01*
X163790600Y-97678585D01*
X163848182Y-97648339D01*
X163809794Y-97639735D01*
X163761185Y-97626849D01*
X163722550Y-97612494D01*
X163699747Y-97599322D01*
X163694856Y-97589150D01*
X163709961Y-97583793D01*
X163747141Y-97585068D01*
X163766665Y-97587427D01*
X163807522Y-97594061D01*
X163835386Y-97600864D01*
X163847506Y-97604414D01*
X163847911Y-97599878D01*
X163828988Y-97582209D01*
X163796998Y-97554415D01*
X163835386Y-97562659D01*
G37*
G36*
X164526950Y-97670659D02*
G01*
X164525924Y-97675306D01*
X164532148Y-97698407D01*
X164547756Y-97730479D01*
X164567974Y-97763439D01*
X164588028Y-97789203D01*
X164603144Y-97799687D01*
X164602295Y-97804079D01*
X164585077Y-97818736D01*
X164554415Y-97840096D01*
X164520585Y-97861486D01*
X164498974Y-97871297D01*
X164484856Y-97869525D01*
X164471242Y-97857645D01*
X164460129Y-97845689D01*
X164458317Y-97840218D01*
X164477195Y-97849063D01*
X164480438Y-97850662D01*
X164505838Y-97855631D01*
X164531432Y-97840960D01*
X164558066Y-97818753D01*
X164519824Y-97758010D01*
X164504024Y-97732375D01*
X164487850Y-97704511D01*
X164481582Y-97691282D01*
X164487853Y-97684110D01*
X164508719Y-97670773D01*
X164511016Y-97669556D01*
X164528098Y-97662750D01*
X164526950Y-97670659D01*
G37*
G36*
X164868625Y-97222259D02*
G01*
X164891053Y-97239483D01*
X164896898Y-97244531D01*
X164909015Y-97258035D01*
X164900648Y-97258255D01*
X164893182Y-97256613D01*
X164889356Y-97263029D01*
X164896674Y-97284007D01*
X164916027Y-97323310D01*
X164934110Y-97359362D01*
X164948623Y-97390512D01*
X164954418Y-97406083D01*
X164948032Y-97414854D01*
X164922945Y-97410212D01*
X164878257Y-97390088D01*
X164865680Y-97383965D01*
X164831501Y-97370051D01*
X164808389Y-97364496D01*
X164798038Y-97363355D01*
X164789722Y-97351822D01*
X164801482Y-97326108D01*
X164803402Y-97323168D01*
X164812119Y-97313668D01*
X164814082Y-97326937D01*
X164814845Y-97330874D01*
X164830258Y-97349879D01*
X164859209Y-97368387D01*
X164904141Y-97389813D01*
X164870865Y-97324145D01*
X164861648Y-97305021D01*
X164846838Y-97262538D01*
X164848326Y-97235533D01*
X164856989Y-97221451D01*
X164868625Y-97222259D01*
G37*
G36*
X165017392Y-98802100D02*
G01*
X165067609Y-98824622D01*
X165101636Y-98866525D01*
X165113460Y-98901708D01*
X165115009Y-98944183D01*
X165106027Y-98970650D01*
X165085813Y-99004028D01*
X165061632Y-99030189D01*
X165039981Y-99040768D01*
X165037923Y-99039802D01*
X165042805Y-99027268D01*
X165061405Y-99004879D01*
X165069361Y-98996096D01*
X165092111Y-98956709D01*
X165089680Y-98920971D01*
X165062073Y-98888145D01*
X165032323Y-98872654D01*
X164981141Y-98862414D01*
X164926130Y-98864060D01*
X164878257Y-98878186D01*
X164853045Y-98899680D01*
X164844526Y-98931737D01*
X164856936Y-98966581D01*
X164889747Y-98998672D01*
X164933226Y-99027972D01*
X164883349Y-99027909D01*
X164833472Y-99027846D01*
X164829938Y-98967388D01*
X164829383Y-98947956D01*
X164838795Y-98883138D01*
X164866221Y-98836061D01*
X164911129Y-98807354D01*
X164972990Y-98797645D01*
X165017392Y-98802100D01*
G37*
G36*
X163447630Y-99337138D02*
G01*
X163429945Y-99363129D01*
X163400328Y-99402118D01*
X163360586Y-99451812D01*
X163312524Y-99509916D01*
X163257948Y-99574136D01*
X163198664Y-99642179D01*
X163135132Y-99713215D01*
X163080533Y-99771290D01*
X163036334Y-99813745D01*
X162999670Y-99842838D01*
X162967677Y-99860825D01*
X162937489Y-99869962D01*
X162906241Y-99872506D01*
X162883094Y-99870955D01*
X162832727Y-99859594D01*
X162786904Y-99840441D01*
X162756149Y-99817362D01*
X162750029Y-99808291D01*
X162749806Y-99795901D01*
X162763363Y-99782534D01*
X162794031Y-99765352D01*
X162845136Y-99741517D01*
X162860403Y-99734295D01*
X162923272Y-99699858D01*
X163001167Y-99651558D01*
X163090741Y-99591612D01*
X163188653Y-99522235D01*
X163291557Y-99445644D01*
X163299867Y-99439314D01*
X163350927Y-99400474D01*
X163395087Y-99366975D01*
X163427865Y-99342211D01*
X163444781Y-99329577D01*
X163451577Y-99326438D01*
X163447630Y-99337138D01*
G37*
G36*
X164844886Y-100643464D02*
G01*
X164846032Y-100644913D01*
X164859541Y-100655438D01*
X164882427Y-100661831D01*
X164920082Y-100665001D01*
X164977899Y-100665857D01*
X165003252Y-100665768D01*
X165050345Y-100664480D01*
X165078821Y-100660941D01*
X165093641Y-100654239D01*
X165099764Y-100643464D01*
X165102737Y-100642290D01*
X165105314Y-100661638D01*
X165106711Y-100697846D01*
X165106831Y-100709831D01*
X165105835Y-100745503D01*
X165101998Y-100758794D01*
X165094764Y-100752229D01*
X165093424Y-100750086D01*
X165081853Y-100739827D01*
X165060590Y-100733655D01*
X165024345Y-100730635D01*
X164967829Y-100729836D01*
X164956918Y-100729854D01*
X164904100Y-100730955D01*
X164870683Y-100734428D01*
X164851377Y-100741209D01*
X164840894Y-100752229D01*
X164838673Y-100755686D01*
X164832246Y-100757584D01*
X164828853Y-100739175D01*
X164827870Y-100697846D01*
X164828214Y-100665342D01*
X164830364Y-100640264D01*
X164835527Y-100634229D01*
X164844886Y-100643464D01*
G37*
G36*
X164840894Y-102242960D02*
G01*
X164843517Y-102246880D01*
X164855791Y-102256262D01*
X164878185Y-102261890D01*
X164915846Y-102264632D01*
X164973925Y-102265353D01*
X165005230Y-102265222D01*
X165051383Y-102263843D01*
X165079270Y-102260253D01*
X165093770Y-102253581D01*
X165099764Y-102242960D01*
X165102737Y-102241786D01*
X165105314Y-102261135D01*
X165106711Y-102297343D01*
X165106831Y-102309328D01*
X165105835Y-102344999D01*
X165101998Y-102358291D01*
X165094764Y-102351726D01*
X165093424Y-102349582D01*
X165081853Y-102339324D01*
X165060590Y-102333151D01*
X165024345Y-102330132D01*
X164967829Y-102329333D01*
X164956918Y-102329351D01*
X164904100Y-102330451D01*
X164870683Y-102333925D01*
X164851377Y-102340705D01*
X164840894Y-102351726D01*
X164838670Y-102355186D01*
X164832242Y-102357081D01*
X164828845Y-102338671D01*
X164827852Y-102297343D01*
X164827913Y-102284354D01*
X164829465Y-102249182D01*
X164833584Y-102236255D01*
X164840894Y-102242960D01*
G37*
G36*
X164844886Y-103548149D02*
G01*
X164846032Y-103549599D01*
X164859541Y-103560123D01*
X164882427Y-103566516D01*
X164920082Y-103569687D01*
X164977899Y-103570542D01*
X165003252Y-103570453D01*
X165050345Y-103569165D01*
X165078821Y-103565626D01*
X165093641Y-103558924D01*
X165099764Y-103548149D01*
X165102737Y-103546975D01*
X165105314Y-103566324D01*
X165106711Y-103602532D01*
X165106831Y-103614517D01*
X165105835Y-103650188D01*
X165101998Y-103663480D01*
X165094764Y-103656914D01*
X165093424Y-103654771D01*
X165081853Y-103644512D01*
X165060590Y-103638340D01*
X165024345Y-103635321D01*
X164967829Y-103634522D01*
X164956918Y-103634540D01*
X164904100Y-103635640D01*
X164870683Y-103639114D01*
X164851377Y-103645894D01*
X164840894Y-103656914D01*
X164838673Y-103660371D01*
X164832246Y-103662270D01*
X164828853Y-103643860D01*
X164827870Y-103602532D01*
X164828214Y-103570027D01*
X164830364Y-103544949D01*
X164835527Y-103538914D01*
X164844886Y-103548149D01*
G37*
G36*
X164873728Y-103717084D02*
G01*
X164869668Y-103720944D01*
X164848496Y-103744959D01*
X164839870Y-103761870D01*
X164841200Y-103764242D01*
X164861369Y-103770212D01*
X164904029Y-103773971D01*
X164966891Y-103775277D01*
X165008436Y-103775060D01*
X165053061Y-103773537D01*
X165079993Y-103769866D01*
X165093979Y-103763249D01*
X165099764Y-103752884D01*
X165102758Y-103751531D01*
X165105493Y-103770562D01*
X165107101Y-103806514D01*
X165107395Y-103834999D01*
X165105946Y-103861858D01*
X165101268Y-103869096D01*
X165092366Y-103860355D01*
X165090163Y-103857559D01*
X165077158Y-103847860D01*
X165055177Y-103842541D01*
X165018708Y-103840819D01*
X164962240Y-103841914D01*
X164950984Y-103842314D01*
X164892804Y-103846187D01*
X164857962Y-103853357D01*
X164844548Y-103865287D01*
X164850655Y-103883439D01*
X164874376Y-103909278D01*
X164910247Y-103943212D01*
X164871859Y-103939219D01*
X164833472Y-103935227D01*
X164829809Y-103810466D01*
X164826147Y-103685705D01*
X164866867Y-103685705D01*
X164907586Y-103685705D01*
X164873728Y-103717084D01*
G37*
G36*
X164709475Y-96052272D02*
G01*
X164737658Y-96057382D01*
X164774564Y-96060004D01*
X164796634Y-96062735D01*
X164824661Y-96075291D01*
X164830693Y-96080509D01*
X164835119Y-96090348D01*
X164816389Y-96095386D01*
X164811845Y-96096213D01*
X164793673Y-96108112D01*
X164788686Y-96136973D01*
X164788524Y-96142213D01*
X164774590Y-96184174D01*
X164742838Y-96214186D01*
X164699869Y-96225655D01*
X164675378Y-96223296D01*
X164657643Y-96216331D01*
X164656524Y-96208432D01*
X164676069Y-96203389D01*
X164676129Y-96203385D01*
X164703814Y-96193433D01*
X164733347Y-96172364D01*
X164751642Y-96148196D01*
X164760608Y-96116009D01*
X164754398Y-96088731D01*
X164733038Y-96074230D01*
X164726002Y-96074082D01*
X164698328Y-96085583D01*
X164668589Y-96109509D01*
X164644840Y-96138407D01*
X164635134Y-96164824D01*
X164632719Y-96177295D01*
X164622338Y-96180869D01*
X164613520Y-96170861D01*
X164609958Y-96142689D01*
X164620102Y-96108378D01*
X164642296Y-96076574D01*
X164651910Y-96067495D01*
X164679490Y-96051140D01*
X164709475Y-96052272D01*
G37*
G36*
X163672312Y-96638161D02*
G01*
X163694651Y-96654697D01*
X163706892Y-96685561D01*
X163705095Y-96723325D01*
X163704746Y-96724710D01*
X163705448Y-96745947D01*
X163718965Y-96748050D01*
X163740278Y-96730057D01*
X163741151Y-96728993D01*
X163750596Y-96708277D01*
X163740959Y-96684025D01*
X163731366Y-96662817D01*
X163734546Y-96649689D01*
X163752062Y-96654227D01*
X163753936Y-96655819D01*
X163761491Y-96676632D01*
X163762511Y-96709490D01*
X163760092Y-96724820D01*
X163739756Y-96763490D01*
X163704066Y-96784387D01*
X163658102Y-96783890D01*
X163641025Y-96776835D01*
X163617086Y-96751305D01*
X163607043Y-96716982D01*
X163607649Y-96711288D01*
X163624252Y-96711288D01*
X163626092Y-96723127D01*
X163643250Y-96741341D01*
X163672237Y-96740941D01*
X163677047Y-96738414D01*
X163687258Y-96719181D01*
X163684612Y-96694786D01*
X163669651Y-96678376D01*
X163657131Y-96675439D01*
X163633501Y-96684046D01*
X163624252Y-96711288D01*
X163607649Y-96711288D01*
X163610821Y-96681484D01*
X163628345Y-96652429D01*
X163657131Y-96638596D01*
X163659541Y-96637438D01*
X163672312Y-96638161D01*
G37*
G36*
X163759310Y-96927498D02*
G01*
X163763432Y-96957455D01*
X163765008Y-96999811D01*
X163764310Y-97040764D01*
X163762382Y-97071310D01*
X163759657Y-97082985D01*
X163753894Y-97081825D01*
X163732992Y-97074806D01*
X163721194Y-97067787D01*
X163726433Y-97057509D01*
X163728557Y-97055684D01*
X163736168Y-97033893D01*
X163736794Y-96998509D01*
X163732402Y-96948627D01*
X163715348Y-96987015D01*
X163713655Y-96990822D01*
X163695108Y-97030764D01*
X163681577Y-97053145D01*
X163668612Y-97063629D01*
X163651757Y-97067877D01*
X163635971Y-97065968D01*
X163616338Y-97047594D01*
X163604942Y-97017250D01*
X163602955Y-96982855D01*
X163611548Y-96952327D01*
X163631892Y-96933584D01*
X163642796Y-96931796D01*
X163666479Y-96940949D01*
X163667758Y-96942270D01*
X163671795Y-96954675D01*
X163652823Y-96963335D01*
X163635597Y-96972114D01*
X163624252Y-96995796D01*
X163632284Y-97013459D01*
X163652242Y-97017212D01*
X163675849Y-97007370D01*
X163694810Y-96985181D01*
X163712548Y-96954795D01*
X163735281Y-96927296D01*
X163753779Y-96916637D01*
X163759310Y-96927498D01*
G37*
G36*
X164928758Y-110422830D02*
G01*
X164980304Y-110423947D01*
X165011789Y-110427071D01*
X165027522Y-110432884D01*
X165031809Y-110442070D01*
X165028429Y-110451971D01*
X165011129Y-110457735D01*
X164974227Y-110456776D01*
X164916645Y-110452196D01*
X164916645Y-110525151D01*
X164916645Y-110598106D01*
X164974227Y-110593526D01*
X165004591Y-110592243D01*
X165025909Y-110596342D01*
X165031809Y-110608233D01*
X165031517Y-110611170D01*
X165024475Y-110619347D01*
X165004787Y-110624343D01*
X164968147Y-110626839D01*
X164910247Y-110627519D01*
X164891737Y-110627473D01*
X164840191Y-110626355D01*
X164808706Y-110623232D01*
X164792973Y-110617419D01*
X164788686Y-110608233D01*
X164792065Y-110598332D01*
X164809366Y-110592567D01*
X164846268Y-110593526D01*
X164903849Y-110598106D01*
X164903849Y-110525151D01*
X164903849Y-110452196D01*
X164846268Y-110456776D01*
X164815904Y-110458059D01*
X164794585Y-110453960D01*
X164788686Y-110442070D01*
X164788978Y-110439133D01*
X164796020Y-110430955D01*
X164815708Y-110425960D01*
X164852348Y-110423464D01*
X164910247Y-110422783D01*
X164928758Y-110422830D01*
G37*
G36*
X163656242Y-97204217D02*
G01*
X163670703Y-97204566D01*
X163691361Y-97224427D01*
X163704640Y-97246372D01*
X163707655Y-97284965D01*
X163705747Y-97297058D01*
X163711294Y-97310532D01*
X163726114Y-97305415D01*
X163744900Y-97282115D01*
X163752046Y-97263915D01*
X163742615Y-97253019D01*
X163736227Y-97249177D01*
X163726620Y-97229072D01*
X163727038Y-97223943D01*
X163737827Y-97211300D01*
X163756477Y-97219475D01*
X163763970Y-97238427D01*
X163764501Y-97271982D01*
X163757736Y-97306984D01*
X163744900Y-97331592D01*
X163724718Y-97344989D01*
X163685508Y-97352264D01*
X163646173Y-97343991D01*
X163617566Y-97321065D01*
X163613704Y-97314503D01*
X163605095Y-97278124D01*
X163626561Y-97278124D01*
X163633359Y-97296460D01*
X163656242Y-97306914D01*
X163673211Y-97302197D01*
X163685923Y-97278124D01*
X163686779Y-97269368D01*
X163680691Y-97253279D01*
X163656242Y-97249333D01*
X163646019Y-97249663D01*
X163628162Y-97256801D01*
X163626561Y-97278124D01*
X163605095Y-97278124D01*
X163604266Y-97274623D01*
X163613980Y-97236239D01*
X163640862Y-97208904D01*
X163651255Y-97204097D01*
X163656242Y-97204217D01*
G37*
G36*
X164993156Y-99406141D02*
G01*
X165025510Y-99412209D01*
X165071957Y-99438955D01*
X165102102Y-99478551D01*
X165108453Y-99493611D01*
X165118922Y-99528082D01*
X165117128Y-99558075D01*
X165103195Y-99596954D01*
X165090281Y-99620252D01*
X165051097Y-99656693D01*
X165000285Y-99676669D01*
X164944630Y-99678188D01*
X164890919Y-99659258D01*
X164869309Y-99643376D01*
X164839176Y-99601809D01*
X164827565Y-99553190D01*
X164827935Y-99549967D01*
X164841078Y-99549967D01*
X164857025Y-99574642D01*
X164887609Y-99594746D01*
X164929252Y-99607906D01*
X164978375Y-99611748D01*
X165031402Y-99603901D01*
X165035826Y-99602652D01*
X165078087Y-99582226D01*
X165099245Y-99554425D01*
X165097906Y-99523031D01*
X165072677Y-99491826D01*
X165069421Y-99489611D01*
X165038249Y-99480013D01*
X164993156Y-99476008D01*
X164943537Y-99477417D01*
X164898789Y-99484058D01*
X164868309Y-99495751D01*
X164867405Y-99496390D01*
X164843345Y-99523092D01*
X164841078Y-99549967D01*
X164827935Y-99549967D01*
X164833300Y-99503297D01*
X164855209Y-99457908D01*
X164892115Y-99422801D01*
X164942846Y-99403755D01*
X164970302Y-99401855D01*
X164993156Y-99406141D01*
G37*
G36*
X164347075Y-97774210D02*
G01*
X164347186Y-97785432D01*
X164355416Y-97814550D01*
X164370618Y-97852991D01*
X164381543Y-97879409D01*
X164391210Y-97914196D01*
X164386780Y-97930522D01*
X164372738Y-97938150D01*
X164358314Y-97934371D01*
X164348368Y-97908325D01*
X164343386Y-97892555D01*
X164331624Y-97877835D01*
X164319736Y-97887573D01*
X164309681Y-97921121D01*
X164308463Y-97927366D01*
X164301735Y-97954776D01*
X164296508Y-97965907D01*
X164291431Y-97966947D01*
X164271257Y-97973765D01*
X164262067Y-97976486D01*
X164256641Y-97970830D01*
X164263812Y-97947341D01*
X164265211Y-97943614D01*
X164275591Y-97905683D01*
X164270878Y-97883623D01*
X164250142Y-97872336D01*
X164239732Y-97868183D01*
X164227926Y-97850345D01*
X164236376Y-97826273D01*
X164264051Y-97801238D01*
X164282858Y-97789542D01*
X164289048Y-97788266D01*
X164279825Y-97801287D01*
X164278933Y-97802454D01*
X164269774Y-97830251D01*
X164279772Y-97853682D01*
X164305177Y-97863539D01*
X164319684Y-97860611D01*
X164324758Y-97847544D01*
X164314778Y-97819717D01*
X164308096Y-97791916D01*
X164312323Y-97777479D01*
X164327690Y-97770349D01*
X164342429Y-97768454D01*
X164347075Y-97774210D01*
G37*
G36*
X164934496Y-108913063D02*
G01*
X164985939Y-108915286D01*
X165019700Y-108919621D01*
X165031839Y-108925655D01*
X165031809Y-108926025D01*
X165018621Y-108932155D01*
X164984221Y-108935367D01*
X164932670Y-108935268D01*
X164833472Y-108932085D01*
X164935839Y-108985367D01*
X165038207Y-109038650D01*
X164935839Y-109086962D01*
X164833472Y-109135274D01*
X164932640Y-109136031D01*
X164941357Y-109136123D01*
X164993282Y-109138412D01*
X165022596Y-109143824D01*
X165031809Y-109152783D01*
X165028706Y-109158220D01*
X165009791Y-109164340D01*
X164971165Y-109167732D01*
X164909925Y-109168778D01*
X164852463Y-109167526D01*
X164809786Y-109162607D01*
X164792158Y-109153358D01*
X164799391Y-109139145D01*
X164831300Y-109119332D01*
X164887697Y-109093286D01*
X164899223Y-109088287D01*
X164940518Y-109069258D01*
X164969493Y-109054107D01*
X164980467Y-109045746D01*
X164979363Y-109044050D01*
X164962300Y-109033180D01*
X164928886Y-109016218D01*
X164884655Y-108996033D01*
X164836852Y-108973319D01*
X164800916Y-108950703D01*
X164788686Y-108933524D01*
X164789368Y-108928446D01*
X164796973Y-108920479D01*
X164816655Y-108915736D01*
X164852913Y-108913451D01*
X164910247Y-108912859D01*
X164934496Y-108913063D01*
G37*
G36*
X164934481Y-107211199D02*
G01*
X164985932Y-107213421D01*
X165019688Y-107217756D01*
X165031817Y-107223791D01*
X165028884Y-107227692D01*
X165007278Y-107232483D01*
X164970186Y-107232311D01*
X164953386Y-107231370D01*
X164907217Y-107230592D01*
X164871009Y-107232311D01*
X164857328Y-107234223D01*
X164848418Y-107238588D01*
X164853764Y-107247729D01*
X164875721Y-107264774D01*
X164916645Y-107292845D01*
X164923078Y-107297208D01*
X164965586Y-107326623D01*
X165001001Y-107352052D01*
X165022212Y-107368405D01*
X165035962Y-107382371D01*
X165044605Y-107397670D01*
X165039056Y-107400742D01*
X165012956Y-107405212D01*
X164970338Y-107409057D01*
X164916617Y-107411682D01*
X164884163Y-107412580D01*
X164835925Y-107412829D01*
X164806786Y-107410577D01*
X164792452Y-107405315D01*
X164788628Y-107396537D01*
X164788628Y-107396359D01*
X164792990Y-107386936D01*
X164808955Y-107381719D01*
X164841155Y-107380033D01*
X164894222Y-107381208D01*
X164999819Y-107385074D01*
X164894252Y-107313806D01*
X164864881Y-107293353D01*
X164825620Y-107263660D01*
X164798687Y-107240199D01*
X164788686Y-107226767D01*
X164791312Y-107221867D01*
X164809924Y-107215595D01*
X164848674Y-107212087D01*
X164910247Y-107210995D01*
X164934481Y-107211199D01*
G37*
G36*
X164855864Y-103976051D02*
G01*
X164878343Y-103994975D01*
X164931600Y-104030408D01*
X164984654Y-104054770D01*
X165032720Y-104066638D01*
X165071018Y-104064586D01*
X165094764Y-104047192D01*
X165096811Y-104043980D01*
X165103191Y-104041883D01*
X165106307Y-104060240D01*
X165106711Y-104101574D01*
X165105443Y-104135947D01*
X165102924Y-104156494D01*
X165099764Y-104155957D01*
X165090786Y-104142462D01*
X165063181Y-104133323D01*
X165023309Y-104135626D01*
X164976600Y-104147808D01*
X164928483Y-104168305D01*
X164884390Y-104195551D01*
X164849751Y-104227982D01*
X164843234Y-104235894D01*
X164832344Y-104245783D01*
X164828170Y-104236796D01*
X164827358Y-104205574D01*
X164828389Y-104175970D01*
X164833725Y-104165208D01*
X164845730Y-104171506D01*
X164859359Y-104178372D01*
X164881233Y-104175119D01*
X164916108Y-104157921D01*
X164932017Y-104148595D01*
X164957695Y-104131334D01*
X164967829Y-104120962D01*
X164964215Y-104116451D01*
X164943552Y-104102723D01*
X164910674Y-104085304D01*
X164888083Y-104074581D01*
X164863583Y-104065497D01*
X164850205Y-104067354D01*
X164840685Y-104079555D01*
X164838966Y-104082280D01*
X164832350Y-104084819D01*
X164828719Y-104066813D01*
X164827463Y-104025767D01*
X164827074Y-103949960D01*
X164855864Y-103976051D01*
G37*
G36*
X164855864Y-102402377D02*
G01*
X164864167Y-102408678D01*
X164897197Y-102427404D01*
X164943937Y-102449348D01*
X164997100Y-102470968D01*
X165021018Y-102480174D01*
X165070953Y-102501873D01*
X165098606Y-102518908D01*
X165105865Y-102532343D01*
X165100526Y-102539306D01*
X165075406Y-102556130D01*
X165034308Y-102577294D01*
X164982242Y-102600057D01*
X164949078Y-102614087D01*
X164900597Y-102636891D01*
X164863907Y-102657031D01*
X164845093Y-102671342D01*
X164841244Y-102676223D01*
X164832528Y-102682542D01*
X164828584Y-102670780D01*
X164827481Y-102637189D01*
X164827447Y-102622824D01*
X164828828Y-102597226D01*
X164833885Y-102592247D01*
X164844516Y-102604215D01*
X164848598Y-102609624D01*
X164859120Y-102618950D01*
X164874156Y-102620426D01*
X164900185Y-102613664D01*
X164943685Y-102598275D01*
X164985733Y-102582267D01*
X165019063Y-102568289D01*
X165035523Y-102559716D01*
X165036048Y-102558285D01*
X165024390Y-102548445D01*
X164994847Y-102533662D01*
X164952448Y-102516548D01*
X164926748Y-102507153D01*
X164888972Y-102494533D01*
X164866340Y-102490268D01*
X164853017Y-102493695D01*
X164843168Y-102504153D01*
X164837257Y-102511084D01*
X164830861Y-102510571D01*
X164827836Y-102491797D01*
X164827074Y-102451109D01*
X164827074Y-102376055D01*
X164855864Y-102402377D01*
G37*
G36*
X163907890Y-95729210D02*
G01*
X163913960Y-95736498D01*
X163912370Y-95746326D01*
X163913416Y-95776054D01*
X163918007Y-95816473D01*
X163922299Y-95845408D01*
X163927205Y-95876426D01*
X163929759Y-95889761D01*
X163925837Y-95891630D01*
X163905764Y-95892960D01*
X163886170Y-95886055D01*
X163880172Y-95860970D01*
X163879255Y-95847059D01*
X163869219Y-95832423D01*
X163841784Y-95828980D01*
X163825913Y-95829667D01*
X163807753Y-95837748D01*
X163803396Y-95859904D01*
X163807023Y-95880920D01*
X163819391Y-95897281D01*
X163820555Y-95897804D01*
X163818784Y-95902309D01*
X163796998Y-95904669D01*
X163795409Y-95904707D01*
X163774250Y-95903864D01*
X163763186Y-95895939D01*
X163758764Y-95874763D01*
X163757530Y-95834166D01*
X163757045Y-95818635D01*
X163750927Y-95773354D01*
X163738336Y-95751266D01*
X163734126Y-95748125D01*
X163736381Y-95741711D01*
X163762564Y-95739604D01*
X163766076Y-95739623D01*
X163791835Y-95743353D01*
X163796927Y-95752319D01*
X163794199Y-95757553D01*
X163793614Y-95784923D01*
X163811625Y-95807068D01*
X163842646Y-95816184D01*
X163854267Y-95815909D01*
X163874654Y-95810396D01*
X163878298Y-95793456D01*
X163867693Y-95759435D01*
X163861917Y-95741938D01*
X163865289Y-95729156D01*
X163887642Y-95726612D01*
X163907890Y-95729210D01*
G37*
G36*
X164844886Y-102716411D02*
G01*
X164857289Y-102727253D01*
X164879159Y-102734322D01*
X164915482Y-102737846D01*
X164971803Y-102738804D01*
X164975845Y-102738801D01*
X165029954Y-102737827D01*
X165064220Y-102734425D01*
X165084029Y-102727613D01*
X165094764Y-102716411D01*
X165100257Y-102712251D01*
X165104697Y-102725570D01*
X165107255Y-102760406D01*
X165108196Y-102818778D01*
X165108585Y-102943539D01*
X165068471Y-102943539D01*
X165028358Y-102943539D01*
X165062073Y-102917018D01*
X165087713Y-102887582D01*
X165095789Y-102846641D01*
X165095789Y-102802783D01*
X165031809Y-102802783D01*
X164991843Y-102805863D01*
X164969465Y-102817073D01*
X164970900Y-102837021D01*
X164995834Y-102866265D01*
X165023839Y-102892355D01*
X164968259Y-102892355D01*
X164949356Y-102892244D01*
X164926279Y-102890235D01*
X164922528Y-102883435D01*
X164933856Y-102868955D01*
X164949792Y-102848107D01*
X164955875Y-102823007D01*
X164938406Y-102807860D01*
X164897451Y-102802783D01*
X164881175Y-102802916D01*
X164853647Y-102805752D01*
X164842169Y-102815278D01*
X164839870Y-102835384D01*
X164849175Y-102867077D01*
X164873728Y-102899364D01*
X164907586Y-102930743D01*
X164867330Y-102930743D01*
X164827074Y-102930743D01*
X164827481Y-102812380D01*
X164827704Y-102780684D01*
X164828949Y-102737775D01*
X164831803Y-102715101D01*
X164836903Y-102709150D01*
X164844886Y-102716411D01*
G37*
G36*
X164962622Y-100026059D02*
G01*
X165025915Y-100033247D01*
X165071076Y-100055610D01*
X165101748Y-100094938D01*
X165111129Y-100118885D01*
X165115262Y-100177446D01*
X165097229Y-100246789D01*
X165095898Y-100250110D01*
X165077820Y-100275135D01*
X165047481Y-100281977D01*
X165019518Y-100285893D01*
X164995980Y-100297333D01*
X164994336Y-100298870D01*
X164986106Y-100299925D01*
X164981990Y-100282445D01*
X164981032Y-100242950D01*
X164981456Y-100214758D01*
X164983654Y-100190727D01*
X164989050Y-100185936D01*
X164999136Y-100196560D01*
X165015380Y-100210249D01*
X165053112Y-100215754D01*
X165074590Y-100211281D01*
X165086747Y-100197691D01*
X165089391Y-100167192D01*
X165087252Y-100146429D01*
X165069071Y-100114691D01*
X165031051Y-100096297D01*
X164971630Y-100090227D01*
X164968760Y-100090232D01*
X164911349Y-100097802D01*
X164869540Y-100117187D01*
X164845175Y-100144768D01*
X164840096Y-100176926D01*
X164856143Y-100210043D01*
X164895159Y-100240499D01*
X164935839Y-100262720D01*
X164893022Y-100266853D01*
X164889957Y-100267127D01*
X164859203Y-100267284D01*
X164842071Y-100262853D01*
X164838107Y-100248438D01*
X164834987Y-100215303D01*
X164833705Y-100171298D01*
X164834451Y-100128049D01*
X164838910Y-100097382D01*
X164849689Y-100076452D01*
X164869374Y-100056968D01*
X164871808Y-100054911D01*
X164911254Y-100032607D01*
X164961543Y-100026058D01*
X164962622Y-100026059D01*
G37*
G36*
X164843069Y-101596806D02*
G01*
X164844838Y-101597943D01*
X164868274Y-101604838D01*
X164908440Y-101611143D01*
X164957769Y-101615615D01*
X164961354Y-101615839D01*
X165023196Y-101622411D01*
X165065013Y-101634220D01*
X165091963Y-101653552D01*
X165109205Y-101682692D01*
X165118360Y-101710593D01*
X165118594Y-101738356D01*
X165107948Y-101775433D01*
X165095166Y-101800555D01*
X165065630Y-101825271D01*
X165019241Y-101838904D01*
X164952240Y-101843086D01*
X164924888Y-101843713D01*
X164878441Y-101850143D01*
X164850474Y-101864263D01*
X164842157Y-101871494D01*
X164831927Y-101875843D01*
X164827962Y-101863122D01*
X164827481Y-101829074D01*
X164827610Y-101817745D01*
X164829330Y-101790613D01*
X164834451Y-101784311D01*
X164844886Y-101795101D01*
X164845600Y-101795978D01*
X164869601Y-101808555D01*
X164910163Y-101816302D01*
X164959169Y-101819139D01*
X165008501Y-101816986D01*
X165050044Y-101809761D01*
X165075681Y-101797386D01*
X165075988Y-101797076D01*
X165093770Y-101763343D01*
X165090617Y-101726559D01*
X165067350Y-101696658D01*
X165047711Y-101687420D01*
X165006207Y-101678652D01*
X164956982Y-101675530D01*
X164908227Y-101677964D01*
X164868131Y-101685861D01*
X164844886Y-101699131D01*
X164838805Y-101706322D01*
X164831763Y-101707725D01*
X164828463Y-101691142D01*
X164827481Y-101652778D01*
X164827462Y-101647858D01*
X164828808Y-101610640D01*
X164833668Y-101594853D01*
X164843069Y-101596806D01*
G37*
G36*
X164978356Y-105813076D02*
G01*
X165018488Y-105854034D01*
X165058867Y-105918602D01*
X165063205Y-105926795D01*
X165085409Y-105973378D01*
X165100963Y-106013826D01*
X165106727Y-106040164D01*
X165106070Y-106059869D01*
X165103095Y-106059538D01*
X165095428Y-106035590D01*
X165083031Y-106005828D01*
X165063462Y-105975811D01*
X165056726Y-105968657D01*
X165043955Y-105961085D01*
X165029603Y-105968503D01*
X165006191Y-105993181D01*
X164981960Y-106016766D01*
X164953217Y-106030453D01*
X164912328Y-106033766D01*
X164896988Y-106033389D01*
X164854877Y-106025055D01*
X164821706Y-106002744D01*
X164818483Y-105999638D01*
X164797335Y-105974492D01*
X164788686Y-105955341D01*
X164789062Y-105953101D01*
X164799451Y-105953634D01*
X164820094Y-105970368D01*
X164858045Y-105994914D01*
X164903828Y-106004359D01*
X164950386Y-105999548D01*
X164991428Y-105982102D01*
X165020666Y-105953642D01*
X165031809Y-105915790D01*
X165027877Y-105893662D01*
X165004893Y-105858284D01*
X164967546Y-105832566D01*
X164922990Y-105822632D01*
X164920098Y-105822665D01*
X164880107Y-105828401D01*
X164841717Y-105841585D01*
X164812863Y-105858711D01*
X164801482Y-105876278D01*
X164800878Y-105881179D01*
X164793350Y-105882746D01*
X164790675Y-105878393D01*
X164794975Y-105858755D01*
X164814207Y-105834802D01*
X164842630Y-105812532D01*
X164874505Y-105797943D01*
X164887802Y-105794770D01*
X164935713Y-105793923D01*
X164978356Y-105813076D01*
G37*
G36*
X163101711Y-97004417D02*
G01*
X163102930Y-97013967D01*
X163099189Y-97049823D01*
X163077276Y-97084392D01*
X163070968Y-97092283D01*
X163058468Y-97113046D01*
X163060503Y-97121373D01*
X163062865Y-97121545D01*
X163086387Y-97127691D01*
X163119223Y-97139914D01*
X163128109Y-97143853D01*
X163155481Y-97163136D01*
X163163313Y-97187899D01*
X163163028Y-97217343D01*
X163140920Y-97188971D01*
X163134880Y-97182407D01*
X163103788Y-97159969D01*
X163064873Y-97141711D01*
X163010934Y-97122821D01*
X163002668Y-97166883D01*
X163001557Y-97172351D01*
X162992778Y-97199777D01*
X162983350Y-97210945D01*
X162982941Y-97210918D01*
X162977760Y-97199188D01*
X162979975Y-97172557D01*
X162981672Y-97147840D01*
X162971111Y-97134946D01*
X162944613Y-97137015D01*
X162899306Y-97153363D01*
X162880992Y-97160796D01*
X162849967Y-97170772D01*
X162834869Y-97169159D01*
X162830902Y-97156154D01*
X162837246Y-97145404D01*
X162859806Y-97137359D01*
X162865553Y-97136682D01*
X162899817Y-97129308D01*
X162939499Y-97117382D01*
X162965497Y-97106747D01*
X162987925Y-97088124D01*
X162998684Y-97058752D01*
X163005331Y-97031655D01*
X163013994Y-97012059D01*
X163020363Y-97015302D01*
X163022842Y-97042464D01*
X163022847Y-97043645D01*
X163028027Y-97072603D01*
X163040537Y-97080770D01*
X163056788Y-97070387D01*
X163073192Y-97043694D01*
X163086159Y-97002931D01*
X163095029Y-96961423D01*
X163101711Y-97004417D01*
G37*
G36*
X163943908Y-96028626D02*
G01*
X163978328Y-96038246D01*
X164015574Y-96051323D01*
X164050770Y-96066774D01*
X164071644Y-96077166D01*
X164103277Y-96091943D01*
X164116851Y-96095003D01*
X164115641Y-96086280D01*
X164102925Y-96065705D01*
X164093372Y-96050266D01*
X164089600Y-96036821D01*
X164100904Y-96033715D01*
X164113601Y-96036655D01*
X164146031Y-96055303D01*
X164186047Y-96087666D01*
X164228264Y-96129685D01*
X164235755Y-96138091D01*
X164255552Y-96162757D01*
X164263676Y-96177069D01*
X164261001Y-96182765D01*
X164240039Y-96192836D01*
X164204237Y-96199858D01*
X164160792Y-96202698D01*
X164116897Y-96200220D01*
X164083922Y-96195617D01*
X164066372Y-96191247D01*
X164068984Y-96185737D01*
X164088939Y-96176719D01*
X164119809Y-96166558D01*
X164149720Y-96161675D01*
X164163799Y-96159390D01*
X164174479Y-96148879D01*
X164170195Y-96140977D01*
X164146393Y-96137157D01*
X164104220Y-96144151D01*
X164046519Y-96161675D01*
X164015991Y-96171646D01*
X163976420Y-96182293D01*
X163950550Y-96186424D01*
X163935351Y-96185372D01*
X163935668Y-96178678D01*
X163955166Y-96161249D01*
X163981174Y-96143765D01*
X164003151Y-96136083D01*
X164010591Y-96135416D01*
X164020927Y-96128859D01*
X164018093Y-96123618D01*
X164000571Y-96105335D01*
X163972807Y-96080814D01*
X163941531Y-96055854D01*
X163913473Y-96036255D01*
X163906349Y-96031342D01*
X163903044Y-96024090D01*
X163917188Y-96023546D01*
X163943908Y-96028626D01*
G37*
G36*
X164993156Y-100328581D02*
G01*
X165024592Y-100334376D01*
X165025943Y-100334847D01*
X165070149Y-100358715D01*
X165098627Y-100396498D01*
X165101251Y-100401497D01*
X165124439Y-100434329D01*
X165149157Y-100455892D01*
X165168633Y-100470359D01*
X165186690Y-100494923D01*
X165190757Y-100516317D01*
X165188743Y-100550693D01*
X165188730Y-100550754D01*
X165180794Y-100579804D01*
X165174884Y-100588307D01*
X165172565Y-100574003D01*
X165166093Y-100555397D01*
X165146625Y-100531184D01*
X165137212Y-100522947D01*
X165122861Y-100515852D01*
X165108415Y-100523827D01*
X165085844Y-100549259D01*
X165063450Y-100570604D01*
X165011645Y-100595983D01*
X164953709Y-100600702D01*
X164897135Y-100583407D01*
X164868749Y-100563069D01*
X164837717Y-100519551D01*
X164826443Y-100471155D01*
X164840387Y-100471155D01*
X164855793Y-100496039D01*
X164885969Y-100516333D01*
X164927359Y-100529640D01*
X164976406Y-100533564D01*
X165029554Y-100525708D01*
X165035576Y-100523985D01*
X165078079Y-100503285D01*
X165099339Y-100475538D01*
X165097993Y-100444301D01*
X165072677Y-100413136D01*
X165069421Y-100410921D01*
X165038249Y-100401323D01*
X164993156Y-100397318D01*
X164943537Y-100398726D01*
X164898789Y-100405367D01*
X164868309Y-100417061D01*
X164868110Y-100417200D01*
X164843307Y-100444077D01*
X164840387Y-100471155D01*
X164826443Y-100471155D01*
X164825856Y-100468637D01*
X164834210Y-100416977D01*
X164863822Y-100371220D01*
X164911363Y-100335805D01*
X164964178Y-100323240D01*
X164993156Y-100328581D01*
G37*
G36*
X165016132Y-101112364D02*
G01*
X165064942Y-101136205D01*
X165098968Y-101177695D01*
X165103481Y-101186726D01*
X165115675Y-101213399D01*
X165119887Y-101234369D01*
X165116792Y-101259833D01*
X165107066Y-101299989D01*
X165102422Y-101317637D01*
X165092051Y-101343923D01*
X165076875Y-101354737D01*
X165050120Y-101356839D01*
X165018947Y-101361332D01*
X164994446Y-101379232D01*
X164992916Y-101381717D01*
X164986033Y-101385917D01*
X164982445Y-101369995D01*
X164981421Y-101331247D01*
X164981697Y-101302450D01*
X164983765Y-101278454D01*
X164989098Y-101273650D01*
X164999136Y-101284217D01*
X165015380Y-101297907D01*
X165053112Y-101303411D01*
X165068453Y-101300723D01*
X165086433Y-101288169D01*
X165093309Y-101258899D01*
X165093448Y-101257404D01*
X165089785Y-101222434D01*
X165068069Y-101198119D01*
X165067325Y-101197609D01*
X165032037Y-101184347D01*
X164983039Y-101178290D01*
X164930999Y-101179930D01*
X164886583Y-101189758D01*
X164868938Y-101199083D01*
X164846303Y-101227433D01*
X164842729Y-101261898D01*
X164857940Y-101295378D01*
X164891661Y-101320771D01*
X164900870Y-101325015D01*
X164927490Y-101341276D01*
X164930246Y-101351658D01*
X164910270Y-101354757D01*
X164868698Y-101349169D01*
X164861321Y-101347655D01*
X164843607Y-101341758D01*
X164834595Y-101329642D01*
X164831593Y-101304851D01*
X164831909Y-101260931D01*
X164836632Y-101205914D01*
X164852460Y-101161644D01*
X164882530Y-101132480D01*
X164930094Y-101113540D01*
X164958085Y-101108280D01*
X165016132Y-101112364D01*
G37*
G36*
X164069874Y-104722193D02*
G01*
X164258116Y-104722281D01*
X164423181Y-104722472D01*
X164566547Y-104722789D01*
X164689694Y-104723255D01*
X164794097Y-104723895D01*
X164881237Y-104724732D01*
X164952589Y-104725790D01*
X165009633Y-104727093D01*
X165053846Y-104728664D01*
X165086706Y-104730527D01*
X165109692Y-104732705D01*
X165124280Y-104735224D01*
X165131949Y-104738105D01*
X165134177Y-104741373D01*
X165133316Y-104743492D01*
X165127807Y-104746512D01*
X165115920Y-104749161D01*
X165096175Y-104751461D01*
X165067096Y-104753436D01*
X165027205Y-104755111D01*
X164975022Y-104756509D01*
X164909072Y-104757654D01*
X164827875Y-104758569D01*
X164729953Y-104759278D01*
X164613829Y-104759805D01*
X164478026Y-104760174D01*
X164321064Y-104760408D01*
X164141466Y-104760531D01*
X163937754Y-104760567D01*
X163805633Y-104760553D01*
X163617392Y-104760465D01*
X163452327Y-104760274D01*
X163308960Y-104759957D01*
X163185814Y-104759491D01*
X163081410Y-104758851D01*
X162994271Y-104758014D01*
X162922918Y-104756956D01*
X162865874Y-104755653D01*
X162821661Y-104754082D01*
X162788801Y-104752219D01*
X162765816Y-104750040D01*
X162751228Y-104747522D01*
X162743558Y-104744641D01*
X162741330Y-104741373D01*
X162742191Y-104739253D01*
X162747700Y-104736233D01*
X162759587Y-104733585D01*
X162779332Y-104731285D01*
X162808411Y-104729310D01*
X162848303Y-104727635D01*
X162900485Y-104726237D01*
X162966436Y-104725092D01*
X163047633Y-104724177D01*
X163145554Y-104723468D01*
X163261678Y-104722941D01*
X163397482Y-104722572D01*
X163554444Y-104722338D01*
X163734042Y-104722215D01*
X163937754Y-104722179D01*
X164069874Y-104722193D01*
G37*
G36*
X164430216Y-110431669D02*
G01*
X164428115Y-110448751D01*
X164412647Y-110478922D01*
X164386505Y-110518504D01*
X164352379Y-110563814D01*
X164312960Y-110611174D01*
X164270940Y-110656901D01*
X164229008Y-110697317D01*
X164135693Y-110768744D01*
X164015746Y-110833919D01*
X163877909Y-110883986D01*
X163720222Y-110919802D01*
X163617854Y-110937430D01*
X163681834Y-110946673D01*
X163839432Y-110975811D01*
X164001108Y-111021372D01*
X164144345Y-111079781D01*
X164267569Y-111150382D01*
X164369204Y-111232521D01*
X164429571Y-111291132D01*
X164391940Y-111314017D01*
X164390985Y-111314607D01*
X164362594Y-111340156D01*
X164346181Y-111369288D01*
X164337961Y-111392616D01*
X164326443Y-111398875D01*
X164308984Y-111384749D01*
X164282370Y-111349228D01*
X164259426Y-111319347D01*
X164204808Y-111260673D01*
X164139656Y-111201424D01*
X164071906Y-111148581D01*
X164009489Y-111109124D01*
X163872633Y-111046796D01*
X163708139Y-110994649D01*
X163537768Y-110962347D01*
X163368738Y-110951662D01*
X163332883Y-110951983D01*
X163282200Y-110953711D01*
X163249536Y-110957538D01*
X163229955Y-110964213D01*
X163218517Y-110974487D01*
X163204636Y-110988429D01*
X163193175Y-110984648D01*
X163184995Y-110958751D01*
X163179059Y-110909016D01*
X163173224Y-110838653D01*
X163357152Y-110838548D01*
X163448392Y-110837393D01*
X163622237Y-110827589D01*
X163776170Y-110807070D01*
X163912812Y-110774969D01*
X164034783Y-110730416D01*
X164144706Y-110672543D01*
X164245202Y-110600483D01*
X164338891Y-110513367D01*
X164357409Y-110494228D01*
X164390495Y-110460848D01*
X164414458Y-110437787D01*
X164425064Y-110429181D01*
X164430216Y-110431669D01*
G37*
G36*
X164853164Y-100804199D02*
G01*
X164867013Y-100816660D01*
X164888415Y-100826411D01*
X164920834Y-100830959D01*
X164971527Y-100832008D01*
X164987135Y-100831915D01*
X165037865Y-100829867D01*
X165069831Y-100823920D01*
X165088479Y-100812446D01*
X165099258Y-100793816D01*
X165102205Y-100791416D01*
X165105769Y-100806117D01*
X165107575Y-100838250D01*
X165107820Y-100867850D01*
X165106131Y-100887920D01*
X165100382Y-100888599D01*
X165088665Y-100873439D01*
X165079674Y-100862478D01*
X165061840Y-100851409D01*
X165033161Y-100846262D01*
X164986298Y-100845000D01*
X164946034Y-100846234D01*
X164915710Y-100849693D01*
X164904271Y-100854597D01*
X164908378Y-100860178D01*
X164929112Y-100878850D01*
X164963360Y-100906349D01*
X165006639Y-100938980D01*
X165034322Y-100959965D01*
X165072567Y-100991637D01*
X165098827Y-101016936D01*
X165108585Y-101031750D01*
X165108540Y-101032746D01*
X165102131Y-101041049D01*
X165082095Y-101046261D01*
X165044455Y-101048964D01*
X164985235Y-101049736D01*
X164965015Y-101049794D01*
X164912022Y-101051077D01*
X164877816Y-101054672D01*
X164857177Y-101061411D01*
X164844886Y-101072129D01*
X164841449Y-101076497D01*
X164832631Y-101083059D01*
X164828613Y-101071525D01*
X164827481Y-101038155D01*
X164827459Y-101018228D01*
X164829332Y-100995358D01*
X164836077Y-100991689D01*
X164850474Y-101002967D01*
X164857481Y-101008244D01*
X164892800Y-101020299D01*
X164948985Y-101024144D01*
X165024095Y-101024144D01*
X164925584Y-100951111D01*
X164920954Y-100947676D01*
X164876782Y-100914190D01*
X164849198Y-100890289D01*
X164834313Y-100871077D01*
X164828235Y-100851659D01*
X164827074Y-100827136D01*
X164827074Y-100776195D01*
X164853164Y-100804199D01*
G37*
G36*
X165106499Y-99715131D02*
G01*
X165107774Y-99750191D01*
X165107899Y-99771994D01*
X165106409Y-99796402D01*
X165101291Y-99800922D01*
X165090938Y-99789284D01*
X165090504Y-99788701D01*
X165072182Y-99774173D01*
X165040175Y-99765094D01*
X164988570Y-99759756D01*
X164946010Y-99758557D01*
X164915685Y-99760601D01*
X164904271Y-99765449D01*
X164908349Y-99771411D01*
X164929069Y-99790633D01*
X164963330Y-99818526D01*
X165006639Y-99851322D01*
X165034322Y-99872308D01*
X165072567Y-99903980D01*
X165098827Y-99929279D01*
X165108585Y-99944093D01*
X165103457Y-99952723D01*
X165084879Y-99958332D01*
X165048813Y-99961245D01*
X164991230Y-99962078D01*
X164943123Y-99962706D01*
X164897806Y-99965882D01*
X164868692Y-99972466D01*
X164850474Y-99983255D01*
X164842157Y-99990487D01*
X164831927Y-99994835D01*
X164827962Y-99982114D01*
X164827481Y-99948066D01*
X164827638Y-99934862D01*
X164829401Y-99908763D01*
X164834645Y-99903313D01*
X164845381Y-99914770D01*
X164847341Y-99917223D01*
X164864154Y-99929508D01*
X164891752Y-99934586D01*
X164937366Y-99933964D01*
X165011858Y-99930088D01*
X164919466Y-99861698D01*
X164891247Y-99840538D01*
X164857109Y-99812732D01*
X164837728Y-99791595D01*
X164829064Y-99772228D01*
X164827074Y-99749733D01*
X164827635Y-99736459D01*
X164834079Y-99711746D01*
X164845079Y-99707145D01*
X164857293Y-99725353D01*
X164863500Y-99733145D01*
X164882468Y-99739977D01*
X164917863Y-99743529D01*
X164974238Y-99744547D01*
X165012483Y-99744353D01*
X165051977Y-99742721D01*
X165075228Y-99738298D01*
X165087833Y-99729753D01*
X165095390Y-99715756D01*
X165097185Y-99711474D01*
X165103276Y-99703079D01*
X165106499Y-99715131D01*
G37*
G36*
X165106499Y-101916038D02*
G01*
X165107774Y-101951098D01*
X165107899Y-101972901D01*
X165106409Y-101997309D01*
X165101291Y-102001828D01*
X165090938Y-101990191D01*
X165090504Y-101989607D01*
X165072182Y-101975080D01*
X165040175Y-101966001D01*
X164988570Y-101960663D01*
X164946010Y-101959464D01*
X164915685Y-101961508D01*
X164904271Y-101966356D01*
X164908349Y-101972318D01*
X164929069Y-101991540D01*
X164963330Y-102019433D01*
X165006639Y-102052229D01*
X165034322Y-102073215D01*
X165072567Y-102104887D01*
X165098827Y-102130186D01*
X165108585Y-102145000D01*
X165103457Y-102153630D01*
X165084879Y-102159239D01*
X165048813Y-102162152D01*
X164991230Y-102162985D01*
X164943123Y-102163612D01*
X164897806Y-102166789D01*
X164868692Y-102173373D01*
X164850474Y-102184162D01*
X164842157Y-102191393D01*
X164831927Y-102195742D01*
X164827962Y-102183021D01*
X164827481Y-102148973D01*
X164827638Y-102135769D01*
X164829401Y-102109670D01*
X164834645Y-102104220D01*
X164845381Y-102115677D01*
X164847341Y-102118130D01*
X164864154Y-102130415D01*
X164891752Y-102135492D01*
X164937366Y-102134871D01*
X165011858Y-102130995D01*
X164919466Y-102062605D01*
X164891247Y-102041445D01*
X164857109Y-102013639D01*
X164837728Y-101992502D01*
X164829064Y-101973135D01*
X164827074Y-101950640D01*
X164827635Y-101937366D01*
X164834079Y-101912653D01*
X164845079Y-101908052D01*
X164857293Y-101926260D01*
X164863500Y-101934051D01*
X164882468Y-101940884D01*
X164917863Y-101944436D01*
X164974238Y-101945454D01*
X165012483Y-101945260D01*
X165051977Y-101943628D01*
X165075228Y-101939205D01*
X165087833Y-101930660D01*
X165095390Y-101916663D01*
X165097185Y-101912381D01*
X165103276Y-101903986D01*
X165106499Y-101916038D01*
G37*
G36*
X164671879Y-97031627D02*
G01*
X164680528Y-97070189D01*
X164692471Y-97134977D01*
X164696268Y-97187240D01*
X164691170Y-97233292D01*
X164677025Y-97282242D01*
X164654937Y-97345302D01*
X164647706Y-97285059D01*
X164644994Y-97266231D01*
X164637554Y-97232563D01*
X164629774Y-97214682D01*
X164627975Y-97213592D01*
X164624036Y-97222900D01*
X164625908Y-97249333D01*
X164625776Y-97314330D01*
X164606076Y-97384093D01*
X164569152Y-97443188D01*
X164555322Y-97458639D01*
X164539543Y-97474187D01*
X164534825Y-97472241D01*
X164537484Y-97454068D01*
X164538353Y-97449603D01*
X164544992Y-97412890D01*
X164552044Y-97370894D01*
X164554403Y-97353444D01*
X164554245Y-97334385D01*
X164548860Y-97335200D01*
X164540023Y-97352880D01*
X164529507Y-97384416D01*
X164519086Y-97426800D01*
X164501523Y-97482271D01*
X164462234Y-97541870D01*
X164419740Y-97588239D01*
X164436885Y-97522144D01*
X164443525Y-97498312D01*
X164457212Y-97456487D01*
X164469295Y-97427526D01*
X164475985Y-97414277D01*
X164476730Y-97404137D01*
X164460678Y-97408431D01*
X164459761Y-97408785D01*
X164429810Y-97417085D01*
X164392011Y-97424005D01*
X164347225Y-97430153D01*
X164392011Y-97389586D01*
X164399683Y-97382847D01*
X164449487Y-97347107D01*
X164499710Y-97322476D01*
X164541952Y-97313232D01*
X164543723Y-97313118D01*
X164565550Y-97300987D01*
X164586484Y-97274965D01*
X164608213Y-97236779D01*
X164543683Y-97269479D01*
X164479154Y-97302178D01*
X164502761Y-97261638D01*
X164522421Y-97232444D01*
X164553192Y-97192178D01*
X164587757Y-97150603D01*
X164587976Y-97150351D01*
X164619925Y-97109411D01*
X164644828Y-97069764D01*
X164657311Y-97039959D01*
X164662008Y-97019843D01*
X164666342Y-97015674D01*
X164671879Y-97031627D01*
G37*
G36*
X164840894Y-99069559D02*
G01*
X164843517Y-99073479D01*
X164855791Y-99082861D01*
X164878185Y-99088490D01*
X164915846Y-99091231D01*
X164973925Y-99091952D01*
X165005230Y-99091821D01*
X165051383Y-99090443D01*
X165079270Y-99086852D01*
X165093770Y-99080180D01*
X165099764Y-99069559D01*
X165102737Y-99068386D01*
X165105314Y-99087734D01*
X165106711Y-99123942D01*
X165106831Y-99135927D01*
X165105835Y-99171599D01*
X165101998Y-99184890D01*
X165094764Y-99178325D01*
X165091122Y-99173191D01*
X165067525Y-99159963D01*
X165024775Y-99155932D01*
X164967829Y-99155932D01*
X164967829Y-99213514D01*
X164967829Y-99271096D01*
X165030871Y-99271096D01*
X165066403Y-99269593D01*
X165090044Y-99262811D01*
X165099764Y-99248703D01*
X165102737Y-99247529D01*
X165105314Y-99266878D01*
X165106711Y-99303086D01*
X165106831Y-99315071D01*
X165105835Y-99350742D01*
X165101998Y-99364034D01*
X165094764Y-99357469D01*
X165094272Y-99356645D01*
X165083139Y-99345738D01*
X165062607Y-99339161D01*
X165027290Y-99335933D01*
X164971803Y-99335076D01*
X164917935Y-99335926D01*
X164880684Y-99339288D01*
X164858183Y-99346143D01*
X164844886Y-99357469D01*
X164838636Y-99364806D01*
X164831706Y-99365830D01*
X164828453Y-99348868D01*
X164827481Y-99310124D01*
X164827461Y-99302677D01*
X164828830Y-99266697D01*
X164833501Y-99252212D01*
X164842429Y-99255741D01*
X164845029Y-99257871D01*
X164870582Y-99267276D01*
X164906409Y-99271096D01*
X164955033Y-99271096D01*
X164955033Y-99213514D01*
X164955033Y-99155932D01*
X164908459Y-99155932D01*
X164873067Y-99160725D01*
X164844886Y-99178325D01*
X164837591Y-99186414D01*
X164831411Y-99184873D01*
X164828564Y-99165307D01*
X164827870Y-99123942D01*
X164827927Y-99110969D01*
X164829471Y-99075790D01*
X164833585Y-99062857D01*
X164840894Y-99069559D01*
G37*
G36*
X164397858Y-97513135D02*
G01*
X164383973Y-97536224D01*
X164355040Y-97579126D01*
X164329136Y-97611920D01*
X164318617Y-97623009D01*
X164286450Y-97651350D01*
X164260810Y-97666496D01*
X164245085Y-97667780D01*
X164242666Y-97654538D01*
X164256942Y-97626103D01*
X164265926Y-97611518D01*
X164274273Y-97591242D01*
X164267535Y-97588509D01*
X164247776Y-97602909D01*
X164217061Y-97634030D01*
X164214222Y-97637116D01*
X164186263Y-97663227D01*
X164154794Y-97687122D01*
X164123888Y-97706715D01*
X164097620Y-97719924D01*
X164080062Y-97724662D01*
X164075290Y-97718846D01*
X164087376Y-97700391D01*
X164095715Y-97690467D01*
X164111320Y-97668135D01*
X164108783Y-97660045D01*
X164086762Y-97665712D01*
X164043913Y-97684649D01*
X164000324Y-97703373D01*
X163959542Y-97717405D01*
X163932455Y-97722773D01*
X163919494Y-97721793D01*
X163916257Y-97715949D01*
X163929567Y-97701831D01*
X163961516Y-97676075D01*
X164021468Y-97629367D01*
X163973213Y-97599699D01*
X163924958Y-97570031D01*
X163965406Y-97569631D01*
X163987636Y-97571788D01*
X164031295Y-97581633D01*
X164077937Y-97596816D01*
X164103477Y-97605963D01*
X164143009Y-97615436D01*
X164163081Y-97611341D01*
X164165480Y-97606088D01*
X164152455Y-97594896D01*
X164114640Y-97582794D01*
X164101752Y-97579469D01*
X164073570Y-97570464D01*
X164066205Y-97562916D01*
X164076309Y-97554341D01*
X164088207Y-97550335D01*
X164123107Y-97546692D01*
X164165770Y-97548280D01*
X164187739Y-97550562D01*
X164234436Y-97555378D01*
X164270097Y-97559010D01*
X164275516Y-97559475D01*
X164302141Y-97556196D01*
X164312861Y-97539205D01*
X164311667Y-97522390D01*
X164294018Y-97523008D01*
X164268784Y-97525440D01*
X164233892Y-97520613D01*
X164214959Y-97514730D01*
X164211900Y-97509271D01*
X164227974Y-97501769D01*
X164265882Y-97489606D01*
X164291219Y-97482135D01*
X164342068Y-97468733D01*
X164383957Y-97459532D01*
X164433486Y-97450641D01*
X164397858Y-97513135D01*
G37*
G36*
X163300680Y-96076304D02*
G01*
X163304353Y-96089731D01*
X163302785Y-96100053D01*
X163290142Y-96116979D01*
X163261216Y-96133995D01*
X163211715Y-96154082D01*
X163187312Y-96163444D01*
X163156099Y-96177993D01*
X163149667Y-96186844D01*
X163168009Y-96190432D01*
X163172664Y-96190298D01*
X163211118Y-96189192D01*
X163245891Y-96187980D01*
X163269960Y-96190895D01*
X163272908Y-96199182D01*
X163272594Y-96199652D01*
X163254134Y-96208027D01*
X163223381Y-96208641D01*
X163217559Y-96207955D01*
X163200555Y-96206776D01*
X163205374Y-96209163D01*
X163216895Y-96213940D01*
X163221789Y-96224668D01*
X163226615Y-96232402D01*
X163249533Y-96247067D01*
X163285579Y-96264221D01*
X163316503Y-96278739D01*
X163344639Y-96295694D01*
X163355456Y-96307709D01*
X163353024Y-96314488D01*
X163336079Y-96330959D01*
X163310781Y-96346408D01*
X163286444Y-96355685D01*
X163272380Y-96353642D01*
X163272686Y-96344415D01*
X163288089Y-96329198D01*
X163297024Y-96323762D01*
X163301387Y-96317210D01*
X163281960Y-96315616D01*
X163263998Y-96311476D01*
X163253169Y-96297402D01*
X163253127Y-96296078D01*
X163241706Y-96277274D01*
X163218832Y-96269122D01*
X163197287Y-96276419D01*
X163196941Y-96276757D01*
X163175967Y-96286441D01*
X163147774Y-96289270D01*
X163123032Y-96285416D01*
X163112414Y-96275051D01*
X163116901Y-96262650D01*
X163121186Y-96257747D01*
X163156061Y-96257747D01*
X163169240Y-96264043D01*
X163175701Y-96263793D01*
X163188624Y-96257748D01*
X163177278Y-96245395D01*
X163172664Y-96243657D01*
X163157329Y-96251038D01*
X163156061Y-96257747D01*
X163121186Y-96257747D01*
X163134807Y-96242160D01*
X163135950Y-96241221D01*
X163146927Y-96230189D01*
X163139720Y-96227068D01*
X163110814Y-96230088D01*
X163109975Y-96230200D01*
X163079741Y-96232447D01*
X163067024Y-96225491D01*
X163064429Y-96205397D01*
X163065004Y-96195270D01*
X163076121Y-96175058D01*
X163104005Y-96173352D01*
X163105200Y-96173331D01*
X163123404Y-96165887D01*
X163155871Y-96148239D01*
X163196463Y-96123684D01*
X163219421Y-96109367D01*
X163261485Y-96085092D01*
X163287481Y-96074414D01*
X163300680Y-96076304D01*
G37*
G36*
X163740084Y-105567022D02*
G01*
X163744191Y-105583179D01*
X163747887Y-105622124D01*
X163751038Y-105681430D01*
X163753509Y-105758672D01*
X163755166Y-105851423D01*
X163758610Y-106136134D01*
X164101873Y-106139543D01*
X164445135Y-106142953D01*
X164436289Y-106184329D01*
X164435295Y-106189015D01*
X164430432Y-106209906D01*
X164423771Y-106226065D01*
X164412336Y-106238100D01*
X164393153Y-106246618D01*
X164363250Y-106252225D01*
X164319651Y-106255529D01*
X164259383Y-106257137D01*
X164179472Y-106257657D01*
X164076943Y-106257695D01*
X163752212Y-106257695D01*
X163752212Y-106545605D01*
X163752090Y-106588864D01*
X163751194Y-106667307D01*
X163749544Y-106734606D01*
X163747275Y-106787147D01*
X163744521Y-106821320D01*
X163741419Y-106833514D01*
X163728625Y-106824956D01*
X163705661Y-106802014D01*
X163678263Y-106771130D01*
X163651909Y-106738760D01*
X163632080Y-106711365D01*
X163624252Y-106695402D01*
X163627142Y-106689447D01*
X163645587Y-106670917D01*
X163675436Y-106647972D01*
X163726620Y-106612502D01*
X163726620Y-106435099D01*
X163726620Y-106257695D01*
X163534924Y-106257695D01*
X163488925Y-106257726D01*
X163428397Y-106258163D01*
X163387205Y-106259577D01*
X163361406Y-106262543D01*
X163347055Y-106267634D01*
X163340207Y-106275424D01*
X163336918Y-106286486D01*
X163329140Y-106323864D01*
X163316827Y-106390317D01*
X163305564Y-106459151D01*
X163296120Y-106524866D01*
X163289263Y-106581960D01*
X163285761Y-106624935D01*
X163286382Y-106648289D01*
X163289285Y-106671077D01*
X163280606Y-106677805D01*
X163258522Y-106664154D01*
X163222284Y-106629910D01*
X163173410Y-106579858D01*
X163219834Y-106408944D01*
X163250425Y-106289330D01*
X163288334Y-106119613D01*
X163320279Y-105950695D01*
X163343986Y-105793841D01*
X163348926Y-105759121D01*
X163357385Y-105712726D01*
X163365631Y-105680899D01*
X163372423Y-105669081D01*
X163374737Y-105671808D01*
X163377861Y-105694803D01*
X163378585Y-105738539D01*
X163377014Y-105799797D01*
X163373256Y-105875359D01*
X163367417Y-105962007D01*
X163359603Y-106056522D01*
X163351795Y-106143257D01*
X163536008Y-106139695D01*
X163720222Y-106136134D01*
X163723666Y-105851423D01*
X163723865Y-105836058D01*
X163725658Y-105745563D01*
X163728244Y-105670955D01*
X163731488Y-105614660D01*
X163735257Y-105579104D01*
X163739416Y-105566713D01*
X163740084Y-105567022D01*
G37*
G36*
X164435276Y-110208451D02*
G01*
X164434775Y-110210577D01*
X164431155Y-110226087D01*
X164426681Y-110238917D01*
X164419104Y-110249320D01*
X164406175Y-110257550D01*
X164385646Y-110263861D01*
X164355267Y-110268506D01*
X164312790Y-110271741D01*
X164255966Y-110273818D01*
X164182545Y-110274991D01*
X164090279Y-110275515D01*
X163976920Y-110275644D01*
X163840217Y-110275630D01*
X163278761Y-110275630D01*
X163278761Y-110371600D01*
X163279919Y-110417981D01*
X163284823Y-110455213D01*
X163293603Y-110467569D01*
X163310097Y-110464145D01*
X163345316Y-110454944D01*
X163393450Y-110441637D01*
X163448707Y-110425894D01*
X163505294Y-110409386D01*
X163557418Y-110393783D01*
X163599285Y-110380756D01*
X163625103Y-110371975D01*
X163631896Y-110371083D01*
X163659445Y-110380463D01*
X163695481Y-110404661D01*
X163728711Y-110428952D01*
X163822190Y-110476570D01*
X163922861Y-110500876D01*
X163927789Y-110501434D01*
X163969354Y-110503649D01*
X163997864Y-110497466D01*
X164024126Y-110480735D01*
X164029842Y-110476081D01*
X164048678Y-110455286D01*
X164057288Y-110428765D01*
X164059363Y-110386666D01*
X164059411Y-110320416D01*
X164084963Y-110362324D01*
X164108469Y-110391036D01*
X164149978Y-110412125D01*
X164154892Y-110413127D01*
X164177876Y-110420626D01*
X164184891Y-110435366D01*
X164181014Y-110466187D01*
X164175187Y-110491123D01*
X164148048Y-110547038D01*
X164104111Y-110584375D01*
X164042665Y-110603585D01*
X163962996Y-110605124D01*
X163928810Y-110600999D01*
X163850531Y-110578484D01*
X163777974Y-110536320D01*
X163705856Y-110471765D01*
X163639224Y-110402418D01*
X163488174Y-110492575D01*
X163471744Y-110502348D01*
X163417835Y-110533907D01*
X163372944Y-110559429D01*
X163341362Y-110576506D01*
X163327380Y-110582733D01*
X163318912Y-110590786D01*
X163309608Y-110614723D01*
X163302088Y-110635901D01*
X163292834Y-110646713D01*
X163283109Y-110640805D01*
X163260017Y-110620820D01*
X163229994Y-110591594D01*
X163175899Y-110536475D01*
X163208136Y-110506190D01*
X163209708Y-110504702D01*
X163226034Y-110486096D01*
X163235294Y-110464395D01*
X163239427Y-110432111D01*
X163240373Y-110381754D01*
X163238704Y-110337148D01*
X163231903Y-110281882D01*
X163221179Y-110241666D01*
X163217879Y-110233601D01*
X163206558Y-110202696D01*
X163201985Y-110184495D01*
X163201985Y-110184493D01*
X163214423Y-110182204D01*
X163250127Y-110180084D01*
X163306773Y-110178174D01*
X163382038Y-110176518D01*
X163473601Y-110175157D01*
X163579136Y-110174132D01*
X163696321Y-110173487D01*
X163822834Y-110173262D01*
X164443682Y-110173262D01*
X164435276Y-110208451D01*
G37*
G36*
X164266736Y-96086315D02*
G01*
X164294574Y-96106354D01*
X164325912Y-96135841D01*
X164356149Y-96170759D01*
X164380681Y-96207089D01*
X164383371Y-96211803D01*
X164409662Y-96252048D01*
X164430385Y-96274172D01*
X164443271Y-96277459D01*
X164446048Y-96261194D01*
X164436446Y-96224661D01*
X164428471Y-96200016D01*
X164425796Y-96180443D01*
X164433814Y-96177663D01*
X164434620Y-96177944D01*
X164458074Y-96197156D01*
X164482857Y-96234388D01*
X164505216Y-96282862D01*
X164521397Y-96335799D01*
X164523463Y-96344664D01*
X164534779Y-96383303D01*
X164545513Y-96407725D01*
X164553530Y-96415507D01*
X164556690Y-96404226D01*
X164552858Y-96371459D01*
X164551860Y-96366018D01*
X164543638Y-96323999D01*
X164536168Y-96289635D01*
X164532762Y-96273578D01*
X164535232Y-96265228D01*
X164550773Y-96275983D01*
X164563506Y-96288094D01*
X164596267Y-96338359D01*
X164617686Y-96402671D01*
X164624811Y-96473168D01*
X164625334Y-96509127D01*
X164628873Y-96534388D01*
X164634588Y-96535142D01*
X164641327Y-96511805D01*
X164647936Y-96464794D01*
X164654902Y-96398401D01*
X164676686Y-96455982D01*
X164688246Y-96496841D01*
X164693112Y-96549838D01*
X164689170Y-96615340D01*
X164676415Y-96699106D01*
X164665992Y-96756688D01*
X164656765Y-96710749D01*
X164656517Y-96709556D01*
X164640128Y-96668594D01*
X164614319Y-96633974D01*
X164603356Y-96622692D01*
X164579418Y-96594215D01*
X164552265Y-96558827D01*
X164525723Y-96521919D01*
X164503616Y-96488882D01*
X164489771Y-96465106D01*
X164488013Y-96455982D01*
X164491996Y-96456980D01*
X164513829Y-96466162D01*
X164546072Y-96481834D01*
X164574317Y-96495766D01*
X164592084Y-96501003D01*
X164593658Y-96491137D01*
X164582580Y-96464484D01*
X164579523Y-96458478D01*
X164557513Y-96437247D01*
X164518348Y-96426677D01*
X164494954Y-96420792D01*
X164459735Y-96405678D01*
X164423527Y-96385246D01*
X164391096Y-96362863D01*
X164367211Y-96341899D01*
X164356640Y-96325724D01*
X164364150Y-96317707D01*
X164367636Y-96317367D01*
X164398269Y-96321164D01*
X164434782Y-96332754D01*
X164480170Y-96351719D01*
X164466026Y-96320677D01*
X164459826Y-96309273D01*
X164440106Y-96293728D01*
X164405237Y-96289635D01*
X164374467Y-96286385D01*
X164326415Y-96275959D01*
X164276132Y-96260844D01*
X164193673Y-96232053D01*
X164254454Y-96228153D01*
X164274547Y-96226323D01*
X164303753Y-96220999D01*
X164315235Y-96214679D01*
X164312454Y-96207377D01*
X164298152Y-96183576D01*
X164275768Y-96151438D01*
X164261559Y-96130790D01*
X164245180Y-96101693D01*
X164240621Y-96084811D01*
X164247000Y-96079742D01*
X164266736Y-96086315D01*
G37*
G36*
X163828988Y-108650542D02*
G01*
X164057369Y-108650542D01*
X164125532Y-108650755D01*
X164207003Y-108651619D01*
X164277175Y-108653051D01*
X164332473Y-108654951D01*
X164369326Y-108657219D01*
X164384161Y-108659753D01*
X164387366Y-108666442D01*
X164386778Y-108692068D01*
X164378068Y-108723611D01*
X164363823Y-108749639D01*
X164361021Y-108752232D01*
X164336342Y-108761824D01*
X164300872Y-108765705D01*
X164251255Y-108765705D01*
X164251255Y-108912859D01*
X164251255Y-109060013D01*
X164289643Y-109060013D01*
X164300772Y-109060346D01*
X164322347Y-109067190D01*
X164328031Y-109086446D01*
X164325942Y-109104553D01*
X164314785Y-109137630D01*
X164310061Y-109144773D01*
X164300709Y-109151729D01*
X164284227Y-109156572D01*
X164256923Y-109159681D01*
X164215104Y-109161433D01*
X164155078Y-109162207D01*
X164073154Y-109162380D01*
X164051783Y-109162382D01*
X163975821Y-109162547D01*
X163920973Y-109163292D01*
X163883615Y-109165059D01*
X163860122Y-109168290D01*
X163846872Y-109173425D01*
X163840239Y-109180905D01*
X163836600Y-109191171D01*
X163831843Y-109204840D01*
X163824216Y-109208990D01*
X163809932Y-109197663D01*
X163784114Y-109168778D01*
X163783410Y-109167965D01*
X163754236Y-109131663D01*
X163742224Y-109106815D01*
X163746205Y-109087153D01*
X163765008Y-109066411D01*
X163781240Y-109043887D01*
X163790600Y-109000029D01*
X163790600Y-108956807D01*
X163646645Y-108960425D01*
X163502691Y-108964043D01*
X163499073Y-109107998D01*
X163497039Y-109159775D01*
X163493526Y-109207580D01*
X163489197Y-109240008D01*
X163484567Y-109251952D01*
X163480269Y-109250287D01*
X163461482Y-109235054D01*
X163435835Y-109209512D01*
X163409683Y-109180552D01*
X163389382Y-109155068D01*
X163381287Y-109139951D01*
X163382704Y-109136722D01*
X163398715Y-109121240D01*
X163426781Y-109101018D01*
X163433427Y-109096660D01*
X163458882Y-109076137D01*
X163468538Y-109053758D01*
X163468209Y-109017845D01*
X163464303Y-108964043D01*
X163343186Y-108960327D01*
X163288772Y-108959037D01*
X163250726Y-108959850D01*
X163227078Y-108963907D01*
X163212090Y-108972228D01*
X163200025Y-108985836D01*
X163193990Y-108993393D01*
X163180682Y-109003709D01*
X163171688Y-108995923D01*
X163165612Y-108967538D01*
X163161062Y-108916058D01*
X163157015Y-108855277D01*
X163473808Y-108855277D01*
X163790600Y-108855277D01*
X163790600Y-108817363D01*
X163789104Y-108800777D01*
X163781319Y-108765705D01*
X163828988Y-108765705D01*
X163828988Y-108912859D01*
X163828988Y-109060013D01*
X164020927Y-109060013D01*
X164212867Y-109060013D01*
X164212867Y-108912859D01*
X164212867Y-108765705D01*
X164020927Y-108765705D01*
X163828988Y-108765705D01*
X163781319Y-108765705D01*
X163779937Y-108759480D01*
X163765195Y-108714995D01*
X163739790Y-108650542D01*
X163828988Y-108650542D01*
G37*
G36*
X163298673Y-97397922D02*
G01*
X163313945Y-97404453D01*
X163340991Y-97420436D01*
X163347986Y-97431752D01*
X163339340Y-97447722D01*
X163312044Y-97472961D01*
X163292703Y-97489565D01*
X163276247Y-97507802D01*
X163275077Y-97522521D01*
X163286308Y-97541398D01*
X163296585Y-97558987D01*
X163299306Y-97577191D01*
X163287316Y-97577402D01*
X163265375Y-97556245D01*
X163254234Y-97542506D01*
X163243565Y-97534962D01*
X163240658Y-97546839D01*
X163237524Y-97561454D01*
X163224332Y-97568438D01*
X163209308Y-97553237D01*
X163206010Y-97551186D01*
X163208740Y-97569232D01*
X163218114Y-97614159D01*
X163224664Y-97655358D01*
X163224546Y-97677681D01*
X163218022Y-97684396D01*
X163208110Y-97681061D01*
X163188687Y-97664596D01*
X163183040Y-97658844D01*
X163166790Y-97655826D01*
X163155421Y-97674828D01*
X163150997Y-97713187D01*
X163150034Y-97724122D01*
X163139228Y-97744945D01*
X163122469Y-97747154D01*
X163107385Y-97728135D01*
X163103027Y-97716042D01*
X163100735Y-97700350D01*
X163111073Y-97702761D01*
X163117481Y-97703891D01*
X163129548Y-97691547D01*
X163131043Y-97682184D01*
X163121292Y-97666771D01*
X163114967Y-97659749D01*
X163128409Y-97646115D01*
X163129743Y-97645256D01*
X163147989Y-97627957D01*
X163147542Y-97616167D01*
X163128404Y-97615873D01*
X163120871Y-97619091D01*
X163098261Y-97642515D01*
X163080938Y-97678758D01*
X163074026Y-97718181D01*
X163072287Y-97736130D01*
X163060122Y-97754280D01*
X163038044Y-97749862D01*
X163033006Y-97745438D01*
X163031134Y-97728631D01*
X163043741Y-97697617D01*
X163050641Y-97682801D01*
X163057789Y-97654182D01*
X163050322Y-97631480D01*
X163037850Y-97608177D01*
X163041859Y-97597155D01*
X163066561Y-97594824D01*
X163087578Y-97591197D01*
X163103939Y-97578829D01*
X163108113Y-97573483D01*
X163111403Y-97585982D01*
X163114397Y-97597884D01*
X163126246Y-97600581D01*
X163132463Y-97592181D01*
X163132009Y-97561059D01*
X163116470Y-97509640D01*
X163113562Y-97501455D01*
X163113852Y-97492970D01*
X163129212Y-97503620D01*
X163141860Y-97516580D01*
X163151137Y-97535610D01*
X163152086Y-97541109D01*
X163161130Y-97566837D01*
X163176568Y-97601222D01*
X163201664Y-97652406D01*
X163193960Y-97583295D01*
X163191820Y-97562611D01*
X163190591Y-97532793D01*
X163195015Y-97520875D01*
X163206090Y-97521795D01*
X163215797Y-97524243D01*
X163229549Y-97516458D01*
X163228708Y-97491254D01*
X163213005Y-97451379D01*
X163199736Y-97424257D01*
X163190947Y-97401818D01*
X163193596Y-97394451D01*
X163207212Y-97397807D01*
X163224287Y-97413361D01*
X163240573Y-97441755D01*
X163252444Y-97466469D01*
X163264306Y-97470472D01*
X163285381Y-97456830D01*
X163301586Y-97443605D01*
X163306960Y-97429826D01*
X163294324Y-97411931D01*
X163284573Y-97400677D01*
X163281840Y-97393105D01*
X163298673Y-97397922D01*
G37*
G36*
X165106328Y-102999118D02*
G01*
X165107385Y-103039509D01*
X165107397Y-103052118D01*
X165106057Y-103087479D01*
X165102045Y-103100544D01*
X165094764Y-103093892D01*
X165078212Y-103081803D01*
X165049233Y-103073527D01*
X165017213Y-103070378D01*
X164991296Y-103073231D01*
X164980625Y-103082961D01*
X164987393Y-103092402D01*
X165010765Y-103111993D01*
X165045063Y-103135772D01*
X165109500Y-103177122D01*
X165106492Y-103264648D01*
X165106487Y-103264795D01*
X165106340Y-103310180D01*
X165108826Y-103345134D01*
X165113410Y-103362101D01*
X165118632Y-103376844D01*
X165115810Y-103407707D01*
X165104522Y-103442375D01*
X165087256Y-103470533D01*
X165066987Y-103484172D01*
X165031397Y-103492855D01*
X164995608Y-103490958D01*
X164971021Y-103477771D01*
X164968488Y-103474158D01*
X164955101Y-103448072D01*
X164940877Y-103412643D01*
X164937393Y-103403364D01*
X164914674Y-103363708D01*
X164888220Y-103348355D01*
X164858944Y-103357913D01*
X164848241Y-103369245D01*
X164842619Y-103398157D01*
X164856274Y-103430028D01*
X164887333Y-103458236D01*
X164923043Y-103480289D01*
X164878257Y-103480585D01*
X164833472Y-103480880D01*
X164829709Y-103411111D01*
X164829721Y-103381463D01*
X164841209Y-103330864D01*
X164867772Y-103299677D01*
X164908681Y-103289030D01*
X164924736Y-103290820D01*
X164949151Y-103304016D01*
X164972857Y-103333543D01*
X164999819Y-103383513D01*
X165013147Y-103408086D01*
X165033193Y-103430081D01*
X165057226Y-103436184D01*
X165058921Y-103436155D01*
X165084228Y-103425736D01*
X165095784Y-103401360D01*
X165093929Y-103370060D01*
X165079003Y-103338865D01*
X165051348Y-103314807D01*
X165038927Y-103307700D01*
X165021128Y-103292557D01*
X165027375Y-103285005D01*
X165057401Y-103286301D01*
X165067223Y-103287381D01*
X165091235Y-103283263D01*
X165094141Y-103267188D01*
X165076291Y-103240621D01*
X165038035Y-103205031D01*
X164980281Y-103157705D01*
X164949074Y-103191378D01*
X164918703Y-103217589D01*
X164890611Y-103223177D01*
X164859503Y-103207760D01*
X164849880Y-103197987D01*
X164840433Y-103176159D01*
X164834168Y-103139647D01*
X164830548Y-103092830D01*
X164847093Y-103092830D01*
X164853756Y-103119484D01*
X164862243Y-103132383D01*
X164889880Y-103146900D01*
X164923598Y-103147574D01*
X164952474Y-103132920D01*
X164959728Y-103122916D01*
X164967829Y-103094532D01*
X164964026Y-103080980D01*
X164947145Y-103073454D01*
X164911003Y-103071499D01*
X164882399Y-103072281D01*
X164855310Y-103078212D01*
X164847093Y-103092830D01*
X164830548Y-103092830D01*
X164829788Y-103083000D01*
X164827142Y-103032557D01*
X164826742Y-103001379D01*
X164829621Y-102987885D01*
X164836674Y-102988068D01*
X164848796Y-102997922D01*
X164858574Y-103005089D01*
X164883139Y-103014234D01*
X164911003Y-103017695D01*
X164921238Y-103018966D01*
X164978846Y-103020315D01*
X165009900Y-103020183D01*
X165050625Y-103018684D01*
X165074619Y-103014354D01*
X165087626Y-103005773D01*
X165095390Y-102991524D01*
X165097904Y-102985860D01*
X165103359Y-102981998D01*
X165106328Y-102999118D01*
G37*
G36*
X163192086Y-96480936D02*
G01*
X163201985Y-96488398D01*
X163193176Y-96494546D01*
X163165882Y-96510350D01*
X163124521Y-96533168D01*
X163073607Y-96560466D01*
X163026695Y-96586140D01*
X162987740Y-96609218D01*
X162963702Y-96625625D01*
X162958523Y-96632880D01*
X162962431Y-96634944D01*
X162964585Y-96649015D01*
X162962957Y-96653514D01*
X162972272Y-96660718D01*
X162978914Y-96663497D01*
X162979827Y-96679912D01*
X162977623Y-96689672D01*
X162983486Y-96699106D01*
X162989538Y-96696839D01*
X163001877Y-96679912D01*
X163007571Y-96671084D01*
X163029692Y-96660718D01*
X163034972Y-96659982D01*
X163061297Y-96648686D01*
X163092922Y-96628087D01*
X163098548Y-96623891D01*
X163128949Y-96606569D01*
X163144534Y-96609745D01*
X163147584Y-96615498D01*
X163148884Y-96627357D01*
X163145941Y-96629295D01*
X163126592Y-96641262D01*
X163096419Y-96659540D01*
X163084021Y-96667614D01*
X163058565Y-96689333D01*
X163048434Y-96706548D01*
X163048615Y-96712101D01*
X163053636Y-96723120D01*
X163068314Y-96717151D01*
X163096361Y-96693158D01*
X163105396Y-96685071D01*
X163128715Y-96668911D01*
X163137501Y-96672361D01*
X163130721Y-96695355D01*
X163121142Y-96719537D01*
X163113890Y-96755056D01*
X163109745Y-96758701D01*
X163094169Y-96751078D01*
X163082226Y-96744176D01*
X163052582Y-96739914D01*
X163035998Y-96737818D01*
X163032788Y-96718300D01*
X163034025Y-96708243D01*
X163031952Y-96700245D01*
X163019201Y-96714253D01*
X163015469Y-96718392D01*
X162992698Y-96734188D01*
X162965545Y-96744799D01*
X162942805Y-96747595D01*
X162933270Y-96739947D01*
X162934430Y-96734587D01*
X162949265Y-96720376D01*
X162956258Y-96716690D01*
X162950832Y-96712912D01*
X162940498Y-96715428D01*
X162920474Y-96731096D01*
X162909844Y-96741477D01*
X162891946Y-96750290D01*
X162886544Y-96747568D01*
X162886714Y-96731096D01*
X162888725Y-96721281D01*
X162881685Y-96711902D01*
X162870070Y-96706612D01*
X162873391Y-96693241D01*
X162891439Y-96680549D01*
X162904500Y-96678135D01*
X162918124Y-96685657D01*
X162920339Y-96689805D01*
X162934461Y-96691972D01*
X162937664Y-96683515D01*
X162927151Y-96665567D01*
X162916292Y-96656320D01*
X162900584Y-96654770D01*
X162876763Y-96669581D01*
X162853723Y-96691481D01*
X162839393Y-96715101D01*
X162833826Y-96726923D01*
X162817812Y-96737494D01*
X162809614Y-96732873D01*
X162809015Y-96711915D01*
X162810729Y-96695720D01*
X162804109Y-96679170D01*
X162796475Y-96666068D01*
X162792514Y-96638323D01*
X162792987Y-96619223D01*
X162797471Y-96613473D01*
X162810583Y-96629354D01*
X162817305Y-96637985D01*
X162826572Y-96644043D01*
X162835457Y-96636154D01*
X162846775Y-96610872D01*
X162863341Y-96564748D01*
X162870818Y-96550300D01*
X162878461Y-96555801D01*
X162878537Y-96556012D01*
X162878152Y-96578989D01*
X162868851Y-96610595D01*
X162867947Y-96612805D01*
X162858934Y-96639785D01*
X162857971Y-96653620D01*
X162864117Y-96651964D01*
X162888126Y-96640179D01*
X162925484Y-96619869D01*
X162971174Y-96593940D01*
X163020176Y-96565297D01*
X163067473Y-96536845D01*
X163108048Y-96511490D01*
X163136881Y-96492137D01*
X163161765Y-96479404D01*
X163184260Y-96477511D01*
X163192086Y-96480936D01*
G37*
G36*
X164016953Y-95502404D02*
G01*
X164143872Y-95513843D01*
X164257868Y-95534447D01*
X164368081Y-95566207D01*
X164483648Y-95611115D01*
X164586053Y-95660534D01*
X164739058Y-95756593D01*
X164877678Y-95871781D01*
X165000140Y-96003817D01*
X165104676Y-96150417D01*
X165189514Y-96309298D01*
X165252884Y-96478178D01*
X165293016Y-96654773D01*
X165298546Y-96692825D01*
X165310129Y-96820903D01*
X165308588Y-96944391D01*
X165293954Y-97076587D01*
X165262389Y-97230418D01*
X165203763Y-97405721D01*
X165123686Y-97568481D01*
X165023203Y-97717556D01*
X164903359Y-97851801D01*
X164765197Y-97970076D01*
X164609763Y-98071236D01*
X164438101Y-98154138D01*
X164251255Y-98217640D01*
X164240224Y-98220551D01*
X164201334Y-98228675D01*
X164156564Y-98234317D01*
X164100992Y-98237826D01*
X164029696Y-98239551D01*
X163937754Y-98239840D01*
X163907875Y-98239722D01*
X163828462Y-98238862D01*
X163766951Y-98236830D01*
X163717507Y-98233067D01*
X163674296Y-98227010D01*
X163631482Y-98218100D01*
X163583231Y-98205775D01*
X163567792Y-98201541D01*
X163392016Y-98140050D01*
X163230065Y-98057474D01*
X163080308Y-97952848D01*
X162941117Y-97825206D01*
X162933943Y-97817719D01*
X162813420Y-97675113D01*
X162716826Y-97524842D01*
X162643223Y-97364887D01*
X162591669Y-97193224D01*
X162561226Y-97007833D01*
X162559130Y-96986070D01*
X162556192Y-96833074D01*
X162633391Y-96833074D01*
X162638770Y-97006859D01*
X162667806Y-97179774D01*
X162721144Y-97349400D01*
X162724529Y-97357918D01*
X162800990Y-97514895D01*
X162898672Y-97660698D01*
X163014966Y-97792710D01*
X163147267Y-97908317D01*
X163292969Y-98004906D01*
X163449464Y-98079863D01*
X163531226Y-98110177D01*
X163605411Y-98132760D01*
X163677559Y-98148234D01*
X163754548Y-98157748D01*
X163843253Y-98162449D01*
X163950550Y-98163484D01*
X163973330Y-98163388D01*
X164050664Y-98162572D01*
X164109610Y-98160613D01*
X164155935Y-98156905D01*
X164195406Y-98150843D01*
X164233787Y-98141823D01*
X164276847Y-98129239D01*
X164433356Y-98072533D01*
X164586748Y-97995870D01*
X164725511Y-97901643D01*
X164853435Y-97787606D01*
X164956721Y-97671406D01*
X165057549Y-97523940D01*
X165135754Y-97364778D01*
X165191795Y-97193119D01*
X165204710Y-97134270D01*
X165221090Y-97023723D01*
X165230075Y-96907743D01*
X165231039Y-96796092D01*
X165223361Y-96698532D01*
X165207696Y-96610098D01*
X165158539Y-96439577D01*
X165086599Y-96276768D01*
X164993615Y-96124743D01*
X164881328Y-95986575D01*
X164751477Y-95865335D01*
X164623787Y-95774503D01*
X164468127Y-95691582D01*
X164303060Y-95629966D01*
X164131722Y-95590356D01*
X163957252Y-95573453D01*
X163782784Y-95579959D01*
X163611456Y-95610574D01*
X163536009Y-95633580D01*
X163425666Y-95677749D01*
X163313438Y-95732959D01*
X163208197Y-95794745D01*
X163118812Y-95858639D01*
X163061789Y-95907526D01*
X162938773Y-96035743D01*
X162835544Y-96177602D01*
X162752746Y-96330682D01*
X162691024Y-96492567D01*
X162651024Y-96660837D01*
X162633391Y-96833074D01*
X162556192Y-96833074D01*
X162555663Y-96805504D01*
X162576294Y-96628161D01*
X162619701Y-96456163D01*
X162684561Y-96291633D01*
X162769553Y-96136694D01*
X162873355Y-95993469D01*
X162994646Y-95864081D01*
X163132102Y-95750652D01*
X163284403Y-95655306D01*
X163450226Y-95580166D01*
X163529868Y-95553021D01*
X163670866Y-95518735D01*
X163816999Y-95501627D01*
X163957252Y-95500639D01*
X163976142Y-95500506D01*
X164016953Y-95502404D01*
G37*
G36*
X164245733Y-101794911D02*
G01*
X164248312Y-101800192D01*
X164253205Y-101827672D01*
X164257030Y-101872341D01*
X164259689Y-101928451D01*
X164261087Y-101990255D01*
X164261128Y-102052006D01*
X164259717Y-102107956D01*
X164256756Y-102152358D01*
X164252151Y-102179464D01*
X164233357Y-102216476D01*
X164189494Y-102265397D01*
X164128808Y-102309597D01*
X164056254Y-102344894D01*
X164019673Y-102360173D01*
X163990132Y-102375228D01*
X163978077Y-102385187D01*
X163986951Y-102394316D01*
X164014447Y-102412539D01*
X164056210Y-102436914D01*
X164107810Y-102464723D01*
X164135367Y-102479288D01*
X164228542Y-102533300D01*
X164297521Y-102582240D01*
X164342907Y-102626582D01*
X164365307Y-102666803D01*
X164365804Y-102668519D01*
X164374017Y-102697960D01*
X164378061Y-102714407D01*
X164376432Y-102725780D01*
X164367627Y-102755835D01*
X164354008Y-102795070D01*
X164338643Y-102835196D01*
X164324599Y-102867925D01*
X164314943Y-102884969D01*
X164305955Y-102886483D01*
X164302439Y-102865204D01*
X164302104Y-102853334D01*
X164285968Y-102779242D01*
X164247364Y-102705582D01*
X164188723Y-102636075D01*
X164112475Y-102574441D01*
X164090724Y-102560132D01*
X164033205Y-102524436D01*
X163975416Y-102491144D01*
X163921728Y-102462525D01*
X163876514Y-102440846D01*
X163844145Y-102428376D01*
X163828992Y-102427381D01*
X163822621Y-102439271D01*
X163809026Y-102471207D01*
X163790939Y-102517394D01*
X163770527Y-102572456D01*
X163753397Y-102618837D01*
X163734232Y-102668234D01*
X163718987Y-102704773D01*
X163709936Y-102722809D01*
X163707907Y-102725247D01*
X163681635Y-102737729D01*
X163648429Y-102733735D01*
X163618797Y-102714253D01*
X163606592Y-102699450D01*
X163604682Y-102684534D01*
X163621166Y-102665115D01*
X163624403Y-102661450D01*
X163642052Y-102633703D01*
X163663803Y-102591522D01*
X163686396Y-102542295D01*
X163706569Y-102493407D01*
X163721064Y-102452244D01*
X163726620Y-102426192D01*
X163718500Y-102411627D01*
X163688888Y-102406108D01*
X163658021Y-102407629D01*
X163603153Y-102413054D01*
X163536216Y-102421425D01*
X163464400Y-102431703D01*
X163394893Y-102442848D01*
X163334882Y-102453820D01*
X163291557Y-102463580D01*
X163257637Y-102472234D01*
X163229385Y-102476232D01*
X163209615Y-102471988D01*
X163189376Y-102459108D01*
X163177351Y-102448568D01*
X163156420Y-102418726D01*
X163144657Y-102385373D01*
X163142066Y-102353990D01*
X163148648Y-102330055D01*
X163164403Y-102319050D01*
X163189335Y-102326454D01*
X163191173Y-102327482D01*
X163219801Y-102335156D01*
X163267142Y-102340270D01*
X163327086Y-102342129D01*
X163341270Y-102341994D01*
X163401208Y-102339470D01*
X163470827Y-102334276D01*
X163544255Y-102327092D01*
X163615620Y-102318599D01*
X163679049Y-102309478D01*
X163728670Y-102300410D01*
X163758610Y-102292077D01*
X163771429Y-102281036D01*
X163788666Y-102251891D01*
X163809463Y-102202861D01*
X163835010Y-102131440D01*
X163859620Y-102062208D01*
X163881706Y-102010063D01*
X163901177Y-101978695D01*
X163919901Y-101966008D01*
X163939744Y-101969908D01*
X163962571Y-101988302D01*
X163993616Y-102019346D01*
X163942437Y-102123425D01*
X163932220Y-102144880D01*
X163912051Y-102192130D01*
X163898931Y-102230170D01*
X163895312Y-102252290D01*
X163895967Y-102256066D01*
X163900188Y-102266969D01*
X163910975Y-102269252D01*
X163934004Y-102262484D01*
X163974951Y-102246234D01*
X163984177Y-102242403D01*
X164064167Y-102201194D01*
X164124118Y-102151822D01*
X164166880Y-102090305D01*
X164195307Y-102012660D01*
X164212250Y-101914905D01*
X164216545Y-101878025D01*
X164223439Y-101829633D01*
X164230005Y-101801789D01*
X164237138Y-101791284D01*
X164245733Y-101794911D01*
G37*
G36*
X163638525Y-109112510D02*
G01*
X163645884Y-109123348D01*
X163648229Y-109148245D01*
X163645717Y-109190908D01*
X163638505Y-109255047D01*
X163629325Y-109328520D01*
X163674773Y-109335894D01*
X163764384Y-109352641D01*
X163879146Y-109380334D01*
X163979973Y-109411847D01*
X163984451Y-109413454D01*
X164029818Y-109428827D01*
X164066334Y-109439675D01*
X164086455Y-109443739D01*
X164088233Y-109443559D01*
X164110359Y-109432498D01*
X164144956Y-109407084D01*
X164187698Y-109371234D01*
X164234260Y-109328864D01*
X164280318Y-109283891D01*
X164321548Y-109240231D01*
X164353623Y-109201800D01*
X164358183Y-109195797D01*
X164386618Y-109160049D01*
X164408992Y-109134649D01*
X164420802Y-109124765D01*
X164421137Y-109124742D01*
X164430399Y-109131357D01*
X164428044Y-109140261D01*
X164413556Y-109169262D01*
X164388668Y-109210893D01*
X164356642Y-109260202D01*
X164320740Y-109312238D01*
X164284223Y-109362049D01*
X164250354Y-109404683D01*
X164170310Y-109499832D01*
X164201185Y-109519809D01*
X164243074Y-109550043D01*
X164300315Y-109601138D01*
X164351491Y-109657465D01*
X164392780Y-109714193D01*
X164420357Y-109766487D01*
X164430399Y-109809515D01*
X164428503Y-109833705D01*
X164414263Y-109864651D01*
X164386820Y-109873784D01*
X164347055Y-109860564D01*
X164335561Y-109854793D01*
X164305713Y-109845081D01*
X164269224Y-109842546D01*
X164216878Y-109846170D01*
X164171384Y-109851283D01*
X164131074Y-109856856D01*
X164107300Y-109861406D01*
X164094779Y-109862677D01*
X164084907Y-109854225D01*
X164085625Y-109849975D01*
X164099302Y-109840567D01*
X164117439Y-109836974D01*
X164150876Y-109824393D01*
X164189509Y-109806295D01*
X164226085Y-109786398D01*
X164253351Y-109768424D01*
X164264051Y-109756091D01*
X164260595Y-109743996D01*
X164241387Y-109714710D01*
X164209789Y-109678977D01*
X164170903Y-109642339D01*
X164129831Y-109610334D01*
X164076357Y-109573543D01*
X164019851Y-109611813D01*
X164006617Y-109620412D01*
X163962347Y-109646857D01*
X163907643Y-109677415D01*
X163851381Y-109707066D01*
X163826264Y-109720265D01*
X163780753Y-109746914D01*
X163750435Y-109768794D01*
X163739416Y-109783113D01*
X163739403Y-109784815D01*
X163735353Y-109802198D01*
X163725521Y-109797868D01*
X163712021Y-109774276D01*
X163696967Y-109733875D01*
X163688170Y-109705312D01*
X163678995Y-109673488D01*
X163675436Y-109658092D01*
X163676471Y-109656215D01*
X163693045Y-109646644D01*
X163723421Y-109635164D01*
X163743302Y-109628410D01*
X163792626Y-109609373D01*
X163843392Y-109587306D01*
X163890553Y-109564698D01*
X163929060Y-109544039D01*
X163953866Y-109527818D01*
X163959923Y-109518525D01*
X163956851Y-109516356D01*
X163932543Y-109506562D01*
X163891418Y-109493962D01*
X163839856Y-109480128D01*
X163784241Y-109466633D01*
X163730955Y-109455047D01*
X163686379Y-109446943D01*
X163656897Y-109443892D01*
X163616047Y-109443892D01*
X163593583Y-109638938D01*
X163589215Y-109675959D01*
X163581200Y-109739346D01*
X163573981Y-109790924D01*
X163568212Y-109826148D01*
X163564549Y-109840475D01*
X163561928Y-109840995D01*
X163547125Y-109830202D01*
X163525451Y-109805940D01*
X163501952Y-109774254D01*
X163481673Y-109741190D01*
X163475326Y-109728969D01*
X163471799Y-109715055D01*
X163478679Y-109702010D01*
X163499464Y-109684620D01*
X163537647Y-109657667D01*
X163542103Y-109653873D01*
X163553604Y-109633360D01*
X163561881Y-109596486D01*
X163568112Y-109538643D01*
X163576418Y-109435057D01*
X163507564Y-109426790D01*
X163500491Y-109426001D01*
X163450521Y-109422185D01*
X163388853Y-109419474D01*
X163327196Y-109418411D01*
X163289463Y-109418569D01*
X163248660Y-109420186D01*
X163223950Y-109424614D01*
X163209572Y-109433151D01*
X163199767Y-109447091D01*
X163199372Y-109447805D01*
X163188144Y-109465949D01*
X163181841Y-109463193D01*
X163175239Y-109437494D01*
X163174631Y-109434675D01*
X163168477Y-109393654D01*
X163165111Y-109349187D01*
X163163597Y-109299268D01*
X163363723Y-109308196D01*
X163403557Y-109310012D01*
X163468928Y-109313173D01*
X163522964Y-109316016D01*
X163560922Y-109318286D01*
X163578055Y-109319727D01*
X163578945Y-109319750D01*
X163587629Y-109306528D01*
X163596112Y-109271161D01*
X163603623Y-109216763D01*
X163605336Y-109201548D01*
X163613155Y-109149703D01*
X163621956Y-109120411D01*
X163632413Y-109111197D01*
X163638525Y-109112510D01*
G37*
G36*
X164383480Y-107085168D02*
G01*
X164384941Y-107093763D01*
X164386627Y-107125384D01*
X164388031Y-107177277D01*
X164389159Y-107246410D01*
X164390015Y-107329752D01*
X164390606Y-107424269D01*
X164390936Y-107526930D01*
X164391013Y-107634702D01*
X164390840Y-107744553D01*
X164390424Y-107853451D01*
X164389771Y-107958363D01*
X164388886Y-108056257D01*
X164387774Y-108144101D01*
X164386442Y-108218862D01*
X164384894Y-108277509D01*
X164383137Y-108317008D01*
X164381176Y-108334329D01*
X164380762Y-108335365D01*
X164372977Y-108347437D01*
X164361254Y-108343453D01*
X164339465Y-108321533D01*
X164339288Y-108321340D01*
X164308115Y-108285352D01*
X164278992Y-108248903D01*
X164251194Y-108211950D01*
X164302408Y-108172588D01*
X164353623Y-108133226D01*
X164353623Y-107950423D01*
X164353623Y-107767620D01*
X164225663Y-107767620D01*
X164097703Y-107767620D01*
X164097507Y-107994748D01*
X164097026Y-108058857D01*
X164095499Y-108126539D01*
X164093123Y-108182064D01*
X164090098Y-108220954D01*
X164086623Y-108238732D01*
X164085902Y-108239766D01*
X164074343Y-108242183D01*
X164054205Y-108226962D01*
X164022839Y-108192170D01*
X163997476Y-108160324D01*
X163977427Y-108131790D01*
X163969744Y-108116053D01*
X163971360Y-108111444D01*
X163987219Y-108092675D01*
X164014529Y-108069193D01*
X164059315Y-108035033D01*
X164059315Y-107901326D01*
X164059315Y-107767620D01*
X163944152Y-107767620D01*
X163828988Y-107767620D01*
X163828988Y-107921171D01*
X163828988Y-108074723D01*
X163867376Y-108074723D01*
X163886593Y-108076114D01*
X163902459Y-108085734D01*
X163903649Y-108108635D01*
X163891716Y-108149589D01*
X163877668Y-108189887D01*
X163592503Y-108189887D01*
X163500538Y-108189962D01*
X163430384Y-108190386D01*
X163379425Y-108191453D01*
X163344455Y-108193459D01*
X163322265Y-108196698D01*
X163309649Y-108201465D01*
X163303400Y-108208057D01*
X163300309Y-108216766D01*
X163298580Y-108222796D01*
X163291122Y-108235655D01*
X163279387Y-108232928D01*
X163260208Y-108212620D01*
X163230421Y-108172739D01*
X163189026Y-108115097D01*
X163221097Y-108089870D01*
X163253169Y-108064642D01*
X163252935Y-107767620D01*
X163291557Y-107767620D01*
X163291557Y-107921171D01*
X163291557Y-108074723D01*
X163406721Y-108074723D01*
X163521885Y-108074723D01*
X163521885Y-107921171D01*
X163521885Y-107767620D01*
X163560273Y-107767620D01*
X163560273Y-107921171D01*
X163560273Y-108074723D01*
X163675436Y-108074723D01*
X163790600Y-108074723D01*
X163790600Y-107921171D01*
X163790600Y-107767620D01*
X163675436Y-107767620D01*
X163560273Y-107767620D01*
X163521885Y-107767620D01*
X163406721Y-107767620D01*
X163291557Y-107767620D01*
X163252935Y-107767620D01*
X163252888Y-107708196D01*
X163252864Y-107683912D01*
X163252587Y-107582572D01*
X163251894Y-107502887D01*
X163250587Y-107441606D01*
X163248468Y-107395473D01*
X163245340Y-107361237D01*
X163244817Y-107358149D01*
X163291557Y-107358149D01*
X163291557Y-107505302D01*
X163291557Y-107652456D01*
X163406721Y-107652456D01*
X163521885Y-107652456D01*
X163521885Y-107505302D01*
X163521885Y-107358149D01*
X163560273Y-107358149D01*
X163560273Y-107505302D01*
X163560273Y-107652456D01*
X163675436Y-107652456D01*
X163790600Y-107652456D01*
X163790600Y-107505302D01*
X163790600Y-107358149D01*
X163675436Y-107358149D01*
X163560273Y-107358149D01*
X163521885Y-107358149D01*
X163406721Y-107358149D01*
X163291557Y-107358149D01*
X163244817Y-107358149D01*
X163241005Y-107335643D01*
X163235264Y-107315437D01*
X163227922Y-107297368D01*
X163203237Y-107242985D01*
X163291557Y-107242985D01*
X163560273Y-107242985D01*
X163568896Y-107242985D01*
X163934555Y-107242985D01*
X163926481Y-107283352D01*
X163915326Y-107320776D01*
X163893013Y-107349279D01*
X163859411Y-107358149D01*
X163848090Y-107358632D01*
X163838811Y-107362923D01*
X163833163Y-107375379D01*
X163830243Y-107400357D01*
X163829152Y-107442212D01*
X163828988Y-107505302D01*
X163828988Y-107652456D01*
X163944152Y-107652456D01*
X164059315Y-107652456D01*
X164059315Y-107428527D01*
X164059317Y-107422039D01*
X164059640Y-107341768D01*
X164060735Y-107283536D01*
X164062884Y-107244021D01*
X164066373Y-107219906D01*
X164071487Y-107207871D01*
X164078509Y-107204597D01*
X164079065Y-107204610D01*
X164085946Y-107208386D01*
X164090937Y-107221154D01*
X164094324Y-107246233D01*
X164096391Y-107286942D01*
X164097423Y-107346600D01*
X164097703Y-107428527D01*
X164097703Y-107652456D01*
X164225663Y-107652456D01*
X164353623Y-107652456D01*
X164353623Y-107364547D01*
X164353633Y-107343336D01*
X164354071Y-107250942D01*
X164355343Y-107181173D01*
X164357715Y-107131557D01*
X164361450Y-107099620D01*
X164366814Y-107082892D01*
X164374069Y-107078898D01*
X164383480Y-107085168D01*
G37*
G36*
X163839905Y-98791310D02*
G01*
X163857240Y-98817854D01*
X163877015Y-98867222D01*
X163888138Y-98900696D01*
X163901582Y-98955468D01*
X163902313Y-98998074D01*
X163889889Y-99035494D01*
X163863867Y-99074710D01*
X163831758Y-99116184D01*
X163771088Y-99195721D01*
X163722497Y-99261545D01*
X163683056Y-99317779D01*
X163649830Y-99368550D01*
X163619890Y-99417982D01*
X163587305Y-99476134D01*
X163566660Y-99519449D01*
X163560190Y-99544525D01*
X163567408Y-99552607D01*
X163569835Y-99551349D01*
X163587790Y-99537435D01*
X163619750Y-99510568D01*
X163630377Y-99501348D01*
X163729362Y-99501348D01*
X163734516Y-99511424D01*
X163756164Y-99514219D01*
X163756243Y-99514219D01*
X163788639Y-99507500D01*
X163818973Y-99484721D01*
X163836315Y-99462617D01*
X163852596Y-99441866D01*
X163863646Y-99424912D01*
X163880299Y-99391685D01*
X163879776Y-99375644D01*
X163863567Y-99377005D01*
X163833162Y-99395983D01*
X163790052Y-99432796D01*
X163772759Y-99449206D01*
X163741758Y-99481454D01*
X163729362Y-99501348D01*
X163630377Y-99501348D01*
X163662135Y-99473793D01*
X163711363Y-99430155D01*
X163711809Y-99429756D01*
X163788875Y-99362539D01*
X163855662Y-99307810D01*
X163879776Y-99289783D01*
X163910247Y-99267003D01*
X163950712Y-99241556D01*
X163975136Y-99232904D01*
X163975490Y-99232910D01*
X164005867Y-99245396D01*
X164025777Y-99278530D01*
X164027388Y-99288656D01*
X164019155Y-99318919D01*
X163992312Y-99360528D01*
X163966743Y-99395116D01*
X163936291Y-99438523D01*
X163915206Y-99471415D01*
X163906699Y-99488978D01*
X163907429Y-99489852D01*
X163924430Y-99492781D01*
X163959409Y-99494751D01*
X164006334Y-99495376D01*
X164106905Y-99495025D01*
X164118299Y-99444711D01*
X164127184Y-99414164D01*
X164141319Y-99393134D01*
X164157359Y-99397604D01*
X164175257Y-99427587D01*
X164177077Y-99431673D01*
X164191612Y-99456542D01*
X164211094Y-99466484D01*
X164245729Y-99467242D01*
X164254349Y-99466596D01*
X164302565Y-99456603D01*
X164348097Y-99439192D01*
X164359378Y-99433469D01*
X164408844Y-99411675D01*
X164445238Y-99404271D01*
X164475145Y-99410924D01*
X164505148Y-99431304D01*
X164506752Y-99432663D01*
X164537066Y-99466375D01*
X164543911Y-99498406D01*
X164528423Y-99533765D01*
X164525692Y-99538263D01*
X164511826Y-99567280D01*
X164493897Y-99610845D01*
X164475078Y-99661373D01*
X164469320Y-99677431D01*
X164451527Y-99724426D01*
X164436383Y-99760797D01*
X164426671Y-99779736D01*
X164413944Y-99790709D01*
X164384392Y-99793454D01*
X164351431Y-99774553D01*
X164335375Y-99753025D01*
X164330139Y-99714690D01*
X164347632Y-99674922D01*
X164354554Y-99663900D01*
X164364398Y-99636999D01*
X164366164Y-99613716D01*
X164358379Y-99603791D01*
X164346453Y-99608463D01*
X164318103Y-99622914D01*
X164280519Y-99643739D01*
X164257005Y-99656817D01*
X164223991Y-99671972D01*
X164200743Y-99675595D01*
X164179792Y-99669605D01*
X164159379Y-99655422D01*
X164148887Y-99636055D01*
X164147655Y-99629991D01*
X164136269Y-99621834D01*
X164108980Y-99617721D01*
X164060978Y-99616587D01*
X163973070Y-99616587D01*
X163956731Y-99674942D01*
X163950491Y-99694477D01*
X163937645Y-99720508D01*
X163917021Y-99746005D01*
X163884225Y-99776044D01*
X163834867Y-99815698D01*
X163802169Y-99840409D01*
X163759368Y-99870186D01*
X163725741Y-99890552D01*
X163706595Y-99898098D01*
X163705082Y-99898081D01*
X163670995Y-99886448D01*
X163648181Y-99857357D01*
X163638165Y-99816811D01*
X163642476Y-99770809D01*
X163659306Y-99732869D01*
X163739462Y-99732869D01*
X163743457Y-99752853D01*
X163747525Y-99754503D01*
X163768350Y-99749198D01*
X163797300Y-99733566D01*
X163826333Y-99712423D01*
X163847405Y-99690589D01*
X163865094Y-99656846D01*
X163861489Y-99636267D01*
X163836315Y-99629383D01*
X163826504Y-99630945D01*
X163799323Y-99646384D01*
X163772411Y-99672965D01*
X163750785Y-99704016D01*
X163739462Y-99732869D01*
X163659306Y-99732869D01*
X163662640Y-99725353D01*
X163682708Y-99691535D01*
X163687083Y-99670737D01*
X163672171Y-99664544D01*
X163636921Y-99670720D01*
X163598741Y-99686131D01*
X163550548Y-99727392D01*
X163496098Y-99793334D01*
X163450849Y-99843892D01*
X163418337Y-99874816D01*
X163399329Y-99885302D01*
X163396239Y-99885143D01*
X163375355Y-99871735D01*
X163365919Y-99840611D01*
X163369761Y-99797219D01*
X163370253Y-99795101D01*
X163378761Y-99753515D01*
X163378648Y-99731435D01*
X163368259Y-99723917D01*
X163345940Y-99726020D01*
X163336484Y-99727575D01*
X163302612Y-99727618D01*
X163287389Y-99713865D01*
X163289998Y-99684309D01*
X163309621Y-99636945D01*
X163328385Y-99600545D01*
X163344966Y-99577405D01*
X163362611Y-99567499D01*
X163387204Y-99565403D01*
X163407134Y-99564066D01*
X163432775Y-99552310D01*
X163454937Y-99522774D01*
X163456322Y-99520395D01*
X163478154Y-99476737D01*
X163496143Y-99431498D01*
X163503695Y-99410738D01*
X163521328Y-99366606D01*
X163544393Y-99311715D01*
X163569854Y-99253396D01*
X163582274Y-99225439D01*
X163616383Y-99148169D01*
X163651897Y-99067171D01*
X163682874Y-98995982D01*
X163689513Y-98980806D01*
X163730345Y-98895731D01*
X163766964Y-98834421D01*
X163799074Y-98797315D01*
X163826377Y-98784849D01*
X163839905Y-98791310D01*
G37*
G36*
X164389062Y-100218262D02*
G01*
X164414144Y-100224799D01*
X164448030Y-100237363D01*
X164456893Y-100241399D01*
X164483619Y-100258744D01*
X164494378Y-100274754D01*
X164492711Y-100282266D01*
X164481693Y-100298860D01*
X164458947Y-100321524D01*
X164422827Y-100351532D01*
X164371686Y-100390157D01*
X164303875Y-100438671D01*
X164217748Y-100498347D01*
X164111657Y-100570458D01*
X164050239Y-100611945D01*
X163938600Y-100687464D01*
X163845713Y-100750499D01*
X163769889Y-100802238D01*
X163709438Y-100843869D01*
X163662673Y-100876578D01*
X163627905Y-100901554D01*
X163603446Y-100919985D01*
X163587606Y-100933058D01*
X163578697Y-100941960D01*
X163575031Y-100947879D01*
X163574325Y-100953140D01*
X163584962Y-100959273D01*
X163616137Y-100956523D01*
X163643074Y-100953385D01*
X163658903Y-100957621D01*
X163662640Y-100973009D01*
X163660788Y-100986826D01*
X163650403Y-101004604D01*
X163646946Y-101007463D01*
X163643474Y-101024689D01*
X163653491Y-101040982D01*
X163670690Y-101044073D01*
X163677741Y-101041207D01*
X163706445Y-101029549D01*
X163721266Y-101030599D01*
X163739695Y-101050257D01*
X163746140Y-101066120D01*
X163745804Y-101091707D01*
X163732277Y-101128156D01*
X163721527Y-101155568D01*
X163718528Y-101181979D01*
X163732170Y-101189048D01*
X163762535Y-101176906D01*
X163781405Y-101163272D01*
X163796094Y-101138488D01*
X163803978Y-101097330D01*
X163804105Y-101096236D01*
X163813066Y-101047388D01*
X163827613Y-101021373D01*
X163850771Y-101015602D01*
X163885565Y-101027485D01*
X163929601Y-101048485D01*
X164011496Y-100985263D01*
X164059471Y-100944324D01*
X164110275Y-100894384D01*
X164151118Y-100847705D01*
X164187372Y-100805832D01*
X164234449Y-100764761D01*
X164277723Y-100741451D01*
X164313380Y-100738470D01*
X164336804Y-100749066D01*
X164366419Y-100768373D01*
X164376943Y-100777152D01*
X164387278Y-100791494D01*
X164386640Y-100807547D01*
X164373040Y-100827916D01*
X164344486Y-100855206D01*
X164298989Y-100892022D01*
X164234559Y-100940970D01*
X164182933Y-100979981D01*
X164122505Y-101027309D01*
X164078553Y-101064911D01*
X164048357Y-101095671D01*
X164029193Y-101122478D01*
X164018339Y-101148216D01*
X164013072Y-101175771D01*
X164011718Y-101195821D01*
X164018020Y-101228755D01*
X164037823Y-101239958D01*
X164071111Y-101229414D01*
X164089012Y-101212937D01*
X164097703Y-101175821D01*
X164097708Y-101172818D01*
X164099996Y-101148338D01*
X164111773Y-101140783D01*
X164140769Y-101144538D01*
X164158992Y-101147418D01*
X164175719Y-101145598D01*
X164190126Y-101133796D01*
X164206915Y-101107768D01*
X164230786Y-101063268D01*
X164236081Y-101053288D01*
X164259299Y-101011678D01*
X164278379Y-100980746D01*
X164289622Y-100966575D01*
X164291697Y-100965535D01*
X164310597Y-100969659D01*
X164330859Y-100990093D01*
X164347022Y-101019628D01*
X164353623Y-101051055D01*
X164349779Y-101075488D01*
X164331722Y-101110596D01*
X164295985Y-101154868D01*
X164238347Y-101218975D01*
X164277783Y-101263890D01*
X164287099Y-101275364D01*
X164308556Y-101319001D01*
X164306239Y-101358784D01*
X164280099Y-101392028D01*
X164261941Y-101403455D01*
X164234079Y-101406907D01*
X164209673Y-101387557D01*
X164186055Y-101344043D01*
X164174458Y-101318356D01*
X164160245Y-101290774D01*
X164152068Y-101280063D01*
X164141307Y-101284514D01*
X164113951Y-101298727D01*
X164077001Y-101319314D01*
X164044868Y-101335978D01*
X163991688Y-101353664D01*
X163952732Y-101352167D01*
X163929445Y-101332292D01*
X163923270Y-101294842D01*
X163935651Y-101240622D01*
X163944411Y-101214214D01*
X163952472Y-101183877D01*
X163953328Y-101169811D01*
X163940075Y-101165951D01*
X163917877Y-101180294D01*
X163892430Y-101213562D01*
X163866523Y-101262771D01*
X163859424Y-101278481D01*
X163841442Y-101314922D01*
X163826577Y-101334548D01*
X163809679Y-101342531D01*
X163785599Y-101344043D01*
X163782471Y-101344065D01*
X163748908Y-101349837D01*
X163733734Y-101367379D01*
X163722662Y-101389366D01*
X163701219Y-101417666D01*
X163693002Y-101426206D01*
X163677136Y-101437080D01*
X163657654Y-101436180D01*
X163624590Y-101424379D01*
X163593343Y-101408414D01*
X163574828Y-101384406D01*
X163578919Y-101352988D01*
X163605058Y-101310916D01*
X163605669Y-101310113D01*
X163630591Y-101271903D01*
X163635430Y-101249185D01*
X163620248Y-101241675D01*
X163597729Y-101251849D01*
X163567107Y-101281608D01*
X163532463Y-101327107D01*
X163497128Y-101384481D01*
X163476078Y-101419611D01*
X163455192Y-101449205D01*
X163441337Y-101462774D01*
X163412419Y-101462780D01*
X163379862Y-101447440D01*
X163356242Y-101422136D01*
X163356181Y-101422022D01*
X163350570Y-101402514D01*
X163358347Y-101381421D01*
X163382353Y-101351002D01*
X163385907Y-101346864D01*
X163408888Y-101312407D01*
X163415084Y-101286455D01*
X163404713Y-101272796D01*
X163377993Y-101275217D01*
X163372531Y-101277007D01*
X163324149Y-101286624D01*
X163293910Y-101278665D01*
X163281278Y-101253008D01*
X163280496Y-101238850D01*
X163288534Y-101221149D01*
X163315269Y-101211981D01*
X163318603Y-101211134D01*
X163348224Y-101196456D01*
X163358727Y-101189138D01*
X163485238Y-101189138D01*
X163495493Y-101201765D01*
X163520173Y-101199602D01*
X163554325Y-101182622D01*
X163576374Y-101163164D01*
X163585265Y-101138851D01*
X163571791Y-101119324D01*
X163570080Y-101118490D01*
X163549319Y-101121498D01*
X163522513Y-101137394D01*
X163498409Y-101159778D01*
X163485757Y-101182250D01*
X163485238Y-101189138D01*
X163358727Y-101189138D01*
X163387058Y-101169397D01*
X163427622Y-101135081D01*
X163437774Y-101125586D01*
X163470670Y-101093279D01*
X163487583Y-101072056D01*
X163491357Y-101057440D01*
X163484834Y-101044949D01*
X163472324Y-101033110D01*
X163453139Y-101024574D01*
X163452486Y-101024676D01*
X163436648Y-101034811D01*
X163406946Y-101059126D01*
X163367385Y-101094200D01*
X163321967Y-101136613D01*
X163205223Y-101248222D01*
X163195884Y-101328694D01*
X163195195Y-101334367D01*
X163182727Y-101392164D01*
X163162047Y-101426840D01*
X163131636Y-101439887D01*
X163089977Y-101432797D01*
X163083097Y-101430291D01*
X163056114Y-101415487D01*
X163044407Y-101394224D01*
X163046717Y-101361032D01*
X163061783Y-101310445D01*
X163069160Y-101288744D01*
X163081727Y-101248135D01*
X163085361Y-101225937D01*
X163080281Y-101218222D01*
X163066701Y-101221066D01*
X163049499Y-101225056D01*
X163021430Y-101216630D01*
X162997416Y-101186599D01*
X162976589Y-101133648D01*
X162958083Y-101056462D01*
X162950898Y-101021332D01*
X162942782Y-100985106D01*
X162937430Y-100965343D01*
X162938068Y-100955757D01*
X162954035Y-100942138D01*
X162960345Y-100940963D01*
X162980240Y-100948067D01*
X163008968Y-100971200D01*
X163049666Y-101012676D01*
X163123062Y-101091746D01*
X163148302Y-101009960D01*
X163162958Y-100955179D01*
X163177457Y-100888812D01*
X163188494Y-100825806D01*
X163189685Y-100817660D01*
X163197671Y-100763171D01*
X163204816Y-100714680D01*
X163209694Y-100681852D01*
X163211506Y-100671392D01*
X163221653Y-100645787D01*
X163238760Y-100644107D01*
X163265640Y-100665531D01*
X163280129Y-100681577D01*
X163295070Y-100706381D01*
X163302189Y-100736000D01*
X163301271Y-100774271D01*
X163292104Y-100825030D01*
X163274475Y-100892113D01*
X163248168Y-100979358D01*
X163232281Y-101031817D01*
X163218978Y-101078882D01*
X163210820Y-101111633D01*
X163209152Y-101125046D01*
X163211782Y-101126176D01*
X163230851Y-101118687D01*
X163263124Y-101095572D01*
X163305412Y-101059306D01*
X163354522Y-101012362D01*
X163361634Y-101005332D01*
X163401780Y-100968230D01*
X163438858Y-100937711D01*
X163465632Y-100919802D01*
X163470430Y-100917173D01*
X163499363Y-100898134D01*
X163543859Y-100866114D01*
X163570080Y-100846526D01*
X163600921Y-100823486D01*
X163667555Y-100772621D01*
X163740765Y-100715890D01*
X163817556Y-100655664D01*
X163894933Y-100594315D01*
X163969900Y-100534214D01*
X164039462Y-100477733D01*
X164100623Y-100427243D01*
X164150389Y-100385115D01*
X164185764Y-100353722D01*
X164203752Y-100335434D01*
X164204086Y-100334996D01*
X164232663Y-100305833D01*
X164272658Y-100274693D01*
X164316537Y-100246435D01*
X164356769Y-100225917D01*
X164385821Y-100217998D01*
X164389062Y-100218262D01*
G37*
G36*
X164119371Y-103264050D02*
G01*
X164143054Y-103279890D01*
X164170079Y-103313228D01*
X164195941Y-103358760D01*
X164200593Y-103368888D01*
X164206810Y-103387611D01*
X164207999Y-103408233D01*
X164203491Y-103436380D01*
X164192621Y-103477679D01*
X164174720Y-103537758D01*
X164160408Y-103586199D01*
X164147478Y-103632939D01*
X164139527Y-103665440D01*
X164137888Y-103678610D01*
X164145928Y-103680391D01*
X164175058Y-103683831D01*
X164220105Y-103687947D01*
X164275526Y-103692190D01*
X164408562Y-103701531D01*
X164400900Y-103652031D01*
X164398061Y-103632522D01*
X164391641Y-103583047D01*
X164385787Y-103532154D01*
X164383431Y-103508267D01*
X164382283Y-103481952D01*
X164385839Y-103475641D01*
X164394770Y-103485883D01*
X164396081Y-103487785D01*
X164416477Y-103515376D01*
X164441613Y-103547234D01*
X164448804Y-103556478D01*
X164475789Y-103596020D01*
X164500676Y-103638290D01*
X164520063Y-103687611D01*
X164531048Y-103758266D01*
X164531403Y-103787836D01*
X164528364Y-103813321D01*
X164518187Y-103825554D01*
X164497577Y-103831768D01*
X164492142Y-103832871D01*
X164459969Y-103837882D01*
X164423671Y-103840376D01*
X164377911Y-103840378D01*
X164317349Y-103837912D01*
X164236647Y-103833004D01*
X164200555Y-103830675D01*
X164148263Y-103827927D01*
X164114663Y-103827796D01*
X164095268Y-103830692D01*
X164085592Y-103837023D01*
X164081146Y-103847200D01*
X164078788Y-103857224D01*
X164071868Y-103890961D01*
X164062608Y-103939176D01*
X164052348Y-103994997D01*
X164046217Y-104027757D01*
X164035814Y-104077976D01*
X164026724Y-104115645D01*
X164020400Y-104134418D01*
X164016934Y-104138884D01*
X163997163Y-104143773D01*
X163971953Y-104128167D01*
X163945495Y-104094309D01*
X163942423Y-104089236D01*
X163932512Y-104070642D01*
X163928238Y-104052702D01*
X163929858Y-104029076D01*
X163937633Y-103993423D01*
X163951820Y-103939404D01*
X163965769Y-103887329D01*
X163975683Y-103848907D01*
X163980163Y-103826793D01*
X163979715Y-103816524D01*
X163974844Y-103813636D01*
X163966055Y-103813665D01*
X163954334Y-103819244D01*
X163930059Y-103840152D01*
X163901439Y-103871247D01*
X163900111Y-103872831D01*
X163866533Y-103909221D01*
X163841408Y-103925417D01*
X163819848Y-103922912D01*
X163796966Y-103903202D01*
X163783627Y-103884795D01*
X163780481Y-103862661D01*
X163788585Y-103828140D01*
X163792495Y-103814779D01*
X163801696Y-103775909D01*
X163801220Y-103755564D01*
X163791201Y-103749685D01*
X163790033Y-103749860D01*
X163778397Y-103763199D01*
X163767227Y-103791272D01*
X163756502Y-103822275D01*
X163736658Y-103871987D01*
X163710805Y-103932838D01*
X163681657Y-103998708D01*
X163651923Y-104063478D01*
X163624316Y-104121028D01*
X163601546Y-104165239D01*
X163587332Y-104188731D01*
X163553472Y-104229277D01*
X163519428Y-104251786D01*
X163489233Y-104253102D01*
X163473027Y-104240870D01*
X163455905Y-104204246D01*
X163447829Y-104148278D01*
X163449469Y-104075952D01*
X163452102Y-104028728D01*
X163450680Y-103990393D01*
X163444638Y-103973324D01*
X163442462Y-103972747D01*
X163423322Y-103980414D01*
X163391614Y-104001859D01*
X163351647Y-104033395D01*
X163307730Y-104071333D01*
X163264172Y-104111984D01*
X163225282Y-104151661D01*
X163195370Y-104186676D01*
X163147654Y-104249246D01*
X163108978Y-104226594D01*
X163074964Y-104201257D01*
X163044897Y-104169856D01*
X163032322Y-104152144D01*
X163026037Y-104134904D01*
X163030559Y-104114225D01*
X163046008Y-104080284D01*
X163053012Y-104065058D01*
X163070187Y-104022991D01*
X163081090Y-103989489D01*
X163088931Y-103966005D01*
X163105316Y-103945286D01*
X163122141Y-103946817D01*
X163135269Y-103969122D01*
X163140565Y-104010723D01*
X163140626Y-104017654D01*
X163142424Y-104045501D01*
X163145937Y-104056789D01*
X163160390Y-104050498D01*
X163187443Y-104034172D01*
X163218469Y-104013417D01*
X163245082Y-103993852D01*
X163258899Y-103981093D01*
X163259041Y-103980852D01*
X163254797Y-103965642D01*
X163234383Y-103947113D01*
X163230047Y-103944072D01*
X163208022Y-103918419D01*
X163202358Y-103891282D01*
X163215164Y-103871010D01*
X163215478Y-103870819D01*
X163249003Y-103861154D01*
X163293461Y-103860656D01*
X163336940Y-103868362D01*
X163367523Y-103883310D01*
X163374685Y-103889723D01*
X163391010Y-103900417D01*
X163405701Y-103895788D01*
X163428576Y-103874403D01*
X163446148Y-103855161D01*
X163453863Y-103837220D01*
X163445820Y-103820920D01*
X163431876Y-103810307D01*
X163398064Y-103808978D01*
X163366561Y-103808994D01*
X163322116Y-103792859D01*
X163277489Y-103768879D01*
X163231891Y-103823728D01*
X163213122Y-103845740D01*
X163193757Y-103864431D01*
X163181305Y-103867303D01*
X163170631Y-103857156D01*
X163158784Y-103845647D01*
X163140248Y-103840695D01*
X163136453Y-103842274D01*
X163110538Y-103858382D01*
X163073613Y-103885830D01*
X163031818Y-103919540D01*
X162991292Y-103954435D01*
X162958177Y-103985436D01*
X162938612Y-104007464D01*
X162914732Y-104035172D01*
X162882881Y-104060681D01*
X162869580Y-104067939D01*
X162844925Y-104073252D01*
X162816424Y-104062407D01*
X162798733Y-104051565D01*
X162778716Y-104029940D01*
X162765176Y-103996684D01*
X162754437Y-103944824D01*
X162745388Y-103890441D01*
X162798845Y-103890441D01*
X162817363Y-103889388D01*
X162845893Y-103882846D01*
X162880057Y-103868315D01*
X162924922Y-103843505D01*
X162985557Y-103806128D01*
X163038771Y-103771997D01*
X163086134Y-103740757D01*
X163122059Y-103716141D01*
X163141403Y-103701597D01*
X163155207Y-103686913D01*
X163154254Y-103673242D01*
X163136122Y-103651711D01*
X163122057Y-103635186D01*
X163114860Y-103617414D01*
X163116217Y-103592440D01*
X163125172Y-103551506D01*
X163133287Y-103521656D01*
X163143993Y-103492319D01*
X163152194Y-103480970D01*
X163156187Y-103482634D01*
X163173580Y-103498514D01*
X163196455Y-103525756D01*
X163205725Y-103536912D01*
X163232538Y-103560957D01*
X163254688Y-103570542D01*
X163263208Y-103569775D01*
X163277434Y-103559299D01*
X163272797Y-103542163D01*
X163250045Y-103525591D01*
X163231265Y-103512845D01*
X163217117Y-103490567D01*
X163216604Y-103487161D01*
X163220170Y-103475179D01*
X163237990Y-103469567D01*
X163275690Y-103468174D01*
X163317486Y-103466743D01*
X163342452Y-103460525D01*
X163347602Y-103447399D01*
X163335891Y-103425258D01*
X163324237Y-103403820D01*
X163317149Y-103376514D01*
X163318521Y-103364256D01*
X163327913Y-103361671D01*
X163352338Y-103372884D01*
X163358385Y-103375706D01*
X163397666Y-103386789D01*
X163441460Y-103391319D01*
X163455528Y-103391873D01*
X163495946Y-103403873D01*
X163516939Y-103432356D01*
X163519475Y-103478404D01*
X163514210Y-103499950D01*
X163498929Y-103511887D01*
X163466015Y-103517020D01*
X163427882Y-103525588D01*
X163382972Y-103552209D01*
X163376340Y-103558128D01*
X163346276Y-103578463D01*
X163325136Y-103582021D01*
X163317149Y-103567800D01*
X163312151Y-103562047D01*
X163295162Y-103574248D01*
X163283066Y-103587722D01*
X163281568Y-103601808D01*
X163298361Y-103621296D01*
X163313384Y-103634818D01*
X163327212Y-103638371D01*
X163346799Y-103629986D01*
X163379856Y-103608449D01*
X163393646Y-103599420D01*
X163436621Y-103575866D01*
X163462235Y-103569769D01*
X163469449Y-103580226D01*
X163457221Y-103606333D01*
X163424510Y-103647187D01*
X163410099Y-103664293D01*
X163389640Y-103696308D01*
X163385721Y-103717602D01*
X163403008Y-103732817D01*
X163433272Y-103736617D01*
X163466593Y-103729151D01*
X163493219Y-103711016D01*
X163502872Y-103697199D01*
X163523990Y-103658316D01*
X163549670Y-103603721D01*
X163577500Y-103538650D01*
X163605068Y-103468336D01*
X163615072Y-103445673D01*
X163636367Y-103415939D01*
X163657753Y-103405498D01*
X163675605Y-103416990D01*
X163680854Y-103427438D01*
X163687792Y-103474149D01*
X163680193Y-103541876D01*
X163658054Y-103630628D01*
X163621372Y-103740415D01*
X163570146Y-103871247D01*
X163550965Y-103923788D01*
X163534885Y-103979680D01*
X163526178Y-104024799D01*
X163519278Y-104088778D01*
X163566285Y-104024799D01*
X163579281Y-104006553D01*
X163611402Y-103958958D01*
X163647957Y-103902441D01*
X163683297Y-103845655D01*
X163717455Y-103790199D01*
X163763665Y-103718210D01*
X163800270Y-103665372D01*
X163826461Y-103632828D01*
X163841429Y-103621726D01*
X163845925Y-103626095D01*
X163854039Y-103649261D01*
X163860976Y-103685691D01*
X163864648Y-103708555D01*
X163871987Y-103740349D01*
X163878738Y-103755197D01*
X163890768Y-103755376D01*
X163918977Y-103746245D01*
X163953387Y-103730277D01*
X163985393Y-103711579D01*
X164006395Y-103694257D01*
X164014197Y-103680136D01*
X164027656Y-103638880D01*
X164042266Y-103576354D01*
X164057450Y-103495134D01*
X164072633Y-103397796D01*
X164078801Y-103356449D01*
X164087202Y-103309471D01*
X164095143Y-103281104D01*
X164103941Y-103267156D01*
X164114916Y-103263438D01*
X164119371Y-103264050D01*
G37*
G36*
X163516154Y-96139941D02*
G01*
X163545031Y-96155433D01*
X163566671Y-96167424D01*
X163592477Y-96181724D01*
X163656488Y-96217677D01*
X163735059Y-96262158D01*
X163826186Y-96314031D01*
X163867376Y-96337579D01*
X163927866Y-96372160D01*
X163963346Y-96392519D01*
X164038092Y-96435410D01*
X164040963Y-96437063D01*
X164128923Y-96487710D01*
X164154862Y-96502645D01*
X164194527Y-96525532D01*
X164247416Y-96556131D01*
X164289013Y-96580196D01*
X164327409Y-96602410D01*
X164408756Y-96649757D01*
X164439818Y-96667836D01*
X164443194Y-96669820D01*
X164532766Y-96722448D01*
X164533183Y-96722693D01*
X164608932Y-96767864D01*
X164621453Y-96775509D01*
X164668496Y-96804232D01*
X164713304Y-96832681D01*
X164744784Y-96854094D01*
X164764367Y-96869354D01*
X164773481Y-96879344D01*
X164773556Y-96884947D01*
X164771685Y-96886321D01*
X164752077Y-96898535D01*
X164713627Y-96921539D01*
X164658742Y-96953939D01*
X164589832Y-96994342D01*
X164509306Y-97041357D01*
X164419572Y-97093589D01*
X164323040Y-97149647D01*
X164222119Y-97208138D01*
X164119217Y-97267668D01*
X164016744Y-97326845D01*
X163917109Y-97384276D01*
X163822720Y-97438569D01*
X163735987Y-97488330D01*
X163659319Y-97532167D01*
X163595125Y-97568686D01*
X163545813Y-97596496D01*
X163513793Y-97614204D01*
X163501474Y-97620416D01*
X163501143Y-97620228D01*
X163498687Y-97605813D01*
X163496951Y-97572961D01*
X163496293Y-97528047D01*
X163496293Y-97435679D01*
X163431844Y-97370419D01*
X163367395Y-97305160D01*
X163393211Y-97272341D01*
X163419026Y-97239522D01*
X163390481Y-97186827D01*
X163384278Y-97175601D01*
X163365870Y-97148722D01*
X163346823Y-97137906D01*
X163318717Y-97137349D01*
X163289907Y-97136985D01*
X163272951Y-97125448D01*
X163259953Y-97095781D01*
X163259942Y-97095748D01*
X163246547Y-97051700D01*
X163236167Y-97008682D01*
X163232762Y-96981816D01*
X163240522Y-96964858D01*
X163266140Y-96953047D01*
X163280206Y-96947650D01*
X163296328Y-96935850D01*
X163303024Y-96914795D01*
X163304353Y-96876332D01*
X163304052Y-96852731D01*
X163300307Y-96824769D01*
X163288972Y-96809764D01*
X163265965Y-96799556D01*
X163261606Y-96798041D01*
X163239448Y-96789165D01*
X163230176Y-96777918D01*
X163231495Y-96756797D01*
X163234644Y-96744190D01*
X163273832Y-96744190D01*
X163282391Y-96757149D01*
X163305337Y-96767374D01*
X163316557Y-96771821D01*
X163331410Y-96781166D01*
X163339215Y-96796893D01*
X163342237Y-96825405D01*
X163342741Y-96873104D01*
X163342661Y-96898863D01*
X163341170Y-96936642D01*
X163336040Y-96958430D01*
X163325042Y-96970709D01*
X163305941Y-96979960D01*
X163294912Y-96984690D01*
X163278260Y-96995973D01*
X163275109Y-97013587D01*
X163282206Y-97046675D01*
X163285710Y-97060061D01*
X163295555Y-97085530D01*
X163310495Y-97094434D01*
X163338200Y-97093136D01*
X163342810Y-97092642D01*
X163370019Y-97091992D01*
X163381129Y-97095904D01*
X163386826Y-97109196D01*
X163402555Y-97138174D01*
X163424798Y-97176203D01*
X163435885Y-97194689D01*
X163453778Y-97226761D01*
X163460289Y-97246862D01*
X163456761Y-97261990D01*
X163444536Y-97279145D01*
X163436573Y-97289472D01*
X163428194Y-97306212D01*
X163434614Y-97321608D01*
X163457724Y-97345129D01*
X163494843Y-97380692D01*
X163495149Y-97240307D01*
X163562282Y-97240307D01*
X163562373Y-97331528D01*
X163562656Y-97406940D01*
X163563127Y-97464095D01*
X163563781Y-97500550D01*
X163564614Y-97513859D01*
X163574283Y-97510794D01*
X163601963Y-97497100D01*
X163642970Y-97474864D01*
X163692693Y-97446512D01*
X163816192Y-97374586D01*
X163815927Y-96873697D01*
X163815680Y-96405347D01*
X163867376Y-96405347D01*
X163867376Y-96872126D01*
X163867376Y-96874054D01*
X163867574Y-96980363D01*
X163868123Y-97078099D01*
X163868981Y-97164425D01*
X163870104Y-97236505D01*
X163871446Y-97291503D01*
X163872964Y-97326581D01*
X163874615Y-97338904D01*
X163883795Y-97336294D01*
X163906605Y-97325658D01*
X163911464Y-97322616D01*
X163917154Y-97316223D01*
X163921643Y-97305010D01*
X163925073Y-97286381D01*
X163927585Y-97257738D01*
X163929321Y-97216487D01*
X163930424Y-97160029D01*
X163930863Y-97106864D01*
X163959002Y-97106864D01*
X163959254Y-97178821D01*
X163959834Y-97234404D01*
X163960728Y-97270542D01*
X163961920Y-97284162D01*
X163971858Y-97283582D01*
X163994089Y-97272733D01*
X163996046Y-97271490D01*
X164003312Y-97265694D01*
X164009005Y-97256968D01*
X164010348Y-97252454D01*
X164033723Y-97252454D01*
X164062514Y-97233417D01*
X164077749Y-97219816D01*
X164089695Y-97193254D01*
X164094661Y-97153363D01*
X164110499Y-97153363D01*
X164110725Y-97166618D01*
X164115592Y-97191943D01*
X164130163Y-97195059D01*
X164158836Y-97178229D01*
X164182208Y-97158154D01*
X164183362Y-97142078D01*
X164161857Y-97124451D01*
X164155266Y-97120465D01*
X164128115Y-97109894D01*
X164114333Y-97120219D01*
X164110499Y-97153363D01*
X164094661Y-97153363D01*
X164095145Y-97149476D01*
X164095734Y-97138411D01*
X164095243Y-97102775D01*
X164087960Y-97082598D01*
X164071503Y-97069863D01*
X164044020Y-97055155D01*
X164054207Y-97048020D01*
X164129617Y-97048020D01*
X164136832Y-97064683D01*
X164146987Y-97073965D01*
X164169648Y-97082985D01*
X164181161Y-97075879D01*
X164185854Y-97056779D01*
X164200071Y-97056779D01*
X164203335Y-97087790D01*
X164219831Y-97113447D01*
X164252301Y-97121373D01*
X164255157Y-97120532D01*
X164262486Y-97104536D01*
X164264674Y-97075168D01*
X164263380Y-97057393D01*
X164276847Y-97057393D01*
X164283220Y-97087065D01*
X164300584Y-97095558D01*
X164325472Y-97080426D01*
X164335502Y-97068616D01*
X164337924Y-97049636D01*
X164316076Y-97032251D01*
X164313352Y-97030802D01*
X164289013Y-97020656D01*
X164278874Y-97028219D01*
X164276847Y-97057393D01*
X164263380Y-97057393D01*
X164262229Y-97041572D01*
X164255658Y-97012893D01*
X164245470Y-96998276D01*
X164221303Y-96996170D01*
X164205303Y-97015058D01*
X164200071Y-97056779D01*
X164185854Y-97056779D01*
X164187275Y-97050995D01*
X164187275Y-97050566D01*
X164184896Y-97025848D01*
X164173637Y-97020847D01*
X164147220Y-97032694D01*
X164144337Y-97034276D01*
X164129617Y-97048020D01*
X164054207Y-97048020D01*
X164070862Y-97036355D01*
X164080601Y-97028100D01*
X164093934Y-97002737D01*
X164097098Y-96967821D01*
X164110499Y-96967821D01*
X164110500Y-96968313D01*
X164113359Y-96995010D01*
X164120096Y-97005925D01*
X164128115Y-97002464D01*
X164134404Y-96999749D01*
X164158532Y-96983441D01*
X164173637Y-96970887D01*
X164176856Y-96968212D01*
X164178831Y-96957688D01*
X164176468Y-96955964D01*
X164285388Y-96955964D01*
X164288116Y-96973660D01*
X164289013Y-96974309D01*
X164315947Y-96993795D01*
X164329842Y-96999809D01*
X164338894Y-96994283D01*
X164340827Y-96968271D01*
X164340816Y-96964196D01*
X164338292Y-96937165D01*
X164327125Y-96931356D01*
X164301239Y-96942871D01*
X164285388Y-96955964D01*
X164176468Y-96955964D01*
X164161905Y-96945337D01*
X164159008Y-96943553D01*
X164129984Y-96930812D01*
X164114852Y-96938448D01*
X164110499Y-96967821D01*
X164097098Y-96967821D01*
X164097703Y-96961148D01*
X164096582Y-96934108D01*
X164088780Y-96906369D01*
X164070862Y-96890377D01*
X164044020Y-96876012D01*
X164054208Y-96868876D01*
X164129617Y-96868876D01*
X164129984Y-96869724D01*
X164136832Y-96885540D01*
X164146987Y-96894822D01*
X164169648Y-96903841D01*
X164181161Y-96896735D01*
X164185854Y-96877636D01*
X164200071Y-96877636D01*
X164204101Y-96912119D01*
X164219988Y-96933680D01*
X164221303Y-96933643D01*
X164248056Y-96932880D01*
X164256237Y-96924792D01*
X164263200Y-96898705D01*
X164263496Y-96871852D01*
X164276847Y-96871852D01*
X164280762Y-96892745D01*
X164294474Y-96903841D01*
X164305527Y-96901296D01*
X164327125Y-96885659D01*
X164327290Y-96885540D01*
X164328977Y-96883440D01*
X164334044Y-96867457D01*
X164316902Y-96853550D01*
X164316469Y-96853318D01*
X164290272Y-96841658D01*
X164279157Y-96846879D01*
X164276847Y-96871852D01*
X164263496Y-96871852D01*
X164263567Y-96865378D01*
X164257577Y-96835343D01*
X164245470Y-96819132D01*
X164221303Y-96817026D01*
X164205303Y-96835914D01*
X164200071Y-96877636D01*
X164185854Y-96877636D01*
X164187275Y-96871852D01*
X164187275Y-96871422D01*
X164184896Y-96846705D01*
X164173637Y-96841703D01*
X164147220Y-96853550D01*
X164144337Y-96855133D01*
X164129617Y-96868876D01*
X164054208Y-96868876D01*
X164070862Y-96857211D01*
X164080601Y-96848956D01*
X164093934Y-96823594D01*
X164097098Y-96788678D01*
X164110499Y-96788678D01*
X164110500Y-96789169D01*
X164113359Y-96815866D01*
X164120096Y-96826781D01*
X164134404Y-96820606D01*
X164158532Y-96804297D01*
X164173637Y-96791743D01*
X164176856Y-96789068D01*
X164178831Y-96778545D01*
X164176468Y-96776821D01*
X164285388Y-96776821D01*
X164288116Y-96794517D01*
X164290272Y-96796077D01*
X164315947Y-96814651D01*
X164329842Y-96820665D01*
X164338894Y-96815139D01*
X164340827Y-96789128D01*
X164340816Y-96785053D01*
X164340560Y-96782309D01*
X164366419Y-96782309D01*
X164367064Y-96802579D01*
X164374662Y-96836177D01*
X164393260Y-96857211D01*
X164420102Y-96876012D01*
X164392592Y-96890734D01*
X164391789Y-96891168D01*
X164375179Y-96904773D01*
X164368454Y-96926720D01*
X164368950Y-96965430D01*
X164369193Y-96969087D01*
X164373569Y-97004566D01*
X164382278Y-97021242D01*
X164398409Y-97025403D01*
X164404849Y-97025006D01*
X164413791Y-97020511D01*
X164419709Y-97007516D01*
X164423433Y-96981749D01*
X164425789Y-96938936D01*
X164427608Y-96874806D01*
X164428547Y-96823868D01*
X164428213Y-96773716D01*
X164425649Y-96741932D01*
X164424498Y-96738042D01*
X164443194Y-96738042D01*
X164443194Y-96872126D01*
X164443574Y-96914866D01*
X164445077Y-96962085D01*
X164447459Y-96994296D01*
X164450434Y-97006209D01*
X164459613Y-97003599D01*
X164482424Y-96992963D01*
X164485626Y-96991124D01*
X164496821Y-96980143D01*
X164503358Y-96960664D01*
X164506417Y-96926998D01*
X164507174Y-96873455D01*
X164506968Y-96833673D01*
X164505227Y-96796010D01*
X164503744Y-96789226D01*
X164532766Y-96789226D01*
X164532766Y-96872126D01*
X164532855Y-96898546D01*
X164534452Y-96934008D01*
X164539923Y-96950221D01*
X164551646Y-96951405D01*
X164571995Y-96941779D01*
X164580673Y-96935790D01*
X164593166Y-96913400D01*
X164596746Y-96873455D01*
X164595593Y-96853295D01*
X164611047Y-96853295D01*
X164611778Y-96885048D01*
X164615940Y-96919779D01*
X164647163Y-96894368D01*
X164678386Y-96868957D01*
X164649266Y-96853373D01*
X164646267Y-96851792D01*
X164621453Y-96843131D01*
X164611047Y-96853295D01*
X164595593Y-96853295D01*
X164594810Y-96839611D01*
X164585541Y-96817607D01*
X164564756Y-96803802D01*
X164532766Y-96789226D01*
X164503744Y-96789226D01*
X164500385Y-96773861D01*
X164490889Y-96761353D01*
X164475184Y-96752618D01*
X164443194Y-96738042D01*
X164424498Y-96738042D01*
X164420455Y-96724380D01*
X164412226Y-96716921D01*
X164408756Y-96715689D01*
X164384552Y-96716153D01*
X164370781Y-96737872D01*
X164366419Y-96782309D01*
X164340560Y-96782309D01*
X164338292Y-96758021D01*
X164327125Y-96752213D01*
X164301239Y-96763728D01*
X164285388Y-96776821D01*
X164176468Y-96776821D01*
X164161905Y-96766194D01*
X164159008Y-96764409D01*
X164129984Y-96751668D01*
X164114852Y-96759304D01*
X164110499Y-96788678D01*
X164097098Y-96788678D01*
X164097703Y-96782004D01*
X164096582Y-96754964D01*
X164088780Y-96727225D01*
X164070862Y-96711233D01*
X164044020Y-96696868D01*
X164054207Y-96689733D01*
X164129617Y-96689733D01*
X164129984Y-96690581D01*
X164136832Y-96706396D01*
X164146987Y-96715678D01*
X164169648Y-96724698D01*
X164181161Y-96717592D01*
X164185411Y-96700296D01*
X164200071Y-96700296D01*
X164203908Y-96732733D01*
X164219869Y-96754419D01*
X164221303Y-96754384D01*
X164248056Y-96753737D01*
X164252896Y-96749890D01*
X164260977Y-96727962D01*
X164264426Y-96695244D01*
X164264131Y-96686310D01*
X164276847Y-96686310D01*
X164283220Y-96715982D01*
X164300584Y-96724475D01*
X164325472Y-96709343D01*
X164327125Y-96707397D01*
X164335502Y-96697533D01*
X164337924Y-96678553D01*
X164316076Y-96661168D01*
X164313352Y-96659719D01*
X164289013Y-96649573D01*
X164278874Y-96657136D01*
X164276847Y-96686310D01*
X164264131Y-96686310D01*
X164263286Y-96660735D01*
X164257601Y-96633431D01*
X164247416Y-96622330D01*
X164226495Y-96628394D01*
X164206993Y-96655120D01*
X164200071Y-96700296D01*
X164185411Y-96700296D01*
X164187275Y-96692708D01*
X164187275Y-96692279D01*
X164184896Y-96667561D01*
X164173637Y-96662560D01*
X164147220Y-96674406D01*
X164144337Y-96675989D01*
X164129617Y-96689733D01*
X164054207Y-96689733D01*
X164070862Y-96678067D01*
X164087016Y-96657781D01*
X164097827Y-96621004D01*
X164098406Y-96603136D01*
X164110499Y-96603136D01*
X164110683Y-96620172D01*
X164114464Y-96642564D01*
X164127574Y-96643909D01*
X164155735Y-96627256D01*
X164173637Y-96612377D01*
X164181617Y-96605744D01*
X164183816Y-96588336D01*
X164162524Y-96571596D01*
X164157612Y-96569032D01*
X164128923Y-96559512D01*
X164114476Y-96570118D01*
X164110499Y-96603136D01*
X164098406Y-96603136D01*
X164099169Y-96579565D01*
X164090920Y-96542891D01*
X164072953Y-96520413D01*
X164056817Y-96512540D01*
X164040963Y-96507166D01*
X164040452Y-96508090D01*
X164038653Y-96526726D01*
X164037043Y-96566922D01*
X164035683Y-96625503D01*
X164034636Y-96699294D01*
X164033962Y-96785121D01*
X164033723Y-96879810D01*
X164033723Y-97252454D01*
X164010348Y-97252454D01*
X164013317Y-97242480D01*
X164016441Y-97219396D01*
X164018567Y-97184883D01*
X164019887Y-97136110D01*
X164020593Y-97070243D01*
X164020876Y-96984450D01*
X164020927Y-96875897D01*
X164020925Y-96826423D01*
X164020825Y-96728047D01*
X164020431Y-96651183D01*
X164019535Y-96592977D01*
X164017932Y-96550572D01*
X164015418Y-96521115D01*
X164011787Y-96501749D01*
X164006833Y-96489620D01*
X164000352Y-96481872D01*
X163992137Y-96475650D01*
X163963346Y-96455478D01*
X163959967Y-96867154D01*
X163959538Y-96926121D01*
X163959092Y-97021607D01*
X163959002Y-97106864D01*
X163930863Y-97106864D01*
X163931037Y-97085769D01*
X163931300Y-96991110D01*
X163931356Y-96873455D01*
X163931356Y-96434498D01*
X163899366Y-96419923D01*
X163867376Y-96405347D01*
X163815680Y-96405347D01*
X163815663Y-96372809D01*
X163691167Y-96300916D01*
X163566671Y-96229024D01*
X163563352Y-96869151D01*
X163563216Y-96896229D01*
X163562699Y-97020212D01*
X163562389Y-97135719D01*
X163562282Y-97240307D01*
X163495149Y-97240307D01*
X163495712Y-96982317D01*
X163495764Y-96934060D01*
X163495541Y-96839872D01*
X163494913Y-96755925D01*
X163493928Y-96685288D01*
X163492637Y-96631031D01*
X163491088Y-96596226D01*
X163489331Y-96583942D01*
X163481649Y-96592943D01*
X163466457Y-96619518D01*
X163447600Y-96657519D01*
X163432816Y-96691301D01*
X163422423Y-96723835D01*
X163416464Y-96759865D01*
X163413758Y-96806750D01*
X163413119Y-96871852D01*
X163413714Y-96935792D01*
X163416336Y-96982790D01*
X163422199Y-97018904D01*
X163432513Y-97051548D01*
X163448492Y-97088133D01*
X163452729Y-97097311D01*
X163469488Y-97137486D01*
X163477018Y-97162326D01*
X163475483Y-97169635D01*
X163465049Y-97157220D01*
X163445881Y-97122886D01*
X163420733Y-97062507D01*
X163398613Y-96980970D01*
X163386879Y-96898901D01*
X163387652Y-96827066D01*
X163394870Y-96782930D01*
X163414391Y-96707474D01*
X163440397Y-96638449D01*
X163469638Y-96585435D01*
X163475760Y-96576169D01*
X163488256Y-96547561D01*
X163494556Y-96509601D01*
X163496293Y-96454253D01*
X163496293Y-96360505D01*
X163455324Y-96401473D01*
X163414356Y-96442442D01*
X163441292Y-96471605D01*
X163468227Y-96500768D01*
X163421479Y-96580190D01*
X163411359Y-96597264D01*
X163389493Y-96631437D01*
X163372949Y-96649153D01*
X163356513Y-96654780D01*
X163334975Y-96652686D01*
X163322622Y-96650747D01*
X163302853Y-96651940D01*
X163291447Y-96666198D01*
X163281576Y-96699508D01*
X163276611Y-96719797D01*
X163273832Y-96744190D01*
X163234644Y-96744190D01*
X163241110Y-96718300D01*
X163253863Y-96671736D01*
X163266990Y-96634310D01*
X163280435Y-96613890D01*
X163297331Y-96606079D01*
X163320814Y-96606480D01*
X163330079Y-96607318D01*
X163353572Y-96604929D01*
X163371458Y-96590284D01*
X163391810Y-96557850D01*
X163421685Y-96504726D01*
X163392520Y-96473681D01*
X163363354Y-96442635D01*
X163429823Y-96375330D01*
X163496293Y-96308024D01*
X163496293Y-96222054D01*
X163496293Y-96221474D01*
X163497894Y-96178438D01*
X163502025Y-96147773D01*
X163507800Y-96136083D01*
X163516154Y-96139941D01*
G37*
%TO.C,C12*%
X145071117Y-107682023D02*
X144789957Y-107682023D01*
X145071117Y-106662023D02*
X144789957Y-106662023D01*
%TO.C,C13*%
X137529859Y-106655078D02*
X137529859Y-106373918D01*
X138549859Y-106655078D02*
X138549859Y-106373918D01*
%TO.C,J1*%
X145420000Y-79215000D02*
X145420000Y-80920000D01*
X145420000Y-84850000D02*
X145420000Y-82930000D01*
X154580000Y-79215000D02*
X145420000Y-79215000D01*
X154580000Y-80920000D02*
X154580000Y-79215000D01*
X154580000Y-82930000D02*
X154580000Y-84850000D01*
%TO.C,R6*%
X138716765Y-108360215D02*
X139191281Y-108360215D01*
X138716765Y-109405215D02*
X139191281Y-109405215D01*
%TO.C,J2*%
X133760000Y-104235000D02*
X135210000Y-104235000D01*
X135210000Y-104235000D02*
X135210000Y-102435000D01*
X130940000Y-102965000D02*
X130940000Y-97035000D01*
X135210000Y-102435000D02*
X136200000Y-102435000D01*
X133760000Y-95765000D02*
X135210000Y-95765000D01*
X135210000Y-95765000D02*
X135210000Y-97565000D01*
%TO.C,R2*%
X142544226Y-101563097D02*
X142544226Y-102037613D01*
X141499226Y-101563097D02*
X141499226Y-102037613D01*
%TO.C,U2*%
X154709628Y-90952096D02*
X158959340Y-95201808D01*
X161123087Y-87720618D02*
X163781808Y-90379340D01*
X163781808Y-90379340D02*
X162890854Y-91270294D01*
X158959340Y-95201808D02*
X159850294Y-94310854D01*
%TO.C,R5*%
X149781180Y-109986227D02*
X149781180Y-110460743D01*
X148736180Y-109986227D02*
X148736180Y-110460743D01*
%TO.C,R1*%
X145171084Y-105988761D02*
X144696568Y-105988761D01*
X145171084Y-104943761D02*
X144696568Y-104943761D01*
%TO.C,SW3*%
X146122909Y-114064152D02*
X146642909Y-114064152D01*
X146122909Y-114574152D02*
X146122909Y-114064152D01*
X146122909Y-121074152D02*
X146122909Y-117174152D01*
X146122909Y-121074152D02*
X153842909Y-121074152D01*
X146642909Y-114574152D02*
X146642909Y-114064152D01*
X146642909Y-117404152D02*
X146642909Y-117174152D01*
X146642909Y-117404152D02*
X147182909Y-117404152D01*
X148282909Y-117404152D02*
X151682909Y-117404152D01*
X152782909Y-117404152D02*
X153322909Y-117404152D01*
X153322909Y-114064152D02*
X153842909Y-114064152D01*
X153322909Y-114574152D02*
X153322909Y-114064152D01*
X153322909Y-117404152D02*
X153322909Y-117174152D01*
X153842909Y-114574152D02*
X153842909Y-114064152D01*
X153842909Y-121074152D02*
X153842909Y-117174152D01*
%TO.C,C10*%
X156964699Y-101158445D02*
X156964699Y-100877285D01*
X157984699Y-101158445D02*
X157984699Y-100877285D01*
%TD*%
M02*
