%TF.GenerationSoftware,KiCad,Pcbnew,7.0.7*%
%TF.CreationDate,2023-10-08T00:43:36+08:00*%
%TF.ProjectId,RM_47mm,524d5f34-376d-46d2-9e6b-696361645f70,rev?*%
%TF.SameCoordinates,Original*%
%TF.FileFunction,Drillmap*%
%TF.FilePolarity,Positive*%
%FSLAX45Y45*%
G04 Gerber Fmt 4.5, Leading zero omitted, Abs format (unit mm)*
G04 Created by KiCad (PCBNEW 7.0.7) date 2023-10-08 00:43:36*
%MOMM*%
%LPD*%
G01*
G04 APERTURE LIST*
%ADD10C,0.200000*%
%ADD11C,0.040000*%
%ADD12C,0.060000*%
%ADD13C,0.099000*%
%ADD14C,0.130000*%
G04 APERTURE END LIST*
D10*
X17000000Y-10000000D02*
G75*
G03*
X17000000Y-10000000I-2000000J0D01*
G01*
D11*
X13339726Y-10167710D02*
X13379726Y-10207710D01*
X13379726Y-10167710D02*
X13339726Y-10207710D01*
X13713042Y-10394072D02*
X13753042Y-10434072D01*
X13753042Y-10394072D02*
X13713042Y-10434072D01*
X13929856Y-9753057D02*
X13969856Y-9793057D01*
X13969856Y-9753057D02*
X13929856Y-9793057D01*
X14031325Y-10126814D02*
X14071325Y-10166814D01*
X14071325Y-10126814D02*
X14031325Y-10166814D01*
X14374226Y-11123553D02*
X14414226Y-11163553D01*
X14414226Y-11123553D02*
X14374226Y-11163553D01*
X14482429Y-9124494D02*
X14522429Y-9164494D01*
X14522429Y-9124494D02*
X14482429Y-9164494D01*
X14584397Y-9184048D02*
X14624397Y-9224048D01*
X14624397Y-9184048D02*
X14584397Y-9224048D01*
X14674537Y-10539124D02*
X14714537Y-10579124D01*
X14714537Y-10539124D02*
X14674537Y-10579124D01*
X14725929Y-10675973D02*
X14765929Y-10715973D01*
X14765929Y-10675973D02*
X14725929Y-10715973D01*
X14742922Y-9714838D02*
X14782922Y-9754838D01*
X14782922Y-9714838D02*
X14742922Y-9754838D01*
X14898705Y-9411293D02*
X14938705Y-9451293D01*
X14938705Y-9411293D02*
X14898705Y-9451293D01*
X15204841Y-9711964D02*
X15244841Y-9751964D01*
X15244841Y-9711964D02*
X15204841Y-9751964D01*
X15229585Y-9154681D02*
X15269585Y-9194681D01*
X15269585Y-9154681D02*
X15229585Y-9194681D01*
X15373204Y-9585709D02*
X15413204Y-9625709D01*
X15413204Y-9585709D02*
X15373204Y-9625709D01*
X15409705Y-8808497D02*
X15449705Y-8848497D01*
X15449705Y-8808497D02*
X15409705Y-8848497D01*
X15470525Y-9187456D02*
X15510525Y-9227456D01*
X15510525Y-9187456D02*
X15470525Y-9227456D01*
X15511791Y-10743448D02*
X15551791Y-10783448D01*
X15551791Y-10743448D02*
X15511791Y-10783448D01*
X15581460Y-11136452D02*
X15621460Y-11176452D01*
X15621460Y-11136452D02*
X15581460Y-11176452D01*
X15604995Y-9816616D02*
X15644995Y-9856616D01*
X15644995Y-9816616D02*
X15604995Y-9856616D01*
X15962356Y-9104356D02*
X16002356Y-9144356D01*
X16002356Y-9104356D02*
X15962356Y-9144356D01*
X16109463Y-9996424D02*
X16149463Y-10036424D01*
X16149463Y-9996424D02*
X16109463Y-10036424D01*
X16318873Y-10716548D02*
X16358873Y-10756548D01*
X16358873Y-10716548D02*
X16318873Y-10756548D01*
D12*
X14598000Y-8192500D02*
G75*
G03*
X14598000Y-8192500I-30000J0D01*
G01*
D10*
X14538000Y-8152500D02*
X14538000Y-8232500D01*
X14538000Y-8232500D02*
G75*
G03*
X14598000Y-8232500I30000J0D01*
G01*
X14598000Y-8232500D02*
X14598000Y-8152500D01*
X14598000Y-8152500D02*
G75*
G03*
X14538000Y-8152500I-30000J0D01*
G01*
D12*
X14598000Y-8612500D02*
G75*
G03*
X14598000Y-8612500I-30000J0D01*
G01*
D10*
X14538000Y-8557500D02*
X14538000Y-8667500D01*
X14538000Y-8667500D02*
G75*
G03*
X14598000Y-8667500I30000J0D01*
G01*
X14598000Y-8667500D02*
X14598000Y-8557500D01*
X14598000Y-8557500D02*
G75*
G03*
X14538000Y-8557500I-30000J0D01*
G01*
D12*
X15462000Y-8192500D02*
G75*
G03*
X15462000Y-8192500I-30000J0D01*
G01*
D10*
X15402000Y-8152500D02*
X15402000Y-8232500D01*
X15402000Y-8232500D02*
G75*
G03*
X15462000Y-8232500I30000J0D01*
G01*
X15462000Y-8232500D02*
X15462000Y-8152500D01*
X15462000Y-8152500D02*
G75*
G03*
X15402000Y-8152500I-30000J0D01*
G01*
D12*
X15462000Y-8612500D02*
G75*
G03*
X15462000Y-8612500I-30000J0D01*
G01*
D10*
X15402000Y-8557500D02*
X15402000Y-8667500D01*
X15402000Y-8667500D02*
G75*
G03*
X15462000Y-8667500I30000J0D01*
G01*
X15462000Y-8667500D02*
X15462000Y-8557500D01*
X15462000Y-8557500D02*
G75*
G03*
X15402000Y-8557500I-30000J0D01*
G01*
D13*
X14773291Y-11787915D02*
X14773291Y-11886915D01*
X14723791Y-11837415D02*
X14822791Y-11837415D01*
X15223291Y-11787915D02*
X15223291Y-11886915D01*
X15173791Y-11837415D02*
X15272791Y-11837415D01*
D14*
X14694253Y-11634378D02*
X14694253Y-11542453D01*
X14602328Y-11542453D01*
X14602328Y-11634378D01*
X14694253Y-11634378D01*
X15395253Y-11634378D02*
X15395253Y-11542453D01*
X15303328Y-11542453D01*
X15303328Y-11634378D01*
X15395253Y-11634378D01*
D10*
X13250777Y-12321484D02*
X13250777Y-12121484D01*
X13250777Y-12121484D02*
X13298396Y-12121484D01*
X13298396Y-12121484D02*
X13326967Y-12131008D01*
X13326967Y-12131008D02*
X13346015Y-12150055D01*
X13346015Y-12150055D02*
X13355539Y-12169103D01*
X13355539Y-12169103D02*
X13365062Y-12207198D01*
X13365062Y-12207198D02*
X13365062Y-12235769D01*
X13365062Y-12235769D02*
X13355539Y-12273865D01*
X13355539Y-12273865D02*
X13346015Y-12292912D01*
X13346015Y-12292912D02*
X13326967Y-12311960D01*
X13326967Y-12311960D02*
X13298396Y-12321484D01*
X13298396Y-12321484D02*
X13250777Y-12321484D01*
X13450777Y-12321484D02*
X13450777Y-12188150D01*
X13450777Y-12226246D02*
X13460301Y-12207198D01*
X13460301Y-12207198D02*
X13469824Y-12197674D01*
X13469824Y-12197674D02*
X13488872Y-12188150D01*
X13488872Y-12188150D02*
X13507920Y-12188150D01*
X13574586Y-12321484D02*
X13574586Y-12188150D01*
X13574586Y-12121484D02*
X13565062Y-12131008D01*
X13565062Y-12131008D02*
X13574586Y-12140531D01*
X13574586Y-12140531D02*
X13584110Y-12131008D01*
X13584110Y-12131008D02*
X13574586Y-12121484D01*
X13574586Y-12121484D02*
X13574586Y-12140531D01*
X13698396Y-12321484D02*
X13679348Y-12311960D01*
X13679348Y-12311960D02*
X13669824Y-12292912D01*
X13669824Y-12292912D02*
X13669824Y-12121484D01*
X13803158Y-12321484D02*
X13784110Y-12311960D01*
X13784110Y-12311960D02*
X13774586Y-12292912D01*
X13774586Y-12292912D02*
X13774586Y-12121484D01*
X14031729Y-12321484D02*
X14031729Y-12121484D01*
X14031729Y-12121484D02*
X14098396Y-12264341D01*
X14098396Y-12264341D02*
X14165062Y-12121484D01*
X14165062Y-12121484D02*
X14165062Y-12321484D01*
X14346015Y-12321484D02*
X14346015Y-12216722D01*
X14346015Y-12216722D02*
X14336491Y-12197674D01*
X14336491Y-12197674D02*
X14317443Y-12188150D01*
X14317443Y-12188150D02*
X14279348Y-12188150D01*
X14279348Y-12188150D02*
X14260301Y-12197674D01*
X14346015Y-12311960D02*
X14326967Y-12321484D01*
X14326967Y-12321484D02*
X14279348Y-12321484D01*
X14279348Y-12321484D02*
X14260301Y-12311960D01*
X14260301Y-12311960D02*
X14250777Y-12292912D01*
X14250777Y-12292912D02*
X14250777Y-12273865D01*
X14250777Y-12273865D02*
X14260301Y-12254817D01*
X14260301Y-12254817D02*
X14279348Y-12245293D01*
X14279348Y-12245293D02*
X14326967Y-12245293D01*
X14326967Y-12245293D02*
X14346015Y-12235769D01*
X14441253Y-12188150D02*
X14441253Y-12388150D01*
X14441253Y-12197674D02*
X14460301Y-12188150D01*
X14460301Y-12188150D02*
X14498396Y-12188150D01*
X14498396Y-12188150D02*
X14517443Y-12197674D01*
X14517443Y-12197674D02*
X14526967Y-12207198D01*
X14526967Y-12207198D02*
X14536491Y-12226246D01*
X14536491Y-12226246D02*
X14536491Y-12283388D01*
X14536491Y-12283388D02*
X14526967Y-12302436D01*
X14526967Y-12302436D02*
X14517443Y-12311960D01*
X14517443Y-12311960D02*
X14498396Y-12321484D01*
X14498396Y-12321484D02*
X14460301Y-12321484D01*
X14460301Y-12321484D02*
X14441253Y-12311960D01*
X14622205Y-12302436D02*
X14631729Y-12311960D01*
X14631729Y-12311960D02*
X14622205Y-12321484D01*
X14622205Y-12321484D02*
X14612682Y-12311960D01*
X14612682Y-12311960D02*
X14622205Y-12302436D01*
X14622205Y-12302436D02*
X14622205Y-12321484D01*
X14622205Y-12197674D02*
X14631729Y-12207198D01*
X14631729Y-12207198D02*
X14622205Y-12216722D01*
X14622205Y-12216722D02*
X14612682Y-12207198D01*
X14612682Y-12207198D02*
X14622205Y-12197674D01*
X14622205Y-12197674D02*
X14622205Y-12216722D01*
D11*
X12950000Y-12630000D02*
X12990000Y-12670000D01*
X12990000Y-12630000D02*
X12950000Y-12670000D01*
D10*
X13288872Y-12541484D02*
X13307920Y-12541484D01*
X13307920Y-12541484D02*
X13326967Y-12551008D01*
X13326967Y-12551008D02*
X13336491Y-12560531D01*
X13336491Y-12560531D02*
X13346015Y-12579579D01*
X13346015Y-12579579D02*
X13355539Y-12617674D01*
X13355539Y-12617674D02*
X13355539Y-12665293D01*
X13355539Y-12665293D02*
X13346015Y-12703388D01*
X13346015Y-12703388D02*
X13336491Y-12722436D01*
X13336491Y-12722436D02*
X13326967Y-12731960D01*
X13326967Y-12731960D02*
X13307920Y-12741484D01*
X13307920Y-12741484D02*
X13288872Y-12741484D01*
X13288872Y-12741484D02*
X13269824Y-12731960D01*
X13269824Y-12731960D02*
X13260301Y-12722436D01*
X13260301Y-12722436D02*
X13250777Y-12703388D01*
X13250777Y-12703388D02*
X13241253Y-12665293D01*
X13241253Y-12665293D02*
X13241253Y-12617674D01*
X13241253Y-12617674D02*
X13250777Y-12579579D01*
X13250777Y-12579579D02*
X13260301Y-12560531D01*
X13260301Y-12560531D02*
X13269824Y-12551008D01*
X13269824Y-12551008D02*
X13288872Y-12541484D01*
X13441253Y-12722436D02*
X13450777Y-12731960D01*
X13450777Y-12731960D02*
X13441253Y-12741484D01*
X13441253Y-12741484D02*
X13431729Y-12731960D01*
X13431729Y-12731960D02*
X13441253Y-12722436D01*
X13441253Y-12722436D02*
X13441253Y-12741484D01*
X13622205Y-12608150D02*
X13622205Y-12741484D01*
X13574586Y-12531960D02*
X13526967Y-12674817D01*
X13526967Y-12674817D02*
X13650777Y-12674817D01*
X13765062Y-12541484D02*
X13784110Y-12541484D01*
X13784110Y-12541484D02*
X13803158Y-12551008D01*
X13803158Y-12551008D02*
X13812682Y-12560531D01*
X13812682Y-12560531D02*
X13822205Y-12579579D01*
X13822205Y-12579579D02*
X13831729Y-12617674D01*
X13831729Y-12617674D02*
X13831729Y-12665293D01*
X13831729Y-12665293D02*
X13822205Y-12703388D01*
X13822205Y-12703388D02*
X13812682Y-12722436D01*
X13812682Y-12722436D02*
X13803158Y-12731960D01*
X13803158Y-12731960D02*
X13784110Y-12741484D01*
X13784110Y-12741484D02*
X13765062Y-12741484D01*
X13765062Y-12741484D02*
X13746015Y-12731960D01*
X13746015Y-12731960D02*
X13736491Y-12722436D01*
X13736491Y-12722436D02*
X13726967Y-12703388D01*
X13726967Y-12703388D02*
X13717443Y-12665293D01*
X13717443Y-12665293D02*
X13717443Y-12617674D01*
X13717443Y-12617674D02*
X13726967Y-12579579D01*
X13726967Y-12579579D02*
X13736491Y-12560531D01*
X13736491Y-12560531D02*
X13746015Y-12551008D01*
X13746015Y-12551008D02*
X13765062Y-12541484D01*
X13955539Y-12541484D02*
X13974586Y-12541484D01*
X13974586Y-12541484D02*
X13993634Y-12551008D01*
X13993634Y-12551008D02*
X14003158Y-12560531D01*
X14003158Y-12560531D02*
X14012682Y-12579579D01*
X14012682Y-12579579D02*
X14022205Y-12617674D01*
X14022205Y-12617674D02*
X14022205Y-12665293D01*
X14022205Y-12665293D02*
X14012682Y-12703388D01*
X14012682Y-12703388D02*
X14003158Y-12722436D01*
X14003158Y-12722436D02*
X13993634Y-12731960D01*
X13993634Y-12731960D02*
X13974586Y-12741484D01*
X13974586Y-12741484D02*
X13955539Y-12741484D01*
X13955539Y-12741484D02*
X13936491Y-12731960D01*
X13936491Y-12731960D02*
X13926967Y-12722436D01*
X13926967Y-12722436D02*
X13917443Y-12703388D01*
X13917443Y-12703388D02*
X13907920Y-12665293D01*
X13907920Y-12665293D02*
X13907920Y-12617674D01*
X13907920Y-12617674D02*
X13917443Y-12579579D01*
X13917443Y-12579579D02*
X13926967Y-12560531D01*
X13926967Y-12560531D02*
X13936491Y-12551008D01*
X13936491Y-12551008D02*
X13955539Y-12541484D01*
X14107920Y-12741484D02*
X14107920Y-12608150D01*
X14107920Y-12627198D02*
X14117443Y-12617674D01*
X14117443Y-12617674D02*
X14136491Y-12608150D01*
X14136491Y-12608150D02*
X14165063Y-12608150D01*
X14165063Y-12608150D02*
X14184110Y-12617674D01*
X14184110Y-12617674D02*
X14193634Y-12636722D01*
X14193634Y-12636722D02*
X14193634Y-12741484D01*
X14193634Y-12636722D02*
X14203158Y-12617674D01*
X14203158Y-12617674D02*
X14222205Y-12608150D01*
X14222205Y-12608150D02*
X14250777Y-12608150D01*
X14250777Y-12608150D02*
X14269824Y-12617674D01*
X14269824Y-12617674D02*
X14279348Y-12636722D01*
X14279348Y-12636722D02*
X14279348Y-12741484D01*
X14374586Y-12741484D02*
X14374586Y-12608150D01*
X14374586Y-12627198D02*
X14384110Y-12617674D01*
X14384110Y-12617674D02*
X14403158Y-12608150D01*
X14403158Y-12608150D02*
X14431729Y-12608150D01*
X14431729Y-12608150D02*
X14450777Y-12617674D01*
X14450777Y-12617674D02*
X14460301Y-12636722D01*
X14460301Y-12636722D02*
X14460301Y-12741484D01*
X14460301Y-12636722D02*
X14469824Y-12617674D01*
X14469824Y-12617674D02*
X14488872Y-12608150D01*
X14488872Y-12608150D02*
X14517443Y-12608150D01*
X14517443Y-12608150D02*
X14536491Y-12617674D01*
X14536491Y-12617674D02*
X14546015Y-12636722D01*
X14546015Y-12636722D02*
X14546015Y-12741484D01*
X14936491Y-12531960D02*
X14765063Y-12789103D01*
X15193634Y-12541484D02*
X15212682Y-12541484D01*
X15212682Y-12541484D02*
X15231729Y-12551008D01*
X15231729Y-12551008D02*
X15241253Y-12560531D01*
X15241253Y-12560531D02*
X15250777Y-12579579D01*
X15250777Y-12579579D02*
X15260301Y-12617674D01*
X15260301Y-12617674D02*
X15260301Y-12665293D01*
X15260301Y-12665293D02*
X15250777Y-12703388D01*
X15250777Y-12703388D02*
X15241253Y-12722436D01*
X15241253Y-12722436D02*
X15231729Y-12731960D01*
X15231729Y-12731960D02*
X15212682Y-12741484D01*
X15212682Y-12741484D02*
X15193634Y-12741484D01*
X15193634Y-12741484D02*
X15174586Y-12731960D01*
X15174586Y-12731960D02*
X15165063Y-12722436D01*
X15165063Y-12722436D02*
X15155539Y-12703388D01*
X15155539Y-12703388D02*
X15146015Y-12665293D01*
X15146015Y-12665293D02*
X15146015Y-12617674D01*
X15146015Y-12617674D02*
X15155539Y-12579579D01*
X15155539Y-12579579D02*
X15165063Y-12560531D01*
X15165063Y-12560531D02*
X15174586Y-12551008D01*
X15174586Y-12551008D02*
X15193634Y-12541484D01*
X15346015Y-12722436D02*
X15355539Y-12731960D01*
X15355539Y-12731960D02*
X15346015Y-12741484D01*
X15346015Y-12741484D02*
X15336491Y-12731960D01*
X15336491Y-12731960D02*
X15346015Y-12722436D01*
X15346015Y-12722436D02*
X15346015Y-12741484D01*
X15479348Y-12541484D02*
X15498396Y-12541484D01*
X15498396Y-12541484D02*
X15517444Y-12551008D01*
X15517444Y-12551008D02*
X15526967Y-12560531D01*
X15526967Y-12560531D02*
X15536491Y-12579579D01*
X15536491Y-12579579D02*
X15546015Y-12617674D01*
X15546015Y-12617674D02*
X15546015Y-12665293D01*
X15546015Y-12665293D02*
X15536491Y-12703388D01*
X15536491Y-12703388D02*
X15526967Y-12722436D01*
X15526967Y-12722436D02*
X15517444Y-12731960D01*
X15517444Y-12731960D02*
X15498396Y-12741484D01*
X15498396Y-12741484D02*
X15479348Y-12741484D01*
X15479348Y-12741484D02*
X15460301Y-12731960D01*
X15460301Y-12731960D02*
X15450777Y-12722436D01*
X15450777Y-12722436D02*
X15441253Y-12703388D01*
X15441253Y-12703388D02*
X15431729Y-12665293D01*
X15431729Y-12665293D02*
X15431729Y-12617674D01*
X15431729Y-12617674D02*
X15441253Y-12579579D01*
X15441253Y-12579579D02*
X15450777Y-12560531D01*
X15450777Y-12560531D02*
X15460301Y-12551008D01*
X15460301Y-12551008D02*
X15479348Y-12541484D01*
X15736491Y-12741484D02*
X15622206Y-12741484D01*
X15679348Y-12741484D02*
X15679348Y-12541484D01*
X15679348Y-12541484D02*
X15660301Y-12570055D01*
X15660301Y-12570055D02*
X15641253Y-12589103D01*
X15641253Y-12589103D02*
X15622206Y-12598627D01*
X15917444Y-12541484D02*
X15822206Y-12541484D01*
X15822206Y-12541484D02*
X15812682Y-12636722D01*
X15812682Y-12636722D02*
X15822206Y-12627198D01*
X15822206Y-12627198D02*
X15841253Y-12617674D01*
X15841253Y-12617674D02*
X15888872Y-12617674D01*
X15888872Y-12617674D02*
X15907920Y-12627198D01*
X15907920Y-12627198D02*
X15917444Y-12636722D01*
X15917444Y-12636722D02*
X15926967Y-12655769D01*
X15926967Y-12655769D02*
X15926967Y-12703388D01*
X15926967Y-12703388D02*
X15917444Y-12722436D01*
X15917444Y-12722436D02*
X15907920Y-12731960D01*
X15907920Y-12731960D02*
X15888872Y-12741484D01*
X15888872Y-12741484D02*
X15841253Y-12741484D01*
X15841253Y-12741484D02*
X15822206Y-12731960D01*
X15822206Y-12731960D02*
X15812682Y-12722436D01*
X15993634Y-12541484D02*
X16126967Y-12541484D01*
X16126967Y-12541484D02*
X16041253Y-12741484D01*
X16193634Y-12541484D02*
X16193634Y-12579579D01*
X16269825Y-12541484D02*
X16269825Y-12579579D01*
X16565063Y-12817674D02*
X16555539Y-12808150D01*
X16555539Y-12808150D02*
X16536491Y-12779579D01*
X16536491Y-12779579D02*
X16526968Y-12760531D01*
X16526968Y-12760531D02*
X16517444Y-12731960D01*
X16517444Y-12731960D02*
X16507920Y-12684341D01*
X16507920Y-12684341D02*
X16507920Y-12646246D01*
X16507920Y-12646246D02*
X16517444Y-12598627D01*
X16517444Y-12598627D02*
X16526968Y-12570055D01*
X16526968Y-12570055D02*
X16536491Y-12551008D01*
X16536491Y-12551008D02*
X16555539Y-12522436D01*
X16555539Y-12522436D02*
X16565063Y-12512912D01*
X16631729Y-12560531D02*
X16641253Y-12551008D01*
X16641253Y-12551008D02*
X16660301Y-12541484D01*
X16660301Y-12541484D02*
X16707920Y-12541484D01*
X16707920Y-12541484D02*
X16726968Y-12551008D01*
X16726968Y-12551008D02*
X16736491Y-12560531D01*
X16736491Y-12560531D02*
X16746015Y-12579579D01*
X16746015Y-12579579D02*
X16746015Y-12598627D01*
X16746015Y-12598627D02*
X16736491Y-12627198D01*
X16736491Y-12627198D02*
X16622206Y-12741484D01*
X16622206Y-12741484D02*
X16746015Y-12741484D01*
X16822206Y-12560531D02*
X16831730Y-12551008D01*
X16831730Y-12551008D02*
X16850777Y-12541484D01*
X16850777Y-12541484D02*
X16898396Y-12541484D01*
X16898396Y-12541484D02*
X16917444Y-12551008D01*
X16917444Y-12551008D02*
X16926968Y-12560531D01*
X16926968Y-12560531D02*
X16936491Y-12579579D01*
X16936491Y-12579579D02*
X16936491Y-12598627D01*
X16936491Y-12598627D02*
X16926968Y-12627198D01*
X16926968Y-12627198D02*
X16812682Y-12741484D01*
X16812682Y-12741484D02*
X16936491Y-12741484D01*
X17174587Y-12741484D02*
X17174587Y-12541484D01*
X17260301Y-12741484D02*
X17260301Y-12636722D01*
X17260301Y-12636722D02*
X17250777Y-12617674D01*
X17250777Y-12617674D02*
X17231730Y-12608150D01*
X17231730Y-12608150D02*
X17203158Y-12608150D01*
X17203158Y-12608150D02*
X17184111Y-12617674D01*
X17184111Y-12617674D02*
X17174587Y-12627198D01*
X17384111Y-12741484D02*
X17365063Y-12731960D01*
X17365063Y-12731960D02*
X17355539Y-12722436D01*
X17355539Y-12722436D02*
X17346015Y-12703388D01*
X17346015Y-12703388D02*
X17346015Y-12646246D01*
X17346015Y-12646246D02*
X17355539Y-12627198D01*
X17355539Y-12627198D02*
X17365063Y-12617674D01*
X17365063Y-12617674D02*
X17384111Y-12608150D01*
X17384111Y-12608150D02*
X17412682Y-12608150D01*
X17412682Y-12608150D02*
X17431730Y-12617674D01*
X17431730Y-12617674D02*
X17441253Y-12627198D01*
X17441253Y-12627198D02*
X17450777Y-12646246D01*
X17450777Y-12646246D02*
X17450777Y-12703388D01*
X17450777Y-12703388D02*
X17441253Y-12722436D01*
X17441253Y-12722436D02*
X17431730Y-12731960D01*
X17431730Y-12731960D02*
X17412682Y-12741484D01*
X17412682Y-12741484D02*
X17384111Y-12741484D01*
X17565063Y-12741484D02*
X17546015Y-12731960D01*
X17546015Y-12731960D02*
X17536492Y-12712912D01*
X17536492Y-12712912D02*
X17536492Y-12541484D01*
X17717444Y-12731960D02*
X17698396Y-12741484D01*
X17698396Y-12741484D02*
X17660301Y-12741484D01*
X17660301Y-12741484D02*
X17641253Y-12731960D01*
X17641253Y-12731960D02*
X17631730Y-12712912D01*
X17631730Y-12712912D02*
X17631730Y-12636722D01*
X17631730Y-12636722D02*
X17641253Y-12617674D01*
X17641253Y-12617674D02*
X17660301Y-12608150D01*
X17660301Y-12608150D02*
X17698396Y-12608150D01*
X17698396Y-12608150D02*
X17717444Y-12617674D01*
X17717444Y-12617674D02*
X17726968Y-12636722D01*
X17726968Y-12636722D02*
X17726968Y-12655769D01*
X17726968Y-12655769D02*
X17631730Y-12674817D01*
X17803158Y-12731960D02*
X17822206Y-12741484D01*
X17822206Y-12741484D02*
X17860301Y-12741484D01*
X17860301Y-12741484D02*
X17879349Y-12731960D01*
X17879349Y-12731960D02*
X17888873Y-12712912D01*
X17888873Y-12712912D02*
X17888873Y-12703388D01*
X17888873Y-12703388D02*
X17879349Y-12684341D01*
X17879349Y-12684341D02*
X17860301Y-12674817D01*
X17860301Y-12674817D02*
X17831730Y-12674817D01*
X17831730Y-12674817D02*
X17812682Y-12665293D01*
X17812682Y-12665293D02*
X17803158Y-12646246D01*
X17803158Y-12646246D02*
X17803158Y-12636722D01*
X17803158Y-12636722D02*
X17812682Y-12617674D01*
X17812682Y-12617674D02*
X17831730Y-12608150D01*
X17831730Y-12608150D02*
X17860301Y-12608150D01*
X17860301Y-12608150D02*
X17879349Y-12617674D01*
X17955539Y-12817674D02*
X17965063Y-12808150D01*
X17965063Y-12808150D02*
X17984111Y-12779579D01*
X17984111Y-12779579D02*
X17993634Y-12760531D01*
X17993634Y-12760531D02*
X18003158Y-12731960D01*
X18003158Y-12731960D02*
X18012682Y-12684341D01*
X18012682Y-12684341D02*
X18012682Y-12646246D01*
X18012682Y-12646246D02*
X18003158Y-12598627D01*
X18003158Y-12598627D02*
X17993634Y-12570055D01*
X17993634Y-12570055D02*
X17984111Y-12551008D01*
X17984111Y-12551008D02*
X17965063Y-12522436D01*
X17965063Y-12522436D02*
X17955539Y-12512912D01*
D12*
X12990000Y-12914000D02*
G75*
G03*
X12990000Y-12914000I-30000J0D01*
G01*
D10*
X13288872Y-12805484D02*
X13307920Y-12805484D01*
X13307920Y-12805484D02*
X13326967Y-12815008D01*
X13326967Y-12815008D02*
X13336491Y-12824531D01*
X13336491Y-12824531D02*
X13346015Y-12843579D01*
X13346015Y-12843579D02*
X13355539Y-12881674D01*
X13355539Y-12881674D02*
X13355539Y-12929293D01*
X13355539Y-12929293D02*
X13346015Y-12967388D01*
X13346015Y-12967388D02*
X13336491Y-12986436D01*
X13336491Y-12986436D02*
X13326967Y-12995960D01*
X13326967Y-12995960D02*
X13307920Y-13005484D01*
X13307920Y-13005484D02*
X13288872Y-13005484D01*
X13288872Y-13005484D02*
X13269824Y-12995960D01*
X13269824Y-12995960D02*
X13260301Y-12986436D01*
X13260301Y-12986436D02*
X13250777Y-12967388D01*
X13250777Y-12967388D02*
X13241253Y-12929293D01*
X13241253Y-12929293D02*
X13241253Y-12881674D01*
X13241253Y-12881674D02*
X13250777Y-12843579D01*
X13250777Y-12843579D02*
X13260301Y-12824531D01*
X13260301Y-12824531D02*
X13269824Y-12815008D01*
X13269824Y-12815008D02*
X13288872Y-12805484D01*
X13441253Y-12986436D02*
X13450777Y-12995960D01*
X13450777Y-12995960D02*
X13441253Y-13005484D01*
X13441253Y-13005484D02*
X13431729Y-12995960D01*
X13431729Y-12995960D02*
X13441253Y-12986436D01*
X13441253Y-12986436D02*
X13441253Y-13005484D01*
X13622205Y-12805484D02*
X13584110Y-12805484D01*
X13584110Y-12805484D02*
X13565062Y-12815008D01*
X13565062Y-12815008D02*
X13555539Y-12824531D01*
X13555539Y-12824531D02*
X13536491Y-12853103D01*
X13536491Y-12853103D02*
X13526967Y-12891198D01*
X13526967Y-12891198D02*
X13526967Y-12967388D01*
X13526967Y-12967388D02*
X13536491Y-12986436D01*
X13536491Y-12986436D02*
X13546015Y-12995960D01*
X13546015Y-12995960D02*
X13565062Y-13005484D01*
X13565062Y-13005484D02*
X13603158Y-13005484D01*
X13603158Y-13005484D02*
X13622205Y-12995960D01*
X13622205Y-12995960D02*
X13631729Y-12986436D01*
X13631729Y-12986436D02*
X13641253Y-12967388D01*
X13641253Y-12967388D02*
X13641253Y-12919769D01*
X13641253Y-12919769D02*
X13631729Y-12900722D01*
X13631729Y-12900722D02*
X13622205Y-12891198D01*
X13622205Y-12891198D02*
X13603158Y-12881674D01*
X13603158Y-12881674D02*
X13565062Y-12881674D01*
X13565062Y-12881674D02*
X13546015Y-12891198D01*
X13546015Y-12891198D02*
X13536491Y-12900722D01*
X13536491Y-12900722D02*
X13526967Y-12919769D01*
X13765062Y-12805484D02*
X13784110Y-12805484D01*
X13784110Y-12805484D02*
X13803158Y-12815008D01*
X13803158Y-12815008D02*
X13812682Y-12824531D01*
X13812682Y-12824531D02*
X13822205Y-12843579D01*
X13822205Y-12843579D02*
X13831729Y-12881674D01*
X13831729Y-12881674D02*
X13831729Y-12929293D01*
X13831729Y-12929293D02*
X13822205Y-12967388D01*
X13822205Y-12967388D02*
X13812682Y-12986436D01*
X13812682Y-12986436D02*
X13803158Y-12995960D01*
X13803158Y-12995960D02*
X13784110Y-13005484D01*
X13784110Y-13005484D02*
X13765062Y-13005484D01*
X13765062Y-13005484D02*
X13746015Y-12995960D01*
X13746015Y-12995960D02*
X13736491Y-12986436D01*
X13736491Y-12986436D02*
X13726967Y-12967388D01*
X13726967Y-12967388D02*
X13717443Y-12929293D01*
X13717443Y-12929293D02*
X13717443Y-12881674D01*
X13717443Y-12881674D02*
X13726967Y-12843579D01*
X13726967Y-12843579D02*
X13736491Y-12824531D01*
X13736491Y-12824531D02*
X13746015Y-12815008D01*
X13746015Y-12815008D02*
X13765062Y-12805484D01*
X13955539Y-12805484D02*
X13974586Y-12805484D01*
X13974586Y-12805484D02*
X13993634Y-12815008D01*
X13993634Y-12815008D02*
X14003158Y-12824531D01*
X14003158Y-12824531D02*
X14012682Y-12843579D01*
X14012682Y-12843579D02*
X14022205Y-12881674D01*
X14022205Y-12881674D02*
X14022205Y-12929293D01*
X14022205Y-12929293D02*
X14012682Y-12967388D01*
X14012682Y-12967388D02*
X14003158Y-12986436D01*
X14003158Y-12986436D02*
X13993634Y-12995960D01*
X13993634Y-12995960D02*
X13974586Y-13005484D01*
X13974586Y-13005484D02*
X13955539Y-13005484D01*
X13955539Y-13005484D02*
X13936491Y-12995960D01*
X13936491Y-12995960D02*
X13926967Y-12986436D01*
X13926967Y-12986436D02*
X13917443Y-12967388D01*
X13917443Y-12967388D02*
X13907920Y-12929293D01*
X13907920Y-12929293D02*
X13907920Y-12881674D01*
X13907920Y-12881674D02*
X13917443Y-12843579D01*
X13917443Y-12843579D02*
X13926967Y-12824531D01*
X13926967Y-12824531D02*
X13936491Y-12815008D01*
X13936491Y-12815008D02*
X13955539Y-12805484D01*
X14107920Y-13005484D02*
X14107920Y-12872150D01*
X14107920Y-12891198D02*
X14117443Y-12881674D01*
X14117443Y-12881674D02*
X14136491Y-12872150D01*
X14136491Y-12872150D02*
X14165063Y-12872150D01*
X14165063Y-12872150D02*
X14184110Y-12881674D01*
X14184110Y-12881674D02*
X14193634Y-12900722D01*
X14193634Y-12900722D02*
X14193634Y-13005484D01*
X14193634Y-12900722D02*
X14203158Y-12881674D01*
X14203158Y-12881674D02*
X14222205Y-12872150D01*
X14222205Y-12872150D02*
X14250777Y-12872150D01*
X14250777Y-12872150D02*
X14269824Y-12881674D01*
X14269824Y-12881674D02*
X14279348Y-12900722D01*
X14279348Y-12900722D02*
X14279348Y-13005484D01*
X14374586Y-13005484D02*
X14374586Y-12872150D01*
X14374586Y-12891198D02*
X14384110Y-12881674D01*
X14384110Y-12881674D02*
X14403158Y-12872150D01*
X14403158Y-12872150D02*
X14431729Y-12872150D01*
X14431729Y-12872150D02*
X14450777Y-12881674D01*
X14450777Y-12881674D02*
X14460301Y-12900722D01*
X14460301Y-12900722D02*
X14460301Y-13005484D01*
X14460301Y-12900722D02*
X14469824Y-12881674D01*
X14469824Y-12881674D02*
X14488872Y-12872150D01*
X14488872Y-12872150D02*
X14517443Y-12872150D01*
X14517443Y-12872150D02*
X14536491Y-12881674D01*
X14536491Y-12881674D02*
X14546015Y-12900722D01*
X14546015Y-12900722D02*
X14546015Y-13005484D01*
X14936491Y-12795960D02*
X14765063Y-13053103D01*
X15193634Y-12805484D02*
X15212682Y-12805484D01*
X15212682Y-12805484D02*
X15231729Y-12815008D01*
X15231729Y-12815008D02*
X15241253Y-12824531D01*
X15241253Y-12824531D02*
X15250777Y-12843579D01*
X15250777Y-12843579D02*
X15260301Y-12881674D01*
X15260301Y-12881674D02*
X15260301Y-12929293D01*
X15260301Y-12929293D02*
X15250777Y-12967388D01*
X15250777Y-12967388D02*
X15241253Y-12986436D01*
X15241253Y-12986436D02*
X15231729Y-12995960D01*
X15231729Y-12995960D02*
X15212682Y-13005484D01*
X15212682Y-13005484D02*
X15193634Y-13005484D01*
X15193634Y-13005484D02*
X15174586Y-12995960D01*
X15174586Y-12995960D02*
X15165063Y-12986436D01*
X15165063Y-12986436D02*
X15155539Y-12967388D01*
X15155539Y-12967388D02*
X15146015Y-12929293D01*
X15146015Y-12929293D02*
X15146015Y-12881674D01*
X15146015Y-12881674D02*
X15155539Y-12843579D01*
X15155539Y-12843579D02*
X15165063Y-12824531D01*
X15165063Y-12824531D02*
X15174586Y-12815008D01*
X15174586Y-12815008D02*
X15193634Y-12805484D01*
X15346015Y-12986436D02*
X15355539Y-12995960D01*
X15355539Y-12995960D02*
X15346015Y-13005484D01*
X15346015Y-13005484D02*
X15336491Y-12995960D01*
X15336491Y-12995960D02*
X15346015Y-12986436D01*
X15346015Y-12986436D02*
X15346015Y-13005484D01*
X15479348Y-12805484D02*
X15498396Y-12805484D01*
X15498396Y-12805484D02*
X15517444Y-12815008D01*
X15517444Y-12815008D02*
X15526967Y-12824531D01*
X15526967Y-12824531D02*
X15536491Y-12843579D01*
X15536491Y-12843579D02*
X15546015Y-12881674D01*
X15546015Y-12881674D02*
X15546015Y-12929293D01*
X15546015Y-12929293D02*
X15536491Y-12967388D01*
X15536491Y-12967388D02*
X15526967Y-12986436D01*
X15526967Y-12986436D02*
X15517444Y-12995960D01*
X15517444Y-12995960D02*
X15498396Y-13005484D01*
X15498396Y-13005484D02*
X15479348Y-13005484D01*
X15479348Y-13005484D02*
X15460301Y-12995960D01*
X15460301Y-12995960D02*
X15450777Y-12986436D01*
X15450777Y-12986436D02*
X15441253Y-12967388D01*
X15441253Y-12967388D02*
X15431729Y-12929293D01*
X15431729Y-12929293D02*
X15431729Y-12881674D01*
X15431729Y-12881674D02*
X15441253Y-12843579D01*
X15441253Y-12843579D02*
X15450777Y-12824531D01*
X15450777Y-12824531D02*
X15460301Y-12815008D01*
X15460301Y-12815008D02*
X15479348Y-12805484D01*
X15622206Y-12824531D02*
X15631729Y-12815008D01*
X15631729Y-12815008D02*
X15650777Y-12805484D01*
X15650777Y-12805484D02*
X15698396Y-12805484D01*
X15698396Y-12805484D02*
X15717444Y-12815008D01*
X15717444Y-12815008D02*
X15726967Y-12824531D01*
X15726967Y-12824531D02*
X15736491Y-12843579D01*
X15736491Y-12843579D02*
X15736491Y-12862627D01*
X15736491Y-12862627D02*
X15726967Y-12891198D01*
X15726967Y-12891198D02*
X15612682Y-13005484D01*
X15612682Y-13005484D02*
X15736491Y-13005484D01*
X15803158Y-12805484D02*
X15926967Y-12805484D01*
X15926967Y-12805484D02*
X15860301Y-12881674D01*
X15860301Y-12881674D02*
X15888872Y-12881674D01*
X15888872Y-12881674D02*
X15907920Y-12891198D01*
X15907920Y-12891198D02*
X15917444Y-12900722D01*
X15917444Y-12900722D02*
X15926967Y-12919769D01*
X15926967Y-12919769D02*
X15926967Y-12967388D01*
X15926967Y-12967388D02*
X15917444Y-12986436D01*
X15917444Y-12986436D02*
X15907920Y-12995960D01*
X15907920Y-12995960D02*
X15888872Y-13005484D01*
X15888872Y-13005484D02*
X15831729Y-13005484D01*
X15831729Y-13005484D02*
X15812682Y-12995960D01*
X15812682Y-12995960D02*
X15803158Y-12986436D01*
X16098396Y-12805484D02*
X16060301Y-12805484D01*
X16060301Y-12805484D02*
X16041253Y-12815008D01*
X16041253Y-12815008D02*
X16031729Y-12824531D01*
X16031729Y-12824531D02*
X16012682Y-12853103D01*
X16012682Y-12853103D02*
X16003158Y-12891198D01*
X16003158Y-12891198D02*
X16003158Y-12967388D01*
X16003158Y-12967388D02*
X16012682Y-12986436D01*
X16012682Y-12986436D02*
X16022206Y-12995960D01*
X16022206Y-12995960D02*
X16041253Y-13005484D01*
X16041253Y-13005484D02*
X16079348Y-13005484D01*
X16079348Y-13005484D02*
X16098396Y-12995960D01*
X16098396Y-12995960D02*
X16107920Y-12986436D01*
X16107920Y-12986436D02*
X16117444Y-12967388D01*
X16117444Y-12967388D02*
X16117444Y-12919769D01*
X16117444Y-12919769D02*
X16107920Y-12900722D01*
X16107920Y-12900722D02*
X16098396Y-12891198D01*
X16098396Y-12891198D02*
X16079348Y-12881674D01*
X16079348Y-12881674D02*
X16041253Y-12881674D01*
X16041253Y-12881674D02*
X16022206Y-12891198D01*
X16022206Y-12891198D02*
X16012682Y-12900722D01*
X16012682Y-12900722D02*
X16003158Y-12919769D01*
X16193634Y-12805484D02*
X16193634Y-12843579D01*
X16269825Y-12805484D02*
X16269825Y-12843579D01*
X16565063Y-13081674D02*
X16555539Y-13072150D01*
X16555539Y-13072150D02*
X16536491Y-13043579D01*
X16536491Y-13043579D02*
X16526968Y-13024531D01*
X16526968Y-13024531D02*
X16517444Y-12995960D01*
X16517444Y-12995960D02*
X16507920Y-12948341D01*
X16507920Y-12948341D02*
X16507920Y-12910246D01*
X16507920Y-12910246D02*
X16517444Y-12862627D01*
X16517444Y-12862627D02*
X16526968Y-12834055D01*
X16526968Y-12834055D02*
X16536491Y-12815008D01*
X16536491Y-12815008D02*
X16555539Y-12786436D01*
X16555539Y-12786436D02*
X16565063Y-12776912D01*
X16679348Y-12805484D02*
X16698396Y-12805484D01*
X16698396Y-12805484D02*
X16717444Y-12815008D01*
X16717444Y-12815008D02*
X16726968Y-12824531D01*
X16726968Y-12824531D02*
X16736491Y-12843579D01*
X16736491Y-12843579D02*
X16746015Y-12881674D01*
X16746015Y-12881674D02*
X16746015Y-12929293D01*
X16746015Y-12929293D02*
X16736491Y-12967388D01*
X16736491Y-12967388D02*
X16726968Y-12986436D01*
X16726968Y-12986436D02*
X16717444Y-12995960D01*
X16717444Y-12995960D02*
X16698396Y-13005484D01*
X16698396Y-13005484D02*
X16679348Y-13005484D01*
X16679348Y-13005484D02*
X16660301Y-12995960D01*
X16660301Y-12995960D02*
X16650777Y-12986436D01*
X16650777Y-12986436D02*
X16641253Y-12967388D01*
X16641253Y-12967388D02*
X16631729Y-12929293D01*
X16631729Y-12929293D02*
X16631729Y-12881674D01*
X16631729Y-12881674D02*
X16641253Y-12843579D01*
X16641253Y-12843579D02*
X16650777Y-12824531D01*
X16650777Y-12824531D02*
X16660301Y-12815008D01*
X16660301Y-12815008D02*
X16679348Y-12805484D01*
X16984111Y-13005484D02*
X16984111Y-12805484D01*
X17069825Y-13005484D02*
X17069825Y-12900722D01*
X17069825Y-12900722D02*
X17060301Y-12881674D01*
X17060301Y-12881674D02*
X17041253Y-12872150D01*
X17041253Y-12872150D02*
X17012682Y-12872150D01*
X17012682Y-12872150D02*
X16993634Y-12881674D01*
X16993634Y-12881674D02*
X16984111Y-12891198D01*
X17193634Y-13005484D02*
X17174587Y-12995960D01*
X17174587Y-12995960D02*
X17165063Y-12986436D01*
X17165063Y-12986436D02*
X17155539Y-12967388D01*
X17155539Y-12967388D02*
X17155539Y-12910246D01*
X17155539Y-12910246D02*
X17165063Y-12891198D01*
X17165063Y-12891198D02*
X17174587Y-12881674D01*
X17174587Y-12881674D02*
X17193634Y-12872150D01*
X17193634Y-12872150D02*
X17222206Y-12872150D01*
X17222206Y-12872150D02*
X17241253Y-12881674D01*
X17241253Y-12881674D02*
X17250777Y-12891198D01*
X17250777Y-12891198D02*
X17260301Y-12910246D01*
X17260301Y-12910246D02*
X17260301Y-12967388D01*
X17260301Y-12967388D02*
X17250777Y-12986436D01*
X17250777Y-12986436D02*
X17241253Y-12995960D01*
X17241253Y-12995960D02*
X17222206Y-13005484D01*
X17222206Y-13005484D02*
X17193634Y-13005484D01*
X17374587Y-13005484D02*
X17355539Y-12995960D01*
X17355539Y-12995960D02*
X17346015Y-12976912D01*
X17346015Y-12976912D02*
X17346015Y-12805484D01*
X17526968Y-12995960D02*
X17507920Y-13005484D01*
X17507920Y-13005484D02*
X17469825Y-13005484D01*
X17469825Y-13005484D02*
X17450777Y-12995960D01*
X17450777Y-12995960D02*
X17441253Y-12976912D01*
X17441253Y-12976912D02*
X17441253Y-12900722D01*
X17441253Y-12900722D02*
X17450777Y-12881674D01*
X17450777Y-12881674D02*
X17469825Y-12872150D01*
X17469825Y-12872150D02*
X17507920Y-12872150D01*
X17507920Y-12872150D02*
X17526968Y-12881674D01*
X17526968Y-12881674D02*
X17536492Y-12900722D01*
X17536492Y-12900722D02*
X17536492Y-12919769D01*
X17536492Y-12919769D02*
X17441253Y-12938817D01*
X17612682Y-12995960D02*
X17631730Y-13005484D01*
X17631730Y-13005484D02*
X17669825Y-13005484D01*
X17669825Y-13005484D02*
X17688873Y-12995960D01*
X17688873Y-12995960D02*
X17698396Y-12976912D01*
X17698396Y-12976912D02*
X17698396Y-12967388D01*
X17698396Y-12967388D02*
X17688873Y-12948341D01*
X17688873Y-12948341D02*
X17669825Y-12938817D01*
X17669825Y-12938817D02*
X17641253Y-12938817D01*
X17641253Y-12938817D02*
X17622206Y-12929293D01*
X17622206Y-12929293D02*
X17612682Y-12910246D01*
X17612682Y-12910246D02*
X17612682Y-12900722D01*
X17612682Y-12900722D02*
X17622206Y-12881674D01*
X17622206Y-12881674D02*
X17641253Y-12872150D01*
X17641253Y-12872150D02*
X17669825Y-12872150D01*
X17669825Y-12872150D02*
X17688873Y-12881674D01*
X17936492Y-12929293D02*
X18088873Y-12929293D01*
X18012682Y-13005484D02*
X18012682Y-12853103D01*
X18422206Y-12872150D02*
X18422206Y-13005484D01*
X18374587Y-12795960D02*
X18326968Y-12938817D01*
X18326968Y-12938817D02*
X18450777Y-12938817D01*
X18669825Y-12995960D02*
X18688873Y-13005484D01*
X18688873Y-13005484D02*
X18726968Y-13005484D01*
X18726968Y-13005484D02*
X18746016Y-12995960D01*
X18746016Y-12995960D02*
X18755539Y-12976912D01*
X18755539Y-12976912D02*
X18755539Y-12967388D01*
X18755539Y-12967388D02*
X18746016Y-12948341D01*
X18746016Y-12948341D02*
X18726968Y-12938817D01*
X18726968Y-12938817D02*
X18698396Y-12938817D01*
X18698396Y-12938817D02*
X18679349Y-12929293D01*
X18679349Y-12929293D02*
X18669825Y-12910246D01*
X18669825Y-12910246D02*
X18669825Y-12900722D01*
X18669825Y-12900722D02*
X18679349Y-12881674D01*
X18679349Y-12881674D02*
X18698396Y-12872150D01*
X18698396Y-12872150D02*
X18726968Y-12872150D01*
X18726968Y-12872150D02*
X18746016Y-12881674D01*
X18869825Y-13005484D02*
X18850777Y-12995960D01*
X18850777Y-12995960D02*
X18841254Y-12976912D01*
X18841254Y-12976912D02*
X18841254Y-12805484D01*
X18974587Y-13005484D02*
X18955539Y-12995960D01*
X18955539Y-12995960D02*
X18946016Y-12986436D01*
X18946016Y-12986436D02*
X18936492Y-12967388D01*
X18936492Y-12967388D02*
X18936492Y-12910246D01*
X18936492Y-12910246D02*
X18946016Y-12891198D01*
X18946016Y-12891198D02*
X18955539Y-12881674D01*
X18955539Y-12881674D02*
X18974587Y-12872150D01*
X18974587Y-12872150D02*
X19003158Y-12872150D01*
X19003158Y-12872150D02*
X19022206Y-12881674D01*
X19022206Y-12881674D02*
X19031730Y-12891198D01*
X19031730Y-12891198D02*
X19041254Y-12910246D01*
X19041254Y-12910246D02*
X19041254Y-12967388D01*
X19041254Y-12967388D02*
X19031730Y-12986436D01*
X19031730Y-12986436D02*
X19022206Y-12995960D01*
X19022206Y-12995960D02*
X19003158Y-13005484D01*
X19003158Y-13005484D02*
X18974587Y-13005484D01*
X19098397Y-12872150D02*
X19174587Y-12872150D01*
X19126968Y-12805484D02*
X19126968Y-12976912D01*
X19126968Y-12976912D02*
X19136492Y-12995960D01*
X19136492Y-12995960D02*
X19155539Y-13005484D01*
X19155539Y-13005484D02*
X19174587Y-13005484D01*
X19231730Y-12995960D02*
X19250777Y-13005484D01*
X19250777Y-13005484D02*
X19288873Y-13005484D01*
X19288873Y-13005484D02*
X19307920Y-12995960D01*
X19307920Y-12995960D02*
X19317444Y-12976912D01*
X19317444Y-12976912D02*
X19317444Y-12967388D01*
X19317444Y-12967388D02*
X19307920Y-12948341D01*
X19307920Y-12948341D02*
X19288873Y-12938817D01*
X19288873Y-12938817D02*
X19260301Y-12938817D01*
X19260301Y-12938817D02*
X19241254Y-12929293D01*
X19241254Y-12929293D02*
X19231730Y-12910246D01*
X19231730Y-12910246D02*
X19231730Y-12900722D01*
X19231730Y-12900722D02*
X19241254Y-12881674D01*
X19241254Y-12881674D02*
X19260301Y-12872150D01*
X19260301Y-12872150D02*
X19288873Y-12872150D01*
X19288873Y-12872150D02*
X19307920Y-12881674D01*
X19384111Y-13081674D02*
X19393635Y-13072150D01*
X19393635Y-13072150D02*
X19412682Y-13043579D01*
X19412682Y-13043579D02*
X19422206Y-13024531D01*
X19422206Y-13024531D02*
X19431730Y-12995960D01*
X19431730Y-12995960D02*
X19441254Y-12948341D01*
X19441254Y-12948341D02*
X19441254Y-12910246D01*
X19441254Y-12910246D02*
X19431730Y-12862627D01*
X19431730Y-12862627D02*
X19422206Y-12834055D01*
X19422206Y-12834055D02*
X19412682Y-12815008D01*
X19412682Y-12815008D02*
X19393635Y-12786436D01*
X19393635Y-12786436D02*
X19384111Y-12776912D01*
D13*
X12940500Y-13128500D02*
X12940500Y-13227500D01*
X12891000Y-13178000D02*
X12990000Y-13178000D01*
D10*
X13288872Y-13069484D02*
X13307920Y-13069484D01*
X13307920Y-13069484D02*
X13326967Y-13079008D01*
X13326967Y-13079008D02*
X13336491Y-13088531D01*
X13336491Y-13088531D02*
X13346015Y-13107579D01*
X13346015Y-13107579D02*
X13355539Y-13145674D01*
X13355539Y-13145674D02*
X13355539Y-13193293D01*
X13355539Y-13193293D02*
X13346015Y-13231388D01*
X13346015Y-13231388D02*
X13336491Y-13250436D01*
X13336491Y-13250436D02*
X13326967Y-13259960D01*
X13326967Y-13259960D02*
X13307920Y-13269484D01*
X13307920Y-13269484D02*
X13288872Y-13269484D01*
X13288872Y-13269484D02*
X13269824Y-13259960D01*
X13269824Y-13259960D02*
X13260301Y-13250436D01*
X13260301Y-13250436D02*
X13250777Y-13231388D01*
X13250777Y-13231388D02*
X13241253Y-13193293D01*
X13241253Y-13193293D02*
X13241253Y-13145674D01*
X13241253Y-13145674D02*
X13250777Y-13107579D01*
X13250777Y-13107579D02*
X13260301Y-13088531D01*
X13260301Y-13088531D02*
X13269824Y-13079008D01*
X13269824Y-13079008D02*
X13288872Y-13069484D01*
X13441253Y-13250436D02*
X13450777Y-13259960D01*
X13450777Y-13259960D02*
X13441253Y-13269484D01*
X13441253Y-13269484D02*
X13431729Y-13259960D01*
X13431729Y-13259960D02*
X13441253Y-13250436D01*
X13441253Y-13250436D02*
X13441253Y-13269484D01*
X13546015Y-13269484D02*
X13584110Y-13269484D01*
X13584110Y-13269484D02*
X13603158Y-13259960D01*
X13603158Y-13259960D02*
X13612682Y-13250436D01*
X13612682Y-13250436D02*
X13631729Y-13221865D01*
X13631729Y-13221865D02*
X13641253Y-13183769D01*
X13641253Y-13183769D02*
X13641253Y-13107579D01*
X13641253Y-13107579D02*
X13631729Y-13088531D01*
X13631729Y-13088531D02*
X13622205Y-13079008D01*
X13622205Y-13079008D02*
X13603158Y-13069484D01*
X13603158Y-13069484D02*
X13565062Y-13069484D01*
X13565062Y-13069484D02*
X13546015Y-13079008D01*
X13546015Y-13079008D02*
X13536491Y-13088531D01*
X13536491Y-13088531D02*
X13526967Y-13107579D01*
X13526967Y-13107579D02*
X13526967Y-13155198D01*
X13526967Y-13155198D02*
X13536491Y-13174246D01*
X13536491Y-13174246D02*
X13546015Y-13183769D01*
X13546015Y-13183769D02*
X13565062Y-13193293D01*
X13565062Y-13193293D02*
X13603158Y-13193293D01*
X13603158Y-13193293D02*
X13622205Y-13183769D01*
X13622205Y-13183769D02*
X13631729Y-13174246D01*
X13631729Y-13174246D02*
X13641253Y-13155198D01*
X13736491Y-13269484D02*
X13774586Y-13269484D01*
X13774586Y-13269484D02*
X13793634Y-13259960D01*
X13793634Y-13259960D02*
X13803158Y-13250436D01*
X13803158Y-13250436D02*
X13822205Y-13221865D01*
X13822205Y-13221865D02*
X13831729Y-13183769D01*
X13831729Y-13183769D02*
X13831729Y-13107579D01*
X13831729Y-13107579D02*
X13822205Y-13088531D01*
X13822205Y-13088531D02*
X13812682Y-13079008D01*
X13812682Y-13079008D02*
X13793634Y-13069484D01*
X13793634Y-13069484D02*
X13755539Y-13069484D01*
X13755539Y-13069484D02*
X13736491Y-13079008D01*
X13736491Y-13079008D02*
X13726967Y-13088531D01*
X13726967Y-13088531D02*
X13717443Y-13107579D01*
X13717443Y-13107579D02*
X13717443Y-13155198D01*
X13717443Y-13155198D02*
X13726967Y-13174246D01*
X13726967Y-13174246D02*
X13736491Y-13183769D01*
X13736491Y-13183769D02*
X13755539Y-13193293D01*
X13755539Y-13193293D02*
X13793634Y-13193293D01*
X13793634Y-13193293D02*
X13812682Y-13183769D01*
X13812682Y-13183769D02*
X13822205Y-13174246D01*
X13822205Y-13174246D02*
X13831729Y-13155198D01*
X13955539Y-13069484D02*
X13974586Y-13069484D01*
X13974586Y-13069484D02*
X13993634Y-13079008D01*
X13993634Y-13079008D02*
X14003158Y-13088531D01*
X14003158Y-13088531D02*
X14012682Y-13107579D01*
X14012682Y-13107579D02*
X14022205Y-13145674D01*
X14022205Y-13145674D02*
X14022205Y-13193293D01*
X14022205Y-13193293D02*
X14012682Y-13231388D01*
X14012682Y-13231388D02*
X14003158Y-13250436D01*
X14003158Y-13250436D02*
X13993634Y-13259960D01*
X13993634Y-13259960D02*
X13974586Y-13269484D01*
X13974586Y-13269484D02*
X13955539Y-13269484D01*
X13955539Y-13269484D02*
X13936491Y-13259960D01*
X13936491Y-13259960D02*
X13926967Y-13250436D01*
X13926967Y-13250436D02*
X13917443Y-13231388D01*
X13917443Y-13231388D02*
X13907920Y-13193293D01*
X13907920Y-13193293D02*
X13907920Y-13145674D01*
X13907920Y-13145674D02*
X13917443Y-13107579D01*
X13917443Y-13107579D02*
X13926967Y-13088531D01*
X13926967Y-13088531D02*
X13936491Y-13079008D01*
X13936491Y-13079008D02*
X13955539Y-13069484D01*
X14107920Y-13269484D02*
X14107920Y-13136150D01*
X14107920Y-13155198D02*
X14117443Y-13145674D01*
X14117443Y-13145674D02*
X14136491Y-13136150D01*
X14136491Y-13136150D02*
X14165063Y-13136150D01*
X14165063Y-13136150D02*
X14184110Y-13145674D01*
X14184110Y-13145674D02*
X14193634Y-13164722D01*
X14193634Y-13164722D02*
X14193634Y-13269484D01*
X14193634Y-13164722D02*
X14203158Y-13145674D01*
X14203158Y-13145674D02*
X14222205Y-13136150D01*
X14222205Y-13136150D02*
X14250777Y-13136150D01*
X14250777Y-13136150D02*
X14269824Y-13145674D01*
X14269824Y-13145674D02*
X14279348Y-13164722D01*
X14279348Y-13164722D02*
X14279348Y-13269484D01*
X14374586Y-13269484D02*
X14374586Y-13136150D01*
X14374586Y-13155198D02*
X14384110Y-13145674D01*
X14384110Y-13145674D02*
X14403158Y-13136150D01*
X14403158Y-13136150D02*
X14431729Y-13136150D01*
X14431729Y-13136150D02*
X14450777Y-13145674D01*
X14450777Y-13145674D02*
X14460301Y-13164722D01*
X14460301Y-13164722D02*
X14460301Y-13269484D01*
X14460301Y-13164722D02*
X14469824Y-13145674D01*
X14469824Y-13145674D02*
X14488872Y-13136150D01*
X14488872Y-13136150D02*
X14517443Y-13136150D01*
X14517443Y-13136150D02*
X14536491Y-13145674D01*
X14536491Y-13145674D02*
X14546015Y-13164722D01*
X14546015Y-13164722D02*
X14546015Y-13269484D01*
X14936491Y-13059960D02*
X14765063Y-13317103D01*
X15193634Y-13069484D02*
X15212682Y-13069484D01*
X15212682Y-13069484D02*
X15231729Y-13079008D01*
X15231729Y-13079008D02*
X15241253Y-13088531D01*
X15241253Y-13088531D02*
X15250777Y-13107579D01*
X15250777Y-13107579D02*
X15260301Y-13145674D01*
X15260301Y-13145674D02*
X15260301Y-13193293D01*
X15260301Y-13193293D02*
X15250777Y-13231388D01*
X15250777Y-13231388D02*
X15241253Y-13250436D01*
X15241253Y-13250436D02*
X15231729Y-13259960D01*
X15231729Y-13259960D02*
X15212682Y-13269484D01*
X15212682Y-13269484D02*
X15193634Y-13269484D01*
X15193634Y-13269484D02*
X15174586Y-13259960D01*
X15174586Y-13259960D02*
X15165063Y-13250436D01*
X15165063Y-13250436D02*
X15155539Y-13231388D01*
X15155539Y-13231388D02*
X15146015Y-13193293D01*
X15146015Y-13193293D02*
X15146015Y-13145674D01*
X15146015Y-13145674D02*
X15155539Y-13107579D01*
X15155539Y-13107579D02*
X15165063Y-13088531D01*
X15165063Y-13088531D02*
X15174586Y-13079008D01*
X15174586Y-13079008D02*
X15193634Y-13069484D01*
X15346015Y-13250436D02*
X15355539Y-13259960D01*
X15355539Y-13259960D02*
X15346015Y-13269484D01*
X15346015Y-13269484D02*
X15336491Y-13259960D01*
X15336491Y-13259960D02*
X15346015Y-13250436D01*
X15346015Y-13250436D02*
X15346015Y-13269484D01*
X15479348Y-13069484D02*
X15498396Y-13069484D01*
X15498396Y-13069484D02*
X15517444Y-13079008D01*
X15517444Y-13079008D02*
X15526967Y-13088531D01*
X15526967Y-13088531D02*
X15536491Y-13107579D01*
X15536491Y-13107579D02*
X15546015Y-13145674D01*
X15546015Y-13145674D02*
X15546015Y-13193293D01*
X15546015Y-13193293D02*
X15536491Y-13231388D01*
X15536491Y-13231388D02*
X15526967Y-13250436D01*
X15526967Y-13250436D02*
X15517444Y-13259960D01*
X15517444Y-13259960D02*
X15498396Y-13269484D01*
X15498396Y-13269484D02*
X15479348Y-13269484D01*
X15479348Y-13269484D02*
X15460301Y-13259960D01*
X15460301Y-13259960D02*
X15450777Y-13250436D01*
X15450777Y-13250436D02*
X15441253Y-13231388D01*
X15441253Y-13231388D02*
X15431729Y-13193293D01*
X15431729Y-13193293D02*
X15431729Y-13145674D01*
X15431729Y-13145674D02*
X15441253Y-13107579D01*
X15441253Y-13107579D02*
X15450777Y-13088531D01*
X15450777Y-13088531D02*
X15460301Y-13079008D01*
X15460301Y-13079008D02*
X15479348Y-13069484D01*
X15612682Y-13069484D02*
X15736491Y-13069484D01*
X15736491Y-13069484D02*
X15669825Y-13145674D01*
X15669825Y-13145674D02*
X15698396Y-13145674D01*
X15698396Y-13145674D02*
X15717444Y-13155198D01*
X15717444Y-13155198D02*
X15726967Y-13164722D01*
X15726967Y-13164722D02*
X15736491Y-13183769D01*
X15736491Y-13183769D02*
X15736491Y-13231388D01*
X15736491Y-13231388D02*
X15726967Y-13250436D01*
X15726967Y-13250436D02*
X15717444Y-13259960D01*
X15717444Y-13259960D02*
X15698396Y-13269484D01*
X15698396Y-13269484D02*
X15641253Y-13269484D01*
X15641253Y-13269484D02*
X15622206Y-13259960D01*
X15622206Y-13259960D02*
X15612682Y-13250436D01*
X15831729Y-13269484D02*
X15869825Y-13269484D01*
X15869825Y-13269484D02*
X15888872Y-13259960D01*
X15888872Y-13259960D02*
X15898396Y-13250436D01*
X15898396Y-13250436D02*
X15917444Y-13221865D01*
X15917444Y-13221865D02*
X15926967Y-13183769D01*
X15926967Y-13183769D02*
X15926967Y-13107579D01*
X15926967Y-13107579D02*
X15917444Y-13088531D01*
X15917444Y-13088531D02*
X15907920Y-13079008D01*
X15907920Y-13079008D02*
X15888872Y-13069484D01*
X15888872Y-13069484D02*
X15850777Y-13069484D01*
X15850777Y-13069484D02*
X15831729Y-13079008D01*
X15831729Y-13079008D02*
X15822206Y-13088531D01*
X15822206Y-13088531D02*
X15812682Y-13107579D01*
X15812682Y-13107579D02*
X15812682Y-13155198D01*
X15812682Y-13155198D02*
X15822206Y-13174246D01*
X15822206Y-13174246D02*
X15831729Y-13183769D01*
X15831729Y-13183769D02*
X15850777Y-13193293D01*
X15850777Y-13193293D02*
X15888872Y-13193293D01*
X15888872Y-13193293D02*
X15907920Y-13183769D01*
X15907920Y-13183769D02*
X15917444Y-13174246D01*
X15917444Y-13174246D02*
X15926967Y-13155198D01*
X16050777Y-13069484D02*
X16069825Y-13069484D01*
X16069825Y-13069484D02*
X16088872Y-13079008D01*
X16088872Y-13079008D02*
X16098396Y-13088531D01*
X16098396Y-13088531D02*
X16107920Y-13107579D01*
X16107920Y-13107579D02*
X16117444Y-13145674D01*
X16117444Y-13145674D02*
X16117444Y-13193293D01*
X16117444Y-13193293D02*
X16107920Y-13231388D01*
X16107920Y-13231388D02*
X16098396Y-13250436D01*
X16098396Y-13250436D02*
X16088872Y-13259960D01*
X16088872Y-13259960D02*
X16069825Y-13269484D01*
X16069825Y-13269484D02*
X16050777Y-13269484D01*
X16050777Y-13269484D02*
X16031729Y-13259960D01*
X16031729Y-13259960D02*
X16022206Y-13250436D01*
X16022206Y-13250436D02*
X16012682Y-13231388D01*
X16012682Y-13231388D02*
X16003158Y-13193293D01*
X16003158Y-13193293D02*
X16003158Y-13145674D01*
X16003158Y-13145674D02*
X16012682Y-13107579D01*
X16012682Y-13107579D02*
X16022206Y-13088531D01*
X16022206Y-13088531D02*
X16031729Y-13079008D01*
X16031729Y-13079008D02*
X16050777Y-13069484D01*
X16193634Y-13069484D02*
X16193634Y-13107579D01*
X16269825Y-13069484D02*
X16269825Y-13107579D01*
X16565063Y-13345674D02*
X16555539Y-13336150D01*
X16555539Y-13336150D02*
X16536491Y-13307579D01*
X16536491Y-13307579D02*
X16526968Y-13288531D01*
X16526968Y-13288531D02*
X16517444Y-13259960D01*
X16517444Y-13259960D02*
X16507920Y-13212341D01*
X16507920Y-13212341D02*
X16507920Y-13174246D01*
X16507920Y-13174246D02*
X16517444Y-13126627D01*
X16517444Y-13126627D02*
X16526968Y-13098055D01*
X16526968Y-13098055D02*
X16536491Y-13079008D01*
X16536491Y-13079008D02*
X16555539Y-13050436D01*
X16555539Y-13050436D02*
X16565063Y-13040912D01*
X16631729Y-13088531D02*
X16641253Y-13079008D01*
X16641253Y-13079008D02*
X16660301Y-13069484D01*
X16660301Y-13069484D02*
X16707920Y-13069484D01*
X16707920Y-13069484D02*
X16726968Y-13079008D01*
X16726968Y-13079008D02*
X16736491Y-13088531D01*
X16736491Y-13088531D02*
X16746015Y-13107579D01*
X16746015Y-13107579D02*
X16746015Y-13126627D01*
X16746015Y-13126627D02*
X16736491Y-13155198D01*
X16736491Y-13155198D02*
X16622206Y-13269484D01*
X16622206Y-13269484D02*
X16746015Y-13269484D01*
X16984111Y-13269484D02*
X16984111Y-13069484D01*
X17069825Y-13269484D02*
X17069825Y-13164722D01*
X17069825Y-13164722D02*
X17060301Y-13145674D01*
X17060301Y-13145674D02*
X17041253Y-13136150D01*
X17041253Y-13136150D02*
X17012682Y-13136150D01*
X17012682Y-13136150D02*
X16993634Y-13145674D01*
X16993634Y-13145674D02*
X16984111Y-13155198D01*
X17193634Y-13269484D02*
X17174587Y-13259960D01*
X17174587Y-13259960D02*
X17165063Y-13250436D01*
X17165063Y-13250436D02*
X17155539Y-13231388D01*
X17155539Y-13231388D02*
X17155539Y-13174246D01*
X17155539Y-13174246D02*
X17165063Y-13155198D01*
X17165063Y-13155198D02*
X17174587Y-13145674D01*
X17174587Y-13145674D02*
X17193634Y-13136150D01*
X17193634Y-13136150D02*
X17222206Y-13136150D01*
X17222206Y-13136150D02*
X17241253Y-13145674D01*
X17241253Y-13145674D02*
X17250777Y-13155198D01*
X17250777Y-13155198D02*
X17260301Y-13174246D01*
X17260301Y-13174246D02*
X17260301Y-13231388D01*
X17260301Y-13231388D02*
X17250777Y-13250436D01*
X17250777Y-13250436D02*
X17241253Y-13259960D01*
X17241253Y-13259960D02*
X17222206Y-13269484D01*
X17222206Y-13269484D02*
X17193634Y-13269484D01*
X17374587Y-13269484D02*
X17355539Y-13259960D01*
X17355539Y-13259960D02*
X17346015Y-13240912D01*
X17346015Y-13240912D02*
X17346015Y-13069484D01*
X17526968Y-13259960D02*
X17507920Y-13269484D01*
X17507920Y-13269484D02*
X17469825Y-13269484D01*
X17469825Y-13269484D02*
X17450777Y-13259960D01*
X17450777Y-13259960D02*
X17441253Y-13240912D01*
X17441253Y-13240912D02*
X17441253Y-13164722D01*
X17441253Y-13164722D02*
X17450777Y-13145674D01*
X17450777Y-13145674D02*
X17469825Y-13136150D01*
X17469825Y-13136150D02*
X17507920Y-13136150D01*
X17507920Y-13136150D02*
X17526968Y-13145674D01*
X17526968Y-13145674D02*
X17536492Y-13164722D01*
X17536492Y-13164722D02*
X17536492Y-13183769D01*
X17536492Y-13183769D02*
X17441253Y-13202817D01*
X17612682Y-13259960D02*
X17631730Y-13269484D01*
X17631730Y-13269484D02*
X17669825Y-13269484D01*
X17669825Y-13269484D02*
X17688873Y-13259960D01*
X17688873Y-13259960D02*
X17698396Y-13240912D01*
X17698396Y-13240912D02*
X17698396Y-13231388D01*
X17698396Y-13231388D02*
X17688873Y-13212341D01*
X17688873Y-13212341D02*
X17669825Y-13202817D01*
X17669825Y-13202817D02*
X17641253Y-13202817D01*
X17641253Y-13202817D02*
X17622206Y-13193293D01*
X17622206Y-13193293D02*
X17612682Y-13174246D01*
X17612682Y-13174246D02*
X17612682Y-13164722D01*
X17612682Y-13164722D02*
X17622206Y-13145674D01*
X17622206Y-13145674D02*
X17641253Y-13136150D01*
X17641253Y-13136150D02*
X17669825Y-13136150D01*
X17669825Y-13136150D02*
X17688873Y-13145674D01*
X17765063Y-13345674D02*
X17774587Y-13336150D01*
X17774587Y-13336150D02*
X17793634Y-13307579D01*
X17793634Y-13307579D02*
X17803158Y-13288531D01*
X17803158Y-13288531D02*
X17812682Y-13259960D01*
X17812682Y-13259960D02*
X17822206Y-13212341D01*
X17822206Y-13212341D02*
X17822206Y-13174246D01*
X17822206Y-13174246D02*
X17812682Y-13126627D01*
X17812682Y-13126627D02*
X17803158Y-13098055D01*
X17803158Y-13098055D02*
X17793634Y-13079008D01*
X17793634Y-13079008D02*
X17774587Y-13050436D01*
X17774587Y-13050436D02*
X17765063Y-13040912D01*
D14*
X12970962Y-13487962D02*
X12970962Y-13396038D01*
X12879038Y-13396038D01*
X12879038Y-13487962D01*
X12970962Y-13487962D01*
D10*
X13355539Y-13533484D02*
X13241253Y-13533484D01*
X13298396Y-13533484D02*
X13298396Y-13333484D01*
X13298396Y-13333484D02*
X13279348Y-13362055D01*
X13279348Y-13362055D02*
X13260301Y-13381103D01*
X13260301Y-13381103D02*
X13241253Y-13390627D01*
X13441253Y-13514436D02*
X13450777Y-13523960D01*
X13450777Y-13523960D02*
X13441253Y-13533484D01*
X13441253Y-13533484D02*
X13431729Y-13523960D01*
X13431729Y-13523960D02*
X13441253Y-13514436D01*
X13441253Y-13514436D02*
X13441253Y-13533484D01*
X13517443Y-13333484D02*
X13641253Y-13333484D01*
X13641253Y-13333484D02*
X13574586Y-13409674D01*
X13574586Y-13409674D02*
X13603158Y-13409674D01*
X13603158Y-13409674D02*
X13622205Y-13419198D01*
X13622205Y-13419198D02*
X13631729Y-13428722D01*
X13631729Y-13428722D02*
X13641253Y-13447769D01*
X13641253Y-13447769D02*
X13641253Y-13495388D01*
X13641253Y-13495388D02*
X13631729Y-13514436D01*
X13631729Y-13514436D02*
X13622205Y-13523960D01*
X13622205Y-13523960D02*
X13603158Y-13533484D01*
X13603158Y-13533484D02*
X13546015Y-13533484D01*
X13546015Y-13533484D02*
X13526967Y-13523960D01*
X13526967Y-13523960D02*
X13517443Y-13514436D01*
X13765062Y-13333484D02*
X13784110Y-13333484D01*
X13784110Y-13333484D02*
X13803158Y-13343008D01*
X13803158Y-13343008D02*
X13812682Y-13352531D01*
X13812682Y-13352531D02*
X13822205Y-13371579D01*
X13822205Y-13371579D02*
X13831729Y-13409674D01*
X13831729Y-13409674D02*
X13831729Y-13457293D01*
X13831729Y-13457293D02*
X13822205Y-13495388D01*
X13822205Y-13495388D02*
X13812682Y-13514436D01*
X13812682Y-13514436D02*
X13803158Y-13523960D01*
X13803158Y-13523960D02*
X13784110Y-13533484D01*
X13784110Y-13533484D02*
X13765062Y-13533484D01*
X13765062Y-13533484D02*
X13746015Y-13523960D01*
X13746015Y-13523960D02*
X13736491Y-13514436D01*
X13736491Y-13514436D02*
X13726967Y-13495388D01*
X13726967Y-13495388D02*
X13717443Y-13457293D01*
X13717443Y-13457293D02*
X13717443Y-13409674D01*
X13717443Y-13409674D02*
X13726967Y-13371579D01*
X13726967Y-13371579D02*
X13736491Y-13352531D01*
X13736491Y-13352531D02*
X13746015Y-13343008D01*
X13746015Y-13343008D02*
X13765062Y-13333484D01*
X13955539Y-13333484D02*
X13974586Y-13333484D01*
X13974586Y-13333484D02*
X13993634Y-13343008D01*
X13993634Y-13343008D02*
X14003158Y-13352531D01*
X14003158Y-13352531D02*
X14012682Y-13371579D01*
X14012682Y-13371579D02*
X14022205Y-13409674D01*
X14022205Y-13409674D02*
X14022205Y-13457293D01*
X14022205Y-13457293D02*
X14012682Y-13495388D01*
X14012682Y-13495388D02*
X14003158Y-13514436D01*
X14003158Y-13514436D02*
X13993634Y-13523960D01*
X13993634Y-13523960D02*
X13974586Y-13533484D01*
X13974586Y-13533484D02*
X13955539Y-13533484D01*
X13955539Y-13533484D02*
X13936491Y-13523960D01*
X13936491Y-13523960D02*
X13926967Y-13514436D01*
X13926967Y-13514436D02*
X13917443Y-13495388D01*
X13917443Y-13495388D02*
X13907920Y-13457293D01*
X13907920Y-13457293D02*
X13907920Y-13409674D01*
X13907920Y-13409674D02*
X13917443Y-13371579D01*
X13917443Y-13371579D02*
X13926967Y-13352531D01*
X13926967Y-13352531D02*
X13936491Y-13343008D01*
X13936491Y-13343008D02*
X13955539Y-13333484D01*
X14107920Y-13533484D02*
X14107920Y-13400150D01*
X14107920Y-13419198D02*
X14117443Y-13409674D01*
X14117443Y-13409674D02*
X14136491Y-13400150D01*
X14136491Y-13400150D02*
X14165063Y-13400150D01*
X14165063Y-13400150D02*
X14184110Y-13409674D01*
X14184110Y-13409674D02*
X14193634Y-13428722D01*
X14193634Y-13428722D02*
X14193634Y-13533484D01*
X14193634Y-13428722D02*
X14203158Y-13409674D01*
X14203158Y-13409674D02*
X14222205Y-13400150D01*
X14222205Y-13400150D02*
X14250777Y-13400150D01*
X14250777Y-13400150D02*
X14269824Y-13409674D01*
X14269824Y-13409674D02*
X14279348Y-13428722D01*
X14279348Y-13428722D02*
X14279348Y-13533484D01*
X14374586Y-13533484D02*
X14374586Y-13400150D01*
X14374586Y-13419198D02*
X14384110Y-13409674D01*
X14384110Y-13409674D02*
X14403158Y-13400150D01*
X14403158Y-13400150D02*
X14431729Y-13400150D01*
X14431729Y-13400150D02*
X14450777Y-13409674D01*
X14450777Y-13409674D02*
X14460301Y-13428722D01*
X14460301Y-13428722D02*
X14460301Y-13533484D01*
X14460301Y-13428722D02*
X14469824Y-13409674D01*
X14469824Y-13409674D02*
X14488872Y-13400150D01*
X14488872Y-13400150D02*
X14517443Y-13400150D01*
X14517443Y-13400150D02*
X14536491Y-13409674D01*
X14536491Y-13409674D02*
X14546015Y-13428722D01*
X14546015Y-13428722D02*
X14546015Y-13533484D01*
X14936491Y-13323960D02*
X14765063Y-13581103D01*
X15193634Y-13333484D02*
X15212682Y-13333484D01*
X15212682Y-13333484D02*
X15231729Y-13343008D01*
X15231729Y-13343008D02*
X15241253Y-13352531D01*
X15241253Y-13352531D02*
X15250777Y-13371579D01*
X15250777Y-13371579D02*
X15260301Y-13409674D01*
X15260301Y-13409674D02*
X15260301Y-13457293D01*
X15260301Y-13457293D02*
X15250777Y-13495388D01*
X15250777Y-13495388D02*
X15241253Y-13514436D01*
X15241253Y-13514436D02*
X15231729Y-13523960D01*
X15231729Y-13523960D02*
X15212682Y-13533484D01*
X15212682Y-13533484D02*
X15193634Y-13533484D01*
X15193634Y-13533484D02*
X15174586Y-13523960D01*
X15174586Y-13523960D02*
X15165063Y-13514436D01*
X15165063Y-13514436D02*
X15155539Y-13495388D01*
X15155539Y-13495388D02*
X15146015Y-13457293D01*
X15146015Y-13457293D02*
X15146015Y-13409674D01*
X15146015Y-13409674D02*
X15155539Y-13371579D01*
X15155539Y-13371579D02*
X15165063Y-13352531D01*
X15165063Y-13352531D02*
X15174586Y-13343008D01*
X15174586Y-13343008D02*
X15193634Y-13333484D01*
X15346015Y-13514436D02*
X15355539Y-13523960D01*
X15355539Y-13523960D02*
X15346015Y-13533484D01*
X15346015Y-13533484D02*
X15336491Y-13523960D01*
X15336491Y-13523960D02*
X15346015Y-13514436D01*
X15346015Y-13514436D02*
X15346015Y-13533484D01*
X15479348Y-13333484D02*
X15498396Y-13333484D01*
X15498396Y-13333484D02*
X15517444Y-13343008D01*
X15517444Y-13343008D02*
X15526967Y-13352531D01*
X15526967Y-13352531D02*
X15536491Y-13371579D01*
X15536491Y-13371579D02*
X15546015Y-13409674D01*
X15546015Y-13409674D02*
X15546015Y-13457293D01*
X15546015Y-13457293D02*
X15536491Y-13495388D01*
X15536491Y-13495388D02*
X15526967Y-13514436D01*
X15526967Y-13514436D02*
X15517444Y-13523960D01*
X15517444Y-13523960D02*
X15498396Y-13533484D01*
X15498396Y-13533484D02*
X15479348Y-13533484D01*
X15479348Y-13533484D02*
X15460301Y-13523960D01*
X15460301Y-13523960D02*
X15450777Y-13514436D01*
X15450777Y-13514436D02*
X15441253Y-13495388D01*
X15441253Y-13495388D02*
X15431729Y-13457293D01*
X15431729Y-13457293D02*
X15431729Y-13409674D01*
X15431729Y-13409674D02*
X15441253Y-13371579D01*
X15441253Y-13371579D02*
X15450777Y-13352531D01*
X15450777Y-13352531D02*
X15460301Y-13343008D01*
X15460301Y-13343008D02*
X15479348Y-13333484D01*
X15726967Y-13333484D02*
X15631729Y-13333484D01*
X15631729Y-13333484D02*
X15622206Y-13428722D01*
X15622206Y-13428722D02*
X15631729Y-13419198D01*
X15631729Y-13419198D02*
X15650777Y-13409674D01*
X15650777Y-13409674D02*
X15698396Y-13409674D01*
X15698396Y-13409674D02*
X15717444Y-13419198D01*
X15717444Y-13419198D02*
X15726967Y-13428722D01*
X15726967Y-13428722D02*
X15736491Y-13447769D01*
X15736491Y-13447769D02*
X15736491Y-13495388D01*
X15736491Y-13495388D02*
X15726967Y-13514436D01*
X15726967Y-13514436D02*
X15717444Y-13523960D01*
X15717444Y-13523960D02*
X15698396Y-13533484D01*
X15698396Y-13533484D02*
X15650777Y-13533484D01*
X15650777Y-13533484D02*
X15631729Y-13523960D01*
X15631729Y-13523960D02*
X15622206Y-13514436D01*
X15926967Y-13533484D02*
X15812682Y-13533484D01*
X15869825Y-13533484D02*
X15869825Y-13333484D01*
X15869825Y-13333484D02*
X15850777Y-13362055D01*
X15850777Y-13362055D02*
X15831729Y-13381103D01*
X15831729Y-13381103D02*
X15812682Y-13390627D01*
X16003158Y-13352531D02*
X16012682Y-13343008D01*
X16012682Y-13343008D02*
X16031729Y-13333484D01*
X16031729Y-13333484D02*
X16079348Y-13333484D01*
X16079348Y-13333484D02*
X16098396Y-13343008D01*
X16098396Y-13343008D02*
X16107920Y-13352531D01*
X16107920Y-13352531D02*
X16117444Y-13371579D01*
X16117444Y-13371579D02*
X16117444Y-13390627D01*
X16117444Y-13390627D02*
X16107920Y-13419198D01*
X16107920Y-13419198D02*
X15993634Y-13533484D01*
X15993634Y-13533484D02*
X16117444Y-13533484D01*
X16193634Y-13333484D02*
X16193634Y-13371579D01*
X16269825Y-13333484D02*
X16269825Y-13371579D01*
X16565063Y-13609674D02*
X16555539Y-13600150D01*
X16555539Y-13600150D02*
X16536491Y-13571579D01*
X16536491Y-13571579D02*
X16526968Y-13552531D01*
X16526968Y-13552531D02*
X16517444Y-13523960D01*
X16517444Y-13523960D02*
X16507920Y-13476341D01*
X16507920Y-13476341D02*
X16507920Y-13438246D01*
X16507920Y-13438246D02*
X16517444Y-13390627D01*
X16517444Y-13390627D02*
X16526968Y-13362055D01*
X16526968Y-13362055D02*
X16536491Y-13343008D01*
X16536491Y-13343008D02*
X16555539Y-13314436D01*
X16555539Y-13314436D02*
X16565063Y-13304912D01*
X16631729Y-13352531D02*
X16641253Y-13343008D01*
X16641253Y-13343008D02*
X16660301Y-13333484D01*
X16660301Y-13333484D02*
X16707920Y-13333484D01*
X16707920Y-13333484D02*
X16726968Y-13343008D01*
X16726968Y-13343008D02*
X16736491Y-13352531D01*
X16736491Y-13352531D02*
X16746015Y-13371579D01*
X16746015Y-13371579D02*
X16746015Y-13390627D01*
X16746015Y-13390627D02*
X16736491Y-13419198D01*
X16736491Y-13419198D02*
X16622206Y-13533484D01*
X16622206Y-13533484D02*
X16746015Y-13533484D01*
X16984111Y-13533484D02*
X16984111Y-13333484D01*
X17069825Y-13533484D02*
X17069825Y-13428722D01*
X17069825Y-13428722D02*
X17060301Y-13409674D01*
X17060301Y-13409674D02*
X17041253Y-13400150D01*
X17041253Y-13400150D02*
X17012682Y-13400150D01*
X17012682Y-13400150D02*
X16993634Y-13409674D01*
X16993634Y-13409674D02*
X16984111Y-13419198D01*
X17193634Y-13533484D02*
X17174587Y-13523960D01*
X17174587Y-13523960D02*
X17165063Y-13514436D01*
X17165063Y-13514436D02*
X17155539Y-13495388D01*
X17155539Y-13495388D02*
X17155539Y-13438246D01*
X17155539Y-13438246D02*
X17165063Y-13419198D01*
X17165063Y-13419198D02*
X17174587Y-13409674D01*
X17174587Y-13409674D02*
X17193634Y-13400150D01*
X17193634Y-13400150D02*
X17222206Y-13400150D01*
X17222206Y-13400150D02*
X17241253Y-13409674D01*
X17241253Y-13409674D02*
X17250777Y-13419198D01*
X17250777Y-13419198D02*
X17260301Y-13438246D01*
X17260301Y-13438246D02*
X17260301Y-13495388D01*
X17260301Y-13495388D02*
X17250777Y-13514436D01*
X17250777Y-13514436D02*
X17241253Y-13523960D01*
X17241253Y-13523960D02*
X17222206Y-13533484D01*
X17222206Y-13533484D02*
X17193634Y-13533484D01*
X17374587Y-13533484D02*
X17355539Y-13523960D01*
X17355539Y-13523960D02*
X17346015Y-13504912D01*
X17346015Y-13504912D02*
X17346015Y-13333484D01*
X17526968Y-13523960D02*
X17507920Y-13533484D01*
X17507920Y-13533484D02*
X17469825Y-13533484D01*
X17469825Y-13533484D02*
X17450777Y-13523960D01*
X17450777Y-13523960D02*
X17441253Y-13504912D01*
X17441253Y-13504912D02*
X17441253Y-13428722D01*
X17441253Y-13428722D02*
X17450777Y-13409674D01*
X17450777Y-13409674D02*
X17469825Y-13400150D01*
X17469825Y-13400150D02*
X17507920Y-13400150D01*
X17507920Y-13400150D02*
X17526968Y-13409674D01*
X17526968Y-13409674D02*
X17536492Y-13428722D01*
X17536492Y-13428722D02*
X17536492Y-13447769D01*
X17536492Y-13447769D02*
X17441253Y-13466817D01*
X17612682Y-13523960D02*
X17631730Y-13533484D01*
X17631730Y-13533484D02*
X17669825Y-13533484D01*
X17669825Y-13533484D02*
X17688873Y-13523960D01*
X17688873Y-13523960D02*
X17698396Y-13504912D01*
X17698396Y-13504912D02*
X17698396Y-13495388D01*
X17698396Y-13495388D02*
X17688873Y-13476341D01*
X17688873Y-13476341D02*
X17669825Y-13466817D01*
X17669825Y-13466817D02*
X17641253Y-13466817D01*
X17641253Y-13466817D02*
X17622206Y-13457293D01*
X17622206Y-13457293D02*
X17612682Y-13438246D01*
X17612682Y-13438246D02*
X17612682Y-13428722D01*
X17612682Y-13428722D02*
X17622206Y-13409674D01*
X17622206Y-13409674D02*
X17641253Y-13400150D01*
X17641253Y-13400150D02*
X17669825Y-13400150D01*
X17669825Y-13400150D02*
X17688873Y-13409674D01*
X17765063Y-13609674D02*
X17774587Y-13600150D01*
X17774587Y-13600150D02*
X17793634Y-13571579D01*
X17793634Y-13571579D02*
X17803158Y-13552531D01*
X17803158Y-13552531D02*
X17812682Y-13523960D01*
X17812682Y-13523960D02*
X17822206Y-13476341D01*
X17822206Y-13476341D02*
X17822206Y-13438246D01*
X17822206Y-13438246D02*
X17812682Y-13390627D01*
X17812682Y-13390627D02*
X17803158Y-13362055D01*
X17803158Y-13362055D02*
X17793634Y-13343008D01*
X17793634Y-13343008D02*
X17774587Y-13314436D01*
X17774587Y-13314436D02*
X17765063Y-13304912D01*
M02*
