%TF.GenerationSoftware,KiCad,Pcbnew,7.0.7*%
%TF.CreationDate,2023-10-08T16:19:16+08:00*%
%TF.ProjectId,RM_47mm,524d5f34-376d-46d2-9e6b-696361645f70,rev?*%
%TF.SameCoordinates,Original*%
%TF.FileFunction,Legend,Top*%
%TF.FilePolarity,Positive*%
%FSLAX46Y46*%
G04 Gerber Fmt 4.6, Leading zero omitted, Abs format (unit mm)*
G04 Created by KiCad (PCBNEW 7.0.7) date 2023-10-08 16:19:16*
%MOMM*%
%LPD*%
G01*
G04 APERTURE LIST*
%ADD10C,0.150000*%
%ADD11C,0.125000*%
%ADD12C,0.120000*%
G04 APERTURE END LIST*
D10*
G36*
X160406263Y-85210715D02*
G01*
X160415074Y-85215002D01*
X160423323Y-85221373D01*
X160424761Y-85222677D01*
X160432612Y-85229593D01*
X160441593Y-85237067D01*
X160449591Y-85243446D01*
X160458313Y-85250181D01*
X160467758Y-85257273D01*
X160477926Y-85264721D01*
X160486027Y-85270541D01*
X160494534Y-85276561D01*
X160503660Y-85282797D01*
X160513551Y-85289332D01*
X160524206Y-85296163D01*
X160535627Y-85303292D01*
X160547813Y-85310719D01*
X160556362Y-85315836D01*
X160565251Y-85321084D01*
X160574480Y-85326465D01*
X160584049Y-85331978D01*
X160593958Y-85337623D01*
X160604207Y-85343401D01*
X160614796Y-85349311D01*
X160625725Y-85355353D01*
X160631317Y-85358423D01*
X160642494Y-85364571D01*
X160653485Y-85370667D01*
X160664292Y-85376709D01*
X160674914Y-85382699D01*
X160685352Y-85388637D01*
X160695604Y-85394522D01*
X160705672Y-85400354D01*
X160715554Y-85406133D01*
X160725252Y-85411860D01*
X160734765Y-85417535D01*
X160744093Y-85423156D01*
X160753237Y-85428725D01*
X160762195Y-85434242D01*
X160770969Y-85439706D01*
X160779557Y-85445117D01*
X160787961Y-85450476D01*
X160797239Y-85454459D01*
X160806957Y-85452475D01*
X160810758Y-85449439D01*
X160817314Y-85441864D01*
X160822069Y-85432576D01*
X160821606Y-85422271D01*
X160816112Y-85415071D01*
X160808164Y-85407821D01*
X160800743Y-85400535D01*
X160793797Y-85392861D01*
X160793315Y-85392274D01*
X160786876Y-85384741D01*
X160780100Y-85377442D01*
X160772806Y-85369856D01*
X160765679Y-85362598D01*
X160759292Y-85356178D01*
X160751121Y-85348150D01*
X160743337Y-85340797D01*
X160735941Y-85334118D01*
X160727579Y-85326994D01*
X160719774Y-85320841D01*
X160713698Y-85316456D01*
X160704739Y-85310066D01*
X160696513Y-85303676D01*
X160689022Y-85297286D01*
X160682265Y-85290895D01*
X160674269Y-85282619D01*
X160667639Y-85275147D01*
X160661272Y-85266937D01*
X160655941Y-85257555D01*
X160656532Y-85247201D01*
X160666962Y-85244410D01*
X160678169Y-85245497D01*
X160688969Y-85247715D01*
X160699536Y-85250482D01*
X160709040Y-85253467D01*
X160719419Y-85257239D01*
X160730671Y-85261800D01*
X160739685Y-85265737D01*
X160749190Y-85270118D01*
X160759187Y-85274942D01*
X160769676Y-85280209D01*
X160780657Y-85285920D01*
X160792129Y-85292073D01*
X160800051Y-85296422D01*
X160811811Y-85302824D01*
X160822870Y-85308689D01*
X160833228Y-85314016D01*
X160842884Y-85318806D01*
X160851840Y-85323059D01*
X160862689Y-85327893D01*
X160872292Y-85331773D01*
X160882542Y-85335278D01*
X160889339Y-85337008D01*
X160900222Y-85339101D01*
X160911238Y-85341752D01*
X160922388Y-85344962D01*
X160933671Y-85348730D01*
X160945088Y-85353057D01*
X160956638Y-85357943D01*
X160968322Y-85363387D01*
X160980140Y-85369390D01*
X160992091Y-85375952D01*
X161004175Y-85383072D01*
X161012306Y-85388129D01*
X161024274Y-85395664D01*
X161035631Y-85402662D01*
X161046379Y-85409123D01*
X161056516Y-85415047D01*
X161066043Y-85420433D01*
X161074960Y-85425281D01*
X161085900Y-85430911D01*
X161095755Y-85435584D01*
X161106548Y-85440083D01*
X161108503Y-85440804D01*
X161117408Y-85445823D01*
X161120420Y-85448576D01*
X161127396Y-85457289D01*
X161132005Y-85467107D01*
X161134245Y-85478030D01*
X161134303Y-85487976D01*
X161132717Y-85498690D01*
X161130264Y-85507814D01*
X161126552Y-85518989D01*
X161122755Y-85528984D01*
X161118088Y-85539419D01*
X161113300Y-85548154D01*
X161107560Y-85556196D01*
X161105049Y-85558935D01*
X161095719Y-85564015D01*
X161085764Y-85562876D01*
X161077002Y-85558251D01*
X161068781Y-85551681D01*
X161061363Y-85544690D01*
X161054114Y-85537899D01*
X161040120Y-85524920D01*
X161026799Y-85512743D01*
X161014152Y-85501370D01*
X161002178Y-85490799D01*
X160990877Y-85481031D01*
X160980249Y-85472066D01*
X160970295Y-85463903D01*
X160961014Y-85456544D01*
X160952407Y-85449987D01*
X160944472Y-85444233D01*
X160933833Y-85437108D01*
X160924709Y-85431788D01*
X160914900Y-85427506D01*
X160905000Y-85424569D01*
X160894767Y-85422270D01*
X160883919Y-85421283D01*
X160874220Y-85423802D01*
X160873105Y-85424742D01*
X160875450Y-85434968D01*
X160881050Y-85443395D01*
X160887610Y-85451959D01*
X160894662Y-85460359D01*
X160901344Y-85467688D01*
X160906610Y-85473100D01*
X160913800Y-85480864D01*
X160919954Y-85489278D01*
X160923362Y-85497106D01*
X160923375Y-85506918D01*
X160919908Y-85513340D01*
X160915500Y-85522439D01*
X160915763Y-85526466D01*
X160920108Y-85535528D01*
X160921290Y-85536828D01*
X161019387Y-85624908D01*
X161032960Y-85637044D01*
X161045743Y-85648453D01*
X161057738Y-85659134D01*
X161068943Y-85669089D01*
X161079358Y-85678316D01*
X161088985Y-85686815D01*
X161097822Y-85694588D01*
X161105869Y-85701633D01*
X161116461Y-85710837D01*
X161125276Y-85718405D01*
X161134268Y-85725950D01*
X161141835Y-85731813D01*
X161150350Y-85737494D01*
X161157897Y-85743730D01*
X161165238Y-85753204D01*
X161169990Y-85764357D01*
X161171927Y-85774487D01*
X161172208Y-85785691D01*
X161170832Y-85797970D01*
X161168712Y-85807883D01*
X161165661Y-85818401D01*
X161161677Y-85829523D01*
X161160142Y-85833364D01*
X161155536Y-85844514D01*
X161151172Y-85854777D01*
X161147052Y-85864154D01*
X161141935Y-85875277D01*
X161137250Y-85884825D01*
X161132002Y-85894543D01*
X161126594Y-85902954D01*
X161123528Y-85906592D01*
X161114599Y-85911344D01*
X161104650Y-85908761D01*
X161097450Y-85902965D01*
X161090406Y-85894549D01*
X161084707Y-85886191D01*
X161078452Y-85875876D01*
X161073047Y-85866215D01*
X161067285Y-85855302D01*
X161062731Y-85846296D01*
X161057976Y-85836585D01*
X161056346Y-85833192D01*
X161050899Y-85822621D01*
X161044401Y-85811503D01*
X161036853Y-85799840D01*
X161031237Y-85791760D01*
X161025155Y-85783438D01*
X161018605Y-85774873D01*
X161011589Y-85766065D01*
X161004106Y-85757014D01*
X160996156Y-85747720D01*
X160987740Y-85738184D01*
X160978856Y-85728404D01*
X160969506Y-85718382D01*
X160959688Y-85708117D01*
X160949404Y-85697609D01*
X160944087Y-85692264D01*
X160935622Y-85683874D01*
X160927065Y-85675544D01*
X160918416Y-85667273D01*
X160909676Y-85659061D01*
X160900843Y-85650909D01*
X160891919Y-85642816D01*
X160882903Y-85634782D01*
X160873796Y-85626808D01*
X160865136Y-85619347D01*
X160857464Y-85612851D01*
X160849263Y-85606091D01*
X160841459Y-85599970D01*
X160832923Y-85594395D01*
X160832174Y-85594167D01*
X160822125Y-85594469D01*
X160820430Y-85594858D01*
X160811492Y-85600168D01*
X160803670Y-85606952D01*
X160798151Y-85612301D01*
X160791812Y-85620989D01*
X160790595Y-85631460D01*
X160795722Y-85640838D01*
X160797460Y-85642697D01*
X160834074Y-85677584D01*
X160843280Y-85686988D01*
X160852378Y-85696677D01*
X160861366Y-85706652D01*
X160870245Y-85716912D01*
X160879014Y-85727457D01*
X160887674Y-85738288D01*
X160896225Y-85749405D01*
X160904667Y-85760806D01*
X160912999Y-85772493D01*
X160921223Y-85784466D01*
X160926644Y-85792606D01*
X160934293Y-85804463D01*
X160940918Y-85815425D01*
X160946521Y-85825491D01*
X160951101Y-85834662D01*
X160955615Y-85845497D01*
X160958701Y-85856801D01*
X160958652Y-85867083D01*
X160955486Y-85872914D01*
X160945754Y-85875514D01*
X160943224Y-85875159D01*
X160932896Y-85877009D01*
X160923460Y-85880478D01*
X160913547Y-85884695D01*
X160904275Y-85888937D01*
X160893810Y-85893951D01*
X160888131Y-85896747D01*
X160879346Y-85901294D01*
X160870609Y-85905779D01*
X160857592Y-85912394D01*
X160844681Y-85918872D01*
X160831876Y-85925213D01*
X160819178Y-85931418D01*
X160806586Y-85937486D01*
X160794100Y-85943418D01*
X160781720Y-85949213D01*
X160769447Y-85954871D01*
X160757279Y-85960393D01*
X160753247Y-85962203D01*
X160741484Y-85967425D01*
X160730353Y-85972278D01*
X160719853Y-85976760D01*
X160709985Y-85980871D01*
X160700747Y-85984612D01*
X160689414Y-85989024D01*
X160679202Y-85992778D01*
X160668017Y-85996544D01*
X160660332Y-85998816D01*
X160650313Y-86001124D01*
X160640314Y-86002281D01*
X160630128Y-86001340D01*
X160622336Y-85997089D01*
X160615657Y-85989050D01*
X160610090Y-85979847D01*
X160605929Y-85971011D01*
X160601601Y-85961998D01*
X160596379Y-85953208D01*
X160590838Y-85945003D01*
X160584313Y-85936179D01*
X160578124Y-85928352D01*
X160571887Y-85920623D01*
X160564892Y-85912171D01*
X160558432Y-85904618D01*
X160551570Y-85896942D01*
X160544619Y-85889666D01*
X160536322Y-85883615D01*
X160526003Y-85884575D01*
X160523203Y-85887248D01*
X160516688Y-85894944D01*
X160509348Y-85902932D01*
X160502504Y-85910002D01*
X160499715Y-85912809D01*
X160493436Y-85920892D01*
X160492035Y-85931265D01*
X160497125Y-85938197D01*
X160505183Y-85945162D01*
X160512926Y-85952268D01*
X160520199Y-85959249D01*
X160524930Y-85963930D01*
X160532209Y-85971506D01*
X160539329Y-85979354D01*
X160545884Y-85986850D01*
X160553004Y-85995215D01*
X160560688Y-86004448D01*
X160567243Y-86012460D01*
X160573636Y-86020510D01*
X160580542Y-86029775D01*
X160586241Y-86038155D01*
X160591489Y-86047042D01*
X160595786Y-86056908D01*
X160596776Y-86060990D01*
X160596553Y-86071439D01*
X160592667Y-86080938D01*
X160586171Y-86089487D01*
X160584341Y-86091387D01*
X160575766Y-86097858D01*
X160565950Y-86100401D01*
X160555831Y-86098053D01*
X160552736Y-86096395D01*
X160543590Y-86090164D01*
X160534167Y-86083331D01*
X160525353Y-86076800D01*
X160515043Y-86069064D01*
X160503236Y-86060123D01*
X160494533Y-86053493D01*
X160485165Y-86046327D01*
X160475132Y-86038626D01*
X160464434Y-86030388D01*
X160453070Y-86021615D01*
X160441042Y-86012307D01*
X160434778Y-86007452D01*
X160426281Y-86002379D01*
X160416010Y-86003224D01*
X160412326Y-86006070D01*
X160405612Y-86013583D01*
X160400175Y-86021828D01*
X160396572Y-86031609D01*
X160396092Y-86035085D01*
X160399144Y-86045563D01*
X160405111Y-86055448D01*
X160412485Y-86065457D01*
X160419958Y-86074623D01*
X160426479Y-86082175D01*
X160433787Y-86090307D01*
X160439095Y-86096050D01*
X160447358Y-86104806D01*
X160455566Y-86113459D01*
X160463719Y-86122009D01*
X160471818Y-86130456D01*
X160479862Y-86138799D01*
X160487851Y-86147040D01*
X160495786Y-86155177D01*
X160503666Y-86163211D01*
X160511491Y-86171141D01*
X160519262Y-86178969D01*
X160524412Y-86184130D01*
X160531896Y-86191553D01*
X160538934Y-86198408D01*
X160547623Y-86206666D01*
X160555519Y-86213914D01*
X160564273Y-86221555D01*
X160573142Y-86228643D01*
X160581232Y-86234042D01*
X160590387Y-86239553D01*
X160598665Y-86245383D01*
X160605066Y-86250967D01*
X160610978Y-86259064D01*
X160614594Y-86269239D01*
X160615855Y-86279303D01*
X160615522Y-86290810D01*
X160614108Y-86301054D01*
X160611674Y-86312220D01*
X160610074Y-86318149D01*
X160606612Y-86329788D01*
X160603134Y-86340353D01*
X160599639Y-86349844D01*
X160595248Y-86360197D01*
X160589945Y-86370405D01*
X160583713Y-86379261D01*
X160581923Y-86381187D01*
X160574691Y-86387858D01*
X160566400Y-86394175D01*
X160557945Y-86399236D01*
X160552218Y-86401912D01*
X160542368Y-86404648D01*
X160532253Y-86402995D01*
X160528212Y-86400012D01*
X160522655Y-86391762D01*
X160518794Y-86382557D01*
X160515539Y-86372289D01*
X160512841Y-86361844D01*
X160509750Y-86351604D01*
X160505936Y-86342034D01*
X160500929Y-86331238D01*
X160496391Y-86322337D01*
X160491182Y-86312748D01*
X160485302Y-86302469D01*
X160478751Y-86291501D01*
X160471529Y-86279844D01*
X160463636Y-86267497D01*
X160460856Y-86263229D01*
X160455218Y-86254704D01*
X160449528Y-86246315D01*
X160443787Y-86238060D01*
X160437994Y-86229940D01*
X160432151Y-86221955D01*
X160426256Y-86214105D01*
X160417317Y-86202583D01*
X160408263Y-86191364D01*
X160399094Y-86180450D01*
X160389810Y-86169838D01*
X160380410Y-86159531D01*
X160370894Y-86149526D01*
X160364487Y-86143026D01*
X160354245Y-86132984D01*
X160346759Y-86125855D01*
X160338747Y-86118377D01*
X160330209Y-86110551D01*
X160321145Y-86102377D01*
X160311554Y-86093855D01*
X160301437Y-86084985D01*
X160290794Y-86075767D01*
X160279625Y-86066201D01*
X160267930Y-86056287D01*
X160255708Y-86046024D01*
X160242960Y-86035413D01*
X160229686Y-86024455D01*
X160215886Y-86013148D01*
X160201559Y-86001493D01*
X160194199Y-85995535D01*
X160179628Y-85983787D01*
X160165621Y-85972549D01*
X160152179Y-85961821D01*
X160139300Y-85951603D01*
X160126985Y-85941895D01*
X160115234Y-85932697D01*
X160104048Y-85924009D01*
X160093425Y-85915831D01*
X160083366Y-85908163D01*
X160073871Y-85901006D01*
X160064941Y-85894358D01*
X160056574Y-85888220D01*
X160045081Y-85879970D01*
X160034857Y-85872867D01*
X160028747Y-85868769D01*
X160020345Y-85863292D01*
X160010107Y-85856783D01*
X160000970Y-85851181D01*
X159991097Y-85845454D01*
X159981520Y-85840451D01*
X159971799Y-85836771D01*
X159971063Y-85836646D01*
X159961048Y-85834447D01*
X159955692Y-85831292D01*
X159950365Y-85822322D01*
X159949323Y-85811539D01*
X159951202Y-85800896D01*
X159954105Y-85791494D01*
X159958372Y-85781715D01*
X159963884Y-85773491D01*
X159965536Y-85771708D01*
X159973772Y-85765588D01*
X159983770Y-85762552D01*
X159985916Y-85762382D01*
X159996352Y-85763667D01*
X160006034Y-85767294D01*
X160011131Y-85769981D01*
X160019395Y-85775318D01*
X160027628Y-85782045D01*
X160034964Y-85789670D01*
X160053789Y-85808495D01*
X160061906Y-85814820D01*
X160070751Y-85820725D01*
X160079915Y-85826529D01*
X160090936Y-85833294D01*
X160100419Y-85838999D01*
X160110948Y-85845244D01*
X160122520Y-85852029D01*
X160130816Y-85856852D01*
X160139411Y-85861898D01*
X160148097Y-85867107D01*
X160156875Y-85872477D01*
X160165745Y-85878009D01*
X160174707Y-85883703D01*
X160183761Y-85889558D01*
X160192906Y-85895576D01*
X160202143Y-85901756D01*
X160211472Y-85908097D01*
X160220893Y-85914601D01*
X160230405Y-85921266D01*
X160240009Y-85928093D01*
X160249705Y-85935083D01*
X160259492Y-85942234D01*
X160269372Y-85949547D01*
X160279343Y-85957022D01*
X160288226Y-85961169D01*
X160295059Y-85960994D01*
X160303762Y-85956304D01*
X160312124Y-85949433D01*
X160320101Y-85941823D01*
X160327128Y-85933739D01*
X160331538Y-85924420D01*
X160328909Y-85916090D01*
X160320878Y-85908801D01*
X160313323Y-85902403D01*
X160305459Y-85895913D01*
X160296170Y-85888368D01*
X160287713Y-85881573D01*
X160283142Y-85877922D01*
X160274251Y-85870796D01*
X160266228Y-85864440D01*
X160257421Y-85857582D01*
X160248646Y-85850944D01*
X160239986Y-85844794D01*
X160236339Y-85842518D01*
X160228027Y-85837040D01*
X160220310Y-85830532D01*
X160217341Y-85827665D01*
X160212358Y-85818463D01*
X160212192Y-85808138D01*
X160214405Y-85799169D01*
X160218273Y-85789123D01*
X160223211Y-85779692D01*
X160229423Y-85771421D01*
X160230640Y-85770154D01*
X160240212Y-85766267D01*
X160249943Y-85770461D01*
X160255337Y-85775162D01*
X160272089Y-85793987D01*
X160279324Y-85800767D01*
X160287427Y-85807504D01*
X160296399Y-85814198D01*
X160306239Y-85820851D01*
X160314737Y-85826143D01*
X160323790Y-85831408D01*
X160333400Y-85836646D01*
X160342888Y-85841633D01*
X160353503Y-85847320D01*
X160362735Y-85852400D01*
X160371989Y-85857694D01*
X160381228Y-85863393D01*
X160384520Y-85865660D01*
X160394038Y-85868890D01*
X160403279Y-85865648D01*
X160408872Y-85860997D01*
X160416609Y-85853212D01*
X160424967Y-85844657D01*
X160431865Y-85837409D01*
X160439073Y-85829457D01*
X160444622Y-85822138D01*
X160442935Y-85812181D01*
X160438923Y-85807458D01*
X160438070Y-85806648D01*
X160604817Y-85806648D01*
X160605264Y-85817188D01*
X160606966Y-85819375D01*
X160614582Y-85825852D01*
X160622320Y-85832031D01*
X160630978Y-85838827D01*
X160639622Y-85845548D01*
X160641507Y-85847008D01*
X160650603Y-85853946D01*
X160658679Y-85859863D01*
X160667024Y-85865617D01*
X160675864Y-85871003D01*
X160682093Y-85873777D01*
X160692147Y-85875142D01*
X160702817Y-85874155D01*
X160708862Y-85872914D01*
X160718955Y-85869792D01*
X160729050Y-85865525D01*
X160738751Y-85860641D01*
X160747711Y-85855599D01*
X160750829Y-85853744D01*
X160760344Y-85847633D01*
X160769846Y-85840831D01*
X160777755Y-85834634D01*
X160785656Y-85827956D01*
X160793548Y-85820797D01*
X160801432Y-85813158D01*
X160808840Y-85805000D01*
X160815303Y-85796285D01*
X160820821Y-85787014D01*
X160825395Y-85777186D01*
X160829025Y-85766802D01*
X160831710Y-85755861D01*
X160832519Y-85751329D01*
X160833173Y-85739644D01*
X160831356Y-85727579D01*
X160828123Y-85717653D01*
X160823309Y-85707485D01*
X160816913Y-85697074D01*
X160811079Y-85689107D01*
X160804355Y-85681003D01*
X160796741Y-85672762D01*
X160794006Y-85669985D01*
X160786307Y-85662534D01*
X160778824Y-85655941D01*
X160770826Y-85650225D01*
X160767582Y-85648742D01*
X160757771Y-85649825D01*
X160753420Y-85653232D01*
X160727687Y-85676893D01*
X160724696Y-85686291D01*
X160728161Y-85695537D01*
X160733877Y-85703802D01*
X160740680Y-85711562D01*
X160743921Y-85714888D01*
X160751323Y-85723209D01*
X160757233Y-85732648D01*
X160760029Y-85742909D01*
X160757822Y-85753644D01*
X160752384Y-85761001D01*
X160744073Y-85768699D01*
X160735614Y-85775324D01*
X160727007Y-85780874D01*
X160718250Y-85785349D01*
X160713180Y-85787425D01*
X160703033Y-85789929D01*
X160692800Y-85790015D01*
X160682481Y-85787684D01*
X160673381Y-85783660D01*
X160672076Y-85782934D01*
X160662307Y-85777936D01*
X160652530Y-85774611D01*
X160642324Y-85773848D01*
X160639089Y-85774472D01*
X160629518Y-85777596D01*
X160623718Y-85780862D01*
X160616023Y-85789088D01*
X160609271Y-85797880D01*
X160604817Y-85806648D01*
X160438070Y-85806648D01*
X160430234Y-85799208D01*
X160421544Y-85791834D01*
X160412855Y-85785337D01*
X160404166Y-85779718D01*
X160395476Y-85774975D01*
X160385049Y-85770441D01*
X160383312Y-85769809D01*
X160373978Y-85766178D01*
X160365210Y-85761098D01*
X160361032Y-85757546D01*
X160355702Y-85749180D01*
X160353671Y-85738838D01*
X160353606Y-85736304D01*
X160354480Y-85726276D01*
X160356170Y-85714774D01*
X160358256Y-85702583D01*
X160360367Y-85691123D01*
X160360796Y-85688900D01*
X160423015Y-85688900D01*
X160424481Y-85698688D01*
X160426315Y-85702971D01*
X160431711Y-85711989D01*
X160438322Y-85720878D01*
X160445408Y-85728256D01*
X160453948Y-85734749D01*
X160462477Y-85740136D01*
X160470769Y-85745770D01*
X160479071Y-85752040D01*
X160479681Y-85752538D01*
X160488662Y-85758108D01*
X160498431Y-85759848D01*
X160507306Y-85755062D01*
X160509387Y-85752538D01*
X160516174Y-85745020D01*
X160522594Y-85737386D01*
X160523203Y-85736649D01*
X160529647Y-85728861D01*
X160535479Y-85720702D01*
X160535638Y-85720415D01*
X160532432Y-85710732D01*
X160528212Y-85706080D01*
X160502651Y-85684319D01*
X160496677Y-85676494D01*
X160494534Y-85666530D01*
X160497424Y-85656491D01*
X160501917Y-85646648D01*
X160506969Y-85637170D01*
X160512463Y-85627898D01*
X160517947Y-85619454D01*
X160524112Y-85611468D01*
X160525448Y-85610056D01*
X160534322Y-85605323D01*
X160541165Y-85606083D01*
X160550418Y-85609961D01*
X160559528Y-85614408D01*
X160569430Y-85619522D01*
X160577606Y-85623872D01*
X160587302Y-85628938D01*
X160596604Y-85633574D01*
X160606137Y-85637818D01*
X160610938Y-85639243D01*
X160620146Y-85635700D01*
X160622336Y-85633716D01*
X160654978Y-85601075D01*
X160658191Y-85591821D01*
X160655496Y-85587777D01*
X160647286Y-85582366D01*
X160638312Y-85577760D01*
X160628514Y-85573142D01*
X160619158Y-85568938D01*
X160608453Y-85564280D01*
X160599539Y-85560489D01*
X160587698Y-85555707D01*
X160576872Y-85551724D01*
X160567060Y-85548540D01*
X160556222Y-85545683D01*
X160545309Y-85543902D01*
X160535463Y-85544096D01*
X160533220Y-85544600D01*
X160523469Y-85548674D01*
X160514251Y-85554406D01*
X160505760Y-85561050D01*
X160498166Y-85567956D01*
X160495570Y-85570506D01*
X160487465Y-85579134D01*
X160480200Y-85587632D01*
X160474054Y-85595286D01*
X160467611Y-85603701D01*
X160460871Y-85612878D01*
X160453835Y-85622815D01*
X160446502Y-85633513D01*
X160444622Y-85636307D01*
X160437762Y-85647171D01*
X160432209Y-85657312D01*
X160427961Y-85666730D01*
X160424489Y-85677485D01*
X160423015Y-85688900D01*
X160360796Y-85688900D01*
X160362873Y-85678147D01*
X160365011Y-85667420D01*
X160366559Y-85659795D01*
X160369246Y-85648062D01*
X160372386Y-85636308D01*
X160375978Y-85624532D01*
X160380022Y-85612735D01*
X160384519Y-85600917D01*
X160389468Y-85589078D01*
X160394869Y-85577217D01*
X160400722Y-85565336D01*
X160407028Y-85553433D01*
X160413787Y-85541508D01*
X160418544Y-85533547D01*
X160425631Y-85522077D01*
X160432257Y-85511499D01*
X160438422Y-85501813D01*
X160444126Y-85493021D01*
X160451012Y-85482685D01*
X160457078Y-85473937D01*
X160463508Y-85465232D01*
X160470355Y-85457211D01*
X160478434Y-85450853D01*
X160488084Y-85447809D01*
X160496088Y-85449094D01*
X160505782Y-85453563D01*
X160515107Y-85458351D01*
X160524376Y-85463286D01*
X160535254Y-85469204D01*
X160544468Y-85474287D01*
X160554586Y-85479923D01*
X160565609Y-85486111D01*
X160573461Y-85490543D01*
X160585341Y-85497339D01*
X160596760Y-85503994D01*
X160607717Y-85510510D01*
X160618213Y-85516886D01*
X160628247Y-85523123D01*
X160637820Y-85529220D01*
X160646932Y-85535177D01*
X160655582Y-85540995D01*
X160663771Y-85546673D01*
X160673971Y-85554026D01*
X160676393Y-85555826D01*
X160685609Y-85559179D01*
X160695769Y-85556932D01*
X160704577Y-85551104D01*
X160709207Y-85546845D01*
X160716224Y-85539526D01*
X160722419Y-85531885D01*
X160724060Y-85528884D01*
X160719394Y-85520251D01*
X160717324Y-85519040D01*
X160709105Y-85513727D01*
X160697043Y-85505750D01*
X160685298Y-85497765D01*
X160673873Y-85489770D01*
X160662766Y-85481766D01*
X160651978Y-85473753D01*
X160641509Y-85465730D01*
X160631359Y-85457699D01*
X160621527Y-85449659D01*
X160612015Y-85441609D01*
X160602821Y-85433550D01*
X160593588Y-85425461D01*
X160583893Y-85417384D01*
X160573737Y-85409318D01*
X160563120Y-85401265D01*
X160552041Y-85393224D01*
X160540501Y-85385195D01*
X160528499Y-85377179D01*
X160520242Y-85371841D01*
X160511779Y-85366509D01*
X160503111Y-85361182D01*
X160494239Y-85355860D01*
X160485161Y-85350544D01*
X160480545Y-85347888D01*
X160471482Y-85342735D01*
X160462859Y-85337898D01*
X160450749Y-85331235D01*
X160439628Y-85325281D01*
X160429498Y-85320039D01*
X160420357Y-85315506D01*
X160409709Y-85310568D01*
X160398872Y-85306171D01*
X160388320Y-85303330D01*
X160378163Y-85301553D01*
X160368513Y-85297861D01*
X160362587Y-85293486D01*
X160359094Y-85283780D01*
X160359982Y-85273086D01*
X160362543Y-85262521D01*
X160364141Y-85257390D01*
X160367914Y-85247279D01*
X160371978Y-85238188D01*
X160377087Y-85228870D01*
X160383413Y-85219922D01*
X160387629Y-85215250D01*
X160396222Y-85210182D01*
X160406263Y-85210715D01*
G37*
G36*
X161746996Y-87512755D02*
G01*
X161737487Y-87515956D01*
X161726837Y-87514685D01*
X161717216Y-87512006D01*
X161705917Y-87507851D01*
X161695669Y-87503464D01*
X161692939Y-87502220D01*
X161681657Y-87496524D01*
X161672837Y-87491405D01*
X161663711Y-87485560D01*
X161654278Y-87478990D01*
X161644539Y-87471694D01*
X161634493Y-87463673D01*
X161624140Y-87454926D01*
X161613480Y-87445454D01*
X161606204Y-87438736D01*
X161598791Y-87431696D01*
X161591242Y-87424333D01*
X161587416Y-87420530D01*
X161579906Y-87412937D01*
X161572701Y-87405486D01*
X161565803Y-87398176D01*
X161556030Y-87387478D01*
X161546946Y-87377098D01*
X161538552Y-87367036D01*
X161530846Y-87357294D01*
X161523830Y-87347870D01*
X161517503Y-87338765D01*
X161511865Y-87329979D01*
X161506916Y-87321511D01*
X161503999Y-87316043D01*
X161498438Y-87305624D01*
X161492892Y-87295869D01*
X161487363Y-87286778D01*
X161481850Y-87278350D01*
X161474981Y-87268749D01*
X161468138Y-87260186D01*
X161461320Y-87252659D01*
X161459959Y-87251279D01*
X161440098Y-87235562D01*
X161435816Y-87226520D01*
X161437182Y-87216646D01*
X161441505Y-87207218D01*
X161443034Y-87204648D01*
X161448474Y-87195757D01*
X161453653Y-87187132D01*
X161460933Y-87174693D01*
X161467628Y-87162851D01*
X161473736Y-87151608D01*
X161479259Y-87140963D01*
X161484196Y-87130916D01*
X161488547Y-87121467D01*
X161493437Y-87109798D01*
X161497285Y-87099193D01*
X161498818Y-87094289D01*
X161501158Y-87084431D01*
X161502477Y-87073856D01*
X161502777Y-87062563D01*
X161502056Y-87050551D01*
X161500316Y-87037822D01*
X161498341Y-87027805D01*
X161495792Y-87017383D01*
X161492670Y-87006558D01*
X161488974Y-86995329D01*
X161485198Y-86983986D01*
X161481771Y-86972756D01*
X161478693Y-86961638D01*
X161475964Y-86950633D01*
X161473585Y-86939740D01*
X161471554Y-86928959D01*
X161469873Y-86918291D01*
X161468541Y-86907734D01*
X161467558Y-86897291D01*
X161466924Y-86886959D01*
X161466695Y-86880134D01*
X161465630Y-86869646D01*
X161463861Y-86859037D01*
X161461388Y-86848306D01*
X161458211Y-86837454D01*
X161454329Y-86826480D01*
X161452878Y-86822796D01*
X161448499Y-86812312D01*
X161444168Y-86803140D01*
X161439176Y-86794096D01*
X161433552Y-86785947D01*
X161430081Y-86782037D01*
X161421683Y-86776659D01*
X161411447Y-86775484D01*
X161401707Y-86777650D01*
X161400549Y-86778065D01*
X161382924Y-86783294D01*
X161365238Y-86788057D01*
X161347492Y-86792356D01*
X161329685Y-86796188D01*
X161311818Y-86799555D01*
X161293889Y-86802457D01*
X161275900Y-86804893D01*
X161257850Y-86806864D01*
X161239740Y-86808369D01*
X161221569Y-86809408D01*
X161203337Y-86809982D01*
X161185044Y-86810091D01*
X161166691Y-86809734D01*
X161148277Y-86808912D01*
X161129802Y-86807624D01*
X161111266Y-86805870D01*
X161098486Y-86804554D01*
X161086829Y-86803625D01*
X161076293Y-86803086D01*
X161064703Y-86802957D01*
X161054867Y-86803436D01*
X161044043Y-86805127D01*
X161040457Y-86806216D01*
X161030865Y-86809074D01*
X161020496Y-86810295D01*
X161010431Y-86809459D01*
X161007470Y-86808806D01*
X160998113Y-86805825D01*
X160989145Y-86801142D01*
X160981564Y-86794990D01*
X160972616Y-86785729D01*
X160965834Y-86778301D01*
X160958991Y-86770460D01*
X160952088Y-86762207D01*
X160945123Y-86753541D01*
X160938098Y-86744461D01*
X160931013Y-86734969D01*
X160923866Y-86725064D01*
X160916659Y-86714747D01*
X160909392Y-86704016D01*
X160906955Y-86700347D01*
X160900094Y-86689739D01*
X160894146Y-86679936D01*
X160889112Y-86670938D01*
X160883822Y-86660191D01*
X160880156Y-86650874D01*
X160877858Y-86641239D01*
X160878905Y-86631505D01*
X160880877Y-86628674D01*
X160890104Y-86624736D01*
X160900434Y-86627359D01*
X160906437Y-86630747D01*
X160921936Y-86640598D01*
X160937217Y-86649901D01*
X160952279Y-86658656D01*
X160967122Y-86666864D01*
X160981746Y-86674524D01*
X160996153Y-86681636D01*
X161010340Y-86688200D01*
X161024309Y-86694216D01*
X161038059Y-86699685D01*
X161051591Y-86704606D01*
X161064904Y-86708978D01*
X161077999Y-86712804D01*
X161090875Y-86716081D01*
X161103532Y-86718811D01*
X161115971Y-86720992D01*
X161128192Y-86722626D01*
X161140330Y-86723835D01*
X161152478Y-86724699D01*
X161164638Y-86725217D01*
X161176808Y-86725390D01*
X161188989Y-86725217D01*
X161201181Y-86724699D01*
X161213384Y-86723835D01*
X161225598Y-86722626D01*
X161237822Y-86721072D01*
X161250057Y-86719172D01*
X161262303Y-86716927D01*
X161274560Y-86714336D01*
X161286827Y-86711400D01*
X161299105Y-86708119D01*
X161311395Y-86704492D01*
X161323694Y-86700520D01*
X161335702Y-86696418D01*
X161347069Y-86692446D01*
X161357797Y-86688603D01*
X161367886Y-86684890D01*
X161377334Y-86681306D01*
X161390309Y-86676174D01*
X161401844Y-86671333D01*
X161411940Y-86666783D01*
X161423163Y-86661170D01*
X161431828Y-86656075D01*
X161439062Y-86650435D01*
X161443023Y-86641401D01*
X161440805Y-86630857D01*
X161435972Y-86621817D01*
X161430157Y-86613681D01*
X161422609Y-86604741D01*
X161415811Y-86597508D01*
X161413329Y-86594997D01*
X161405824Y-86587786D01*
X161396143Y-86579414D01*
X161386834Y-86572461D01*
X161377898Y-86566928D01*
X161367251Y-86562007D01*
X161357187Y-86559304D01*
X161345877Y-86558989D01*
X161344074Y-86559247D01*
X161334277Y-86559969D01*
X161324455Y-86558329D01*
X161316441Y-86553375D01*
X161311473Y-86544291D01*
X161310372Y-86533111D01*
X161311681Y-86521401D01*
X161314185Y-86510467D01*
X161317984Y-86498140D01*
X161321684Y-86487981D01*
X161326112Y-86477039D01*
X161330956Y-86466023D01*
X161335835Y-86455577D01*
X161340751Y-86445703D01*
X161345704Y-86436399D01*
X161350693Y-86427666D01*
X161357401Y-86416909D01*
X161364174Y-86407168D01*
X161371012Y-86398441D01*
X161377915Y-86390728D01*
X161379651Y-86388959D01*
X161388220Y-86383921D01*
X161394504Y-86384123D01*
X161403242Y-86388646D01*
X161411290Y-86395244D01*
X161416265Y-86400012D01*
X161425198Y-86408323D01*
X161434510Y-86416545D01*
X161444202Y-86424680D01*
X161454274Y-86432726D01*
X161464724Y-86440685D01*
X161475555Y-86448555D01*
X161486765Y-86456337D01*
X161498354Y-86464032D01*
X161510323Y-86471638D01*
X161522671Y-86479156D01*
X161531114Y-86484120D01*
X161543456Y-86491244D01*
X161554836Y-86497722D01*
X161565254Y-86503554D01*
X161574709Y-86508738D01*
X161585819Y-86514645D01*
X161595218Y-86519403D01*
X161604560Y-86523733D01*
X161613149Y-86526778D01*
X161623544Y-86527668D01*
X161633745Y-86525936D01*
X161640437Y-86523324D01*
X161650152Y-86517236D01*
X161659249Y-86510581D01*
X161668203Y-86503678D01*
X161675896Y-86497580D01*
X161684426Y-86490693D01*
X161693795Y-86483016D01*
X161704001Y-86474550D01*
X161715046Y-86465295D01*
X161722638Y-86458923D01*
X161733677Y-86449599D01*
X161744298Y-86440555D01*
X161754499Y-86431789D01*
X161764282Y-86423303D01*
X161773645Y-86415096D01*
X161782590Y-86407168D01*
X161791116Y-86399520D01*
X161799222Y-86392151D01*
X161806910Y-86385061D01*
X161814179Y-86378251D01*
X161821786Y-86371014D01*
X161830489Y-86362645D01*
X161840289Y-86353143D01*
X161847430Y-86346179D01*
X161855059Y-86338713D01*
X161863175Y-86330743D01*
X161871778Y-86322269D01*
X161880868Y-86313293D01*
X161890445Y-86303813D01*
X161900509Y-86293829D01*
X161911060Y-86283343D01*
X161922099Y-86272353D01*
X161933624Y-86260860D01*
X161945636Y-86248864D01*
X161951825Y-86242677D01*
X161959634Y-86235497D01*
X161967693Y-86229913D01*
X161974623Y-86227824D01*
X161984384Y-86232155D01*
X161992485Y-86238518D01*
X161999765Y-86245146D01*
X162005191Y-86250449D01*
X162011999Y-86257594D01*
X162019334Y-86266224D01*
X162025758Y-86274914D01*
X162031271Y-86283666D01*
X162035873Y-86292478D01*
X162037833Y-86296907D01*
X162041116Y-86306813D01*
X162042177Y-86316860D01*
X162039938Y-86326536D01*
X162034897Y-86333693D01*
X162025927Y-86338766D01*
X162016072Y-86341465D01*
X162005784Y-86345431D01*
X161996615Y-86350617D01*
X161987467Y-86356640D01*
X161978935Y-86362772D01*
X161971514Y-86368407D01*
X161963537Y-86374764D01*
X161954891Y-86382007D01*
X161945576Y-86390135D01*
X161938150Y-86396812D01*
X161930348Y-86403987D01*
X161922169Y-86411659D01*
X161913614Y-86419830D01*
X161904683Y-86428498D01*
X161895375Y-86437664D01*
X161888960Y-86444052D01*
X161879418Y-86453561D01*
X161870286Y-86462593D01*
X161861563Y-86471148D01*
X161853251Y-86479227D01*
X161845348Y-86486829D01*
X161837855Y-86493955D01*
X161828502Y-86502714D01*
X161819877Y-86510627D01*
X161811982Y-86517691D01*
X161808307Y-86520906D01*
X161759777Y-86565291D01*
X161753307Y-86573181D01*
X161750619Y-86582938D01*
X161753905Y-86589125D01*
X161762663Y-86594277D01*
X161772747Y-86599240D01*
X161783498Y-86604292D01*
X161793127Y-86608711D01*
X161804097Y-86613671D01*
X161816410Y-86619170D01*
X161825363Y-86623137D01*
X161834913Y-86627344D01*
X161839912Y-86629538D01*
X161849797Y-86633901D01*
X161859115Y-86638054D01*
X161872029Y-86643889D01*
X161883669Y-86649251D01*
X161894033Y-86654138D01*
X161903122Y-86658552D01*
X161913258Y-86663701D01*
X161922740Y-86668953D01*
X161930064Y-86674096D01*
X161935443Y-86682516D01*
X161935704Y-86692785D01*
X161935073Y-86694993D01*
X161930689Y-86704594D01*
X161925424Y-86713346D01*
X161919383Y-86722225D01*
X161913139Y-86730743D01*
X161906815Y-86739064D01*
X161900311Y-86747374D01*
X161894031Y-86755030D01*
X161887406Y-86762349D01*
X161879259Y-86769770D01*
X161869917Y-86776328D01*
X161859616Y-86780740D01*
X161848633Y-86781512D01*
X161840948Y-86779101D01*
X161828523Y-86773537D01*
X161816115Y-86768374D01*
X161803726Y-86763612D01*
X161791355Y-86759251D01*
X161779002Y-86755290D01*
X161766667Y-86751730D01*
X161754351Y-86748571D01*
X161742053Y-86745812D01*
X161729773Y-86743454D01*
X161717511Y-86741497D01*
X161709346Y-86740415D01*
X161699270Y-86739816D01*
X161688816Y-86738969D01*
X161677984Y-86737873D01*
X161666774Y-86736529D01*
X161655187Y-86734937D01*
X161643222Y-86733097D01*
X161630879Y-86731008D01*
X161618158Y-86728671D01*
X161607949Y-86728145D01*
X161598699Y-86731357D01*
X161594497Y-86734716D01*
X161589720Y-86744028D01*
X161586733Y-86755079D01*
X161584364Y-86767246D01*
X161582548Y-86778918D01*
X161581232Y-86788801D01*
X161579955Y-86799652D01*
X161579126Y-86807425D01*
X161578057Y-86819436D01*
X161577246Y-86831572D01*
X161576693Y-86843832D01*
X161576398Y-86856217D01*
X161576361Y-86868726D01*
X161576582Y-86881360D01*
X161577061Y-86894118D01*
X161577799Y-86907000D01*
X161578794Y-86920008D01*
X161580047Y-86933139D01*
X161581026Y-86941963D01*
X161582568Y-86955034D01*
X161583955Y-86967696D01*
X161585187Y-86979949D01*
X161586264Y-86991791D01*
X161587186Y-87003223D01*
X161587954Y-87014246D01*
X161588567Y-87024859D01*
X161589025Y-87035062D01*
X161589328Y-87044855D01*
X161589491Y-87057275D01*
X161589489Y-87060266D01*
X161589745Y-87072094D01*
X161590428Y-87083830D01*
X161591537Y-87095474D01*
X161593072Y-87107026D01*
X161595034Y-87118487D01*
X161597422Y-87129856D01*
X161600237Y-87141133D01*
X161603478Y-87152318D01*
X161607016Y-87163309D01*
X161610721Y-87174004D01*
X161614593Y-87184401D01*
X161618633Y-87194502D01*
X161622840Y-87204305D01*
X161627214Y-87213812D01*
X161631756Y-87223022D01*
X161636465Y-87231936D01*
X161641616Y-87241583D01*
X161647399Y-87252909D01*
X161652151Y-87262504D01*
X161657257Y-87273044D01*
X161662719Y-87284528D01*
X161668537Y-87296957D01*
X161674709Y-87310329D01*
X161679021Y-87319768D01*
X161683491Y-87329628D01*
X161688119Y-87339906D01*
X161692905Y-87350605D01*
X161695357Y-87356111D01*
X161700205Y-87367021D01*
X161704816Y-87377470D01*
X161709191Y-87387459D01*
X161713329Y-87396988D01*
X161717232Y-87406057D01*
X161722644Y-87418798D01*
X161727524Y-87430504D01*
X161731873Y-87441175D01*
X161735690Y-87450810D01*
X161739954Y-87462046D01*
X161743273Y-87471443D01*
X161744578Y-87475451D01*
X161747505Y-87486024D01*
X161749477Y-87496271D01*
X161749729Y-87506144D01*
X161746996Y-87512755D01*
G37*
G36*
X162665618Y-87603771D02*
G01*
X162672581Y-87611413D01*
X162678614Y-87619487D01*
X162683720Y-87627993D01*
X162687897Y-87636931D01*
X162691146Y-87646300D01*
X162693467Y-87656101D01*
X162694860Y-87666334D01*
X162695324Y-87676998D01*
X162694860Y-87687663D01*
X162693467Y-87697896D01*
X162691146Y-87707697D01*
X162687897Y-87717066D01*
X162683720Y-87726004D01*
X162678614Y-87734509D01*
X162672581Y-87742583D01*
X162665618Y-87750226D01*
X162657976Y-87757188D01*
X162649902Y-87763222D01*
X162641396Y-87768327D01*
X162632459Y-87772505D01*
X162623090Y-87775754D01*
X162613288Y-87778074D01*
X162603056Y-87779467D01*
X162592391Y-87779931D01*
X162581727Y-87779467D01*
X162571494Y-87778074D01*
X162561693Y-87775754D01*
X162552323Y-87772505D01*
X162543386Y-87768327D01*
X162534880Y-87763222D01*
X162526806Y-87757188D01*
X162519164Y-87750226D01*
X162512202Y-87742583D01*
X162506168Y-87734509D01*
X162501062Y-87726004D01*
X162496885Y-87717066D01*
X162493636Y-87707697D01*
X162491315Y-87697896D01*
X162489923Y-87687663D01*
X162489458Y-87676998D01*
X162489923Y-87666334D01*
X162491315Y-87656101D01*
X162493636Y-87646300D01*
X162496885Y-87636931D01*
X162501062Y-87627993D01*
X162506168Y-87619487D01*
X162512202Y-87611413D01*
X162519164Y-87603771D01*
X162526806Y-87596809D01*
X162534880Y-87590775D01*
X162543386Y-87585669D01*
X162552323Y-87581492D01*
X162561693Y-87578243D01*
X162571494Y-87575922D01*
X162581727Y-87574530D01*
X162592391Y-87574066D01*
X162603056Y-87574530D01*
X162613288Y-87575922D01*
X162623090Y-87578243D01*
X162632459Y-87581492D01*
X162641396Y-87585669D01*
X162649902Y-87590775D01*
X162657976Y-87596809D01*
X162665618Y-87603771D01*
G37*
G36*
X164071443Y-88387855D02*
G01*
X164077229Y-88395886D01*
X164080614Y-88405454D01*
X164080769Y-88406162D01*
X164080767Y-88416079D01*
X164077693Y-88425494D01*
X164073689Y-88432932D01*
X164068743Y-88441562D01*
X164064399Y-88450357D01*
X164060277Y-88460322D01*
X164058836Y-88464364D01*
X164055318Y-88474175D01*
X164050785Y-88483198D01*
X164049510Y-88484743D01*
X164041043Y-88490309D01*
X164030873Y-88490587D01*
X164021884Y-88486261D01*
X164019804Y-88484743D01*
X164010361Y-88477282D01*
X164001092Y-88469987D01*
X163991999Y-88462859D01*
X163983080Y-88455899D01*
X163974337Y-88449105D01*
X163965768Y-88442478D01*
X163957375Y-88436019D01*
X163949157Y-88429726D01*
X163941114Y-88423600D01*
X163933246Y-88417641D01*
X163918035Y-88406224D01*
X163903524Y-88395475D01*
X163889714Y-88385394D01*
X163876604Y-88375981D01*
X163864194Y-88367236D01*
X163852484Y-88359159D01*
X163841475Y-88351749D01*
X163831166Y-88345007D01*
X163821557Y-88338934D01*
X163812648Y-88333528D01*
X163804440Y-88328790D01*
X163792948Y-88322603D01*
X163781981Y-88317191D01*
X163771539Y-88312553D01*
X163761623Y-88308689D01*
X163752231Y-88305599D01*
X163740526Y-88302683D01*
X163729755Y-88301143D01*
X163719918Y-88300980D01*
X163708934Y-88302711D01*
X163698547Y-88304760D01*
X163688112Y-88305205D01*
X163681128Y-88304611D01*
X163671759Y-88301179D01*
X163661389Y-88295346D01*
X163652883Y-88289906D01*
X163643103Y-88283224D01*
X163634933Y-88277398D01*
X163626046Y-88270874D01*
X163616443Y-88263652D01*
X163613082Y-88261089D01*
X163603194Y-88253486D01*
X163593932Y-88246282D01*
X163585295Y-88239480D01*
X163577284Y-88233079D01*
X163567574Y-88225167D01*
X163558977Y-88217967D01*
X163551491Y-88211480D01*
X163543697Y-88204372D01*
X163539855Y-88200642D01*
X163532917Y-88192911D01*
X163527809Y-88184451D01*
X163528390Y-88174605D01*
X163529320Y-88173527D01*
X163539095Y-88170229D01*
X163549267Y-88170160D01*
X163560212Y-88171197D01*
X163570582Y-88172743D01*
X163582388Y-88174926D01*
X163592185Y-88176982D01*
X163602290Y-88179293D01*
X163612203Y-88181760D01*
X163621925Y-88184381D01*
X163631456Y-88187158D01*
X163640796Y-88190089D01*
X163652952Y-88194238D01*
X163664767Y-88198662D01*
X163676243Y-88203362D01*
X163687378Y-88208336D01*
X163690109Y-88209623D01*
X163701186Y-88214704D01*
X163712572Y-88219500D01*
X163724264Y-88224009D01*
X163736265Y-88228232D01*
X163748573Y-88232169D01*
X163758005Y-88234934D01*
X163767611Y-88237539D01*
X163777390Y-88239982D01*
X163787342Y-88242264D01*
X163799759Y-88245651D01*
X163809061Y-88248757D01*
X163819182Y-88252542D01*
X163830122Y-88257005D01*
X163841881Y-88262147D01*
X163854459Y-88267968D01*
X163867855Y-88274467D01*
X163882071Y-88281645D01*
X163897106Y-88289502D01*
X163912960Y-88298037D01*
X163929633Y-88307252D01*
X163938276Y-88312113D01*
X163947125Y-88317144D01*
X163956178Y-88322345D01*
X163965436Y-88327716D01*
X163974898Y-88333256D01*
X163984565Y-88338966D01*
X163994437Y-88344846D01*
X164004514Y-88350895D01*
X164014796Y-88357114D01*
X164024643Y-88363161D01*
X164033372Y-88368437D01*
X164042714Y-88373946D01*
X164051619Y-88378965D01*
X164060875Y-88383472D01*
X164062290Y-88383883D01*
X164071443Y-88387855D01*
G37*
G36*
X163720851Y-88415488D02*
G01*
X163729359Y-88407725D01*
X163737528Y-88401791D01*
X163747260Y-88396946D01*
X163758238Y-88394906D01*
X163768450Y-88396982D01*
X163777898Y-88403175D01*
X163779398Y-88404608D01*
X163785915Y-88412407D01*
X163791681Y-88420595D01*
X163797413Y-88429403D01*
X163802746Y-88438005D01*
X163807376Y-88445712D01*
X163812974Y-88455329D01*
X163817678Y-88464102D01*
X163822143Y-88473517D01*
X163825725Y-88482967D01*
X163827755Y-88492688D01*
X163826590Y-88502899D01*
X163822273Y-88512182D01*
X163815734Y-88520537D01*
X163813939Y-88522393D01*
X163794078Y-88540182D01*
X163787873Y-88547856D01*
X163784472Y-88557787D01*
X163786642Y-88567372D01*
X163793109Y-88575476D01*
X163797187Y-88578868D01*
X163806729Y-88585959D01*
X163815667Y-88592726D01*
X163824001Y-88599167D01*
X163831730Y-88605284D01*
X163841097Y-88612934D01*
X163849390Y-88620007D01*
X163858245Y-88628036D01*
X163865422Y-88635163D01*
X163867823Y-88637761D01*
X163875354Y-88645965D01*
X163882605Y-88653782D01*
X163889635Y-88661217D01*
X163893211Y-88664875D01*
X163903203Y-88674765D01*
X163912780Y-88684032D01*
X163921941Y-88692676D01*
X163930685Y-88700698D01*
X163939014Y-88708098D01*
X163946927Y-88714876D01*
X163956831Y-88722944D01*
X163965995Y-88729907D01*
X163974420Y-88735762D01*
X163978355Y-88738275D01*
X163986220Y-88744653D01*
X163993712Y-88751593D01*
X163996144Y-88753992D01*
X164001592Y-88762111D01*
X164002835Y-88772278D01*
X164001497Y-88778343D01*
X163998270Y-88787615D01*
X163994447Y-88797332D01*
X163990343Y-88807238D01*
X163986458Y-88816347D01*
X163982039Y-88826508D01*
X163977086Y-88837722D01*
X163975764Y-88840690D01*
X163970664Y-88852105D01*
X163965985Y-88862257D01*
X163961727Y-88871145D01*
X163956996Y-88880481D01*
X163952187Y-88889078D01*
X163946750Y-88896647D01*
X163939126Y-88903226D01*
X163929622Y-88908089D01*
X163919832Y-88908218D01*
X163911000Y-88902691D01*
X163904918Y-88894368D01*
X163900728Y-88885438D01*
X163900119Y-88883866D01*
X163894854Y-88871873D01*
X163888708Y-88859661D01*
X163881683Y-88847230D01*
X163876509Y-88838821D01*
X163870945Y-88830315D01*
X163864989Y-88821712D01*
X163858642Y-88813012D01*
X163851904Y-88804215D01*
X163844775Y-88795321D01*
X163837254Y-88786329D01*
X163829342Y-88777241D01*
X163821039Y-88768055D01*
X163812344Y-88758772D01*
X163803258Y-88749392D01*
X163798568Y-88744665D01*
X163789324Y-88735469D01*
X163780504Y-88726790D01*
X163772108Y-88718630D01*
X163764135Y-88710988D01*
X163756586Y-88703864D01*
X163746057Y-88694149D01*
X163736480Y-88685600D01*
X163727858Y-88678217D01*
X163720188Y-88672000D01*
X163711445Y-88665523D01*
X163702899Y-88660342D01*
X163701508Y-88659694D01*
X163690973Y-88656650D01*
X163680610Y-88657017D01*
X163670421Y-88660795D01*
X163661646Y-88666899D01*
X163660404Y-88667984D01*
X163652630Y-88674874D01*
X163643558Y-88682590D01*
X163635365Y-88689358D01*
X163626341Y-88696655D01*
X163616486Y-88704480D01*
X163608550Y-88710697D01*
X163600145Y-88717211D01*
X163591274Y-88724022D01*
X163588213Y-88726359D01*
X163578026Y-88733660D01*
X163568017Y-88740968D01*
X163558186Y-88748286D01*
X163548533Y-88755611D01*
X163539059Y-88762944D01*
X163529762Y-88770285D01*
X163520644Y-88777635D01*
X163511704Y-88784992D01*
X163502942Y-88792358D01*
X163494358Y-88799732D01*
X163485952Y-88807113D01*
X163477724Y-88814503D01*
X163469674Y-88821901D01*
X163461803Y-88829307D01*
X163454109Y-88836722D01*
X163446594Y-88844144D01*
X163439059Y-88851761D01*
X163432020Y-88859048D01*
X163424583Y-88866971D01*
X163417794Y-88874462D01*
X163416198Y-88876267D01*
X163409257Y-88884115D01*
X163401856Y-88892097D01*
X163394525Y-88899767D01*
X163386284Y-88908203D01*
X163378720Y-88915817D01*
X163370900Y-88923520D01*
X163363197Y-88930868D01*
X163355613Y-88937862D01*
X163348146Y-88944502D01*
X163339342Y-88952003D01*
X163330708Y-88958993D01*
X163322376Y-88965682D01*
X163314347Y-88972408D01*
X163306622Y-88979170D01*
X163299200Y-88985968D01*
X163292082Y-88992803D01*
X163289777Y-88995089D01*
X163282894Y-89002251D01*
X163275974Y-89010009D01*
X163269018Y-89018362D01*
X163262025Y-89027309D01*
X163256170Y-89035220D01*
X163252645Y-89040165D01*
X163246947Y-89048649D01*
X163240431Y-89057479D01*
X163233097Y-89066655D01*
X163226641Y-89074245D01*
X163219661Y-89082056D01*
X163212158Y-89090088D01*
X163204131Y-89098341D01*
X163202042Y-89100439D01*
X163193979Y-89108287D01*
X163186628Y-89114990D01*
X163178442Y-89121760D01*
X163170087Y-89127524D01*
X163160561Y-89131343D01*
X163157484Y-89131181D01*
X163148425Y-89126963D01*
X163140452Y-89121154D01*
X163132515Y-89114087D01*
X163129333Y-89110974D01*
X163122455Y-89103766D01*
X163115603Y-89095517D01*
X163110271Y-89086994D01*
X163108954Y-89083687D01*
X163109731Y-89073325D01*
X163115188Y-89064873D01*
X163117935Y-89061926D01*
X163160420Y-89025312D01*
X163169250Y-89017080D01*
X163177369Y-89009365D01*
X163186428Y-89000646D01*
X163193839Y-88993448D01*
X163201778Y-88985685D01*
X163210245Y-88977358D01*
X163219240Y-88968466D01*
X163228763Y-88959010D01*
X163238815Y-88948988D01*
X163242283Y-88945522D01*
X163252418Y-88935327D01*
X163261903Y-88925660D01*
X163270738Y-88916521D01*
X163278924Y-88907910D01*
X163286459Y-88899828D01*
X163293346Y-88892274D01*
X163301517Y-88883023D01*
X163308533Y-88874712D01*
X163315679Y-88865643D01*
X163316892Y-88864005D01*
X163323740Y-88855167D01*
X163330609Y-88846948D01*
X163338714Y-88837710D01*
X163345604Y-88830112D01*
X163353189Y-88821940D01*
X163361469Y-88813194D01*
X163370445Y-88803874D01*
X163380116Y-88793981D01*
X163390481Y-88783514D01*
X163394091Y-88779897D01*
X163401402Y-88772510D01*
X163408696Y-88764985D01*
X163415974Y-88757323D01*
X163423235Y-88749523D01*
X163430481Y-88741585D01*
X163437710Y-88733510D01*
X163444923Y-88725297D01*
X163452120Y-88716946D01*
X163459301Y-88708458D01*
X163466466Y-88699832D01*
X163473614Y-88691069D01*
X163480746Y-88682168D01*
X163487862Y-88673129D01*
X163494962Y-88663953D01*
X163502046Y-88654639D01*
X163509113Y-88645187D01*
X163515601Y-88636649D01*
X163521954Y-88628786D01*
X163528222Y-88621278D01*
X163535375Y-88612902D01*
X163543414Y-88603657D01*
X163548663Y-88597693D01*
X163555749Y-88588859D01*
X163560316Y-88579795D01*
X163559932Y-88569170D01*
X163552635Y-88561943D01*
X163542750Y-88555782D01*
X163533389Y-88549648D01*
X163524552Y-88543542D01*
X163516237Y-88537462D01*
X163508447Y-88531409D01*
X163499445Y-88523881D01*
X163491261Y-88516395D01*
X163488216Y-88513412D01*
X163481020Y-88506124D01*
X163474221Y-88499046D01*
X163466585Y-88490831D01*
X163459519Y-88482920D01*
X163453024Y-88475312D01*
X163449012Y-88470409D01*
X163441784Y-88461566D01*
X163434668Y-88453381D01*
X163428089Y-88446134D01*
X163420919Y-88438499D01*
X163413159Y-88430476D01*
X163406526Y-88423778D01*
X163399421Y-88417013D01*
X163391663Y-88410275D01*
X163383251Y-88403563D01*
X163374187Y-88396879D01*
X163364470Y-88390222D01*
X163354099Y-88383592D01*
X163343076Y-88376988D01*
X163334379Y-88372054D01*
X163331399Y-88370412D01*
X163322505Y-88365668D01*
X163310981Y-88359894D01*
X163299840Y-88354752D01*
X163289082Y-88350241D01*
X163278707Y-88346362D01*
X163268716Y-88343115D01*
X163259108Y-88340498D01*
X163247637Y-88338116D01*
X163237253Y-88336290D01*
X163226728Y-88334120D01*
X163217120Y-88331619D01*
X163207833Y-88327757D01*
X163206533Y-88326718D01*
X163202096Y-88317812D01*
X163202215Y-88314455D01*
X163204838Y-88303931D01*
X163208073Y-88292857D01*
X163211153Y-88282721D01*
X163214078Y-88273276D01*
X163217413Y-88262644D01*
X163220919Y-88251933D01*
X163224268Y-88242340D01*
X163228234Y-88231919D01*
X163232670Y-88221719D01*
X163237401Y-88212995D01*
X163241074Y-88208241D01*
X163249504Y-88203060D01*
X163259360Y-88202953D01*
X163264389Y-88204615D01*
X163272949Y-88209396D01*
X163281423Y-88215292D01*
X163289830Y-88221717D01*
X163299459Y-88229517D01*
X163308043Y-88236746D01*
X163317410Y-88244855D01*
X163324824Y-88251231D01*
X163332367Y-88257601D01*
X163340036Y-88263966D01*
X163347833Y-88270324D01*
X163355758Y-88276676D01*
X163363810Y-88283022D01*
X163371989Y-88289361D01*
X163380296Y-88295695D01*
X163388731Y-88302023D01*
X163397293Y-88308345D01*
X163403072Y-88312556D01*
X163412109Y-88319039D01*
X163421799Y-88325859D01*
X163432142Y-88333016D01*
X163443137Y-88340510D01*
X163454785Y-88348341D01*
X163467086Y-88356509D01*
X163475649Y-88362141D01*
X163484502Y-88367923D01*
X163493645Y-88373855D01*
X163503079Y-88379937D01*
X163512802Y-88386169D01*
X163522816Y-88392550D01*
X163533119Y-88399081D01*
X163543320Y-88405544D01*
X163552981Y-88411678D01*
X163562102Y-88417482D01*
X163570683Y-88422958D01*
X163582543Y-88430553D01*
X163593189Y-88437408D01*
X163602620Y-88443523D01*
X163610837Y-88448896D01*
X163619904Y-88454908D01*
X163628202Y-88460572D01*
X163631562Y-88462982D01*
X163640497Y-88468484D01*
X163650018Y-88471657D01*
X163656949Y-88471445D01*
X163666447Y-88467650D01*
X163674626Y-88461643D01*
X163676293Y-88460046D01*
X163720851Y-88415488D01*
G37*
G36*
X164602365Y-89151492D02*
G01*
X164612468Y-89156439D01*
X164617884Y-89159850D01*
X164629612Y-89167792D01*
X164641416Y-89175622D01*
X164653296Y-89183340D01*
X164665252Y-89190945D01*
X164677283Y-89198438D01*
X164689391Y-89205819D01*
X164701574Y-89213087D01*
X164713833Y-89220243D01*
X164726168Y-89227287D01*
X164738579Y-89234218D01*
X164746896Y-89238777D01*
X164759530Y-89245782D01*
X164768104Y-89250680D01*
X164776797Y-89255760D01*
X164785610Y-89261022D01*
X164794544Y-89266466D01*
X164803597Y-89272093D01*
X164812771Y-89277901D01*
X164822065Y-89283892D01*
X164831478Y-89290065D01*
X164841012Y-89296420D01*
X164850666Y-89302957D01*
X164860440Y-89309676D01*
X164870335Y-89316578D01*
X164880349Y-89323661D01*
X164890483Y-89330927D01*
X164895595Y-89334628D01*
X164905711Y-89342025D01*
X164915548Y-89349319D01*
X164925108Y-89356511D01*
X164934389Y-89363600D01*
X164943393Y-89370586D01*
X164952119Y-89377470D01*
X164960566Y-89384252D01*
X164968736Y-89390930D01*
X164976628Y-89397507D01*
X164984242Y-89403981D01*
X164995142Y-89413499D01*
X165005416Y-89422787D01*
X165015065Y-89431844D01*
X165024088Y-89440670D01*
X165033901Y-89451044D01*
X165043261Y-89462089D01*
X165049249Y-89469825D01*
X165055037Y-89477859D01*
X165060624Y-89486191D01*
X165066009Y-89494822D01*
X165071194Y-89503751D01*
X165076177Y-89512977D01*
X165080960Y-89522503D01*
X165085541Y-89532326D01*
X165089922Y-89542447D01*
X165094101Y-89552867D01*
X165098079Y-89563585D01*
X165101857Y-89574601D01*
X165105433Y-89585915D01*
X165108755Y-89597107D01*
X165111728Y-89607711D01*
X165114352Y-89617729D01*
X165117632Y-89631655D01*
X165120126Y-89644260D01*
X165121834Y-89655545D01*
X165122755Y-89665509D01*
X165122761Y-89676740D01*
X165120802Y-89687478D01*
X165116659Y-89694547D01*
X165107165Y-89698679D01*
X165096767Y-89698837D01*
X165093689Y-89698519D01*
X165083293Y-89698101D01*
X165072829Y-89699437D01*
X165063354Y-89702139D01*
X165060184Y-89703355D01*
X165051271Y-89707415D01*
X165042333Y-89711754D01*
X165030999Y-89717400D01*
X165020926Y-89722491D01*
X165009506Y-89728317D01*
X164996737Y-89734877D01*
X164987475Y-89739659D01*
X164977615Y-89744767D01*
X164967156Y-89750202D01*
X164956097Y-89755963D01*
X164950343Y-89758966D01*
X164938834Y-89764937D01*
X164927578Y-89770716D01*
X164916576Y-89776303D01*
X164905828Y-89781699D01*
X164895334Y-89786903D01*
X164885093Y-89791916D01*
X164875105Y-89796736D01*
X164865372Y-89801366D01*
X164855892Y-89805803D01*
X164846666Y-89810050D01*
X164837693Y-89814104D01*
X164824710Y-89819827D01*
X164812297Y-89825118D01*
X164800455Y-89829979D01*
X164796635Y-89831503D01*
X164785680Y-89835672D01*
X164775548Y-89839175D01*
X164763318Y-89842813D01*
X164752551Y-89845269D01*
X164741149Y-89846676D01*
X164730483Y-89845927D01*
X164722199Y-89841693D01*
X164716657Y-89832314D01*
X164713422Y-89821469D01*
X164711434Y-89811111D01*
X164710065Y-89801022D01*
X164709591Y-89796616D01*
X164708040Y-89785711D01*
X164705543Y-89775446D01*
X164702103Y-89765823D01*
X164697718Y-89756840D01*
X164692388Y-89748498D01*
X164686114Y-89740797D01*
X164683340Y-89737896D01*
X164675706Y-89731088D01*
X164667781Y-89724866D01*
X164659153Y-89718533D01*
X164655534Y-89715963D01*
X164647342Y-89710621D01*
X164638048Y-89705816D01*
X164628581Y-89703098D01*
X164624965Y-89703010D01*
X164615259Y-89706823D01*
X164606926Y-89712738D01*
X164598412Y-89720127D01*
X164591633Y-89726671D01*
X164583878Y-89734742D01*
X164576671Y-89743115D01*
X164570864Y-89751307D01*
X164567109Y-89760175D01*
X164568818Y-89769894D01*
X164574892Y-89777809D01*
X164580925Y-89782973D01*
X164590623Y-89790201D01*
X164599705Y-89797057D01*
X164608171Y-89803539D01*
X164616020Y-89809648D01*
X164625527Y-89817212D01*
X164633938Y-89824112D01*
X164642911Y-89831803D01*
X164650173Y-89838458D01*
X164652598Y-89840829D01*
X164659872Y-89848301D01*
X164667062Y-89856329D01*
X164672867Y-89864271D01*
X164673841Y-89866217D01*
X164673161Y-89876288D01*
X164670560Y-89879515D01*
X164662324Y-89886230D01*
X164654236Y-89891734D01*
X164645212Y-89897407D01*
X164643963Y-89898167D01*
X164635329Y-89902846D01*
X164625968Y-89906513D01*
X164616082Y-89908497D01*
X164607867Y-89908357D01*
X164597675Y-89906018D01*
X164587877Y-89902442D01*
X164578176Y-89898153D01*
X164569174Y-89893717D01*
X164559337Y-89888496D01*
X164549477Y-89882984D01*
X164540191Y-89877675D01*
X164531478Y-89872568D01*
X164521780Y-89866707D01*
X164512907Y-89861137D01*
X164506144Y-89856718D01*
X164497630Y-89851475D01*
X164488312Y-89847090D01*
X164478084Y-89845434D01*
X164476266Y-89845837D01*
X164467142Y-89851159D01*
X164459573Y-89857352D01*
X164451728Y-89864595D01*
X164446733Y-89869498D01*
X164439712Y-89876871D01*
X164433255Y-89884629D01*
X164427698Y-89893267D01*
X164425145Y-89901103D01*
X164428019Y-89910454D01*
X164434796Y-89919028D01*
X164442807Y-89926623D01*
X164448460Y-89931327D01*
X164456319Y-89937693D01*
X164464675Y-89944809D01*
X164473529Y-89952676D01*
X164480970Y-89959510D01*
X164488729Y-89966825D01*
X164496807Y-89974619D01*
X164505204Y-89982895D01*
X164507353Y-89985038D01*
X164619439Y-90102651D01*
X164629192Y-90112365D01*
X164638374Y-90121429D01*
X164646986Y-90129843D01*
X164655027Y-90137608D01*
X164662497Y-90144723D01*
X164671570Y-90153199D01*
X164679627Y-90160520D01*
X164688273Y-90168047D01*
X164694048Y-90172770D01*
X164702556Y-90179394D01*
X164710358Y-90185609D01*
X164718214Y-90192219D01*
X164720126Y-90194012D01*
X164726471Y-90202015D01*
X164728589Y-90208347D01*
X164726798Y-90218238D01*
X164722750Y-90228050D01*
X164721853Y-90229935D01*
X164717855Y-90239331D01*
X164714439Y-90249105D01*
X164711556Y-90258755D01*
X164708772Y-90269430D01*
X164708382Y-90271039D01*
X164705568Y-90282273D01*
X164701787Y-90293351D01*
X164697040Y-90304271D01*
X164691328Y-90315036D01*
X164684649Y-90325644D01*
X164677004Y-90336095D01*
X164670636Y-90343831D01*
X164663725Y-90351479D01*
X164658816Y-90356528D01*
X164651368Y-90362983D01*
X164642058Y-90367080D01*
X164634982Y-90364473D01*
X164628593Y-90356960D01*
X164623327Y-90348322D01*
X164622029Y-90345648D01*
X164617839Y-90335847D01*
X164613557Y-90326134D01*
X164609185Y-90316507D01*
X164604721Y-90306967D01*
X164600166Y-90297515D01*
X164595520Y-90288149D01*
X164590783Y-90278871D01*
X164585955Y-90269679D01*
X164581036Y-90260575D01*
X164576026Y-90251557D01*
X164570925Y-90242627D01*
X164565733Y-90233783D01*
X164560449Y-90225027D01*
X164555075Y-90216357D01*
X164549609Y-90207775D01*
X164544053Y-90199280D01*
X164538405Y-90190872D01*
X164532666Y-90182550D01*
X164526836Y-90174316D01*
X164520915Y-90166169D01*
X164514904Y-90158109D01*
X164508800Y-90150136D01*
X164502606Y-90142250D01*
X164496321Y-90134450D01*
X164489945Y-90126738D01*
X164483477Y-90119113D01*
X164476919Y-90111575D01*
X164470270Y-90104124D01*
X164463529Y-90096760D01*
X164456697Y-90089484D01*
X164449775Y-90082294D01*
X164442761Y-90075191D01*
X164435720Y-90068184D01*
X164428694Y-90061260D01*
X164421683Y-90054420D01*
X164407708Y-90040989D01*
X164393793Y-90027892D01*
X164379939Y-90015128D01*
X164366145Y-90002697D01*
X164352412Y-89990600D01*
X164338740Y-89978836D01*
X164325129Y-89967405D01*
X164311578Y-89956307D01*
X164298088Y-89945543D01*
X164284659Y-89935111D01*
X164271290Y-89925013D01*
X164257983Y-89915249D01*
X164244736Y-89905817D01*
X164231549Y-89896719D01*
X164224979Y-89892295D01*
X164211932Y-89883508D01*
X164199000Y-89874720D01*
X164186183Y-89865930D01*
X164173480Y-89857139D01*
X164160892Y-89848346D01*
X164148419Y-89839553D01*
X164136060Y-89830757D01*
X164123816Y-89821961D01*
X164111687Y-89813163D01*
X164099673Y-89804364D01*
X164087773Y-89795563D01*
X164075988Y-89786761D01*
X164064317Y-89777958D01*
X164052761Y-89769153D01*
X164041320Y-89760347D01*
X164029994Y-89751540D01*
X164019006Y-89743036D01*
X164008535Y-89735095D01*
X163998583Y-89727719D01*
X163989149Y-89720906D01*
X163980233Y-89714658D01*
X163971835Y-89708974D01*
X163960210Y-89701504D01*
X163949751Y-89695304D01*
X163940457Y-89690373D01*
X163929879Y-89685772D01*
X163919570Y-89683193D01*
X163916354Y-89683149D01*
X163905495Y-89683624D01*
X163894896Y-89682639D01*
X163885612Y-89678313D01*
X163882859Y-89668857D01*
X163883723Y-89657804D01*
X163885787Y-89647021D01*
X163888435Y-89636402D01*
X163889066Y-89634100D01*
X163892271Y-89623234D01*
X163895408Y-89613733D01*
X163899083Y-89604136D01*
X163903832Y-89594399D01*
X163908409Y-89588160D01*
X163917539Y-89584646D01*
X163926864Y-89589275D01*
X163929997Y-89592133D01*
X163937490Y-89598557D01*
X163945413Y-89604580D01*
X163955678Y-89611995D01*
X163964914Y-89618471D01*
X163975467Y-89625729D01*
X163987339Y-89633771D01*
X163995985Y-89639568D01*
X164005216Y-89645712D01*
X164015034Y-89652205D01*
X164025436Y-89659046D01*
X164030857Y-89662597D01*
X164041851Y-89669734D01*
X164052767Y-89676767D01*
X164063606Y-89683696D01*
X164074369Y-89690521D01*
X164085054Y-89697242D01*
X164095663Y-89703860D01*
X164106194Y-89710373D01*
X164116649Y-89716783D01*
X164127027Y-89723089D01*
X164137328Y-89729291D01*
X164147552Y-89735389D01*
X164157699Y-89741383D01*
X164167769Y-89747273D01*
X164177763Y-89753059D01*
X164187679Y-89758742D01*
X164197519Y-89764320D01*
X164207104Y-89769742D01*
X164216214Y-89774909D01*
X164224849Y-89779823D01*
X164236912Y-89786719D01*
X164247905Y-89793043D01*
X164257831Y-89798797D01*
X164266687Y-89803981D01*
X164276834Y-89810004D01*
X164286845Y-89816106D01*
X164293888Y-89820622D01*
X164302707Y-89825167D01*
X164312448Y-89826899D01*
X164323046Y-89824625D01*
X164328257Y-89821831D01*
X164336655Y-89816003D01*
X164345096Y-89809397D01*
X164352517Y-89802979D01*
X164359971Y-89795966D01*
X164362107Y-89793853D01*
X164368411Y-89785196D01*
X164370135Y-89775199D01*
X164366177Y-89764929D01*
X164360380Y-89757930D01*
X164352916Y-89751478D01*
X164344448Y-89745193D01*
X164335334Y-89738925D01*
X164326432Y-89733080D01*
X164316340Y-89726671D01*
X164306259Y-89720391D01*
X164297174Y-89714939D01*
X164287585Y-89709486D01*
X164278208Y-89704629D01*
X164269019Y-89700765D01*
X164259582Y-89697143D01*
X164251033Y-89691751D01*
X164250712Y-89691439D01*
X164244798Y-89683421D01*
X164242616Y-89672954D01*
X164245450Y-89662800D01*
X164246567Y-89660697D01*
X164251327Y-89651986D01*
X164255764Y-89642606D01*
X164259876Y-89632557D01*
X164263209Y-89623215D01*
X164263665Y-89621838D01*
X164267097Y-89612059D01*
X164270901Y-89602489D01*
X164274027Y-89596968D01*
X164283538Y-89593329D01*
X164293105Y-89596270D01*
X164302166Y-89602218D01*
X164303387Y-89603186D01*
X164312317Y-89609784D01*
X164322021Y-89616358D01*
X164331266Y-89622322D01*
X164341828Y-89628912D01*
X164350614Y-89634265D01*
X164360141Y-89639970D01*
X164370408Y-89646028D01*
X164381416Y-89652437D01*
X164385250Y-89654652D01*
X164396465Y-89661071D01*
X164406729Y-89666923D01*
X164416044Y-89672207D01*
X164426985Y-89678369D01*
X164436237Y-89683522D01*
X164445426Y-89688544D01*
X164454639Y-89693298D01*
X164455886Y-89693856D01*
X164466143Y-89690966D01*
X164474205Y-89685314D01*
X164482416Y-89678460D01*
X164489962Y-89671575D01*
X164498378Y-89663443D01*
X164500617Y-89661215D01*
X164507834Y-89652468D01*
X164512233Y-89642416D01*
X164512302Y-89632530D01*
X164509050Y-89625113D01*
X164698909Y-89625113D01*
X164700843Y-89634737D01*
X164703719Y-89638418D01*
X164711523Y-89645251D01*
X164716327Y-89649298D01*
X164724179Y-89655888D01*
X164731700Y-89662698D01*
X164735324Y-89666223D01*
X164741758Y-89673866D01*
X164745169Y-89680903D01*
X164743812Y-89691217D01*
X164739143Y-89701059D01*
X164736706Y-89705255D01*
X164732175Y-89714082D01*
X164730213Y-89723696D01*
X164732388Y-89728570D01*
X164742646Y-89729452D01*
X164752496Y-89726834D01*
X164756049Y-89725634D01*
X164765598Y-89721364D01*
X164774298Y-89716722D01*
X164784865Y-89710645D01*
X164794016Y-89705145D01*
X164804218Y-89698838D01*
X164815470Y-89691723D01*
X164827772Y-89683800D01*
X164836557Y-89678070D01*
X164845809Y-89671981D01*
X164855528Y-89665533D01*
X164865315Y-89659008D01*
X164874730Y-89652644D01*
X164883773Y-89646443D01*
X164892443Y-89640404D01*
X164900741Y-89634527D01*
X164908667Y-89628811D01*
X164919857Y-89620541D01*
X164930209Y-89612636D01*
X164939724Y-89605095D01*
X164948400Y-89597918D01*
X164956239Y-89591106D01*
X164965387Y-89582589D01*
X164967441Y-89580561D01*
X164974908Y-89572549D01*
X164981160Y-89564662D01*
X164987268Y-89554977D01*
X164991479Y-89545485D01*
X164994027Y-89534352D01*
X164993843Y-89523498D01*
X164993174Y-89519942D01*
X164989788Y-89509160D01*
X164985454Y-89499833D01*
X164979746Y-89490193D01*
X164972663Y-89480241D01*
X164966007Y-89472055D01*
X164958472Y-89463670D01*
X164952243Y-89457249D01*
X164943642Y-89449554D01*
X164934938Y-89443564D01*
X164926131Y-89439280D01*
X164914228Y-89436223D01*
X164902142Y-89436199D01*
X164889871Y-89439207D01*
X164880548Y-89443455D01*
X164871122Y-89449408D01*
X164861592Y-89457067D01*
X164855182Y-89463121D01*
X164848103Y-89470833D01*
X164842025Y-89479716D01*
X164839944Y-89489323D01*
X164842402Y-89493863D01*
X164850637Y-89500136D01*
X164856046Y-89503707D01*
X164864656Y-89509634D01*
X164872525Y-89516187D01*
X164875907Y-89519424D01*
X164883900Y-89528049D01*
X164889851Y-89535898D01*
X164894756Y-89545584D01*
X164895184Y-89555802D01*
X164891796Y-89561218D01*
X164883149Y-89567749D01*
X164874379Y-89573411D01*
X164865974Y-89578578D01*
X164859500Y-89582461D01*
X164849392Y-89587533D01*
X164839407Y-89590443D01*
X164829542Y-89591192D01*
X164819799Y-89589780D01*
X164810177Y-89586205D01*
X164806997Y-89584534D01*
X164797712Y-89579652D01*
X164787308Y-89575369D01*
X164777367Y-89572606D01*
X164766573Y-89571311D01*
X164761403Y-89571408D01*
X164750954Y-89573696D01*
X164741245Y-89578178D01*
X164732502Y-89583861D01*
X164723370Y-89591244D01*
X164715463Y-89598696D01*
X164708391Y-89606450D01*
X164702465Y-89614999D01*
X164698909Y-89625113D01*
X164509050Y-89625113D01*
X164508040Y-89622809D01*
X164502344Y-89615966D01*
X164493811Y-89609668D01*
X164484399Y-89604228D01*
X164475385Y-89599496D01*
X164466592Y-89595126D01*
X164464694Y-89594205D01*
X164455681Y-89589839D01*
X164446290Y-89585467D01*
X164437299Y-89581564D01*
X164427444Y-89578035D01*
X164425663Y-89577625D01*
X164416502Y-89573586D01*
X164408773Y-89567273D01*
X164407529Y-89566054D01*
X164402866Y-89557019D01*
X164403136Y-89546967D01*
X164406072Y-89537274D01*
X164407183Y-89534622D01*
X164411226Y-89524400D01*
X164414270Y-89514402D01*
X164416925Y-89503262D01*
X164418841Y-89493108D01*
X164420487Y-89482160D01*
X164421308Y-89475510D01*
X164491130Y-89475510D01*
X164491314Y-89485327D01*
X164493959Y-89495036D01*
X164499064Y-89504638D01*
X164506631Y-89514131D01*
X164508907Y-89516488D01*
X164516715Y-89523326D01*
X164524691Y-89529497D01*
X164533548Y-89535968D01*
X164536022Y-89537730D01*
X164544855Y-89543579D01*
X164553523Y-89548734D01*
X164563227Y-89553774D01*
X164572715Y-89557909D01*
X164575053Y-89558800D01*
X164585712Y-89560665D01*
X164596316Y-89558485D01*
X164605696Y-89553152D01*
X164612703Y-89547057D01*
X164619450Y-89539878D01*
X164625970Y-89531604D01*
X164630989Y-89522699D01*
X164631528Y-89521323D01*
X164630812Y-89511009D01*
X164624644Y-89503301D01*
X164619266Y-89499044D01*
X164610749Y-89492865D01*
X164602728Y-89486544D01*
X164595106Y-89479715D01*
X164594569Y-89479183D01*
X164588343Y-89470832D01*
X164585466Y-89461004D01*
X164585416Y-89460358D01*
X164586250Y-89450231D01*
X164588309Y-89439543D01*
X164590761Y-89429398D01*
X164592497Y-89422881D01*
X164595492Y-89413195D01*
X164599355Y-89403275D01*
X164604255Y-89393760D01*
X164610388Y-89385378D01*
X164611840Y-89383850D01*
X164620620Y-89379488D01*
X164630801Y-89380841D01*
X164640211Y-89385349D01*
X164649317Y-89391621D01*
X164657189Y-89397441D01*
X164666046Y-89403545D01*
X164675565Y-89409454D01*
X164684208Y-89414057D01*
X164691975Y-89417354D01*
X164701508Y-89420890D01*
X164710773Y-89425082D01*
X164715118Y-89427717D01*
X164725164Y-89426900D01*
X164733039Y-89420805D01*
X164734633Y-89419254D01*
X164743869Y-89409724D01*
X164751887Y-89400823D01*
X164758688Y-89392549D01*
X164765862Y-89382496D01*
X164770872Y-89373560D01*
X164774091Y-89363961D01*
X164772916Y-89353455D01*
X164770384Y-89349999D01*
X164761512Y-89344029D01*
X164751818Y-89338860D01*
X164741234Y-89333643D01*
X164731128Y-89328875D01*
X164719565Y-89323578D01*
X164709937Y-89319258D01*
X164700254Y-89315060D01*
X164691218Y-89311338D01*
X164680175Y-89307118D01*
X164670282Y-89303744D01*
X164659533Y-89300720D01*
X164649005Y-89298837D01*
X164639991Y-89299051D01*
X164630165Y-89302508D01*
X164621869Y-89307841D01*
X164614093Y-89315277D01*
X164610803Y-89319258D01*
X164603700Y-89328787D01*
X164596723Y-89338034D01*
X164589872Y-89346997D01*
X164583149Y-89355677D01*
X164576552Y-89364073D01*
X164570083Y-89372187D01*
X164563740Y-89380016D01*
X164557524Y-89387563D01*
X164548437Y-89398351D01*
X164539637Y-89408502D01*
X164531121Y-89418015D01*
X164522891Y-89426891D01*
X164514946Y-89435129D01*
X164512361Y-89437734D01*
X164505346Y-89445410D01*
X164498147Y-89455551D01*
X164493408Y-89465585D01*
X164491130Y-89475510D01*
X164421308Y-89475510D01*
X164421345Y-89475211D01*
X164422689Y-89465502D01*
X164424562Y-89455285D01*
X164426964Y-89444561D01*
X164429894Y-89433330D01*
X164433354Y-89421591D01*
X164437342Y-89409345D01*
X164440681Y-89399828D01*
X164444316Y-89390025D01*
X164446906Y-89383331D01*
X164451092Y-89372977D01*
X164455685Y-89362186D01*
X164460685Y-89350957D01*
X164466092Y-89339291D01*
X164471906Y-89327189D01*
X164478126Y-89314649D01*
X164484754Y-89301671D01*
X164489398Y-89292777D01*
X164494223Y-89283688D01*
X164499228Y-89274405D01*
X164504415Y-89264928D01*
X164509782Y-89255257D01*
X164512534Y-89250348D01*
X164517990Y-89240709D01*
X164523220Y-89231566D01*
X164528223Y-89222920D01*
X164535303Y-89210882D01*
X164541872Y-89199961D01*
X164547932Y-89190157D01*
X164553481Y-89181471D01*
X164560087Y-89171627D01*
X164567070Y-89162114D01*
X164572635Y-89155705D01*
X164581357Y-89150071D01*
X164591806Y-89148883D01*
X164602365Y-89151492D01*
G37*
G36*
X135712393Y-90305590D02*
G01*
X135407913Y-90610070D01*
X135372508Y-90574665D01*
X135379874Y-90566631D01*
X135386727Y-90558864D01*
X135394078Y-90550282D01*
X135400583Y-90542510D01*
X135407435Y-90534172D01*
X135411712Y-90528898D01*
X135418485Y-90520173D01*
X135424338Y-90512130D01*
X135430149Y-90503381D01*
X135435255Y-90494417D01*
X135439172Y-90484858D01*
X135441229Y-90474528D01*
X135442261Y-90464694D01*
X135442185Y-90454061D01*
X135440771Y-90444077D01*
X135440209Y-90441682D01*
X135436981Y-90432259D01*
X135432135Y-90422986D01*
X135425669Y-90413865D01*
X135418683Y-90406009D01*
X135417584Y-90404896D01*
X134918465Y-89905776D01*
X134911038Y-89913202D01*
X135261804Y-90734073D01*
X135237452Y-90758424D01*
X134416754Y-90385380D01*
X134410364Y-90391770D01*
X134819159Y-90800564D01*
X134826503Y-90807850D01*
X134833685Y-90814853D01*
X134844151Y-90824829D01*
X134854250Y-90834171D01*
X134863981Y-90842879D01*
X134873345Y-90850951D01*
X134882342Y-90858390D01*
X134890971Y-90865194D01*
X134899233Y-90871363D01*
X134909678Y-90878602D01*
X134917083Y-90883291D01*
X134926563Y-90888723D01*
X134935746Y-90893361D01*
X134946807Y-90898044D01*
X134957405Y-90901487D01*
X134967539Y-90903691D01*
X134979087Y-90904699D01*
X134984611Y-90904533D01*
X134994727Y-90903233D01*
X135005070Y-90900291D01*
X135014866Y-90896549D01*
X135025734Y-90891635D01*
X135035199Y-90886860D01*
X135045349Y-90881335D01*
X135047994Y-90879836D01*
X135058200Y-90873937D01*
X135067402Y-90868503D01*
X135077492Y-90862362D01*
X135086015Y-90856946D01*
X135094171Y-90851405D01*
X135101533Y-90845641D01*
X135136937Y-90881045D01*
X134858536Y-91159447D01*
X134823131Y-91124042D01*
X134829362Y-91116464D01*
X134835534Y-91108624D01*
X134841647Y-91100522D01*
X134847701Y-91092159D01*
X134853696Y-91083535D01*
X134859632Y-91074649D01*
X134861990Y-91071022D01*
X134867422Y-91061982D01*
X134872062Y-91053211D01*
X134876583Y-91043043D01*
X134879963Y-91033264D01*
X134882464Y-91022346D01*
X134883060Y-91017828D01*
X134883481Y-91006296D01*
X134882496Y-90996482D01*
X134880297Y-90986482D01*
X134876883Y-90976297D01*
X134872255Y-90965926D01*
X134866413Y-90955370D01*
X134865098Y-90953236D01*
X134859016Y-90944159D01*
X134851563Y-90934109D01*
X134845073Y-90925935D01*
X134837812Y-90917214D01*
X134829780Y-90907946D01*
X134820978Y-90898132D01*
X134811403Y-90887772D01*
X134804592Y-90880562D01*
X134797439Y-90873108D01*
X134789942Y-90865412D01*
X134782103Y-90857473D01*
X134778055Y-90853412D01*
X134428671Y-90504029D01*
X134421172Y-90496762D01*
X134413786Y-90490072D01*
X134404713Y-90482522D01*
X134395817Y-90475874D01*
X134387098Y-90470129D01*
X134378557Y-90465286D01*
X134371851Y-90462061D01*
X134361907Y-90458007D01*
X134352025Y-90454913D01*
X134342203Y-90452778D01*
X134332441Y-90451602D01*
X134321130Y-90451442D01*
X134319521Y-90451526D01*
X134309023Y-90452783D01*
X134298513Y-90454999D01*
X134287991Y-90458175D01*
X134277456Y-90462309D01*
X134266910Y-90467404D01*
X134263392Y-90469315D01*
X134254783Y-90474290D01*
X134246445Y-90479502D01*
X134236795Y-90486067D01*
X134227533Y-90492973D01*
X134218661Y-90500218D01*
X134212961Y-90505238D01*
X134177557Y-90469833D01*
X134412782Y-90234608D01*
X135122775Y-90550487D01*
X134862335Y-89952925D01*
X134857738Y-89942633D01*
X134852904Y-89932375D01*
X134847834Y-89922151D01*
X134842528Y-89911961D01*
X134836986Y-89901804D01*
X134831208Y-89891681D01*
X134828830Y-89887642D01*
X134823060Y-89878065D01*
X134817837Y-89869626D01*
X134812294Y-89861002D01*
X134806130Y-89852054D01*
X134801370Y-89846020D01*
X135026233Y-89621157D01*
X135061638Y-89656561D01*
X135054805Y-89664322D01*
X135048384Y-89672229D01*
X135041549Y-89681177D01*
X135035362Y-89689675D01*
X135031069Y-89695766D01*
X135024981Y-89704679D01*
X135018861Y-89714034D01*
X135013161Y-89723349D01*
X135008401Y-89732074D01*
X135007581Y-89733761D01*
X135003705Y-89743367D01*
X135001441Y-89754002D01*
X135001487Y-89764270D01*
X135003842Y-89774171D01*
X135004299Y-89775383D01*
X135008693Y-89784763D01*
X135014100Y-89793733D01*
X135020523Y-89802293D01*
X135027960Y-89810442D01*
X135520344Y-90302826D01*
X135527698Y-90309635D01*
X135536163Y-90316141D01*
X135544693Y-90321287D01*
X135554367Y-90325451D01*
X135564794Y-90327577D01*
X135575094Y-90327656D01*
X135584904Y-90326325D01*
X135595457Y-90323689D01*
X135597026Y-90323206D01*
X135606801Y-90319340D01*
X135616418Y-90314256D01*
X135626144Y-90308355D01*
X135635454Y-90302219D01*
X135637093Y-90301099D01*
X135646494Y-90294435D01*
X135655009Y-90288171D01*
X135663822Y-90281369D01*
X135671429Y-90275113D01*
X135676988Y-90270185D01*
X135712393Y-90305590D01*
G37*
G36*
X135739335Y-89448624D02*
G01*
X135746407Y-89456294D01*
X135752619Y-89464302D01*
X135757970Y-89472647D01*
X135762461Y-89481330D01*
X135766716Y-89492194D01*
X135769315Y-89501619D01*
X135769731Y-89503544D01*
X135771075Y-89514878D01*
X135770185Y-89525823D01*
X135767060Y-89536380D01*
X135761700Y-89546548D01*
X135755528Y-89554724D01*
X135751079Y-89559501D01*
X135742585Y-89567329D01*
X135734048Y-89573867D01*
X135725469Y-89579115D01*
X135715119Y-89583709D01*
X135704708Y-89586445D01*
X135695986Y-89587306D01*
X135685895Y-89586958D01*
X135675135Y-89585017D01*
X135665466Y-89581424D01*
X135656887Y-89576177D01*
X135651428Y-89571417D01*
X135644142Y-89563694D01*
X135637827Y-89556068D01*
X135634157Y-89551038D01*
X135628656Y-89542788D01*
X135623098Y-89534594D01*
X135620513Y-89530832D01*
X135613647Y-89538601D01*
X135607294Y-89547660D01*
X135601456Y-89558010D01*
X135597156Y-89567219D01*
X135593185Y-89577253D01*
X135589543Y-89588113D01*
X135586231Y-89599799D01*
X135585454Y-89602850D01*
X135582818Y-89615212D01*
X135580953Y-89627774D01*
X135579860Y-89640535D01*
X135579539Y-89653496D01*
X135579805Y-89663348D01*
X135580504Y-89673312D01*
X135581638Y-89683388D01*
X135583206Y-89693577D01*
X135585208Y-89703878D01*
X135585972Y-89707337D01*
X135861438Y-89982803D01*
X135868784Y-89989520D01*
X135877219Y-89995700D01*
X135886761Y-90000742D01*
X135895288Y-90003527D01*
X135905097Y-90004751D01*
X135915289Y-90003952D01*
X135925862Y-90001132D01*
X135931902Y-89998692D01*
X135941791Y-89993860D01*
X135951201Y-89988304D01*
X135959913Y-89982468D01*
X135969071Y-89975723D01*
X135970415Y-89974685D01*
X135978228Y-89968472D01*
X135986789Y-89961561D01*
X135994756Y-89955013D01*
X136003132Y-89947975D01*
X136007029Y-89944635D01*
X136040189Y-89977794D01*
X135787693Y-90230290D01*
X135754533Y-90197130D01*
X135760895Y-90189507D01*
X135767459Y-90181749D01*
X135774226Y-90173856D01*
X135775603Y-90172261D01*
X135781914Y-90164283D01*
X135787727Y-90155781D01*
X135792356Y-90147564D01*
X135796439Y-90137585D01*
X135798391Y-90127661D01*
X135798212Y-90117791D01*
X135797192Y-90112332D01*
X135793725Y-90102520D01*
X135788900Y-90093798D01*
X135782434Y-90085077D01*
X135775431Y-90077445D01*
X135480795Y-89782809D01*
X135472872Y-89775772D01*
X135464128Y-89769684D01*
X135454565Y-89764546D01*
X135445524Y-89760829D01*
X135444181Y-89760358D01*
X135434812Y-89757578D01*
X135424104Y-89755738D01*
X135413396Y-89755322D01*
X135402688Y-89756332D01*
X135401350Y-89756558D01*
X135391851Y-89759358D01*
X135382352Y-89763439D01*
X135373803Y-89768209D01*
X135370954Y-89770029D01*
X135362377Y-89775937D01*
X135353746Y-89782391D01*
X135346029Y-89788587D01*
X135340212Y-89793517D01*
X135307053Y-89760358D01*
X135455234Y-89590070D01*
X135468705Y-89590070D01*
X135540723Y-89662088D01*
X135543314Y-89659497D01*
X135541918Y-89646714D01*
X135540968Y-89634140D01*
X135540465Y-89621776D01*
X135540408Y-89609621D01*
X135540797Y-89597675D01*
X135541632Y-89585939D01*
X135542914Y-89574412D01*
X135544642Y-89563095D01*
X135546816Y-89551988D01*
X135549436Y-89541089D01*
X135551431Y-89533940D01*
X135554726Y-89523485D01*
X135558264Y-89513491D01*
X135562044Y-89503958D01*
X135566068Y-89494887D01*
X135571810Y-89483510D01*
X135577985Y-89472954D01*
X135584591Y-89463217D01*
X135591628Y-89454301D01*
X135599098Y-89446206D01*
X135606864Y-89439044D01*
X135614879Y-89432843D01*
X135623142Y-89427602D01*
X135633820Y-89422402D01*
X135644885Y-89418704D01*
X135656339Y-89416506D01*
X135668180Y-89415810D01*
X135680072Y-89416656D01*
X135691678Y-89419088D01*
X135702996Y-89423106D01*
X135711845Y-89427461D01*
X135720510Y-89432831D01*
X135728991Y-89439216D01*
X135737289Y-89446615D01*
X135739335Y-89448624D01*
G37*
G36*
X136316172Y-89614767D02*
G01*
X136324021Y-89623576D01*
X136330512Y-89632951D01*
X136335645Y-89642891D01*
X136339420Y-89653396D01*
X136341838Y-89664466D01*
X136342898Y-89676101D01*
X136342942Y-89680913D01*
X136342131Y-89692770D01*
X136340021Y-89704053D01*
X136336612Y-89714763D01*
X136331905Y-89724899D01*
X136325899Y-89734462D01*
X136318594Y-89743451D01*
X136315309Y-89746887D01*
X136306499Y-89754760D01*
X136297124Y-89761327D01*
X136287184Y-89766587D01*
X136276679Y-89770539D01*
X136265610Y-89773185D01*
X136253975Y-89774523D01*
X136249163Y-89774692D01*
X136237351Y-89774125D01*
X136226097Y-89772210D01*
X136215399Y-89768944D01*
X136205257Y-89764330D01*
X136195673Y-89758366D01*
X136186644Y-89751053D01*
X136183189Y-89747750D01*
X136175373Y-89738982D01*
X136168873Y-89729623D01*
X136163689Y-89719674D01*
X136159820Y-89709134D01*
X136157266Y-89698004D01*
X136156028Y-89686284D01*
X136155901Y-89681431D01*
X136156568Y-89669421D01*
X136158566Y-89658001D01*
X136161897Y-89647172D01*
X136166561Y-89636932D01*
X136172556Y-89627283D01*
X136179885Y-89618225D01*
X136183189Y-89614767D01*
X136191962Y-89606955D01*
X136201333Y-89600468D01*
X136211303Y-89595304D01*
X136221872Y-89591465D01*
X136233040Y-89588949D01*
X136244806Y-89587758D01*
X136249681Y-89587652D01*
X136261687Y-89588314D01*
X136273094Y-89590300D01*
X136283902Y-89593610D01*
X136294112Y-89598244D01*
X136303723Y-89604201D01*
X136312735Y-89611483D01*
X136316172Y-89614767D01*
G37*
G36*
X136465808Y-88394495D02*
G01*
X136478788Y-88394968D01*
X136491771Y-88395852D01*
X136504758Y-88397148D01*
X136517750Y-88398856D01*
X136530745Y-88400975D01*
X136543745Y-88403505D01*
X136556748Y-88406448D01*
X136569756Y-88409801D01*
X136582767Y-88413566D01*
X136595783Y-88417743D01*
X136608741Y-88422336D01*
X136621624Y-88427393D01*
X136634431Y-88432914D01*
X136647163Y-88438899D01*
X136659819Y-88445349D01*
X136672400Y-88452262D01*
X136684905Y-88459640D01*
X136697334Y-88467482D01*
X136709688Y-88475788D01*
X136721966Y-88484558D01*
X136734169Y-88493793D01*
X136746296Y-88503491D01*
X136758348Y-88513654D01*
X136770324Y-88524281D01*
X136782224Y-88535372D01*
X136794049Y-88546927D01*
X136804753Y-88557890D01*
X136815017Y-88568931D01*
X136824841Y-88580050D01*
X136834225Y-88591247D01*
X136843169Y-88602523D01*
X136851674Y-88613877D01*
X136859738Y-88625310D01*
X136867363Y-88636820D01*
X136874548Y-88648409D01*
X136881293Y-88660076D01*
X136887598Y-88671821D01*
X136893463Y-88683645D01*
X136898888Y-88695547D01*
X136903874Y-88707527D01*
X136908420Y-88719585D01*
X136912525Y-88731722D01*
X136916264Y-88743863D01*
X136919666Y-88755976D01*
X136922730Y-88768063D01*
X136925457Y-88780123D01*
X136927846Y-88792156D01*
X136929899Y-88804161D01*
X136931613Y-88816140D01*
X136932991Y-88828092D01*
X136934031Y-88840017D01*
X136934734Y-88851914D01*
X136935100Y-88863785D01*
X136935128Y-88875629D01*
X136934819Y-88887446D01*
X136934173Y-88899236D01*
X136933189Y-88910999D01*
X136931868Y-88922735D01*
X136930183Y-88934535D01*
X136928234Y-88946274D01*
X136926021Y-88957952D01*
X136923546Y-88969570D01*
X136920808Y-88981127D01*
X136917806Y-88992624D01*
X136914542Y-89004059D01*
X136911014Y-89015434D01*
X136907223Y-89026749D01*
X136903170Y-89038002D01*
X136898853Y-89049195D01*
X136894273Y-89060327D01*
X136889429Y-89071399D01*
X136884323Y-89082409D01*
X136878954Y-89093359D01*
X136873321Y-89104248D01*
X136867439Y-89115024D01*
X136861364Y-89125677D01*
X136855096Y-89136208D01*
X136848635Y-89146615D01*
X136841981Y-89156900D01*
X136835134Y-89167062D01*
X136828095Y-89177101D01*
X136820862Y-89187018D01*
X136813436Y-89196811D01*
X136805818Y-89206482D01*
X136798006Y-89216030D01*
X136790001Y-89225455D01*
X136781804Y-89234758D01*
X136773414Y-89243938D01*
X136764830Y-89252995D01*
X136756054Y-89261929D01*
X136470399Y-89547584D01*
X136434994Y-89512179D01*
X136442442Y-89504408D01*
X136449561Y-89496474D01*
X136456110Y-89488832D01*
X136463072Y-89480412D01*
X136469190Y-89472802D01*
X136476079Y-89463804D01*
X136481851Y-89455850D01*
X136487810Y-89446870D01*
X136492464Y-89438255D01*
X136493023Y-89436880D01*
X136496294Y-89426636D01*
X136497816Y-89416630D01*
X136497589Y-89406861D01*
X136495614Y-89397330D01*
X136492030Y-89388004D01*
X136486978Y-89378851D01*
X136480459Y-89369870D01*
X136473550Y-89362153D01*
X136472471Y-89361062D01*
X135979742Y-88868332D01*
X135972456Y-88861592D01*
X135963867Y-88854962D01*
X135954997Y-88849476D01*
X135945846Y-88845134D01*
X135944682Y-88844672D01*
X135935086Y-88841962D01*
X135924778Y-88841261D01*
X135913757Y-88842567D01*
X135903530Y-88845357D01*
X135902024Y-88845881D01*
X135892410Y-88849662D01*
X135882912Y-88854055D01*
X135873530Y-88859060D01*
X135864263Y-88864676D01*
X135859020Y-88868160D01*
X135850225Y-88874164D01*
X135842123Y-88879937D01*
X135833715Y-88886252D01*
X135825339Y-88892994D01*
X135824479Y-88893720D01*
X135789074Y-88858315D01*
X135941227Y-88706162D01*
X136024472Y-88706162D01*
X136550707Y-89232396D01*
X136558921Y-89240158D01*
X136567115Y-89246994D01*
X136575287Y-89252905D01*
X136586149Y-89259345D01*
X136596975Y-89264139D01*
X136607762Y-89267286D01*
X136618512Y-89268788D01*
X136629223Y-89268644D01*
X136637232Y-89267455D01*
X136648067Y-89264554D01*
X136659242Y-89260256D01*
X136670756Y-89254559D01*
X136679615Y-89249369D01*
X136688666Y-89243393D01*
X136697907Y-89236631D01*
X136707340Y-89229082D01*
X136716964Y-89220747D01*
X136726780Y-89211626D01*
X136733430Y-89205109D01*
X136740991Y-89197378D01*
X136748263Y-89189600D01*
X136755245Y-89181775D01*
X136761937Y-89173903D01*
X136768338Y-89165983D01*
X136774450Y-89158017D01*
X136780271Y-89150003D01*
X136785803Y-89141941D01*
X136793556Y-89129761D01*
X136800656Y-89117475D01*
X136807104Y-89105082D01*
X136812898Y-89092583D01*
X136818041Y-89079977D01*
X136819610Y-89075752D01*
X136823874Y-89063030D01*
X136827533Y-89050318D01*
X136830589Y-89037614D01*
X136833040Y-89024920D01*
X136834888Y-89012234D01*
X136836131Y-88999558D01*
X136836770Y-88986891D01*
X136836805Y-88974233D01*
X136836235Y-88961584D01*
X136835062Y-88948945D01*
X136833944Y-88940523D01*
X136831745Y-88927340D01*
X136829032Y-88914215D01*
X136825807Y-88901147D01*
X136822068Y-88888137D01*
X136817816Y-88875184D01*
X136813052Y-88862290D01*
X136807774Y-88849453D01*
X136801983Y-88836673D01*
X136795679Y-88823951D01*
X136788862Y-88811287D01*
X136784032Y-88802877D01*
X136778991Y-88794447D01*
X136773710Y-88785997D01*
X136768191Y-88777527D01*
X136762433Y-88769037D01*
X136756436Y-88760527D01*
X136750201Y-88751996D01*
X136743726Y-88743445D01*
X136737013Y-88734874D01*
X136730061Y-88726282D01*
X136722870Y-88717671D01*
X136715440Y-88709039D01*
X136707772Y-88700387D01*
X136699865Y-88691714D01*
X136691718Y-88683022D01*
X136683333Y-88674309D01*
X136674710Y-88665576D01*
X136666076Y-88657086D01*
X136657401Y-88648845D01*
X136648686Y-88640852D01*
X136639931Y-88633107D01*
X136631135Y-88625611D01*
X136622299Y-88618362D01*
X136613422Y-88611362D01*
X136604505Y-88604611D01*
X136595547Y-88598107D01*
X136586549Y-88591852D01*
X136577510Y-88585845D01*
X136568431Y-88580086D01*
X136559311Y-88574576D01*
X136550151Y-88569314D01*
X136540950Y-88564300D01*
X136531709Y-88559534D01*
X136522416Y-88554993D01*
X136513103Y-88550697D01*
X136503769Y-88546644D01*
X136494416Y-88542836D01*
X136485041Y-88539272D01*
X136475647Y-88535952D01*
X136466233Y-88532876D01*
X136456798Y-88530045D01*
X136447343Y-88527458D01*
X136433123Y-88524035D01*
X136418857Y-88521161D01*
X136404545Y-88518837D01*
X136390188Y-88517063D01*
X136380592Y-88516185D01*
X136366908Y-88515336D01*
X136353251Y-88515054D01*
X136339621Y-88515340D01*
X136326019Y-88516193D01*
X136312445Y-88517615D01*
X136298897Y-88519604D01*
X136285377Y-88522160D01*
X136271884Y-88525285D01*
X136258419Y-88528977D01*
X136244980Y-88533237D01*
X136236037Y-88536392D01*
X136222703Y-88541578D01*
X136209578Y-88547355D01*
X136196664Y-88553725D01*
X136183958Y-88560687D01*
X136171462Y-88568240D01*
X136163248Y-88573605D01*
X136155126Y-88579233D01*
X136147098Y-88585124D01*
X136139163Y-88591278D01*
X136131321Y-88597695D01*
X136123573Y-88604375D01*
X136115917Y-88611318D01*
X136108354Y-88618525D01*
X136104608Y-88622227D01*
X136097002Y-88629881D01*
X136089080Y-88637948D01*
X136082238Y-88644986D01*
X136075176Y-88652311D01*
X136067895Y-88659923D01*
X136060395Y-88667821D01*
X136053097Y-88675542D01*
X136045164Y-88683961D01*
X136038129Y-88691458D01*
X136031057Y-88699037D01*
X136024472Y-88706162D01*
X135941227Y-88706162D01*
X136090273Y-88557116D01*
X136098112Y-88549428D01*
X136106084Y-88541905D01*
X136114190Y-88534548D01*
X136122429Y-88527357D01*
X136130802Y-88520332D01*
X136139308Y-88513473D01*
X136147948Y-88506780D01*
X136156722Y-88500253D01*
X136165629Y-88493892D01*
X136174670Y-88487697D01*
X136183844Y-88481668D01*
X136193152Y-88475804D01*
X136202593Y-88470107D01*
X136212168Y-88464576D01*
X136221877Y-88459211D01*
X136231719Y-88454011D01*
X136241619Y-88448964D01*
X136251502Y-88444143D01*
X136261367Y-88439546D01*
X136271215Y-88435175D01*
X136281045Y-88431030D01*
X136290857Y-88427110D01*
X136300652Y-88423415D01*
X136310430Y-88419945D01*
X136320190Y-88416701D01*
X136329932Y-88413682D01*
X136339657Y-88410888D01*
X136349364Y-88408320D01*
X136359054Y-88405977D01*
X136368726Y-88403859D01*
X136378381Y-88401967D01*
X136388018Y-88400300D01*
X136400973Y-88398303D01*
X136413932Y-88396719D01*
X136426895Y-88395545D01*
X136439862Y-88394784D01*
X136452833Y-88394434D01*
X136465808Y-88394495D01*
G37*
G36*
X137328401Y-89017032D02*
G01*
X137321596Y-89009578D01*
X137314845Y-89000333D01*
X137309635Y-88990760D01*
X137305968Y-88980859D01*
X137303843Y-88970630D01*
X137303359Y-88965393D01*
X137303535Y-88955122D01*
X137305229Y-88945421D01*
X137309123Y-88934825D01*
X137314106Y-88926361D01*
X137320607Y-88918468D01*
X137321838Y-88917208D01*
X137329664Y-88910052D01*
X137337597Y-88904126D01*
X137346652Y-88898930D01*
X137353789Y-88895965D01*
X137363267Y-88893197D01*
X137372854Y-88891302D01*
X137383634Y-88890223D01*
X137387984Y-88890093D01*
X137398296Y-88890227D01*
X137408874Y-88891198D01*
X137419375Y-88892765D01*
X137421835Y-88893202D01*
X137432530Y-88895090D01*
X137443068Y-88897060D01*
X137453023Y-88899071D01*
X137454649Y-88899419D01*
X137456899Y-88889284D01*
X137458125Y-88877529D01*
X137458370Y-88867650D01*
X137458040Y-88856861D01*
X137457132Y-88845161D01*
X137455647Y-88832550D01*
X137453586Y-88819028D01*
X137450948Y-88804596D01*
X137448869Y-88794468D01*
X137446533Y-88783936D01*
X137443941Y-88772999D01*
X137441243Y-88761985D01*
X137438504Y-88751224D01*
X137435722Y-88740716D01*
X137432899Y-88730459D01*
X137430034Y-88720455D01*
X137427127Y-88710703D01*
X137424178Y-88701204D01*
X137419676Y-88687428D01*
X137415080Y-88674219D01*
X137410390Y-88661578D01*
X137405606Y-88649505D01*
X137400728Y-88638000D01*
X137395756Y-88627062D01*
X137385707Y-88622760D01*
X137375722Y-88618488D01*
X137365801Y-88614248D01*
X137355945Y-88610037D01*
X137346153Y-88605858D01*
X137336426Y-88601709D01*
X137326763Y-88597591D01*
X137317164Y-88593503D01*
X137307630Y-88589447D01*
X137298161Y-88585421D01*
X137288755Y-88581425D01*
X137279415Y-88577461D01*
X137270138Y-88573527D01*
X137260926Y-88569623D01*
X137251779Y-88565751D01*
X137242696Y-88561909D01*
X137233677Y-88558098D01*
X137215833Y-88550568D01*
X137198247Y-88543160D01*
X137180918Y-88535876D01*
X137163847Y-88528714D01*
X137147034Y-88521675D01*
X137130479Y-88514758D01*
X137114181Y-88507965D01*
X137106129Y-88504614D01*
X137090072Y-88497911D01*
X137073941Y-88491186D01*
X137057733Y-88484440D01*
X137041450Y-88477672D01*
X137025092Y-88470882D01*
X137008658Y-88464071D01*
X136992148Y-88457239D01*
X136975563Y-88450384D01*
X136958902Y-88443508D01*
X136942166Y-88436611D01*
X136925354Y-88429692D01*
X136908467Y-88422751D01*
X136891504Y-88415789D01*
X136874465Y-88408805D01*
X136857351Y-88401800D01*
X136840162Y-88394773D01*
X136830172Y-88391228D01*
X136820064Y-88388796D01*
X136809839Y-88387477D01*
X136799495Y-88387271D01*
X136789033Y-88388179D01*
X136778453Y-88390199D01*
X136774188Y-88391319D01*
X136763721Y-88394453D01*
X136753693Y-88398025D01*
X136744103Y-88402035D01*
X136734951Y-88406485D01*
X136726239Y-88411372D01*
X136717964Y-88416699D01*
X136714777Y-88418952D01*
X136681618Y-88385792D01*
X136900091Y-88167320D01*
X136935323Y-88202552D01*
X136928274Y-88210744D01*
X136922018Y-88219029D01*
X136915679Y-88228354D01*
X136910180Y-88237176D01*
X136906481Y-88243483D01*
X136901694Y-88252548D01*
X136897749Y-88262613D01*
X136896871Y-88272682D01*
X136899054Y-88276815D01*
X136907167Y-88282398D01*
X136910798Y-88284414D01*
X136920081Y-88288861D01*
X136929333Y-88292952D01*
X136929969Y-88293222D01*
X136942979Y-88298963D01*
X136952257Y-88303016D01*
X136962017Y-88307250D01*
X136972261Y-88311665D01*
X136982988Y-88316260D01*
X136994197Y-88321037D01*
X137005890Y-88325994D01*
X137018066Y-88331132D01*
X137030725Y-88336451D01*
X137043866Y-88341950D01*
X137057491Y-88347631D01*
X137071599Y-88353492D01*
X137086190Y-88359534D01*
X137101264Y-88365757D01*
X137116821Y-88372160D01*
X137124781Y-88375430D01*
X137140614Y-88381940D01*
X137156032Y-88388299D01*
X137171037Y-88394509D01*
X137185627Y-88400569D01*
X137199803Y-88406480D01*
X137213565Y-88412241D01*
X137226913Y-88417852D01*
X137239846Y-88423313D01*
X137252365Y-88428624D01*
X137264470Y-88433786D01*
X137276161Y-88438798D01*
X137287437Y-88443660D01*
X137298299Y-88448372D01*
X137308748Y-88452934D01*
X137318781Y-88457347D01*
X137328401Y-88461610D01*
X137324637Y-88452351D01*
X137320859Y-88443052D01*
X137317065Y-88433715D01*
X137313257Y-88424338D01*
X137309434Y-88414922D01*
X137305596Y-88405467D01*
X137301743Y-88395973D01*
X137297875Y-88386440D01*
X137293993Y-88376868D01*
X137290095Y-88367256D01*
X137286183Y-88357606D01*
X137282256Y-88347916D01*
X137278314Y-88338187D01*
X137274357Y-88328419D01*
X137270386Y-88318612D01*
X137266400Y-88308766D01*
X137262348Y-88298757D01*
X137258183Y-88288551D01*
X137253902Y-88278146D01*
X137249507Y-88267543D01*
X137244997Y-88256741D01*
X137240372Y-88245741D01*
X137235633Y-88234543D01*
X137230779Y-88223147D01*
X137225810Y-88211552D01*
X137220727Y-88199759D01*
X137215529Y-88187767D01*
X137210216Y-88175577D01*
X137204789Y-88163189D01*
X137199247Y-88150602D01*
X137193590Y-88137817D01*
X137187818Y-88124834D01*
X137183744Y-88115902D01*
X137179384Y-88106248D01*
X137174959Y-88096382D01*
X137171929Y-88089602D01*
X137167540Y-88080233D01*
X137162321Y-88070820D01*
X137156192Y-88061883D01*
X137150514Y-88055406D01*
X137141727Y-88050116D01*
X137131232Y-88048602D01*
X137119977Y-88049739D01*
X137108791Y-88052542D01*
X137104747Y-88053852D01*
X137094700Y-88057512D01*
X137085176Y-88061475D01*
X137076175Y-88065742D01*
X137066063Y-88071263D01*
X137056705Y-88077222D01*
X137049481Y-88082521D01*
X137018394Y-88051434D01*
X137196108Y-87873720D01*
X137226159Y-87903771D01*
X137220994Y-87912192D01*
X137216764Y-87921028D01*
X137212716Y-87931358D01*
X137209482Y-87941107D01*
X137206375Y-87951894D01*
X137204571Y-87958864D01*
X137202193Y-87970783D01*
X137200995Y-87982685D01*
X137200978Y-87994570D01*
X137202142Y-88006439D01*
X137204487Y-88018290D01*
X137207212Y-88027759D01*
X137209752Y-88034854D01*
X137214512Y-88046821D01*
X137219252Y-88058717D01*
X137223969Y-88070540D01*
X137228666Y-88082292D01*
X137233341Y-88093971D01*
X137237995Y-88105579D01*
X137242628Y-88117115D01*
X137247240Y-88128579D01*
X137251830Y-88139972D01*
X137256399Y-88151292D01*
X137260947Y-88162541D01*
X137265474Y-88173718D01*
X137269979Y-88184823D01*
X137274463Y-88195856D01*
X137278926Y-88206817D01*
X137283368Y-88217706D01*
X137287788Y-88228524D01*
X137292187Y-88239270D01*
X137296565Y-88249944D01*
X137300922Y-88260546D01*
X137305257Y-88271076D01*
X137309571Y-88281534D01*
X137313864Y-88291921D01*
X137318136Y-88302235D01*
X137322386Y-88312478D01*
X137326615Y-88322649D01*
X137330823Y-88332748D01*
X137335010Y-88342775D01*
X137339175Y-88352730D01*
X137343319Y-88362614D01*
X137347442Y-88372426D01*
X137351543Y-88382166D01*
X137355588Y-88391781D01*
X137359561Y-88401240D01*
X137363462Y-88410544D01*
X137367292Y-88419691D01*
X137374737Y-88437519D01*
X137381897Y-88454724D01*
X137388770Y-88471305D01*
X137395357Y-88487262D01*
X137401658Y-88502597D01*
X137407673Y-88517308D01*
X137413402Y-88531395D01*
X137418845Y-88544860D01*
X137424002Y-88557701D01*
X137428872Y-88569918D01*
X137433457Y-88581513D01*
X137437756Y-88592483D01*
X137441769Y-88602831D01*
X137445495Y-88612555D01*
X137450109Y-88624761D01*
X137454538Y-88636683D01*
X137458782Y-88648319D01*
X137462842Y-88659671D01*
X137466716Y-88670739D01*
X137470406Y-88681521D01*
X137473910Y-88692019D01*
X137477230Y-88702232D01*
X137480365Y-88712161D01*
X137483315Y-88721805D01*
X137487394Y-88735737D01*
X137491057Y-88749028D01*
X137494304Y-88761679D01*
X137497134Y-88773690D01*
X137499658Y-88785194D01*
X137501917Y-88796392D01*
X137503912Y-88807283D01*
X137505643Y-88817867D01*
X137507110Y-88828145D01*
X137508312Y-88838116D01*
X137509505Y-88850934D01*
X137510228Y-88863207D01*
X137510482Y-88874935D01*
X137510433Y-88880594D01*
X137509812Y-88890989D01*
X137508900Y-88900844D01*
X137507350Y-88912404D01*
X137505345Y-88923120D01*
X137502884Y-88932994D01*
X137499330Y-88943728D01*
X137497307Y-88948640D01*
X137492865Y-88957896D01*
X137487827Y-88966750D01*
X137482195Y-88975204D01*
X137475967Y-88983257D01*
X137469145Y-88990910D01*
X137466738Y-88993371D01*
X137459636Y-89000167D01*
X137450133Y-89008307D01*
X137440592Y-89015395D01*
X137431014Y-89021430D01*
X137421398Y-89026413D01*
X137411744Y-89030343D01*
X137402052Y-89033221D01*
X137392322Y-89035047D01*
X137389884Y-89035339D01*
X137378092Y-89035985D01*
X137367109Y-89035332D01*
X137356935Y-89033381D01*
X137347571Y-89030131D01*
X137337403Y-89024516D01*
X137328401Y-89017032D01*
G37*
G36*
X138216972Y-87801011D02*
G01*
X137982438Y-88035545D01*
X137949278Y-88002386D01*
X137955866Y-87994536D01*
X137962892Y-87986316D01*
X137969591Y-87978600D01*
X137971903Y-87975962D01*
X137978308Y-87968117D01*
X137984272Y-87959913D01*
X137989430Y-87951513D01*
X137990209Y-87950056D01*
X137994390Y-87940007D01*
X137996439Y-87930068D01*
X137996357Y-87920238D01*
X137995391Y-87914824D01*
X137991951Y-87905039D01*
X137987196Y-87896388D01*
X137980844Y-87887779D01*
X137973975Y-87880283D01*
X137731669Y-87637976D01*
X137722237Y-87628969D01*
X137712786Y-87620793D01*
X137703317Y-87613450D01*
X137693830Y-87606938D01*
X137684325Y-87601258D01*
X137674801Y-87596410D01*
X137665260Y-87592393D01*
X137655700Y-87589209D01*
X137646122Y-87586856D01*
X137633323Y-87585013D01*
X137630118Y-87584783D01*
X137617556Y-87584554D01*
X137605518Y-87585506D01*
X137594003Y-87587641D01*
X137583012Y-87590957D01*
X137572545Y-87595456D01*
X137562601Y-87601136D01*
X137553180Y-87607998D01*
X137544283Y-87616043D01*
X137536545Y-87624177D01*
X137529414Y-87632497D01*
X137522891Y-87641002D01*
X137516974Y-87649693D01*
X137511665Y-87658570D01*
X137506962Y-87667632D01*
X137505252Y-87671309D01*
X137501298Y-87680404D01*
X137497089Y-87691252D01*
X137493462Y-87702028D01*
X137490418Y-87712730D01*
X137487957Y-87723359D01*
X137486945Y-87728647D01*
X137485423Y-87738710D01*
X137484384Y-87750020D01*
X137484138Y-87760867D01*
X137484686Y-87771252D01*
X137485563Y-87778386D01*
X137487279Y-87788824D01*
X137489184Y-87799096D01*
X137491269Y-87808682D01*
X137492299Y-87812755D01*
X137762238Y-88082694D01*
X137770420Y-88090034D01*
X137778731Y-88095819D01*
X137788236Y-88100470D01*
X137795743Y-88102728D01*
X137805621Y-88103769D01*
X137815828Y-88103007D01*
X137826362Y-88100442D01*
X137832356Y-88098237D01*
X137841680Y-88094486D01*
X137850868Y-88089926D01*
X137859922Y-88084556D01*
X137861716Y-88083385D01*
X137870517Y-88077154D01*
X137878351Y-88071230D01*
X137886103Y-88065005D01*
X137889522Y-88062142D01*
X137922681Y-88095301D01*
X137688147Y-88329836D01*
X137654988Y-88296676D01*
X137661440Y-88289144D01*
X137668062Y-88281443D01*
X137674852Y-88273573D01*
X137676230Y-88271979D01*
X137682542Y-88264002D01*
X137688354Y-88255499D01*
X137692983Y-88247282D01*
X137697177Y-88237414D01*
X137699267Y-88227628D01*
X137699122Y-88216851D01*
X137698337Y-88212568D01*
X137694994Y-88202881D01*
X137689630Y-88193248D01*
X137683164Y-88184732D01*
X137677267Y-88178373D01*
X137390402Y-87891508D01*
X137382166Y-87884158D01*
X137373348Y-87877994D01*
X137363946Y-87873018D01*
X137353961Y-87869229D01*
X137343729Y-87866617D01*
X137333409Y-87865343D01*
X137323004Y-87865408D01*
X137312512Y-87866811D01*
X137303104Y-87869702D01*
X137293663Y-87873841D01*
X137285137Y-87878633D01*
X137282288Y-87880455D01*
X137273726Y-87886377D01*
X137265136Y-87892872D01*
X137257478Y-87899127D01*
X137251720Y-87904116D01*
X137218560Y-87870956D01*
X137366742Y-87700669D01*
X137380213Y-87700669D01*
X137443596Y-87764052D01*
X137446186Y-87761461D01*
X137446244Y-87750832D01*
X137446386Y-87740919D01*
X137446612Y-87730265D01*
X137446924Y-87718871D01*
X137447249Y-87708809D01*
X137447395Y-87704641D01*
X137447928Y-87694265D01*
X137448663Y-87684294D01*
X137449813Y-87672863D01*
X137451254Y-87662015D01*
X137452987Y-87651750D01*
X137454303Y-87645230D01*
X137457070Y-87634052D01*
X137459941Y-87624579D01*
X137463327Y-87614963D01*
X137467227Y-87605204D01*
X137471642Y-87595301D01*
X137476571Y-87585255D01*
X137477619Y-87583229D01*
X137483254Y-87573116D01*
X137489580Y-87563071D01*
X137496598Y-87553093D01*
X137502710Y-87545159D01*
X137509265Y-87537269D01*
X137516262Y-87529421D01*
X137523702Y-87521617D01*
X137525631Y-87519673D01*
X137534291Y-87511343D01*
X137543001Y-87503625D01*
X137551761Y-87496517D01*
X137560571Y-87490021D01*
X137569431Y-87484137D01*
X137578341Y-87478863D01*
X137587301Y-87474201D01*
X137596311Y-87470150D01*
X137609919Y-87465219D01*
X137623639Y-87461663D01*
X137637472Y-87459483D01*
X137651417Y-87458678D01*
X137665475Y-87459248D01*
X137670186Y-87459744D01*
X137684324Y-87461968D01*
X137698370Y-87465273D01*
X137712326Y-87469659D01*
X137721579Y-87473183D01*
X137730792Y-87477188D01*
X137739964Y-87481673D01*
X137749096Y-87486638D01*
X137758188Y-87492084D01*
X137767239Y-87498010D01*
X137776249Y-87504416D01*
X137785219Y-87511303D01*
X137794148Y-87518670D01*
X137803037Y-87526517D01*
X137811886Y-87534845D01*
X137816295Y-87539189D01*
X138061710Y-87784604D01*
X138069014Y-87791346D01*
X138077301Y-87797615D01*
X138086547Y-87802835D01*
X138094696Y-87805846D01*
X138105106Y-87807331D01*
X138115109Y-87806590D01*
X138125713Y-87803882D01*
X138130619Y-87802047D01*
X138140283Y-87797672D01*
X138149550Y-87792976D01*
X138157389Y-87788403D01*
X138165962Y-87782437D01*
X138174331Y-87775869D01*
X138181827Y-87769571D01*
X138183813Y-87767851D01*
X138216972Y-87801011D01*
G37*
G36*
X138171820Y-86963085D02*
G01*
X138182604Y-86964078D01*
X138193409Y-86965849D01*
X138204235Y-86968396D01*
X138215083Y-86971721D01*
X138225953Y-86975822D01*
X138236909Y-86980707D01*
X138248016Y-86986552D01*
X138256445Y-86991566D01*
X138264960Y-86997121D01*
X138273560Y-87003216D01*
X138282244Y-87009851D01*
X138291014Y-87017027D01*
X138299868Y-87024743D01*
X138308808Y-87032999D01*
X138317832Y-87041796D01*
X138326422Y-87050398D01*
X138334876Y-87058888D01*
X138343196Y-87067269D01*
X138351380Y-87075538D01*
X138359430Y-87083697D01*
X138367345Y-87091746D01*
X138375125Y-87099683D01*
X138382770Y-87107511D01*
X138390280Y-87115227D01*
X138397655Y-87122833D01*
X138404895Y-87130328D01*
X138412000Y-87137712D01*
X138418970Y-87144986D01*
X138425806Y-87152150D01*
X138435806Y-87162687D01*
X138439072Y-87166144D01*
X138448919Y-87176485D01*
X138458967Y-87186978D01*
X138465776Y-87194058D01*
X138472675Y-87201205D01*
X138479663Y-87208419D01*
X138486740Y-87215701D01*
X138493906Y-87223051D01*
X138501161Y-87230468D01*
X138508505Y-87237952D01*
X138515938Y-87245504D01*
X138523460Y-87253123D01*
X138531071Y-87260810D01*
X138538772Y-87268564D01*
X138546561Y-87276386D01*
X138554439Y-87284275D01*
X138562626Y-87291833D01*
X138570713Y-87298036D01*
X138579834Y-87303466D01*
X138589940Y-87307458D01*
X138591053Y-87307763D01*
X138601262Y-87309469D01*
X138612073Y-87309536D01*
X138622187Y-87308219D01*
X138630084Y-87306381D01*
X138639419Y-87302455D01*
X138648199Y-87296549D01*
X138655879Y-87290099D01*
X138657890Y-87288247D01*
X138665068Y-87281473D01*
X138672246Y-87274599D01*
X138679424Y-87267627D01*
X138686602Y-87260555D01*
X138690704Y-87256469D01*
X138719891Y-87285657D01*
X138715255Y-87294999D01*
X138710737Y-87303919D01*
X138705470Y-87314067D01*
X138700374Y-87323607D01*
X138695448Y-87332541D01*
X138692258Y-87338159D01*
X138686431Y-87347755D01*
X138680699Y-87355980D01*
X138674288Y-87364205D01*
X138667196Y-87372430D01*
X138659424Y-87380656D01*
X138658063Y-87382026D01*
X138650950Y-87388830D01*
X138641400Y-87397004D01*
X138631774Y-87404152D01*
X138622073Y-87410275D01*
X138612296Y-87415372D01*
X138602444Y-87419445D01*
X138592516Y-87422491D01*
X138582512Y-87424512D01*
X138580000Y-87424857D01*
X138569896Y-87425559D01*
X138559793Y-87425246D01*
X138549690Y-87423918D01*
X138539586Y-87421576D01*
X138529483Y-87418219D01*
X138519380Y-87413847D01*
X138509277Y-87408461D01*
X138499173Y-87402060D01*
X138496410Y-87404824D01*
X138496860Y-87417208D01*
X138496916Y-87429361D01*
X138496577Y-87441284D01*
X138495843Y-87452976D01*
X138494715Y-87464437D01*
X138493192Y-87475668D01*
X138491274Y-87486668D01*
X138488962Y-87497437D01*
X138486255Y-87507975D01*
X138483154Y-87518283D01*
X138480867Y-87525027D01*
X138477022Y-87534982D01*
X138472613Y-87544901D01*
X138467639Y-87554784D01*
X138462101Y-87564630D01*
X138455998Y-87574440D01*
X138449330Y-87584214D01*
X138442098Y-87593951D01*
X138434301Y-87603651D01*
X138425939Y-87613315D01*
X138417013Y-87622943D01*
X138410748Y-87629341D01*
X138400531Y-87638994D01*
X138390086Y-87647744D01*
X138379414Y-87655594D01*
X138368513Y-87662541D01*
X138357385Y-87668587D01*
X138346030Y-87673731D01*
X138334447Y-87677974D01*
X138322636Y-87681315D01*
X138310597Y-87683754D01*
X138298331Y-87685292D01*
X138290027Y-87685816D01*
X138277625Y-87685822D01*
X138265485Y-87684869D01*
X138253606Y-87682956D01*
X138241987Y-87680084D01*
X138230630Y-87676253D01*
X138219534Y-87671462D01*
X138208699Y-87665712D01*
X138198126Y-87659003D01*
X138187813Y-87651335D01*
X138177761Y-87642707D01*
X138171205Y-87636422D01*
X138163115Y-87627952D01*
X138155682Y-87619381D01*
X138148907Y-87610708D01*
X138142790Y-87601935D01*
X138137330Y-87593060D01*
X138132528Y-87584084D01*
X138130792Y-87580465D01*
X138126873Y-87571310D01*
X138123536Y-87561977D01*
X138120781Y-87552467D01*
X138118608Y-87542780D01*
X138117017Y-87532916D01*
X138116007Y-87522875D01*
X138115767Y-87518809D01*
X138115372Y-87508801D01*
X138115742Y-87498465D01*
X138116878Y-87487801D01*
X138118778Y-87476809D01*
X138121444Y-87465490D01*
X138122502Y-87461644D01*
X138125351Y-87452098D01*
X138128880Y-87441088D01*
X138132531Y-87430563D01*
X138134880Y-87424314D01*
X138213264Y-87424314D01*
X138213765Y-87436153D01*
X138215059Y-87447791D01*
X138217145Y-87459226D01*
X138220225Y-87470367D01*
X138224394Y-87481229D01*
X138229650Y-87491813D01*
X138235994Y-87502119D01*
X138241853Y-87510163D01*
X138248407Y-87518029D01*
X138255658Y-87525718D01*
X138263043Y-87532732D01*
X138272894Y-87540937D01*
X138282750Y-87547830D01*
X138292612Y-87553412D01*
X138302479Y-87557682D01*
X138312352Y-87560641D01*
X138322230Y-87562289D01*
X138332113Y-87562625D01*
X138334585Y-87562504D01*
X138344402Y-87561349D01*
X138353993Y-87559266D01*
X138363356Y-87556254D01*
X138372494Y-87552314D01*
X138381404Y-87547446D01*
X138390088Y-87541650D01*
X138398545Y-87534925D01*
X138406776Y-87527272D01*
X138415025Y-87518510D01*
X138422503Y-87509494D01*
X138429209Y-87500225D01*
X138435143Y-87490701D01*
X138440305Y-87480925D01*
X138444695Y-87470894D01*
X138448314Y-87460610D01*
X138451161Y-87450072D01*
X138453401Y-87439446D01*
X138455198Y-87428894D01*
X138456553Y-87418419D01*
X138457465Y-87408019D01*
X138457934Y-87397694D01*
X138457961Y-87387445D01*
X138457546Y-87377272D01*
X138456688Y-87367174D01*
X138295899Y-87200513D01*
X138290479Y-87210392D01*
X138285229Y-87220084D01*
X138280149Y-87229587D01*
X138275239Y-87238902D01*
X138270499Y-87248029D01*
X138265929Y-87256967D01*
X138261529Y-87265717D01*
X138255927Y-87277092D01*
X138250627Y-87288131D01*
X138246850Y-87296192D01*
X138242085Y-87306835D01*
X138237632Y-87317521D01*
X138233492Y-87328250D01*
X138229666Y-87339023D01*
X138226152Y-87349838D01*
X138222952Y-87360697D01*
X138220065Y-87371599D01*
X138217490Y-87382545D01*
X138215671Y-87392583D01*
X138214360Y-87402492D01*
X138213556Y-87412271D01*
X138213264Y-87424314D01*
X138134880Y-87424314D01*
X138136304Y-87420525D01*
X138140198Y-87410972D01*
X138142190Y-87406378D01*
X138147317Y-87395612D01*
X138152505Y-87384940D01*
X138157030Y-87375736D01*
X138162098Y-87365503D01*
X138167710Y-87354240D01*
X138173865Y-87341949D01*
X138178270Y-87333183D01*
X138182917Y-87323959D01*
X138187806Y-87314278D01*
X138192935Y-87304140D01*
X138198307Y-87293544D01*
X138201083Y-87288074D01*
X138206585Y-87277207D01*
X138211821Y-87266753D01*
X138216791Y-87256714D01*
X138221495Y-87247089D01*
X138225933Y-87237878D01*
X138232092Y-87224839D01*
X138237654Y-87212732D01*
X138242617Y-87201556D01*
X138246982Y-87191313D01*
X138250749Y-87182001D01*
X138254841Y-87171036D01*
X138257213Y-87163899D01*
X138209373Y-87116059D01*
X138201956Y-87109554D01*
X138194049Y-87103347D01*
X138185117Y-87096660D01*
X138182604Y-87094817D01*
X138173414Y-87088472D01*
X138163827Y-87082888D01*
X138153844Y-87078064D01*
X138143464Y-87074000D01*
X138137355Y-87072020D01*
X138126871Y-87069478D01*
X138116144Y-87067810D01*
X138105175Y-87067016D01*
X138093962Y-87067097D01*
X138082507Y-87068053D01*
X138078635Y-87068565D01*
X138068936Y-87070602D01*
X138059162Y-87074013D01*
X138049311Y-87078799D01*
X138039385Y-87084959D01*
X138031389Y-87090877D01*
X138023345Y-87097674D01*
X138015252Y-87105352D01*
X138008497Y-87112469D01*
X138001081Y-87121277D01*
X137994419Y-87130377D01*
X137988509Y-87139767D01*
X137983352Y-87149450D01*
X137981056Y-87154400D01*
X137977012Y-87163933D01*
X137973369Y-87174102D01*
X137970622Y-87184470D01*
X137969338Y-87194534D01*
X137969312Y-87196540D01*
X137977434Y-87203561D01*
X137986448Y-87210033D01*
X137994932Y-87215520D01*
X138001781Y-87219683D01*
X138010133Y-87224866D01*
X138019218Y-87231082D01*
X138027592Y-87237480D01*
X138035255Y-87244059D01*
X138040294Y-87248870D01*
X138046672Y-87256719D01*
X138051297Y-87265758D01*
X138054171Y-87275986D01*
X138055240Y-87285701D01*
X138055147Y-87294465D01*
X138053607Y-87305278D01*
X138050281Y-87315958D01*
X138045171Y-87326505D01*
X138039549Y-87335192D01*
X138032687Y-87343786D01*
X138026305Y-87350594D01*
X138018594Y-87357470D01*
X138009073Y-87363785D01*
X137999262Y-87367986D01*
X137989158Y-87370075D01*
X137978764Y-87370051D01*
X137973457Y-87369246D01*
X137963032Y-87366569D01*
X137953129Y-87362810D01*
X137943748Y-87357971D01*
X137934890Y-87352051D01*
X137926553Y-87345050D01*
X137923890Y-87342477D01*
X137916220Y-87333701D01*
X137909788Y-87323954D01*
X137905374Y-87315089D01*
X137901820Y-87305550D01*
X137899127Y-87295336D01*
X137897294Y-87284448D01*
X137896278Y-87273046D01*
X137895928Y-87261399D01*
X137896244Y-87249508D01*
X137897226Y-87237372D01*
X137898492Y-87227487D01*
X137900184Y-87217446D01*
X137902302Y-87207248D01*
X137905321Y-87196112D01*
X137908981Y-87184722D01*
X137912370Y-87175428D01*
X137916170Y-87165973D01*
X137920380Y-87156355D01*
X137924999Y-87146576D01*
X137930030Y-87136634D01*
X137932698Y-87131603D01*
X137938220Y-87121629D01*
X137943989Y-87112001D01*
X137950007Y-87102718D01*
X137956273Y-87093780D01*
X137962787Y-87085188D01*
X137969549Y-87076942D01*
X137976560Y-87069040D01*
X137983819Y-87061484D01*
X137991419Y-87053982D01*
X137998934Y-87046759D01*
X138006363Y-87039815D01*
X138013708Y-87033150D01*
X138023369Y-87024698D01*
X138032879Y-87016743D01*
X138042237Y-87009284D01*
X138051444Y-87002322D01*
X138060501Y-86995856D01*
X138069595Y-86989930D01*
X138078915Y-86984587D01*
X138088463Y-86979827D01*
X138098237Y-86975650D01*
X138108238Y-86972055D01*
X138118465Y-86969044D01*
X138128919Y-86966615D01*
X138139600Y-86964769D01*
X138150318Y-86963431D01*
X138161059Y-86962869D01*
X138171820Y-86963085D01*
G37*
G36*
X139591710Y-86426273D02*
G01*
X139358039Y-86659944D01*
X139324880Y-86626784D01*
X139331282Y-86619120D01*
X139337752Y-86611456D01*
X139344289Y-86603793D01*
X139345604Y-86602260D01*
X139351659Y-86594572D01*
X139357345Y-86586311D01*
X139362011Y-86578254D01*
X139366108Y-86568289D01*
X139368101Y-86558405D01*
X139367990Y-86548604D01*
X139367020Y-86543194D01*
X139363580Y-86533410D01*
X139358825Y-86524758D01*
X139352473Y-86516150D01*
X139345604Y-86508653D01*
X139102262Y-86265311D01*
X139092964Y-86256419D01*
X139083656Y-86248332D01*
X139074340Y-86241050D01*
X139065014Y-86234572D01*
X139055679Y-86228898D01*
X139046336Y-86224029D01*
X139036983Y-86219965D01*
X139027621Y-86216705D01*
X139015124Y-86213610D01*
X139002611Y-86211945D01*
X138990332Y-86211513D01*
X138978540Y-86212290D01*
X138967233Y-86214276D01*
X138956412Y-86217471D01*
X138946077Y-86221875D01*
X138936227Y-86227488D01*
X138926863Y-86234310D01*
X138917985Y-86242341D01*
X138910835Y-86249845D01*
X138904175Y-86257567D01*
X138898004Y-86265510D01*
X138892322Y-86273671D01*
X138887129Y-86282052D01*
X138882425Y-86290651D01*
X138880680Y-86294153D01*
X138875886Y-86304800D01*
X138871735Y-86315630D01*
X138868227Y-86326642D01*
X138865364Y-86337836D01*
X138863143Y-86349213D01*
X138862546Y-86353045D01*
X138861408Y-86363718D01*
X138860865Y-86374126D01*
X138860917Y-86384270D01*
X138861564Y-86394149D01*
X138862201Y-86399676D01*
X138863626Y-86410017D01*
X138865332Y-86420360D01*
X138867356Y-86430250D01*
X138868418Y-86434563D01*
X139139394Y-86705538D01*
X139146715Y-86712297D01*
X139155061Y-86718625D01*
X139164425Y-86723963D01*
X139172726Y-86727126D01*
X139183392Y-86728867D01*
X139193510Y-86728241D01*
X139204121Y-86725539D01*
X139208994Y-86723672D01*
X139218270Y-86719354D01*
X139227461Y-86714605D01*
X139235591Y-86709856D01*
X139243720Y-86704331D01*
X139252032Y-86697962D01*
X139260262Y-86691134D01*
X139262187Y-86689476D01*
X139295347Y-86722636D01*
X139066685Y-86951298D01*
X139033525Y-86918139D01*
X139040350Y-86909929D01*
X139047053Y-86901924D01*
X139053041Y-86894823D01*
X139059163Y-86886868D01*
X139064911Y-86878190D01*
X139068584Y-86871681D01*
X139072751Y-86861646D01*
X139074759Y-86851747D01*
X139074459Y-86840910D01*
X139073593Y-86836622D01*
X139070153Y-86826837D01*
X139065398Y-86818186D01*
X139059046Y-86809577D01*
X139052177Y-86802080D01*
X138808835Y-86558738D01*
X138799537Y-86549846D01*
X138790229Y-86541760D01*
X138780913Y-86534477D01*
X138771587Y-86527999D01*
X138762252Y-86522326D01*
X138752908Y-86517457D01*
X138743556Y-86513392D01*
X138734194Y-86510132D01*
X138721697Y-86507037D01*
X138709184Y-86505372D01*
X138696908Y-86504937D01*
X138685123Y-86505707D01*
X138673830Y-86507679D01*
X138663028Y-86510855D01*
X138652717Y-86515235D01*
X138642897Y-86520818D01*
X138633568Y-86527605D01*
X138624730Y-86535595D01*
X138617540Y-86543157D01*
X138610863Y-86550947D01*
X138604701Y-86558964D01*
X138599054Y-86567209D01*
X138593921Y-86575681D01*
X138589302Y-86584381D01*
X138587599Y-86587925D01*
X138582869Y-86598626D01*
X138578783Y-86609484D01*
X138575340Y-86620500D01*
X138572541Y-86631674D01*
X138570385Y-86643006D01*
X138569810Y-86646818D01*
X138568646Y-86657616D01*
X138568176Y-86668248D01*
X138568400Y-86678716D01*
X138569319Y-86689017D01*
X138570155Y-86694830D01*
X138571850Y-86705613D01*
X138573473Y-86716067D01*
X138575048Y-86726433D01*
X138575509Y-86729544D01*
X138844585Y-86998620D01*
X138852724Y-87005916D01*
X138861078Y-87011745D01*
X138870735Y-87016548D01*
X138878435Y-87018999D01*
X138888564Y-87020291D01*
X138898939Y-87019697D01*
X138909560Y-87017218D01*
X138915567Y-87015027D01*
X138924772Y-87011394D01*
X138933607Y-87007187D01*
X138942896Y-87001898D01*
X138943718Y-87001383D01*
X138951932Y-86995740D01*
X138960381Y-86989388D01*
X138968188Y-86983066D01*
X138970833Y-86980831D01*
X139003992Y-87013990D01*
X138771358Y-87246625D01*
X138738198Y-87213466D01*
X138744651Y-87205933D01*
X138751272Y-87198232D01*
X138758063Y-87190363D01*
X138759441Y-87188769D01*
X138765752Y-87180791D01*
X138771565Y-87172289D01*
X138776193Y-87164072D01*
X138780387Y-87154204D01*
X138782478Y-87144418D01*
X138782333Y-87133640D01*
X138781547Y-87129358D01*
X138778205Y-87119670D01*
X138772840Y-87110038D01*
X138766375Y-87101521D01*
X138760477Y-87095162D01*
X138471713Y-86806398D01*
X138463952Y-86799522D01*
X138455695Y-86793920D01*
X138445811Y-86789140D01*
X138437690Y-86786537D01*
X138428062Y-86784529D01*
X138418174Y-86783687D01*
X138408028Y-86784011D01*
X138397622Y-86785501D01*
X138388029Y-86788408D01*
X138378031Y-86792598D01*
X138368687Y-86797464D01*
X138365499Y-86799317D01*
X138357047Y-86804487D01*
X138348790Y-86810154D01*
X138340727Y-86816318D01*
X138332858Y-86822978D01*
X138299698Y-86789818D01*
X138448916Y-86618494D01*
X138462560Y-86618321D01*
X138526979Y-86682741D01*
X138530433Y-86679287D01*
X138530483Y-86668246D01*
X138530604Y-86658045D01*
X138530798Y-86647165D01*
X138531066Y-86635604D01*
X138531344Y-86625451D01*
X138531469Y-86621257D01*
X138531890Y-86610886D01*
X138532505Y-86600927D01*
X138533499Y-86589523D01*
X138534772Y-86578713D01*
X138536324Y-86568499D01*
X138537514Y-86562019D01*
X138539953Y-86551169D01*
X138543254Y-86539991D01*
X138546663Y-86530426D01*
X138550671Y-86520633D01*
X138555278Y-86510612D01*
X138560484Y-86500363D01*
X138566334Y-86490036D01*
X138572766Y-86479885D01*
X138579779Y-86469911D01*
X138585809Y-86462060D01*
X138592211Y-86454322D01*
X138598986Y-86446697D01*
X138606133Y-86439186D01*
X138607978Y-86437326D01*
X138616826Y-86428918D01*
X138625883Y-86421181D01*
X138635150Y-86414115D01*
X138644627Y-86407720D01*
X138654313Y-86401996D01*
X138664208Y-86396943D01*
X138674313Y-86392561D01*
X138684627Y-86388849D01*
X138695151Y-86385809D01*
X138705884Y-86383440D01*
X138713156Y-86382233D01*
X138724025Y-86380872D01*
X138734743Y-86380027D01*
X138745308Y-86379698D01*
X138755722Y-86379885D01*
X138765985Y-86380588D01*
X138776095Y-86381808D01*
X138786053Y-86383543D01*
X138795860Y-86385795D01*
X138805515Y-86388562D01*
X138815018Y-86391846D01*
X138821270Y-86394322D01*
X138821481Y-86383735D01*
X138821684Y-86373560D01*
X138821917Y-86361897D01*
X138822138Y-86350828D01*
X138822346Y-86340354D01*
X138822479Y-86333702D01*
X138822910Y-86323553D01*
X138823814Y-86312662D01*
X138825193Y-86301031D01*
X138826703Y-86290772D01*
X138828542Y-86279999D01*
X138830250Y-86271010D01*
X138832409Y-86261307D01*
X138835108Y-86251520D01*
X138838346Y-86241648D01*
X138842124Y-86231693D01*
X138846441Y-86221652D01*
X138851299Y-86211528D01*
X138853393Y-86207454D01*
X138859119Y-86197251D01*
X138865503Y-86187148D01*
X138872544Y-86177147D01*
X138878651Y-86169218D01*
X138885178Y-86161355D01*
X138892127Y-86153556D01*
X138899497Y-86145822D01*
X138901405Y-86143899D01*
X138909037Y-86136573D01*
X138916779Y-86129750D01*
X138924629Y-86123431D01*
X138932589Y-86117615D01*
X138944734Y-86109835D01*
X138957125Y-86103187D01*
X138969762Y-86097671D01*
X138982644Y-86093288D01*
X138995773Y-86090037D01*
X139009147Y-86087918D01*
X139022767Y-86086932D01*
X139036634Y-86087079D01*
X139050713Y-86088442D01*
X139064908Y-86091171D01*
X139074435Y-86093749D01*
X139084013Y-86096935D01*
X139093643Y-86100728D01*
X139103324Y-86105128D01*
X139113056Y-86110135D01*
X139122840Y-86115749D01*
X139132674Y-86121970D01*
X139142560Y-86128799D01*
X139152498Y-86136235D01*
X139162486Y-86144278D01*
X139172526Y-86152928D01*
X139182617Y-86162185D01*
X139192760Y-86172050D01*
X139432648Y-86411938D01*
X139439961Y-86418705D01*
X139448278Y-86425063D01*
X139457582Y-86430461D01*
X139465808Y-86433699D01*
X139476507Y-86435440D01*
X139486714Y-86434814D01*
X139496245Y-86432515D01*
X139502421Y-86430245D01*
X139511883Y-86425742D01*
X139520839Y-86420867D01*
X139529288Y-86415622D01*
X139530918Y-86414529D01*
X139539182Y-86408653D01*
X139547783Y-86402034D01*
X139555813Y-86395444D01*
X139558551Y-86393113D01*
X139591710Y-86426273D01*
G37*
G36*
X139875811Y-86142172D02*
G01*
X139644040Y-86373943D01*
X139610880Y-86340783D01*
X139617333Y-86333069D01*
X139623955Y-86325253D01*
X139630745Y-86317336D01*
X139632123Y-86315741D01*
X139638418Y-86307780D01*
X139644172Y-86299335D01*
X139648703Y-86291217D01*
X139652870Y-86281154D01*
X139654878Y-86271174D01*
X139654728Y-86261276D01*
X139653711Y-86255812D01*
X139650244Y-86246000D01*
X139645420Y-86237279D01*
X139638954Y-86228557D01*
X139631951Y-86220925D01*
X139337314Y-85926289D01*
X139329273Y-85919133D01*
X139320692Y-85913207D01*
X139311570Y-85908512D01*
X139301910Y-85905047D01*
X139291817Y-85902726D01*
X139281574Y-85901636D01*
X139271179Y-85901776D01*
X139260633Y-85903147D01*
X139250601Y-85906210D01*
X139240477Y-85910697D01*
X139230606Y-85916061D01*
X139224019Y-85920072D01*
X139214864Y-85925898D01*
X139206287Y-85931741D01*
X139198288Y-85937600D01*
X139189855Y-85944317D01*
X139186888Y-85946841D01*
X139153728Y-85913682D01*
X139311754Y-85733550D01*
X139325225Y-85733550D01*
X139716231Y-86124556D01*
X139723744Y-86131441D01*
X139732412Y-86137853D01*
X139741166Y-86142710D01*
X139751117Y-86146317D01*
X139761177Y-86147790D01*
X139771537Y-86147161D01*
X139782197Y-86144427D01*
X139788249Y-86141999D01*
X139797347Y-86137995D01*
X139806925Y-86133318D01*
X139816055Y-86128355D01*
X139825042Y-86122563D01*
X139833353Y-86116518D01*
X139841799Y-86109732D01*
X139842652Y-86109012D01*
X139875811Y-86142172D01*
G37*
G36*
X139136803Y-85525785D02*
G01*
X139144926Y-85534802D01*
X139151810Y-85544367D01*
X139157454Y-85554481D01*
X139161859Y-85565143D01*
X139165024Y-85576353D01*
X139166949Y-85588111D01*
X139167372Y-85592967D01*
X139167519Y-85604861D01*
X139166232Y-85616148D01*
X139163511Y-85626827D01*
X139159357Y-85636899D01*
X139153770Y-85646364D01*
X139146748Y-85655222D01*
X139143539Y-85658595D01*
X139135442Y-85665722D01*
X139126696Y-85671559D01*
X139117301Y-85676105D01*
X139107257Y-85679361D01*
X139096563Y-85681326D01*
X139085220Y-85682002D01*
X139080501Y-85681911D01*
X139068931Y-85680789D01*
X139057968Y-85678504D01*
X139047613Y-85675055D01*
X139037864Y-85670442D01*
X139028723Y-85664665D01*
X139020189Y-85657725D01*
X139016945Y-85654623D01*
X139009087Y-85645880D01*
X139002461Y-85636597D01*
X138997066Y-85626774D01*
X138992901Y-85616412D01*
X138989968Y-85605510D01*
X138988267Y-85594068D01*
X138987931Y-85589340D01*
X138987991Y-85577638D01*
X138989358Y-85566602D01*
X138992032Y-85556232D01*
X138996013Y-85546528D01*
X139001301Y-85537491D01*
X139007896Y-85529119D01*
X139010901Y-85525957D01*
X139019755Y-85518031D01*
X139029048Y-85511520D01*
X139038780Y-85506427D01*
X139048950Y-85502750D01*
X139059558Y-85500490D01*
X139070605Y-85499647D01*
X139075147Y-85499706D01*
X139086306Y-85500616D01*
X139096901Y-85502698D01*
X139106930Y-85505952D01*
X139116394Y-85510379D01*
X139125293Y-85515977D01*
X139133628Y-85522748D01*
X139136803Y-85525785D01*
G37*
G36*
X140165093Y-85874996D02*
G01*
X140152009Y-85887550D01*
X140138747Y-85899220D01*
X140125310Y-85910007D01*
X140111695Y-85919910D01*
X140097903Y-85928929D01*
X140083935Y-85937065D01*
X140069790Y-85944316D01*
X140055468Y-85950684D01*
X140040970Y-85956168D01*
X140026294Y-85960769D01*
X140011442Y-85964485D01*
X139996414Y-85967318D01*
X139981208Y-85969267D01*
X139965826Y-85970332D01*
X139950267Y-85970514D01*
X139934531Y-85969811D01*
X139918755Y-85968256D01*
X139903074Y-85965880D01*
X139887490Y-85962681D01*
X139872001Y-85958661D01*
X139856608Y-85953819D01*
X139841310Y-85948156D01*
X139826109Y-85941670D01*
X139811003Y-85934363D01*
X139795993Y-85926235D01*
X139781079Y-85917284D01*
X139766261Y-85907512D01*
X139751538Y-85896919D01*
X139736912Y-85885503D01*
X139722381Y-85873266D01*
X139707946Y-85860207D01*
X139700764Y-85853370D01*
X139693606Y-85846327D01*
X139684475Y-85836919D01*
X139675731Y-85827347D01*
X139667377Y-85817611D01*
X139659411Y-85807711D01*
X139651833Y-85797647D01*
X139644644Y-85787419D01*
X139637844Y-85777027D01*
X139631432Y-85766472D01*
X139625409Y-85755752D01*
X139619775Y-85744869D01*
X139616234Y-85737522D01*
X139611252Y-85726391D01*
X139606667Y-85715148D01*
X139602480Y-85703792D01*
X139598691Y-85692324D01*
X139595300Y-85680744D01*
X139592306Y-85669052D01*
X139589710Y-85657247D01*
X139587511Y-85645330D01*
X139585710Y-85633300D01*
X139584307Y-85621158D01*
X139583593Y-85613001D01*
X139582833Y-85601236D01*
X139582563Y-85589449D01*
X139582781Y-85577641D01*
X139583488Y-85565812D01*
X139584683Y-85553962D01*
X139586368Y-85542090D01*
X139588541Y-85530197D01*
X139591203Y-85518283D01*
X139594353Y-85506347D01*
X139597993Y-85494391D01*
X139600691Y-85486408D01*
X139605122Y-85474508D01*
X139610059Y-85462836D01*
X139615504Y-85451391D01*
X139621456Y-85440174D01*
X139627915Y-85429185D01*
X139634880Y-85418423D01*
X139642353Y-85407889D01*
X139650333Y-85397583D01*
X139658820Y-85387505D01*
X139667813Y-85377654D01*
X139674091Y-85371213D01*
X139682907Y-85362661D01*
X139691785Y-85354577D01*
X139700723Y-85346961D01*
X139709722Y-85339813D01*
X139718782Y-85333133D01*
X139727902Y-85326922D01*
X139737083Y-85321179D01*
X139746325Y-85315904D01*
X139755627Y-85311097D01*
X139764991Y-85306759D01*
X139774415Y-85302888D01*
X139783899Y-85299486D01*
X139793445Y-85296552D01*
X139803051Y-85294086D01*
X139812717Y-85292089D01*
X139822445Y-85290559D01*
X139836909Y-85289221D01*
X139851026Y-85289090D01*
X139864798Y-85290168D01*
X139878224Y-85292454D01*
X139891303Y-85295948D01*
X139904036Y-85300651D01*
X139916424Y-85306561D01*
X139928465Y-85313680D01*
X139940160Y-85322008D01*
X139947764Y-85328231D01*
X139955215Y-85334990D01*
X139958883Y-85338572D01*
X139966071Y-85346333D01*
X139972416Y-85354399D01*
X139977917Y-85362767D01*
X139982576Y-85371440D01*
X139987052Y-85382247D01*
X139990315Y-85393492D01*
X139991786Y-85404698D01*
X139990890Y-85415650D01*
X139987625Y-85426346D01*
X139983096Y-85435065D01*
X139976922Y-85443606D01*
X139970799Y-85450312D01*
X139963605Y-85457053D01*
X139954536Y-85464280D01*
X139945383Y-85470175D01*
X139936146Y-85474737D01*
X139926824Y-85477967D01*
X139915527Y-85480084D01*
X139911734Y-85480363D01*
X139900837Y-85480149D01*
X139890815Y-85478598D01*
X139880227Y-85475101D01*
X139870830Y-85469786D01*
X139863722Y-85463783D01*
X139855719Y-85455380D01*
X139849292Y-85448006D01*
X139843083Y-85440295D01*
X139837094Y-85432247D01*
X139831324Y-85423861D01*
X139825774Y-85415138D01*
X139824690Y-85413353D01*
X139819528Y-85404758D01*
X139813813Y-85395545D01*
X139807805Y-85386316D01*
X139801809Y-85377773D01*
X139797921Y-85372767D01*
X139787635Y-85370999D01*
X139777482Y-85370982D01*
X139767461Y-85372718D01*
X139757572Y-85376205D01*
X139751981Y-85378985D01*
X139742341Y-85384587D01*
X139732917Y-85390966D01*
X139725009Y-85397051D01*
X139717260Y-85403708D01*
X139709668Y-85410935D01*
X139702677Y-85418407D01*
X139696277Y-85426250D01*
X139690466Y-85434463D01*
X139685246Y-85443048D01*
X139680617Y-85452004D01*
X139676577Y-85461330D01*
X139675127Y-85465165D01*
X139671991Y-85475147D01*
X139669706Y-85485880D01*
X139668274Y-85497363D01*
X139667692Y-85509596D01*
X139667841Y-85519924D01*
X139668534Y-85530731D01*
X139669773Y-85542019D01*
X139671605Y-85552622D01*
X139674166Y-85563532D01*
X139677456Y-85574750D01*
X139681474Y-85586275D01*
X139686221Y-85598108D01*
X139690259Y-85607185D01*
X139694707Y-85616434D01*
X139699565Y-85625857D01*
X139704832Y-85635453D01*
X139710573Y-85645144D01*
X139716783Y-85654917D01*
X139723465Y-85664772D01*
X139730617Y-85674708D01*
X139738239Y-85684727D01*
X139746332Y-85694828D01*
X139754896Y-85705011D01*
X139763930Y-85715275D01*
X139773435Y-85725622D01*
X139783410Y-85736051D01*
X139790322Y-85743049D01*
X139801425Y-85753839D01*
X139812587Y-85764062D01*
X139823807Y-85773717D01*
X139835085Y-85782803D01*
X139846421Y-85791322D01*
X139857815Y-85799272D01*
X139869266Y-85806655D01*
X139880776Y-85813469D01*
X139892344Y-85819716D01*
X139903970Y-85825394D01*
X139915654Y-85830505D01*
X139927396Y-85835047D01*
X139939196Y-85839021D01*
X139951054Y-85842427D01*
X139962970Y-85845265D01*
X139974944Y-85847536D01*
X139986806Y-85849184D01*
X139998427Y-85850202D01*
X140009808Y-85850588D01*
X140020949Y-85850342D01*
X140031849Y-85849465D01*
X140042510Y-85847957D01*
X140052930Y-85845817D01*
X140063110Y-85843045D01*
X140073050Y-85839642D01*
X140082750Y-85835608D01*
X140092210Y-85830942D01*
X140101430Y-85825645D01*
X140110409Y-85819716D01*
X140119148Y-85813156D01*
X140127647Y-85805965D01*
X140135906Y-85798142D01*
X140144412Y-85789238D01*
X140152251Y-85780206D01*
X140159422Y-85771047D01*
X140165924Y-85761760D01*
X140171759Y-85752346D01*
X140176926Y-85742804D01*
X140181425Y-85733135D01*
X140185257Y-85723339D01*
X140188420Y-85713414D01*
X140190915Y-85703363D01*
X140192208Y-85696591D01*
X140193655Y-85686200D01*
X140194629Y-85675494D01*
X140195129Y-85664472D01*
X140195155Y-85653134D01*
X140194708Y-85641480D01*
X140193787Y-85629511D01*
X140192392Y-85617226D01*
X140190524Y-85604625D01*
X140188183Y-85591708D01*
X140185367Y-85578476D01*
X140183227Y-85569479D01*
X140234694Y-85558772D01*
X140237609Y-85569877D01*
X140240182Y-85580959D01*
X140242413Y-85592016D01*
X140244300Y-85603049D01*
X140245845Y-85614058D01*
X140247048Y-85625042D01*
X140247907Y-85636002D01*
X140248424Y-85646938D01*
X140248598Y-85657849D01*
X140248429Y-85668737D01*
X140247918Y-85679599D01*
X140247064Y-85690438D01*
X140245867Y-85701252D01*
X140244327Y-85712043D01*
X140242445Y-85722808D01*
X140240220Y-85733550D01*
X140237660Y-85744141D01*
X140234815Y-85754498D01*
X140231685Y-85764623D01*
X140228271Y-85774513D01*
X140224572Y-85784171D01*
X140220588Y-85793595D01*
X140216320Y-85802785D01*
X140211767Y-85811742D01*
X140206929Y-85820466D01*
X140201807Y-85828956D01*
X140196400Y-85837213D01*
X140190708Y-85845236D01*
X140184731Y-85853026D01*
X140178470Y-85860583D01*
X140171924Y-85867906D01*
X140165093Y-85874996D01*
G37*
G36*
X140643316Y-84667264D02*
G01*
X140617064Y-84693516D01*
X140607341Y-84688656D01*
X140597775Y-84684006D01*
X140588365Y-84679567D01*
X140579112Y-84675338D01*
X140570015Y-84671320D01*
X140558865Y-84666594D01*
X140547958Y-84662196D01*
X140543664Y-84660529D01*
X140532843Y-84656581D01*
X140521752Y-84653155D01*
X140510391Y-84650252D01*
X140498761Y-84647873D01*
X140486860Y-84646016D01*
X140477146Y-84644907D01*
X140469746Y-84644294D01*
X140458304Y-84643819D01*
X140446863Y-84644119D01*
X140435421Y-84645195D01*
X140423979Y-84647047D01*
X140412537Y-84649675D01*
X140401096Y-84653078D01*
X140396519Y-84654657D01*
X140387409Y-84658262D01*
X140378299Y-84662601D01*
X140369188Y-84667675D01*
X140360078Y-84673482D01*
X140350968Y-84680023D01*
X140341858Y-84687298D01*
X140332747Y-84695307D01*
X140323637Y-84704051D01*
X140316639Y-84711480D01*
X140310239Y-84719176D01*
X140304436Y-84727137D01*
X140296853Y-84739578D01*
X140290615Y-84752616D01*
X140285722Y-84766253D01*
X140282174Y-84780487D01*
X140280555Y-84790309D01*
X140279534Y-84800397D01*
X140279111Y-84810750D01*
X140279286Y-84821370D01*
X140280059Y-84832255D01*
X140281429Y-84843406D01*
X140283397Y-84854823D01*
X140285947Y-84866366D01*
X140289107Y-84877938D01*
X140292877Y-84889541D01*
X140297256Y-84901173D01*
X140302246Y-84912834D01*
X140307845Y-84924526D01*
X140314055Y-84936247D01*
X140320874Y-84947998D01*
X140328303Y-84959778D01*
X140336342Y-84971588D01*
X140344991Y-84983428D01*
X140354249Y-84995297D01*
X140364118Y-85007197D01*
X140374596Y-85019125D01*
X140385684Y-85031084D01*
X140397382Y-85043072D01*
X140408722Y-85054061D01*
X140420118Y-85064404D01*
X140431568Y-85074100D01*
X140443074Y-85083151D01*
X140454635Y-85091555D01*
X140466252Y-85099312D01*
X140477923Y-85106423D01*
X140489651Y-85112888D01*
X140501433Y-85118707D01*
X140513271Y-85123880D01*
X140525164Y-85128406D01*
X140537112Y-85132285D01*
X140549116Y-85135519D01*
X140561175Y-85138106D01*
X140573289Y-85140047D01*
X140585459Y-85141342D01*
X140597539Y-85142019D01*
X140609384Y-85142108D01*
X140620995Y-85141609D01*
X140632370Y-85140521D01*
X140643511Y-85138846D01*
X140654417Y-85136581D01*
X140665089Y-85133729D01*
X140675525Y-85130289D01*
X140685727Y-85126260D01*
X140695694Y-85121642D01*
X140705426Y-85116437D01*
X140714924Y-85110643D01*
X140724186Y-85104261D01*
X140733214Y-85097291D01*
X140742007Y-85089732D01*
X140750566Y-85081585D01*
X140759412Y-85072293D01*
X140767556Y-85062810D01*
X140775000Y-85053135D01*
X140781742Y-85043269D01*
X140787783Y-85033212D01*
X140793122Y-85022963D01*
X140797761Y-85012524D01*
X140801697Y-85001893D01*
X140804933Y-84991070D01*
X140807468Y-84980057D01*
X140808768Y-84972608D01*
X140810105Y-84961166D01*
X140810751Y-84949378D01*
X140810705Y-84937244D01*
X140809966Y-84924763D01*
X140808535Y-84911937D01*
X140806412Y-84898764D01*
X140803597Y-84885246D01*
X140800089Y-84871381D01*
X140797366Y-84861946D01*
X140794336Y-84852356D01*
X140790998Y-84842613D01*
X140787352Y-84832716D01*
X140827593Y-84816655D01*
X140832203Y-84827954D01*
X140835691Y-84837255D01*
X140839000Y-84846787D01*
X140842132Y-84856552D01*
X140845086Y-84866548D01*
X140847861Y-84876777D01*
X140850458Y-84887238D01*
X140852289Y-84895236D01*
X140854465Y-84905960D01*
X140856240Y-84916630D01*
X140857616Y-84927246D01*
X140858593Y-84937808D01*
X140859171Y-84948316D01*
X140859349Y-84958770D01*
X140859128Y-84969170D01*
X140858507Y-84979516D01*
X140857320Y-84991125D01*
X140855744Y-85002551D01*
X140853779Y-85013793D01*
X140851426Y-85024852D01*
X140848684Y-85035727D01*
X140845554Y-85046418D01*
X140842035Y-85056926D01*
X140838128Y-85067251D01*
X140833621Y-85077424D01*
X140828305Y-85087652D01*
X140822179Y-85097933D01*
X140815244Y-85108269D01*
X140807499Y-85118658D01*
X140801159Y-85126485D01*
X140794364Y-85134343D01*
X140787114Y-85142231D01*
X140779408Y-85150150D01*
X140769588Y-85159684D01*
X140759622Y-85168794D01*
X140749511Y-85177478D01*
X140739254Y-85185738D01*
X140728851Y-85193572D01*
X140718302Y-85200982D01*
X140707608Y-85207966D01*
X140696768Y-85214526D01*
X140685782Y-85220660D01*
X140674651Y-85226370D01*
X140667149Y-85229940D01*
X140655816Y-85234850D01*
X140644419Y-85239284D01*
X140632958Y-85243241D01*
X140621433Y-85246722D01*
X140609845Y-85249726D01*
X140598193Y-85252253D01*
X140586477Y-85254304D01*
X140574697Y-85255878D01*
X140562854Y-85256975D01*
X140550947Y-85257596D01*
X140542973Y-85257745D01*
X140531200Y-85257572D01*
X140519454Y-85256922D01*
X140507735Y-85255795D01*
X140496043Y-85254191D01*
X140484379Y-85252111D01*
X140472742Y-85249555D01*
X140461133Y-85246521D01*
X140449550Y-85243011D01*
X140437995Y-85239025D01*
X140426468Y-85234562D01*
X140418798Y-85231321D01*
X140407361Y-85225996D01*
X140396043Y-85220188D01*
X140384844Y-85213897D01*
X140373762Y-85207124D01*
X140362799Y-85199868D01*
X140351955Y-85192129D01*
X140341229Y-85183907D01*
X140330621Y-85175203D01*
X140320132Y-85166016D01*
X140309761Y-85156346D01*
X140302912Y-85149632D01*
X140293388Y-85139783D01*
X140284311Y-85129731D01*
X140275679Y-85119475D01*
X140267494Y-85109016D01*
X140259755Y-85098354D01*
X140252463Y-85087488D01*
X140245616Y-85076419D01*
X140239216Y-85065146D01*
X140233263Y-85053670D01*
X140227755Y-85041991D01*
X140224331Y-85034091D01*
X140219544Y-85022104D01*
X140215222Y-85010041D01*
X140211364Y-84997903D01*
X140207970Y-84985688D01*
X140205041Y-84973397D01*
X140202576Y-84961031D01*
X140200576Y-84948588D01*
X140199041Y-84936070D01*
X140197970Y-84923476D01*
X140197363Y-84910806D01*
X140197216Y-84902317D01*
X140197462Y-84890064D01*
X140198200Y-84877787D01*
X140199430Y-84865486D01*
X140201151Y-84853161D01*
X140203364Y-84840811D01*
X140206069Y-84828437D01*
X140209266Y-84816038D01*
X140212954Y-84803616D01*
X140217135Y-84791169D01*
X140221807Y-84778697D01*
X140225195Y-84770370D01*
X140230668Y-84757982D01*
X140236597Y-84745820D01*
X140242982Y-84733882D01*
X140249822Y-84722169D01*
X140257117Y-84710680D01*
X140264867Y-84699416D01*
X140273073Y-84688377D01*
X140281734Y-84677562D01*
X140290851Y-84666972D01*
X140300423Y-84656607D01*
X140307057Y-84649821D01*
X140314335Y-84642845D01*
X140322007Y-84636080D01*
X140330073Y-84629525D01*
X140338533Y-84623181D01*
X140347387Y-84617047D01*
X140356635Y-84611124D01*
X140366277Y-84605411D01*
X140376312Y-84599909D01*
X140386332Y-84594790D01*
X140395925Y-84590227D01*
X140405092Y-84586219D01*
X140415951Y-84581992D01*
X140426144Y-84578633D01*
X140435671Y-84576143D01*
X140444531Y-84574521D01*
X140435378Y-84521501D01*
X140464047Y-84492832D01*
X140643316Y-84667264D01*
G37*
G36*
X140542081Y-84307347D02*
G01*
X140557626Y-84307871D01*
X140573027Y-84308744D01*
X140588284Y-84309966D01*
X140603399Y-84311537D01*
X140618370Y-84313457D01*
X140633197Y-84315726D01*
X140647881Y-84318345D01*
X140662422Y-84321312D01*
X140676820Y-84324629D01*
X140691074Y-84328295D01*
X140705185Y-84332310D01*
X140719152Y-84336674D01*
X140732976Y-84341387D01*
X140746657Y-84346449D01*
X140760194Y-84351860D01*
X140773588Y-84357621D01*
X140786839Y-84363731D01*
X140799946Y-84370189D01*
X140812910Y-84376997D01*
X140825730Y-84384154D01*
X140838408Y-84391660D01*
X140850941Y-84399516D01*
X140863332Y-84407720D01*
X140875579Y-84416273D01*
X140887683Y-84425176D01*
X140899643Y-84434428D01*
X140911460Y-84444029D01*
X140923134Y-84453979D01*
X140934664Y-84464278D01*
X140946051Y-84474926D01*
X140957295Y-84485923D01*
X140968292Y-84497167D01*
X140978940Y-84508554D01*
X140989239Y-84520084D01*
X140999189Y-84531758D01*
X141008790Y-84543575D01*
X141018042Y-84555535D01*
X141026944Y-84567639D01*
X141035498Y-84579886D01*
X141043702Y-84592276D01*
X141051558Y-84604810D01*
X141059064Y-84617487D01*
X141066221Y-84630308D01*
X141073029Y-84643272D01*
X141079487Y-84656379D01*
X141085597Y-84669630D01*
X141091357Y-84683024D01*
X141096769Y-84696561D01*
X141101831Y-84710242D01*
X141106544Y-84724066D01*
X141110908Y-84738033D01*
X141114923Y-84752144D01*
X141118589Y-84766398D01*
X141121906Y-84780796D01*
X141124873Y-84795336D01*
X141127492Y-84810021D01*
X141129761Y-84824848D01*
X141131681Y-84839819D01*
X141133252Y-84854933D01*
X141134474Y-84870191D01*
X141135347Y-84885592D01*
X141135871Y-84901136D01*
X141136045Y-84916824D01*
X141135893Y-84932511D01*
X141135392Y-84948053D01*
X141134543Y-84963450D01*
X141133347Y-84978701D01*
X141131802Y-84993808D01*
X141129909Y-85008770D01*
X141127668Y-85023586D01*
X141125078Y-85038258D01*
X141122141Y-85052784D01*
X141118855Y-85067166D01*
X141115222Y-85081402D01*
X141111240Y-85095494D01*
X141106910Y-85109440D01*
X141102233Y-85123241D01*
X141097207Y-85136898D01*
X141091832Y-85150409D01*
X141086110Y-85163775D01*
X141080040Y-85176996D01*
X141073621Y-85190072D01*
X141066855Y-85203003D01*
X141059740Y-85215789D01*
X141052277Y-85228430D01*
X141044466Y-85240926D01*
X141036307Y-85253277D01*
X141027800Y-85265482D01*
X141018945Y-85277543D01*
X141009742Y-85289459D01*
X141000190Y-85301229D01*
X140990291Y-85312855D01*
X140980043Y-85324336D01*
X140969447Y-85335671D01*
X140958504Y-85346862D01*
X140947324Y-85357795D01*
X140935998Y-85368380D01*
X140924528Y-85378618D01*
X140912912Y-85388508D01*
X140901151Y-85398050D01*
X140889244Y-85407244D01*
X140877192Y-85416091D01*
X140864994Y-85424590D01*
X140852651Y-85432741D01*
X140840163Y-85440544D01*
X140827529Y-85448000D01*
X140814750Y-85455108D01*
X140801826Y-85461868D01*
X140788756Y-85468280D01*
X140775541Y-85474344D01*
X140762180Y-85480061D01*
X140748674Y-85485430D01*
X140735023Y-85490451D01*
X140721226Y-85495124D01*
X140707284Y-85499450D01*
X140693197Y-85503428D01*
X140678964Y-85507058D01*
X140664585Y-85510340D01*
X140650062Y-85513274D01*
X140635393Y-85515861D01*
X140620578Y-85518100D01*
X140605619Y-85519991D01*
X140590513Y-85521535D01*
X140575263Y-85522730D01*
X140559867Y-85523578D01*
X140544326Y-85524078D01*
X140528639Y-85524230D01*
X140512972Y-85524035D01*
X140497449Y-85523490D01*
X140482068Y-85522598D01*
X140466829Y-85521356D01*
X140451733Y-85519767D01*
X140436780Y-85517829D01*
X140421970Y-85515542D01*
X140407302Y-85512907D01*
X140392777Y-85509924D01*
X140378395Y-85506592D01*
X140364155Y-85502912D01*
X140350058Y-85498883D01*
X140336104Y-85494506D01*
X140322293Y-85489780D01*
X140308624Y-85484706D01*
X140295097Y-85479284D01*
X140281714Y-85473513D01*
X140268473Y-85467393D01*
X140255375Y-85460925D01*
X140242420Y-85454109D01*
X140229607Y-85446944D01*
X140216937Y-85439431D01*
X140204409Y-85431570D01*
X140192025Y-85423359D01*
X140179782Y-85414801D01*
X140167683Y-85405894D01*
X140155726Y-85396638D01*
X140143912Y-85387035D01*
X140132241Y-85377082D01*
X140120713Y-85366781D01*
X140109327Y-85356132D01*
X140098083Y-85345134D01*
X140087086Y-85333891D01*
X140076436Y-85322505D01*
X140066136Y-85310977D01*
X140056183Y-85299305D01*
X140046579Y-85287491D01*
X140037324Y-85275535D01*
X140028417Y-85263435D01*
X140019858Y-85251193D01*
X140011648Y-85238809D01*
X140003787Y-85226281D01*
X139996273Y-85213611D01*
X139989109Y-85200798D01*
X139982292Y-85187843D01*
X139975825Y-85174745D01*
X139969705Y-85161504D01*
X139963934Y-85148120D01*
X139958512Y-85134594D01*
X139953438Y-85120925D01*
X139948712Y-85107114D01*
X139944335Y-85093159D01*
X139940306Y-85079063D01*
X139936626Y-85064823D01*
X139933294Y-85050441D01*
X139930311Y-85035916D01*
X139927676Y-85021248D01*
X139925389Y-85006438D01*
X139923451Y-84991485D01*
X139921861Y-84976389D01*
X139920620Y-84961150D01*
X139919728Y-84945769D01*
X139919183Y-84930245D01*
X139918987Y-84914579D01*
X139919140Y-84898892D01*
X139919171Y-84897924D01*
X139982972Y-84897924D01*
X139983061Y-84911988D01*
X139983461Y-84926052D01*
X139984164Y-84939986D01*
X139985169Y-84953788D01*
X139986478Y-84967459D01*
X139988089Y-84981000D01*
X139990003Y-84994410D01*
X139992220Y-85007688D01*
X139994741Y-85020836D01*
X139997564Y-85033853D01*
X140000689Y-85046739D01*
X140004118Y-85059495D01*
X140007850Y-85072119D01*
X140011885Y-85084613D01*
X140016222Y-85096975D01*
X140020863Y-85109207D01*
X140025806Y-85121308D01*
X140031052Y-85133278D01*
X140036601Y-85145117D01*
X140042454Y-85156825D01*
X140048609Y-85168403D01*
X140055066Y-85179849D01*
X140061827Y-85191165D01*
X140068891Y-85202349D01*
X140076258Y-85213403D01*
X140083927Y-85224326D01*
X140091900Y-85235118D01*
X140100175Y-85245779D01*
X140108753Y-85256310D01*
X140117635Y-85266709D01*
X140126819Y-85276978D01*
X140136306Y-85287115D01*
X140146096Y-85297122D01*
X140156102Y-85306912D01*
X140166240Y-85316399D01*
X140176509Y-85325583D01*
X140186908Y-85334465D01*
X140197438Y-85343043D01*
X140208100Y-85351318D01*
X140218892Y-85359291D01*
X140229815Y-85366960D01*
X140240869Y-85374327D01*
X140252053Y-85381391D01*
X140263369Y-85388151D01*
X140274815Y-85394609D01*
X140286393Y-85400764D01*
X140298101Y-85406616D01*
X140309940Y-85412166D01*
X140321910Y-85417412D01*
X140334011Y-85422355D01*
X140346243Y-85426996D01*
X140358605Y-85431333D01*
X140371099Y-85435368D01*
X140383723Y-85439100D01*
X140396478Y-85442528D01*
X140409365Y-85445654D01*
X140422382Y-85448477D01*
X140435530Y-85450997D01*
X140448808Y-85453215D01*
X140462218Y-85455129D01*
X140475759Y-85456740D01*
X140489430Y-85458049D01*
X140503232Y-85459054D01*
X140517165Y-85459757D01*
X140531229Y-85460157D01*
X140545294Y-85460245D01*
X140559227Y-85460016D01*
X140573031Y-85459467D01*
X140586703Y-85458599D01*
X140600245Y-85457413D01*
X140613657Y-85455908D01*
X140626938Y-85454085D01*
X140640088Y-85451942D01*
X140653108Y-85449481D01*
X140665997Y-85446701D01*
X140678756Y-85443602D01*
X140691384Y-85440185D01*
X140703882Y-85436448D01*
X140716249Y-85432393D01*
X140728486Y-85428020D01*
X140740592Y-85423327D01*
X140752568Y-85418316D01*
X140764413Y-85412986D01*
X140776127Y-85407337D01*
X140787711Y-85401369D01*
X140799164Y-85395083D01*
X140810487Y-85388478D01*
X140821680Y-85381554D01*
X140832741Y-85374311D01*
X140843673Y-85366750D01*
X140854473Y-85358869D01*
X140865143Y-85350670D01*
X140875683Y-85342153D01*
X140886092Y-85333316D01*
X140896371Y-85324161D01*
X140906519Y-85314687D01*
X140916536Y-85304894D01*
X140926340Y-85294866D01*
X140935824Y-85284707D01*
X140944991Y-85274418D01*
X140953838Y-85263998D01*
X140962366Y-85253447D01*
X140970576Y-85242767D01*
X140978467Y-85231955D01*
X140986039Y-85221013D01*
X140993293Y-85209940D01*
X141000228Y-85198737D01*
X141006843Y-85187404D01*
X141013141Y-85175940D01*
X141019119Y-85164345D01*
X141024779Y-85152620D01*
X141030120Y-85140764D01*
X141035142Y-85128777D01*
X141039845Y-85116660D01*
X141044230Y-85104413D01*
X141048296Y-85092035D01*
X141052043Y-85079527D01*
X141055471Y-85066887D01*
X141058580Y-85054118D01*
X141061371Y-85041218D01*
X141063843Y-85028187D01*
X141065997Y-85015026D01*
X141067831Y-85001734D01*
X141069347Y-84988312D01*
X141070544Y-84974759D01*
X141071422Y-84961075D01*
X141071981Y-84947262D01*
X141072222Y-84933317D01*
X141072144Y-84919242D01*
X141071755Y-84905167D01*
X141071063Y-84891224D01*
X141070067Y-84877412D01*
X141068768Y-84863731D01*
X141067166Y-84850181D01*
X141065261Y-84836762D01*
X141063052Y-84823475D01*
X141060540Y-84810319D01*
X141057725Y-84797294D01*
X141054607Y-84784400D01*
X141051185Y-84771637D01*
X141047461Y-84759006D01*
X141043432Y-84746506D01*
X141039101Y-84734137D01*
X141034467Y-84721900D01*
X141029529Y-84709793D01*
X141024288Y-84697818D01*
X141018743Y-84685974D01*
X141012896Y-84674261D01*
X141006745Y-84662680D01*
X141000291Y-84651229D01*
X140993534Y-84639910D01*
X140986473Y-84628722D01*
X140979110Y-84617665D01*
X140971442Y-84606740D01*
X140963472Y-84595946D01*
X140955199Y-84585283D01*
X140946622Y-84574751D01*
X140937742Y-84564350D01*
X140928559Y-84554081D01*
X140919072Y-84543942D01*
X140909282Y-84533935D01*
X140899275Y-84524146D01*
X140889137Y-84514659D01*
X140878868Y-84505476D01*
X140868467Y-84496596D01*
X140857935Y-84488019D01*
X140847272Y-84479746D01*
X140836478Y-84471775D01*
X140825552Y-84464108D01*
X140814496Y-84456745D01*
X140803308Y-84449684D01*
X140791989Y-84442927D01*
X140780538Y-84436473D01*
X140768957Y-84430322D01*
X140757244Y-84424474D01*
X140745400Y-84418930D01*
X140733425Y-84413689D01*
X140721318Y-84408751D01*
X140709081Y-84404117D01*
X140696712Y-84399785D01*
X140684212Y-84395757D01*
X140671580Y-84392033D01*
X140658818Y-84388611D01*
X140645924Y-84385493D01*
X140632899Y-84382678D01*
X140619743Y-84380166D01*
X140606456Y-84377957D01*
X140593037Y-84376052D01*
X140579487Y-84374450D01*
X140565806Y-84373151D01*
X140551994Y-84372155D01*
X140538050Y-84371463D01*
X140523976Y-84371074D01*
X140509901Y-84370996D01*
X140495956Y-84371237D01*
X140482142Y-84371796D01*
X140468459Y-84372674D01*
X140454906Y-84373871D01*
X140441484Y-84375387D01*
X140428192Y-84377221D01*
X140415031Y-84379375D01*
X140402000Y-84381847D01*
X140389100Y-84384637D01*
X140376330Y-84387747D01*
X140363691Y-84391175D01*
X140351183Y-84394922D01*
X140338805Y-84398988D01*
X140326557Y-84403373D01*
X140314441Y-84408076D01*
X140302454Y-84413098D01*
X140290598Y-84418439D01*
X140278873Y-84424099D01*
X140267278Y-84430077D01*
X140255814Y-84436374D01*
X140244481Y-84442990D01*
X140233277Y-84449925D01*
X140222205Y-84457179D01*
X140211263Y-84464751D01*
X140200451Y-84472642D01*
X140189770Y-84480852D01*
X140179220Y-84489380D01*
X140168800Y-84498227D01*
X140158511Y-84507393D01*
X140148352Y-84516878D01*
X140138324Y-84526682D01*
X140128531Y-84536699D01*
X140119057Y-84546847D01*
X140109902Y-84557126D01*
X140101065Y-84567535D01*
X140092548Y-84578074D01*
X140084349Y-84588745D01*
X140076468Y-84599545D01*
X140068907Y-84610477D01*
X140061664Y-84621538D01*
X140054740Y-84632731D01*
X140048135Y-84644053D01*
X140041849Y-84655507D01*
X140035881Y-84667091D01*
X140030232Y-84678805D01*
X140024902Y-84690650D01*
X140019891Y-84702626D01*
X140015198Y-84714732D01*
X140010824Y-84726969D01*
X140006769Y-84739336D01*
X140003033Y-84751833D01*
X139999616Y-84764462D01*
X139996517Y-84777221D01*
X139993737Y-84790110D01*
X139991276Y-84803130D01*
X139989133Y-84816280D01*
X139987309Y-84829561D01*
X139985805Y-84842973D01*
X139984618Y-84856515D01*
X139983751Y-84870187D01*
X139983202Y-84883991D01*
X139982972Y-84897924D01*
X139919171Y-84897924D01*
X139919640Y-84883351D01*
X139920488Y-84867955D01*
X139921683Y-84852704D01*
X139923227Y-84837599D01*
X139925118Y-84822639D01*
X139927357Y-84807825D01*
X139929944Y-84793156D01*
X139932878Y-84778632D01*
X139936160Y-84764254D01*
X139939790Y-84750021D01*
X139943768Y-84735934D01*
X139948094Y-84721992D01*
X139952767Y-84708195D01*
X139957788Y-84694544D01*
X139963157Y-84681038D01*
X139968874Y-84667677D01*
X139974938Y-84654462D01*
X139981350Y-84641392D01*
X139988110Y-84628468D01*
X139995218Y-84615689D01*
X140002674Y-84603055D01*
X140010477Y-84590567D01*
X140018628Y-84578224D01*
X140027127Y-84566026D01*
X140035973Y-84553974D01*
X140045168Y-84542067D01*
X140054710Y-84530306D01*
X140064600Y-84518690D01*
X140074838Y-84507219D01*
X140085423Y-84495894D01*
X140096356Y-84484714D01*
X140107547Y-84473770D01*
X140118882Y-84463175D01*
X140130363Y-84452927D01*
X140141988Y-84443027D01*
X140153759Y-84433476D01*
X140165675Y-84424273D01*
X140177735Y-84415417D01*
X140189941Y-84406910D01*
X140202292Y-84398751D01*
X140214788Y-84390940D01*
X140227429Y-84383478D01*
X140240215Y-84376363D01*
X140253146Y-84369596D01*
X140266222Y-84363178D01*
X140279443Y-84357108D01*
X140292809Y-84351385D01*
X140306320Y-84346011D01*
X140319977Y-84340985D01*
X140333778Y-84336307D01*
X140347724Y-84331978D01*
X140361816Y-84327996D01*
X140376052Y-84324362D01*
X140390433Y-84321077D01*
X140404960Y-84318140D01*
X140419632Y-84315550D01*
X140434448Y-84313309D01*
X140449410Y-84311416D01*
X140464516Y-84309871D01*
X140479768Y-84308675D01*
X140495165Y-84307826D01*
X140510707Y-84307325D01*
X140526394Y-84307173D01*
X140542081Y-84307347D01*
G37*
X159954819Y-100738094D02*
X158954819Y-100738094D01*
X158954819Y-100738094D02*
X158954819Y-100499999D01*
X158954819Y-100499999D02*
X159002438Y-100357142D01*
X159002438Y-100357142D02*
X159097676Y-100261904D01*
X159097676Y-100261904D02*
X159192914Y-100214285D01*
X159192914Y-100214285D02*
X159383390Y-100166666D01*
X159383390Y-100166666D02*
X159526247Y-100166666D01*
X159526247Y-100166666D02*
X159716723Y-100214285D01*
X159716723Y-100214285D02*
X159811961Y-100261904D01*
X159811961Y-100261904D02*
X159907200Y-100357142D01*
X159907200Y-100357142D02*
X159954819Y-100499999D01*
X159954819Y-100499999D02*
X159954819Y-100738094D01*
X158954819Y-99833332D02*
X158954819Y-99214285D01*
X158954819Y-99214285D02*
X159335771Y-99547618D01*
X159335771Y-99547618D02*
X159335771Y-99404761D01*
X159335771Y-99404761D02*
X159383390Y-99309523D01*
X159383390Y-99309523D02*
X159431009Y-99261904D01*
X159431009Y-99261904D02*
X159526247Y-99214285D01*
X159526247Y-99214285D02*
X159764342Y-99214285D01*
X159764342Y-99214285D02*
X159859580Y-99261904D01*
X159859580Y-99261904D02*
X159907200Y-99309523D01*
X159907200Y-99309523D02*
X159954819Y-99404761D01*
X159954819Y-99404761D02*
X159954819Y-99690475D01*
X159954819Y-99690475D02*
X159907200Y-99785713D01*
X159907200Y-99785713D02*
X159859580Y-99833332D01*
X161854819Y-103864285D02*
X161854819Y-104435713D01*
X161854819Y-104149999D02*
X160854819Y-104149999D01*
X160854819Y-104149999D02*
X160997676Y-104245237D01*
X160997676Y-104245237D02*
X161092914Y-104340475D01*
X161092914Y-104340475D02*
X161140533Y-104435713D01*
X156524819Y-107523517D02*
X155817713Y-106816410D01*
X155817713Y-106816410D02*
X155986071Y-106648051D01*
X155986071Y-106648051D02*
X156120758Y-106580708D01*
X156120758Y-106580708D02*
X156255445Y-106580708D01*
X156255445Y-106580708D02*
X156356461Y-106614380D01*
X156356461Y-106614380D02*
X156524819Y-106715395D01*
X156524819Y-106715395D02*
X156625835Y-106816410D01*
X156625835Y-106816410D02*
X156726850Y-106984769D01*
X156726850Y-106984769D02*
X156760522Y-107085784D01*
X156760522Y-107085784D02*
X156760522Y-107220471D01*
X156760522Y-107220471D02*
X156693178Y-107355158D01*
X156693178Y-107355158D02*
X156524819Y-107523517D01*
X157063567Y-106041960D02*
X157534972Y-106513364D01*
X156625835Y-105940945D02*
X156962552Y-106614380D01*
X156962552Y-106614380D02*
X157400285Y-106176647D01*
X155657772Y-111122696D02*
X155253711Y-111526757D01*
X155455741Y-111324727D02*
X154748635Y-110617620D01*
X154748635Y-110617620D02*
X154782306Y-110785979D01*
X154782306Y-110785979D02*
X154782306Y-110920666D01*
X154782306Y-110920666D02*
X154748635Y-111021681D01*
X149866667Y-106966104D02*
X149828571Y-107004200D01*
X149828571Y-107004200D02*
X149714286Y-107042295D01*
X149714286Y-107042295D02*
X149638095Y-107042295D01*
X149638095Y-107042295D02*
X149523809Y-107004200D01*
X149523809Y-107004200D02*
X149447619Y-106928009D01*
X149447619Y-106928009D02*
X149409524Y-106851819D01*
X149409524Y-106851819D02*
X149371428Y-106699438D01*
X149371428Y-106699438D02*
X149371428Y-106585152D01*
X149371428Y-106585152D02*
X149409524Y-106432771D01*
X149409524Y-106432771D02*
X149447619Y-106356580D01*
X149447619Y-106356580D02*
X149523809Y-106280390D01*
X149523809Y-106280390D02*
X149638095Y-106242295D01*
X149638095Y-106242295D02*
X149714286Y-106242295D01*
X149714286Y-106242295D02*
X149828571Y-106280390D01*
X149828571Y-106280390D02*
X149866667Y-106318485D01*
X150590476Y-106242295D02*
X150209524Y-106242295D01*
X150209524Y-106242295D02*
X150171428Y-106623247D01*
X150171428Y-106623247D02*
X150209524Y-106585152D01*
X150209524Y-106585152D02*
X150285714Y-106547057D01*
X150285714Y-106547057D02*
X150476190Y-106547057D01*
X150476190Y-106547057D02*
X150552381Y-106585152D01*
X150552381Y-106585152D02*
X150590476Y-106623247D01*
X150590476Y-106623247D02*
X150628571Y-106699438D01*
X150628571Y-106699438D02*
X150628571Y-106889914D01*
X150628571Y-106889914D02*
X150590476Y-106966104D01*
X150590476Y-106966104D02*
X150552381Y-107004200D01*
X150552381Y-107004200D02*
X150476190Y-107042295D01*
X150476190Y-107042295D02*
X150285714Y-107042295D01*
X150285714Y-107042295D02*
X150209524Y-107004200D01*
X150209524Y-107004200D02*
X150171428Y-106966104D01*
X155838053Y-93154265D02*
X156545160Y-92447159D01*
X156545160Y-92447159D02*
X156713519Y-92615517D01*
X156713519Y-92615517D02*
X156780862Y-92750204D01*
X156780862Y-92750204D02*
X156780862Y-92884891D01*
X156780862Y-92884891D02*
X156747190Y-92985907D01*
X156747190Y-92985907D02*
X156646175Y-93154265D01*
X156646175Y-93154265D02*
X156545160Y-93255281D01*
X156545160Y-93255281D02*
X156376801Y-93356296D01*
X156376801Y-93356296D02*
X156275786Y-93389968D01*
X156275786Y-93389968D02*
X156141099Y-93389968D01*
X156141099Y-93389968D02*
X156006412Y-93322624D01*
X156006412Y-93322624D02*
X155838053Y-93154265D01*
X157151251Y-93187937D02*
X157218595Y-93187937D01*
X157218595Y-93187937D02*
X157319610Y-93221609D01*
X157319610Y-93221609D02*
X157487969Y-93389968D01*
X157487969Y-93389968D02*
X157521641Y-93490983D01*
X157521641Y-93490983D02*
X157521641Y-93558326D01*
X157521641Y-93558326D02*
X157487969Y-93659342D01*
X157487969Y-93659342D02*
X157420625Y-93726685D01*
X157420625Y-93726685D02*
X157285938Y-93794029D01*
X157285938Y-93794029D02*
X156477816Y-93794029D01*
X156477816Y-93794029D02*
X156915549Y-94231761D01*
X160883547Y-95389500D02*
X160479486Y-94985439D01*
X160681516Y-95187469D02*
X161388623Y-94480363D01*
X161388623Y-94480363D02*
X161220264Y-94514034D01*
X161220264Y-94514034D02*
X161085577Y-94514034D01*
X161085577Y-94514034D02*
X160984562Y-94480363D01*
X154808025Y-104896586D02*
X154808025Y-104950461D01*
X154808025Y-104950461D02*
X154754151Y-105058210D01*
X154754151Y-105058210D02*
X154700276Y-105112085D01*
X154700276Y-105112085D02*
X154592526Y-105165960D01*
X154592526Y-105165960D02*
X154484777Y-105165960D01*
X154484777Y-105165960D02*
X154403964Y-105139022D01*
X154403964Y-105139022D02*
X154269277Y-105058210D01*
X154269277Y-105058210D02*
X154188465Y-104977398D01*
X154188465Y-104977398D02*
X154107653Y-104842711D01*
X154107653Y-104842711D02*
X154080716Y-104761899D01*
X154080716Y-104761899D02*
X154080716Y-104654149D01*
X154080716Y-104654149D02*
X154134590Y-104546400D01*
X154134590Y-104546400D02*
X154188465Y-104492525D01*
X154188465Y-104492525D02*
X154296215Y-104438650D01*
X154296215Y-104438650D02*
X154350090Y-104438650D01*
X154969650Y-104088464D02*
X155346774Y-104465587D01*
X154619464Y-104007652D02*
X154888838Y-104546400D01*
X154888838Y-104546400D02*
X155239024Y-104196213D01*
X143074567Y-94118391D02*
X142367461Y-93411284D01*
X142367461Y-93411284D02*
X142535819Y-93242925D01*
X142535819Y-93242925D02*
X142670506Y-93175582D01*
X142670506Y-93175582D02*
X142805193Y-93175582D01*
X142805193Y-93175582D02*
X142906209Y-93209254D01*
X142906209Y-93209254D02*
X143074567Y-93310269D01*
X143074567Y-93310269D02*
X143175583Y-93411284D01*
X143175583Y-93411284D02*
X143276598Y-93579643D01*
X143276598Y-93579643D02*
X143310270Y-93680658D01*
X143310270Y-93680658D02*
X143310270Y-93815345D01*
X143310270Y-93815345D02*
X143242926Y-93950032D01*
X143242926Y-93950032D02*
X143074567Y-94118391D01*
X143478628Y-92906208D02*
X143377613Y-92939880D01*
X143377613Y-92939880D02*
X143310270Y-92939880D01*
X143310270Y-92939880D02*
X143209254Y-92906208D01*
X143209254Y-92906208D02*
X143175583Y-92872536D01*
X143175583Y-92872536D02*
X143141911Y-92771521D01*
X143141911Y-92771521D02*
X143141911Y-92704177D01*
X143141911Y-92704177D02*
X143175583Y-92603162D01*
X143175583Y-92603162D02*
X143310270Y-92468475D01*
X143310270Y-92468475D02*
X143411285Y-92434803D01*
X143411285Y-92434803D02*
X143478628Y-92434803D01*
X143478628Y-92434803D02*
X143579644Y-92468475D01*
X143579644Y-92468475D02*
X143613315Y-92502147D01*
X143613315Y-92502147D02*
X143646987Y-92603162D01*
X143646987Y-92603162D02*
X143646987Y-92670506D01*
X143646987Y-92670506D02*
X143613315Y-92771521D01*
X143613315Y-92771521D02*
X143478628Y-92906208D01*
X143478628Y-92906208D02*
X143444957Y-93007223D01*
X143444957Y-93007223D02*
X143444957Y-93074567D01*
X143444957Y-93074567D02*
X143478628Y-93175582D01*
X143478628Y-93175582D02*
X143613315Y-93310269D01*
X143613315Y-93310269D02*
X143714331Y-93343941D01*
X143714331Y-93343941D02*
X143781674Y-93343941D01*
X143781674Y-93343941D02*
X143882689Y-93310269D01*
X143882689Y-93310269D02*
X144017376Y-93175582D01*
X144017376Y-93175582D02*
X144051048Y-93074567D01*
X144051048Y-93074567D02*
X144051048Y-93007223D01*
X144051048Y-93007223D02*
X144017376Y-92906208D01*
X144017376Y-92906208D02*
X143882689Y-92771521D01*
X143882689Y-92771521D02*
X143781674Y-92737849D01*
X143781674Y-92737849D02*
X143714331Y-92737849D01*
X143714331Y-92737849D02*
X143613315Y-92771521D01*
X145389500Y-89116452D02*
X144985439Y-89520513D01*
X145187469Y-89318483D02*
X144480363Y-88611376D01*
X144480363Y-88611376D02*
X144514034Y-88779735D01*
X144514034Y-88779735D02*
X144514034Y-88914422D01*
X144514034Y-88914422D02*
X144480363Y-89015437D01*
X156856104Y-100133332D02*
X156894200Y-100171428D01*
X156894200Y-100171428D02*
X156932295Y-100285713D01*
X156932295Y-100285713D02*
X156932295Y-100361904D01*
X156932295Y-100361904D02*
X156894200Y-100476190D01*
X156894200Y-100476190D02*
X156818009Y-100552380D01*
X156818009Y-100552380D02*
X156741819Y-100590475D01*
X156741819Y-100590475D02*
X156589438Y-100628571D01*
X156589438Y-100628571D02*
X156475152Y-100628571D01*
X156475152Y-100628571D02*
X156322771Y-100590475D01*
X156322771Y-100590475D02*
X156246580Y-100552380D01*
X156246580Y-100552380D02*
X156170390Y-100476190D01*
X156170390Y-100476190D02*
X156132295Y-100361904D01*
X156132295Y-100361904D02*
X156132295Y-100285713D01*
X156132295Y-100285713D02*
X156170390Y-100171428D01*
X156170390Y-100171428D02*
X156208485Y-100133332D01*
X156132295Y-99866666D02*
X156132295Y-99371428D01*
X156132295Y-99371428D02*
X156437057Y-99638094D01*
X156437057Y-99638094D02*
X156437057Y-99523809D01*
X156437057Y-99523809D02*
X156475152Y-99447618D01*
X156475152Y-99447618D02*
X156513247Y-99409523D01*
X156513247Y-99409523D02*
X156589438Y-99371428D01*
X156589438Y-99371428D02*
X156779914Y-99371428D01*
X156779914Y-99371428D02*
X156856104Y-99409523D01*
X156856104Y-99409523D02*
X156894200Y-99447618D01*
X156894200Y-99447618D02*
X156932295Y-99523809D01*
X156932295Y-99523809D02*
X156932295Y-99752380D01*
X156932295Y-99752380D02*
X156894200Y-99828571D01*
X156894200Y-99828571D02*
X156856104Y-99866666D01*
X145819188Y-95256587D02*
X145819188Y-95310462D01*
X145819188Y-95310462D02*
X145765314Y-95418211D01*
X145765314Y-95418211D02*
X145711439Y-95472086D01*
X145711439Y-95472086D02*
X145603689Y-95525961D01*
X145603689Y-95525961D02*
X145495940Y-95525961D01*
X145495940Y-95525961D02*
X145415127Y-95499023D01*
X145415127Y-95499023D02*
X145280440Y-95418211D01*
X145280440Y-95418211D02*
X145199628Y-95337399D01*
X145199628Y-95337399D02*
X145118816Y-95202712D01*
X145118816Y-95202712D02*
X145091879Y-95121900D01*
X145091879Y-95121900D02*
X145091879Y-95014150D01*
X145091879Y-95014150D02*
X145145753Y-94906401D01*
X145145753Y-94906401D02*
X145199628Y-94852526D01*
X145199628Y-94852526D02*
X145307378Y-94798651D01*
X145307378Y-94798651D02*
X145361253Y-94798651D01*
X145873063Y-94663964D02*
X145792251Y-94690901D01*
X145792251Y-94690901D02*
X145738376Y-94690901D01*
X145738376Y-94690901D02*
X145657564Y-94663964D01*
X145657564Y-94663964D02*
X145630627Y-94637027D01*
X145630627Y-94637027D02*
X145603689Y-94556214D01*
X145603689Y-94556214D02*
X145603689Y-94502340D01*
X145603689Y-94502340D02*
X145630627Y-94421527D01*
X145630627Y-94421527D02*
X145738376Y-94313778D01*
X145738376Y-94313778D02*
X145819188Y-94286840D01*
X145819188Y-94286840D02*
X145873063Y-94286840D01*
X145873063Y-94286840D02*
X145953875Y-94313778D01*
X145953875Y-94313778D02*
X145980813Y-94340715D01*
X145980813Y-94340715D02*
X146007750Y-94421527D01*
X146007750Y-94421527D02*
X146007750Y-94475402D01*
X146007750Y-94475402D02*
X145980813Y-94556214D01*
X145980813Y-94556214D02*
X145873063Y-94663964D01*
X145873063Y-94663964D02*
X145846126Y-94744776D01*
X145846126Y-94744776D02*
X145846126Y-94798651D01*
X145846126Y-94798651D02*
X145873063Y-94879463D01*
X145873063Y-94879463D02*
X145980813Y-94987213D01*
X145980813Y-94987213D02*
X146061625Y-95014150D01*
X146061625Y-95014150D02*
X146115500Y-95014150D01*
X146115500Y-95014150D02*
X146196312Y-94987213D01*
X146196312Y-94987213D02*
X146304062Y-94879463D01*
X146304062Y-94879463D02*
X146330999Y-94798651D01*
X146330999Y-94798651D02*
X146330999Y-94744776D01*
X146330999Y-94744776D02*
X146304062Y-94663964D01*
X146304062Y-94663964D02*
X146196312Y-94556214D01*
X146196312Y-94556214D02*
X146115500Y-94529277D01*
X146115500Y-94529277D02*
X146061625Y-94529277D01*
X146061625Y-94529277D02*
X145980813Y-94556214D01*
D11*
X149866667Y-93687404D02*
X149828571Y-93725500D01*
X149828571Y-93725500D02*
X149714286Y-93763595D01*
X149714286Y-93763595D02*
X149638095Y-93763595D01*
X149638095Y-93763595D02*
X149523809Y-93725500D01*
X149523809Y-93725500D02*
X149447619Y-93649309D01*
X149447619Y-93649309D02*
X149409524Y-93573119D01*
X149409524Y-93573119D02*
X149371428Y-93420738D01*
X149371428Y-93420738D02*
X149371428Y-93306452D01*
X149371428Y-93306452D02*
X149409524Y-93154071D01*
X149409524Y-93154071D02*
X149447619Y-93077880D01*
X149447619Y-93077880D02*
X149523809Y-93001690D01*
X149523809Y-93001690D02*
X149638095Y-92963595D01*
X149638095Y-92963595D02*
X149714286Y-92963595D01*
X149714286Y-92963595D02*
X149828571Y-93001690D01*
X149828571Y-93001690D02*
X149866667Y-93039785D01*
X150628571Y-93763595D02*
X150171428Y-93763595D01*
X150400000Y-93763595D02*
X150400000Y-92963595D01*
X150400000Y-92963595D02*
X150323809Y-93077880D01*
X150323809Y-93077880D02*
X150247619Y-93154071D01*
X150247619Y-93154071D02*
X150171428Y-93192166D01*
D10*
X144956732Y-104917046D02*
X144902857Y-104917046D01*
X144902857Y-104917046D02*
X144795108Y-104863172D01*
X144795108Y-104863172D02*
X144741233Y-104809297D01*
X144741233Y-104809297D02*
X144687358Y-104701547D01*
X144687358Y-104701547D02*
X144687358Y-104593798D01*
X144687358Y-104593798D02*
X144714296Y-104512985D01*
X144714296Y-104512985D02*
X144795108Y-104378298D01*
X144795108Y-104378298D02*
X144875920Y-104297486D01*
X144875920Y-104297486D02*
X145010607Y-104216674D01*
X145010607Y-104216674D02*
X145091419Y-104189737D01*
X145091419Y-104189737D02*
X145199169Y-104189737D01*
X145199169Y-104189737D02*
X145306918Y-104243611D01*
X145306918Y-104243611D02*
X145360793Y-104297486D01*
X145360793Y-104297486D02*
X145414668Y-104405236D01*
X145414668Y-104405236D02*
X145414668Y-104459111D01*
X145953416Y-104890109D02*
X145845666Y-104782359D01*
X145845666Y-104782359D02*
X145764854Y-104755422D01*
X145764854Y-104755422D02*
X145710979Y-104755422D01*
X145710979Y-104755422D02*
X145576292Y-104782359D01*
X145576292Y-104782359D02*
X145441605Y-104863172D01*
X145441605Y-104863172D02*
X145226106Y-105078671D01*
X145226106Y-105078671D02*
X145199169Y-105159483D01*
X145199169Y-105159483D02*
X145199169Y-105213358D01*
X145199169Y-105213358D02*
X145226106Y-105294170D01*
X145226106Y-105294170D02*
X145333856Y-105401920D01*
X145333856Y-105401920D02*
X145414668Y-105428857D01*
X145414668Y-105428857D02*
X145468543Y-105428857D01*
X145468543Y-105428857D02*
X145549355Y-105401920D01*
X145549355Y-105401920D02*
X145684042Y-105267233D01*
X145684042Y-105267233D02*
X145710979Y-105186420D01*
X145710979Y-105186420D02*
X145710979Y-105132546D01*
X145710979Y-105132546D02*
X145684042Y-105051733D01*
X145684042Y-105051733D02*
X145576292Y-104943984D01*
X145576292Y-104943984D02*
X145495480Y-104917046D01*
X145495480Y-104917046D02*
X145441605Y-104917046D01*
X145441605Y-104917046D02*
X145360793Y-104943984D01*
X154370412Y-95508025D02*
X154316537Y-95508025D01*
X154316537Y-95508025D02*
X154208788Y-95454151D01*
X154208788Y-95454151D02*
X154154913Y-95400276D01*
X154154913Y-95400276D02*
X154101038Y-95292526D01*
X154101038Y-95292526D02*
X154101038Y-95184777D01*
X154101038Y-95184777D02*
X154127976Y-95103964D01*
X154127976Y-95103964D02*
X154208788Y-94969277D01*
X154208788Y-94969277D02*
X154289600Y-94888465D01*
X154289600Y-94888465D02*
X154424287Y-94807653D01*
X154424287Y-94807653D02*
X154505099Y-94780716D01*
X154505099Y-94780716D02*
X154612849Y-94780716D01*
X154612849Y-94780716D02*
X154720598Y-94834590D01*
X154720598Y-94834590D02*
X154774473Y-94888465D01*
X154774473Y-94888465D02*
X154828348Y-94996215D01*
X154828348Y-94996215D02*
X154828348Y-95050090D01*
X155043847Y-95265589D02*
X155097722Y-95265589D01*
X155097722Y-95265589D02*
X155178534Y-95292526D01*
X155178534Y-95292526D02*
X155313221Y-95427213D01*
X155313221Y-95427213D02*
X155340159Y-95508025D01*
X155340159Y-95508025D02*
X155340159Y-95561900D01*
X155340159Y-95561900D02*
X155313221Y-95642712D01*
X155313221Y-95642712D02*
X155259346Y-95696587D01*
X155259346Y-95696587D02*
X155151597Y-95750462D01*
X155151597Y-95750462D02*
X154505099Y-95750462D01*
X154505099Y-95750462D02*
X154855285Y-96100648D01*
X142431356Y-106524819D02*
X143138463Y-105817713D01*
X143138463Y-105817713D02*
X143306822Y-105986071D01*
X143306822Y-105986071D02*
X143374165Y-106120758D01*
X143374165Y-106120758D02*
X143374165Y-106255445D01*
X143374165Y-106255445D02*
X143340493Y-106356461D01*
X143340493Y-106356461D02*
X143239478Y-106524819D01*
X143239478Y-106524819D02*
X143138463Y-106625835D01*
X143138463Y-106625835D02*
X142970104Y-106726850D01*
X142970104Y-106726850D02*
X142869089Y-106760522D01*
X142869089Y-106760522D02*
X142734402Y-106760522D01*
X142734402Y-106760522D02*
X142599715Y-106693178D01*
X142599715Y-106693178D02*
X142431356Y-106524819D01*
X144148615Y-106827865D02*
X144013928Y-106693178D01*
X144013928Y-106693178D02*
X143912913Y-106659506D01*
X143912913Y-106659506D02*
X143845570Y-106659506D01*
X143845570Y-106659506D02*
X143677211Y-106693178D01*
X143677211Y-106693178D02*
X143508852Y-106794193D01*
X143508852Y-106794193D02*
X143239478Y-107063567D01*
X143239478Y-107063567D02*
X143205806Y-107164583D01*
X143205806Y-107164583D02*
X143205806Y-107231926D01*
X143205806Y-107231926D02*
X143239478Y-107332941D01*
X143239478Y-107332941D02*
X143374165Y-107467628D01*
X143374165Y-107467628D02*
X143475180Y-107501300D01*
X143475180Y-107501300D02*
X143542524Y-107501300D01*
X143542524Y-107501300D02*
X143643539Y-107467628D01*
X143643539Y-107467628D02*
X143811898Y-107299270D01*
X143811898Y-107299270D02*
X143845570Y-107198254D01*
X143845570Y-107198254D02*
X143845570Y-107130911D01*
X143845570Y-107130911D02*
X143811898Y-107029896D01*
X143811898Y-107029896D02*
X143677211Y-106895209D01*
X143677211Y-106895209D02*
X143576196Y-106861537D01*
X143576196Y-106861537D02*
X143508852Y-106861537D01*
X143508852Y-106861537D02*
X143407837Y-106895209D01*
X138877303Y-105657772D02*
X138473242Y-105253711D01*
X138675272Y-105455741D02*
X139382379Y-104748635D01*
X139382379Y-104748635D02*
X139214020Y-104782306D01*
X139214020Y-104782306D02*
X139079333Y-104782306D01*
X139079333Y-104782306D02*
X138978318Y-104748635D01*
X149261905Y-89954819D02*
X149261905Y-88954819D01*
X149261905Y-88954819D02*
X149500000Y-88954819D01*
X149500000Y-88954819D02*
X149642857Y-89002438D01*
X149642857Y-89002438D02*
X149738095Y-89097676D01*
X149738095Y-89097676D02*
X149785714Y-89192914D01*
X149785714Y-89192914D02*
X149833333Y-89383390D01*
X149833333Y-89383390D02*
X149833333Y-89526247D01*
X149833333Y-89526247D02*
X149785714Y-89716723D01*
X149785714Y-89716723D02*
X149738095Y-89811961D01*
X149738095Y-89811961D02*
X149642857Y-89907200D01*
X149642857Y-89907200D02*
X149500000Y-89954819D01*
X149500000Y-89954819D02*
X149261905Y-89954819D01*
X150785714Y-89954819D02*
X150214286Y-89954819D01*
X150500000Y-89954819D02*
X150500000Y-88954819D01*
X150500000Y-88954819D02*
X150404762Y-89097676D01*
X150404762Y-89097676D02*
X150309524Y-89192914D01*
X150309524Y-89192914D02*
X150214286Y-89240533D01*
X153464430Y-90265226D02*
X152893002Y-90265226D01*
X153178716Y-90265226D02*
X153178716Y-89265226D01*
X153178716Y-89265226D02*
X153083478Y-89408083D01*
X153083478Y-89408083D02*
X152988240Y-89503321D01*
X152988240Y-89503321D02*
X152893002Y-89550940D01*
X149291372Y-116214924D02*
X149291372Y-115214924D01*
X149291372Y-115214924D02*
X149529467Y-115214924D01*
X149529467Y-115214924D02*
X149672324Y-115262543D01*
X149672324Y-115262543D02*
X149767562Y-115357781D01*
X149767562Y-115357781D02*
X149815181Y-115453019D01*
X149815181Y-115453019D02*
X149862800Y-115643495D01*
X149862800Y-115643495D02*
X149862800Y-115786352D01*
X149862800Y-115786352D02*
X149815181Y-115976828D01*
X149815181Y-115976828D02*
X149767562Y-116072066D01*
X149767562Y-116072066D02*
X149672324Y-116167305D01*
X149672324Y-116167305D02*
X149529467Y-116214924D01*
X149529467Y-116214924D02*
X149291372Y-116214924D01*
X150767562Y-115214924D02*
X150291372Y-115214924D01*
X150291372Y-115214924D02*
X150243753Y-115691114D01*
X150243753Y-115691114D02*
X150291372Y-115643495D01*
X150291372Y-115643495D02*
X150386610Y-115595876D01*
X150386610Y-115595876D02*
X150624705Y-115595876D01*
X150624705Y-115595876D02*
X150719943Y-115643495D01*
X150719943Y-115643495D02*
X150767562Y-115691114D01*
X150767562Y-115691114D02*
X150815181Y-115786352D01*
X150815181Y-115786352D02*
X150815181Y-116024447D01*
X150815181Y-116024447D02*
X150767562Y-116119685D01*
X150767562Y-116119685D02*
X150719943Y-116167305D01*
X150719943Y-116167305D02*
X150624705Y-116214924D01*
X150624705Y-116214924D02*
X150386610Y-116214924D01*
X150386610Y-116214924D02*
X150291372Y-116167305D01*
X150291372Y-116167305D02*
X150243753Y-116119685D01*
X146135714Y-110654819D02*
X145564286Y-110654819D01*
X145850000Y-110654819D02*
X145850000Y-109654819D01*
X145850000Y-109654819D02*
X145754762Y-109797676D01*
X145754762Y-109797676D02*
X145659524Y-109892914D01*
X145659524Y-109892914D02*
X145564286Y-109940533D01*
X140954819Y-100738094D02*
X139954819Y-100738094D01*
X139954819Y-100738094D02*
X139954819Y-100499999D01*
X139954819Y-100499999D02*
X140002438Y-100357142D01*
X140002438Y-100357142D02*
X140097676Y-100261904D01*
X140097676Y-100261904D02*
X140192914Y-100214285D01*
X140192914Y-100214285D02*
X140383390Y-100166666D01*
X140383390Y-100166666D02*
X140526247Y-100166666D01*
X140526247Y-100166666D02*
X140716723Y-100214285D01*
X140716723Y-100214285D02*
X140811961Y-100261904D01*
X140811961Y-100261904D02*
X140907200Y-100357142D01*
X140907200Y-100357142D02*
X140954819Y-100499999D01*
X140954819Y-100499999D02*
X140954819Y-100738094D01*
X139954819Y-99833332D02*
X139954819Y-99166666D01*
X139954819Y-99166666D02*
X140954819Y-99595237D01*
X139054819Y-95564285D02*
X139054819Y-96135713D01*
X139054819Y-95849999D02*
X138054819Y-95849999D01*
X138054819Y-95849999D02*
X138197676Y-95945237D01*
X138197676Y-95945237D02*
X138292914Y-96040475D01*
X138292914Y-96040475D02*
X138340533Y-96135713D01*
X143716104Y-100133332D02*
X143754200Y-100171428D01*
X143754200Y-100171428D02*
X143792295Y-100285713D01*
X143792295Y-100285713D02*
X143792295Y-100361904D01*
X143792295Y-100361904D02*
X143754200Y-100476190D01*
X143754200Y-100476190D02*
X143678009Y-100552380D01*
X143678009Y-100552380D02*
X143601819Y-100590475D01*
X143601819Y-100590475D02*
X143449438Y-100628571D01*
X143449438Y-100628571D02*
X143335152Y-100628571D01*
X143335152Y-100628571D02*
X143182771Y-100590475D01*
X143182771Y-100590475D02*
X143106580Y-100552380D01*
X143106580Y-100552380D02*
X143030390Y-100476190D01*
X143030390Y-100476190D02*
X142992295Y-100361904D01*
X142992295Y-100361904D02*
X142992295Y-100285713D01*
X142992295Y-100285713D02*
X143030390Y-100171428D01*
X143030390Y-100171428D02*
X143068485Y-100133332D01*
X142992295Y-99866666D02*
X142992295Y-99333332D01*
X142992295Y-99333332D02*
X143792295Y-99676190D01*
D12*
%TO.C,D3*%
X160250000Y-103650000D02*
X160250000Y-96350000D01*
X165750000Y-103650000D02*
X165750000Y-96350000D01*
X165750000Y-96350000D02*
X164600000Y-96350000D01*
%TO.C,D4*%
X154674517Y-109836396D02*
X159836396Y-104674517D01*
X158563604Y-113725483D02*
X163725483Y-108563604D01*
X163725483Y-108563604D02*
X162912311Y-107750431D01*
%TO.C,C5*%
X150140580Y-108510000D02*
X149859420Y-108510000D01*
X150140580Y-107490000D02*
X149859420Y-107490000D01*
%TO.C,D2*%
X159836396Y-95325483D02*
X154674517Y-90163604D01*
X163725483Y-91436396D02*
X158563604Y-86274517D01*
X158563604Y-86274517D02*
X157750431Y-87087689D01*
%TO.C,C4*%
X156260030Y-106061219D02*
X156061219Y-106260030D01*
X155538781Y-105339970D02*
X155339970Y-105538781D01*
%TO.C,D8*%
X145325483Y-90163604D02*
X140163604Y-95325483D01*
X141436396Y-86274517D02*
X136274517Y-91436396D01*
X136274517Y-91436396D02*
X137087689Y-92249569D01*
%TO.C,C3*%
X157490000Y-100140580D02*
X157490000Y-99859420D01*
X158510000Y-100140580D02*
X158510000Y-99859420D01*
%TO.C,C8*%
X144239970Y-93688781D02*
X144438781Y-93489970D01*
X144961219Y-94410030D02*
X145160030Y-94211219D01*
%TO.C,C1*%
X149859420Y-91490000D02*
X150140580Y-91490000D01*
X149859420Y-92510000D02*
X150140580Y-92510000D01*
%TO.C,G\u002A\u002A\u002A*%
G36*
X152446179Y-100360144D02*
G01*
X152462494Y-100366116D01*
X152483562Y-100379272D01*
X152511446Y-100401698D01*
X152548211Y-100435481D01*
X152595921Y-100482709D01*
X152656640Y-100545468D01*
X152732432Y-100625844D01*
X152825361Y-100725925D01*
X152937492Y-100847798D01*
X153070889Y-100993548D01*
X153227616Y-101165264D01*
X153379821Y-101332211D01*
X154277320Y-102316835D01*
X153473278Y-102322103D01*
X153297675Y-102323521D01*
X153135305Y-102325348D01*
X152990441Y-102327498D01*
X152867356Y-102329883D01*
X152770324Y-102332417D01*
X152703618Y-102335012D01*
X152671512Y-102337583D01*
X152669237Y-102338431D01*
X152682417Y-102354456D01*
X152719866Y-102396637D01*
X152778442Y-102461558D01*
X152855008Y-102545805D01*
X152946422Y-102645965D01*
X153049546Y-102758623D01*
X153161239Y-102880365D01*
X153278363Y-103007777D01*
X153397778Y-103137445D01*
X153516343Y-103265954D01*
X153630920Y-103389890D01*
X153738369Y-103505840D01*
X153835550Y-103610388D01*
X153919324Y-103700122D01*
X153986551Y-103771626D01*
X154007253Y-103793462D01*
X154049011Y-103838736D01*
X154074887Y-103869501D01*
X154079506Y-103878393D01*
X154060358Y-103869578D01*
X154007953Y-103844331D01*
X153925180Y-103804068D01*
X153814932Y-103750208D01*
X153680100Y-103684166D01*
X153523577Y-103607362D01*
X153348253Y-103521212D01*
X153157022Y-103427134D01*
X152952773Y-103326546D01*
X152780110Y-103241435D01*
X152538452Y-103122209D01*
X152285389Y-102997250D01*
X152026795Y-102869464D01*
X151768546Y-102741760D01*
X151516517Y-102617045D01*
X151276585Y-102498227D01*
X151054624Y-102388213D01*
X150856510Y-102289910D01*
X150688119Y-102206227D01*
X150673523Y-102198965D01*
X149857094Y-101792708D01*
X150737145Y-101782629D01*
X151617196Y-101772549D01*
X150989805Y-101087152D01*
X150362413Y-100401756D01*
X151359595Y-100388488D01*
X151558405Y-100385585D01*
X151746537Y-100382343D01*
X151919826Y-100378869D01*
X152074106Y-100375268D01*
X152205211Y-100371647D01*
X152308975Y-100368112D01*
X152381234Y-100364771D01*
X152417820Y-100361729D01*
X152419549Y-100361404D01*
X152432552Y-100359269D01*
X152446179Y-100360144D01*
G37*
G36*
X148374826Y-95959828D02*
G01*
X148701272Y-95960096D01*
X149064385Y-95960582D01*
X149465867Y-95961272D01*
X149528074Y-95961390D01*
X152376935Y-95966835D01*
X152572592Y-96020884D01*
X152854933Y-96118604D01*
X153115320Y-96248505D01*
X153351759Y-96408231D01*
X153562254Y-96595424D01*
X153744809Y-96807729D01*
X153897428Y-97042789D01*
X154018117Y-97298247D01*
X154104879Y-97571747D01*
X154155718Y-97860932D01*
X154159100Y-97894330D01*
X154166339Y-98179222D01*
X154135519Y-98457310D01*
X154068715Y-98725641D01*
X153968000Y-98981266D01*
X153835449Y-99221236D01*
X153673136Y-99442598D01*
X153483136Y-99642404D01*
X153267521Y-99817703D01*
X153028367Y-99965545D01*
X152767748Y-100082980D01*
X152577084Y-100144575D01*
X152376935Y-100199360D01*
X150799843Y-100205612D01*
X149222751Y-100211863D01*
X149192700Y-100316889D01*
X149181602Y-100356387D01*
X149160928Y-100430675D01*
X149131808Y-100535671D01*
X149095371Y-100667294D01*
X149052746Y-100821463D01*
X149005061Y-100994096D01*
X148953445Y-101181112D01*
X148899027Y-101378431D01*
X148879296Y-101450009D01*
X148824150Y-101650030D01*
X148771401Y-101841220D01*
X148722180Y-102019495D01*
X148677616Y-102180768D01*
X148638839Y-102320956D01*
X148606978Y-102435973D01*
X148583163Y-102521734D01*
X148568524Y-102574153D01*
X148565757Y-102583938D01*
X148535571Y-102689771D01*
X147412285Y-102688309D01*
X146288999Y-102686848D01*
X146460056Y-102602635D01*
X146631112Y-102518422D01*
X147139262Y-100673898D01*
X147212580Y-100407811D01*
X147283188Y-100151652D01*
X147350308Y-99908241D01*
X147413162Y-99680396D01*
X147470971Y-99470936D01*
X147522956Y-99282680D01*
X147568339Y-99118447D01*
X147606342Y-98981056D01*
X147636186Y-98873325D01*
X147657093Y-98798074D01*
X147668284Y-98758121D01*
X147669530Y-98753779D01*
X147691649Y-98678184D01*
X149924868Y-98678184D01*
X150282038Y-98678238D01*
X150601175Y-98678309D01*
X150884562Y-98678257D01*
X151134484Y-98677946D01*
X151353225Y-98677236D01*
X151543068Y-98675990D01*
X151706297Y-98674069D01*
X151845197Y-98671336D01*
X151962052Y-98667651D01*
X152059144Y-98662877D01*
X152138759Y-98656876D01*
X152203179Y-98649509D01*
X152254690Y-98640639D01*
X152295575Y-98630127D01*
X152328117Y-98617834D01*
X152354602Y-98603624D01*
X152377312Y-98587356D01*
X152398532Y-98568895D01*
X152420545Y-98548100D01*
X152444636Y-98525732D01*
X152543813Y-98414106D01*
X152606715Y-98288299D01*
X152635369Y-98143666D01*
X152637699Y-98083502D01*
X152619412Y-97928118D01*
X152566222Y-97789650D01*
X152481354Y-97671915D01*
X152368038Y-97578733D01*
X152229499Y-97513919D01*
X152136368Y-97490374D01*
X152095045Y-97486343D01*
X152020428Y-97482682D01*
X151916915Y-97479406D01*
X151788907Y-97476527D01*
X151640804Y-97474057D01*
X151477006Y-97472010D01*
X151301913Y-97470398D01*
X151119925Y-97469233D01*
X150935442Y-97468529D01*
X150752864Y-97468298D01*
X150576592Y-97468553D01*
X150411024Y-97469307D01*
X150260561Y-97470572D01*
X150129604Y-97472361D01*
X150022552Y-97474687D01*
X149943805Y-97477563D01*
X149897763Y-97481001D01*
X149887332Y-97483869D01*
X149900427Y-97501876D01*
X149937603Y-97546027D01*
X149995702Y-97612745D01*
X150071562Y-97698452D01*
X150162024Y-97799571D01*
X150263927Y-97912525D01*
X150340904Y-97997301D01*
X150448914Y-98116252D01*
X150547722Y-98225664D01*
X150634173Y-98321994D01*
X150705112Y-98401703D01*
X150757384Y-98461252D01*
X150787833Y-98497100D01*
X150794475Y-98506219D01*
X150774932Y-98508246D01*
X150718762Y-98510147D01*
X150629658Y-98511886D01*
X150511309Y-98513426D01*
X150367409Y-98514731D01*
X150201647Y-98515763D01*
X150017716Y-98516487D01*
X149819306Y-98516866D01*
X149716827Y-98516914D01*
X148639179Y-98516914D01*
X148172403Y-98007906D01*
X147705628Y-97498898D01*
X147207719Y-96753025D01*
X147103863Y-96597390D01*
X147006668Y-96451622D01*
X146918474Y-96319242D01*
X146841623Y-96203768D01*
X146778457Y-96108721D01*
X146731317Y-96037621D01*
X146702544Y-95993987D01*
X146694511Y-95981548D01*
X146698938Y-95977901D01*
X146717936Y-95974627D01*
X146753208Y-95971714D01*
X146806451Y-95969152D01*
X146879366Y-95966927D01*
X146973652Y-95965027D01*
X147091009Y-95963441D01*
X147233137Y-95962156D01*
X147401736Y-95961160D01*
X147598504Y-95960442D01*
X147825142Y-95959988D01*
X148083350Y-95959787D01*
X148374826Y-95959828D01*
G37*
%TO.C,C6*%
X144461219Y-105339970D02*
X144660030Y-105538781D01*
X143739970Y-106061219D02*
X143938781Y-106260030D01*
%TO.C,C2*%
X155911219Y-93889970D02*
X156110030Y-94088781D01*
X155189970Y-94611219D02*
X155388781Y-94810030D01*
%TO.C,D6*%
X140163604Y-104674517D02*
X145325483Y-109836396D01*
X136274517Y-108563604D02*
X141436396Y-113725483D01*
X141436396Y-113725483D02*
X142249569Y-112912311D01*
%TO.C,D1*%
X153650000Y-88750000D02*
X146350000Y-88750000D01*
X153650000Y-83250000D02*
X146350000Y-83250000D01*
X146350000Y-83250000D02*
X146350000Y-84400000D01*
%TO.C,D5*%
X146350000Y-109050000D02*
X153650000Y-109050000D01*
X146350000Y-114550000D02*
X153650000Y-114550000D01*
X153650000Y-114550000D02*
X153650000Y-113400000D01*
%TO.C,D7*%
X139750000Y-96350000D02*
X139750000Y-103650000D01*
X134250000Y-96350000D02*
X134250000Y-103650000D01*
X134250000Y-103650000D02*
X135400000Y-103650000D01*
%TO.C,C7*%
X141490000Y-100140580D02*
X141490000Y-99859420D01*
X142510000Y-100140580D02*
X142510000Y-99859420D01*
%TD*%
M02*
