%TF.GenerationSoftware,KiCad,Pcbnew,7.0.7*%
%TF.CreationDate,2023-10-09T00:15:42+08:00*%
%TF.ProjectId,RM_47mm,524d5f34-376d-46d2-9e6b-696361645f70,rev?*%
%TF.SameCoordinates,Original*%
%TF.FileFunction,Copper,L2,Inr*%
%TF.FilePolarity,Positive*%
%FSLAX46Y46*%
G04 Gerber Fmt 4.6, Leading zero omitted, Abs format (unit mm)*
G04 Created by KiCad (PCBNEW 7.0.7) date 2023-10-09 00:15:42*
%MOMM*%
%LPD*%
G01*
G04 APERTURE LIST*
%TA.AperFunction,ComponentPad*%
%ADD10O,1.000000X1.800000*%
%TD*%
%TA.AperFunction,ComponentPad*%
%ADD11O,1.000000X2.100000*%
%TD*%
%TA.AperFunction,ComponentPad*%
%ADD12C,2.100000*%
%TD*%
%TA.AperFunction,ComponentPad*%
%ADD13C,1.750000*%
%TD*%
%TA.AperFunction,ViaPad*%
%ADD14C,0.800000*%
%TD*%
G04 APERTURE END LIST*
D10*
%TO.N,Earth*%
%TO.C,J1*%
X145680000Y-81925000D03*
D11*
X145680000Y-86125000D03*
D10*
X154320000Y-81925000D03*
D11*
X154320000Y-86125000D03*
%TD*%
D12*
%TO.N,Earth*%
%TO.C,SW3*%
X146482909Y-115884152D03*
X153492909Y-115884152D03*
D13*
%TO.N,Net-(SW3-3)*%
X147732909Y-118374152D03*
%TO.N,/VCC_3V3*%
X152232909Y-118374152D03*
%TD*%
D14*
%TO.N,/VCC_3V3*%
X156014602Y-111564521D03*
X146945372Y-105591240D03*
X159213450Y-101805610D03*
X153932037Y-96057092D03*
X142018127Y-96551733D03*
X137330423Y-104140716D03*
X147629225Y-97348384D03*
%TO.N,Earth*%
X133597257Y-101877102D03*
X154297050Y-88284974D03*
X163388735Y-107365477D03*
X152248410Y-97319644D03*
X154905251Y-92074558D03*
X147459286Y-106959729D03*
X146043974Y-92040483D03*
X143942264Y-111435531D03*
X159539528Y-98368747D03*
X140513247Y-101468135D03*
%TO.N,/LED_IN*%
X147584501Y-89940150D03*
%TO.N,/VCC_5V*%
X149887261Y-85089147D03*
%TD*%
%TA.AperFunction,Conductor*%
%TO.N,Earth*%
G36*
X150807403Y-80018620D02*
G01*
X150986950Y-80026684D01*
X151703049Y-80074964D01*
X151882089Y-80091079D01*
X152595233Y-80171431D01*
X152595242Y-80171432D01*
X152773386Y-80195562D01*
X153407526Y-80296000D01*
X153482220Y-80307831D01*
X153517222Y-80314182D01*
X153659148Y-80339938D01*
X153865955Y-80382282D01*
X153927681Y-80415013D01*
X153961914Y-80475922D01*
X153957783Y-80545669D01*
X153916600Y-80602111D01*
X153884150Y-80620041D01*
X153877337Y-80622564D01*
X153877335Y-80622565D01*
X153704732Y-80730149D01*
X153557331Y-80870264D01*
X153557330Y-80870266D01*
X153441143Y-81037195D01*
X153360940Y-81224092D01*
X153320000Y-81423309D01*
X153320000Y-81675000D01*
X153896000Y-81675000D01*
X153963039Y-81694685D01*
X154008794Y-81747489D01*
X154020000Y-81799000D01*
X154020000Y-82051000D01*
X154000315Y-82118039D01*
X153947511Y-82163794D01*
X153896000Y-82175000D01*
X153320000Y-82175000D01*
X153320000Y-82375713D01*
X153335418Y-82527338D01*
X153396299Y-82721381D01*
X153396304Y-82721391D01*
X153495005Y-82899215D01*
X153495005Y-82899216D01*
X153627478Y-83053530D01*
X153627479Y-83053531D01*
X153788304Y-83178018D01*
X153970907Y-83267589D01*
X154070000Y-83293244D01*
X154070000Y-82729978D01*
X154089685Y-82662939D01*
X154142489Y-82617184D01*
X154211647Y-82607240D01*
X154227926Y-82610709D01*
X154291840Y-82628895D01*
X154403521Y-82618546D01*
X154403526Y-82618543D01*
X154412063Y-82616115D01*
X154481930Y-82616701D01*
X154540390Y-82654966D01*
X154568881Y-82718763D01*
X154570000Y-82735381D01*
X154570000Y-83298366D01*
X154571944Y-83298069D01*
X154571945Y-83298069D01*
X154762660Y-83227436D01*
X154762664Y-83227434D01*
X154935267Y-83119850D01*
X155082668Y-82979735D01*
X155082669Y-82979733D01*
X155198856Y-82812804D01*
X155279059Y-82625907D01*
X155320000Y-82426690D01*
X155320000Y-82175000D01*
X154744000Y-82175000D01*
X154676961Y-82155315D01*
X154631206Y-82102511D01*
X154620000Y-82051000D01*
X154620000Y-81799000D01*
X154639685Y-81731961D01*
X154692489Y-81686206D01*
X154744000Y-81675000D01*
X155320000Y-81675000D01*
X155320000Y-81474286D01*
X155304581Y-81322661D01*
X155243700Y-81128618D01*
X155243695Y-81128608D01*
X155144994Y-80950784D01*
X155099582Y-80897884D01*
X155070851Y-80834196D01*
X155081114Y-80765084D01*
X155127112Y-80712491D01*
X155194241Y-80693116D01*
X155223968Y-80696874D01*
X155233445Y-80699263D01*
X155406692Y-80747076D01*
X156028725Y-80933863D01*
X156094060Y-80953483D01*
X156265050Y-81009040D01*
X156942462Y-81246077D01*
X157110745Y-81309234D01*
X157776847Y-81576427D01*
X157942173Y-81647091D01*
X158276612Y-81799000D01*
X158595557Y-81943872D01*
X158595582Y-81943883D01*
X158757585Y-82021900D01*
X159397029Y-82347713D01*
X159449061Y-82375713D01*
X159555335Y-82432902D01*
X160179494Y-82787061D01*
X160333884Y-82879304D01*
X160941528Y-83261112D01*
X161091573Y-83360156D01*
X161681539Y-83768886D01*
X161826916Y-83874509D01*
X162397975Y-84309314D01*
X162538522Y-84421398D01*
X163089405Y-84881308D01*
X163224827Y-84999623D01*
X163754538Y-85483800D01*
X163884489Y-85608046D01*
X164391953Y-86115510D01*
X164516199Y-86245461D01*
X165000376Y-86775172D01*
X165118691Y-86910594D01*
X165204135Y-87012939D01*
X165530224Y-87403531D01*
X165578615Y-87461493D01*
X165690701Y-87602045D01*
X166125486Y-88173077D01*
X166231122Y-88318473D01*
X166639840Y-88908422D01*
X166738893Y-89058481D01*
X167120694Y-89666114D01*
X167212931Y-89820492D01*
X167567097Y-90444664D01*
X167652284Y-90602965D01*
X167753336Y-90801292D01*
X167978099Y-91242414D01*
X168056116Y-91404417D01*
X168352908Y-92057826D01*
X168423572Y-92223152D01*
X168690758Y-92889237D01*
X168753921Y-93057534D01*
X168990958Y-93734946D01*
X169046515Y-93905935D01*
X169252917Y-94593285D01*
X169300741Y-94766572D01*
X169476100Y-95462499D01*
X169490338Y-95524877D01*
X169516107Y-95637781D01*
X169660060Y-96340845D01*
X169692168Y-96517779D01*
X169804432Y-97226583D01*
X169828567Y-97404757D01*
X169908920Y-98117909D01*
X169925036Y-98296974D01*
X169973313Y-99013012D01*
X169981379Y-99192613D01*
X169999468Y-99998606D01*
X169999468Y-100001392D01*
X169981379Y-100807386D01*
X169973313Y-100986987D01*
X169925036Y-101703025D01*
X169908920Y-101882090D01*
X169828567Y-102595242D01*
X169804432Y-102773416D01*
X169692168Y-103482220D01*
X169660060Y-103659154D01*
X169516107Y-104362218D01*
X169482606Y-104509000D01*
X169476107Y-104537470D01*
X169427570Y-104730097D01*
X169300742Y-105233425D01*
X169252917Y-105406714D01*
X169046515Y-106094064D01*
X168990958Y-106265053D01*
X168753921Y-106942465D01*
X168690758Y-107110762D01*
X168423572Y-107776847D01*
X168352908Y-107942173D01*
X168056116Y-108595582D01*
X167978099Y-108757585D01*
X167652290Y-109397022D01*
X167567097Y-109555335D01*
X167212931Y-110179507D01*
X167120694Y-110333885D01*
X166738893Y-110941518D01*
X166639840Y-111091577D01*
X166231122Y-111681526D01*
X166125486Y-111826922D01*
X165690701Y-112397954D01*
X165578615Y-112538506D01*
X165118691Y-113089405D01*
X165000376Y-113224827D01*
X164516199Y-113754538D01*
X164391953Y-113884489D01*
X163884489Y-114391953D01*
X163754538Y-114516199D01*
X163224827Y-115000376D01*
X163089405Y-115118691D01*
X162538506Y-115578615D01*
X162397954Y-115690701D01*
X161826922Y-116125486D01*
X161681526Y-116231122D01*
X161091577Y-116639840D01*
X160941518Y-116738893D01*
X160333885Y-117120694D01*
X160179507Y-117212931D01*
X159555335Y-117567097D01*
X159397022Y-117652290D01*
X158757585Y-117978099D01*
X158595582Y-118056116D01*
X157942173Y-118352908D01*
X157776847Y-118423572D01*
X157110762Y-118690758D01*
X156942465Y-118753921D01*
X156265053Y-118990958D01*
X156094064Y-119046515D01*
X155406714Y-119252917D01*
X155233425Y-119300742D01*
X154537511Y-119476097D01*
X154431289Y-119500342D01*
X154362218Y-119516107D01*
X153659154Y-119660060D01*
X153482220Y-119692168D01*
X153073504Y-119756901D01*
X153004210Y-119747946D01*
X152950758Y-119702950D01*
X152930119Y-119636198D01*
X152948844Y-119568885D01*
X152983952Y-119533007D01*
X152983768Y-119532771D01*
X152985510Y-119531414D01*
X152986297Y-119530611D01*
X152987795Y-119529631D01*
X152987815Y-119529621D01*
X153167703Y-119389608D01*
X153322092Y-119221897D01*
X153446771Y-119031061D01*
X153538339Y-118822307D01*
X153594299Y-118601328D01*
X153613123Y-118374152D01*
X153613123Y-118374145D01*
X153594300Y-118146983D01*
X153594298Y-118146972D01*
X153538339Y-117925996D01*
X153446772Y-117717246D01*
X153446771Y-117717243D01*
X153390272Y-117630765D01*
X153370086Y-117563877D01*
X153389266Y-117496691D01*
X153441724Y-117450541D01*
X153488125Y-117440264D01*
X153488052Y-117439327D01*
X153736128Y-117419803D01*
X153973366Y-117362848D01*
X154198770Y-117269483D01*
X154400851Y-117145646D01*
X153856143Y-116600939D01*
X153822658Y-116539616D01*
X153827642Y-116469925D01*
X153869513Y-116413991D01*
X153870858Y-116412999D01*
X153941401Y-116361747D01*
X154027780Y-116257332D01*
X154085677Y-116218226D01*
X154155529Y-116216630D01*
X154211003Y-116248693D01*
X154754403Y-116792094D01*
X154878240Y-116590013D01*
X154971605Y-116364609D01*
X155028560Y-116127371D01*
X155047701Y-115884152D01*
X155028560Y-115640932D01*
X154971605Y-115403694D01*
X154878240Y-115178290D01*
X154754403Y-114976208D01*
X154210576Y-115520036D01*
X154149253Y-115553521D01*
X154079561Y-115548537D01*
X154023628Y-115506665D01*
X154018199Y-115498798D01*
X154016680Y-115496404D01*
X153997723Y-115466533D01*
X153933851Y-115406554D01*
X153878006Y-115354112D01*
X153874641Y-115351667D01*
X153872640Y-115349072D01*
X153872319Y-115348771D01*
X153872367Y-115348719D01*
X153831973Y-115296339D01*
X153825991Y-115226726D01*
X153858594Y-115164930D01*
X153859841Y-115163665D01*
X154400851Y-114622656D01*
X154198770Y-114498820D01*
X153973366Y-114405455D01*
X153736128Y-114348500D01*
X153736129Y-114348500D01*
X153492908Y-114329359D01*
X153249689Y-114348500D01*
X153012451Y-114405455D01*
X152787055Y-114498817D01*
X152787050Y-114498820D01*
X152584965Y-114622656D01*
X153129674Y-115167364D01*
X153163159Y-115228687D01*
X153158175Y-115298378D01*
X153116304Y-115354312D01*
X153114879Y-115355362D01*
X153044419Y-115406554D01*
X153044417Y-115406557D01*
X152958039Y-115510970D01*
X152900139Y-115550077D01*
X152830287Y-115551673D01*
X152774814Y-115519610D01*
X152231413Y-114976208D01*
X152107577Y-115178293D01*
X152107574Y-115178298D01*
X152014212Y-115403694D01*
X151957257Y-115640932D01*
X151938116Y-115884152D01*
X151957257Y-116127371D01*
X152014212Y-116364609D01*
X152107577Y-116590013D01*
X152235055Y-116798037D01*
X152237765Y-116801767D01*
X152261245Y-116867573D01*
X152245419Y-116935627D01*
X152195313Y-116984322D01*
X152137447Y-116998652D01*
X152118932Y-116998652D01*
X152073962Y-117006156D01*
X151894082Y-117036172D01*
X151678490Y-117110186D01*
X151678476Y-117110192D01*
X151478008Y-117218679D01*
X151477999Y-117218685D01*
X151298121Y-117358690D01*
X151298117Y-117358693D01*
X151143723Y-117526409D01*
X151019046Y-117717243D01*
X150927478Y-117925996D01*
X150871519Y-118146972D01*
X150871517Y-118146983D01*
X150852695Y-118374145D01*
X150852695Y-118374158D01*
X150871517Y-118601320D01*
X150871519Y-118601331D01*
X150927478Y-118822307D01*
X151019046Y-119031060D01*
X151143723Y-119221894D01*
X151298117Y-119389610D01*
X151298121Y-119389613D01*
X151437468Y-119498071D01*
X151478003Y-119529621D01*
X151478005Y-119529622D01*
X151478008Y-119529624D01*
X151594555Y-119592695D01*
X151678483Y-119638115D01*
X151722799Y-119653328D01*
X151796115Y-119678499D01*
X151853131Y-119718885D01*
X151879261Y-119783684D01*
X151866209Y-119852324D01*
X151818120Y-119903012D01*
X151766967Y-119919281D01*
X151703025Y-119925036D01*
X150986987Y-119973313D01*
X150807386Y-119981379D01*
X150089870Y-119997483D01*
X149910130Y-119997483D01*
X149192613Y-119981379D01*
X149013012Y-119973313D01*
X148296973Y-119925036D01*
X148205948Y-119916843D01*
X148140943Y-119891228D01*
X148100106Y-119834535D01*
X148096402Y-119764763D01*
X148131008Y-119704065D01*
X148176797Y-119676062D01*
X148287335Y-119638115D01*
X148487815Y-119529621D01*
X148667703Y-119389608D01*
X148822092Y-119221897D01*
X148946771Y-119031061D01*
X149038339Y-118822307D01*
X149094299Y-118601328D01*
X149113123Y-118374152D01*
X149113123Y-118374145D01*
X149094300Y-118146983D01*
X149094298Y-118146972D01*
X149038339Y-117925996D01*
X148946771Y-117717243D01*
X148822094Y-117526409D01*
X148667700Y-117358693D01*
X148667696Y-117358690D01*
X148487818Y-117218685D01*
X148487809Y-117218679D01*
X148287341Y-117110192D01*
X148287338Y-117110191D01*
X148287335Y-117110189D01*
X148287329Y-117110187D01*
X148287327Y-117110186D01*
X148071735Y-117036172D01*
X147903097Y-117008032D01*
X147846886Y-116998652D01*
X147838371Y-116998652D01*
X147771332Y-116978967D01*
X147725577Y-116926163D01*
X147715633Y-116857005D01*
X147738053Y-116801767D01*
X147740762Y-116798037D01*
X147868240Y-116590013D01*
X147961605Y-116364609D01*
X148018560Y-116127371D01*
X148037701Y-115884152D01*
X148018560Y-115640932D01*
X147961605Y-115403694D01*
X147868240Y-115178290D01*
X147744403Y-114976208D01*
X147200576Y-115520036D01*
X147139253Y-115553521D01*
X147069561Y-115548537D01*
X147013628Y-115506665D01*
X147008199Y-115498798D01*
X147006680Y-115496404D01*
X146987723Y-115466533D01*
X146923851Y-115406554D01*
X146868006Y-115354112D01*
X146864641Y-115351667D01*
X146862640Y-115349072D01*
X146862319Y-115348771D01*
X146862367Y-115348719D01*
X146821973Y-115296339D01*
X146815991Y-115226726D01*
X146848594Y-115164930D01*
X146849841Y-115163665D01*
X147390851Y-114622656D01*
X147188770Y-114498820D01*
X146963366Y-114405455D01*
X146726128Y-114348500D01*
X146726129Y-114348500D01*
X146482909Y-114329359D01*
X146239689Y-114348500D01*
X146002451Y-114405455D01*
X145777055Y-114498817D01*
X145777050Y-114498820D01*
X145574965Y-114622656D01*
X146119674Y-115167364D01*
X146153159Y-115228687D01*
X146148175Y-115298378D01*
X146106304Y-115354312D01*
X146104879Y-115355362D01*
X146034419Y-115406554D01*
X146034417Y-115406557D01*
X145948039Y-115510970D01*
X145890139Y-115550077D01*
X145820287Y-115551673D01*
X145764814Y-115519610D01*
X145221413Y-114976208D01*
X145097577Y-115178293D01*
X145097574Y-115178298D01*
X145004212Y-115403694D01*
X144947257Y-115640932D01*
X144928116Y-115884152D01*
X144947257Y-116127371D01*
X145004212Y-116364609D01*
X145097577Y-116590013D01*
X145221413Y-116792094D01*
X145765240Y-116248266D01*
X145826563Y-116214781D01*
X145896254Y-116219765D01*
X145952188Y-116261636D01*
X145957616Y-116269502D01*
X145978096Y-116301772D01*
X145978097Y-116301773D01*
X146097813Y-116414193D01*
X146101175Y-116416636D01*
X146103173Y-116419226D01*
X146103499Y-116419533D01*
X146103449Y-116419585D01*
X146143843Y-116471964D01*
X146149824Y-116541577D01*
X146117220Y-116603373D01*
X146115974Y-116604637D01*
X145574965Y-117145646D01*
X145777047Y-117269483D01*
X146002451Y-117362848D01*
X146239689Y-117419803D01*
X146239688Y-117419803D01*
X146481772Y-117438855D01*
X146547060Y-117463739D01*
X146588531Y-117519970D01*
X146593018Y-117589695D01*
X146575852Y-117630293D01*
X146519048Y-117717239D01*
X146427478Y-117925996D01*
X146371519Y-118146972D01*
X146371517Y-118146983D01*
X146352695Y-118374145D01*
X146352695Y-118374158D01*
X146371517Y-118601320D01*
X146371519Y-118601331D01*
X146427478Y-118822307D01*
X146519046Y-119031060D01*
X146643723Y-119221894D01*
X146798117Y-119389610D01*
X146798121Y-119389613D01*
X146977967Y-119529593D01*
X147018780Y-119586303D01*
X147022455Y-119656076D01*
X146987823Y-119716759D01*
X146925882Y-119749086D01*
X146882407Y-119749919D01*
X146517779Y-119692168D01*
X146340845Y-119660060D01*
X145637781Y-119516107D01*
X145617397Y-119511454D01*
X145462499Y-119476100D01*
X144766572Y-119300741D01*
X144593285Y-119252917D01*
X143905935Y-119046515D01*
X143734946Y-118990958D01*
X143057534Y-118753921D01*
X142889237Y-118690758D01*
X142223152Y-118423572D01*
X142057826Y-118352908D01*
X141404417Y-118056116D01*
X141242414Y-117978099D01*
X140602989Y-117652296D01*
X140558473Y-117628341D01*
X140444664Y-117567097D01*
X139820492Y-117212931D01*
X139666114Y-117120694D01*
X139058481Y-116738893D01*
X138908422Y-116639840D01*
X138318473Y-116231122D01*
X138298526Y-116216630D01*
X138173068Y-116125479D01*
X138122017Y-116086609D01*
X137602045Y-115690701D01*
X137539636Y-115640932D01*
X137461493Y-115578615D01*
X137228481Y-115384082D01*
X136910594Y-115118691D01*
X136775172Y-115000376D01*
X136245461Y-114516199D01*
X136115510Y-114391953D01*
X135608046Y-113884489D01*
X135483800Y-113754538D01*
X134999623Y-113224827D01*
X134881308Y-113089405D01*
X134421398Y-112538522D01*
X134309298Y-112397954D01*
X134079949Y-112096735D01*
X133874509Y-111826916D01*
X133768877Y-111681526D01*
X133687816Y-111564521D01*
X155109142Y-111564521D01*
X155128928Y-111752777D01*
X155128929Y-111752780D01*
X155187420Y-111932798D01*
X155187423Y-111932805D01*
X155282069Y-112096737D01*
X155408730Y-112237408D01*
X155408731Y-112237409D01*
X155561867Y-112348669D01*
X155561872Y-112348672D01*
X155734794Y-112425663D01*
X155734799Y-112425665D01*
X155919956Y-112465021D01*
X155919957Y-112465021D01*
X156109246Y-112465021D01*
X156109248Y-112465021D01*
X156294405Y-112425665D01*
X156467332Y-112348672D01*
X156620473Y-112237409D01*
X156747135Y-112096737D01*
X156841781Y-111932805D01*
X156900276Y-111752777D01*
X156920062Y-111564521D01*
X156900276Y-111376265D01*
X156841781Y-111196237D01*
X156747135Y-111032305D01*
X156620473Y-110891633D01*
X156620472Y-110891632D01*
X156467336Y-110780372D01*
X156467331Y-110780369D01*
X156294409Y-110703378D01*
X156294404Y-110703376D01*
X156148603Y-110672386D01*
X156109248Y-110664021D01*
X155919956Y-110664021D01*
X155887499Y-110670919D01*
X155734799Y-110703376D01*
X155734794Y-110703378D01*
X155561872Y-110780369D01*
X155561867Y-110780372D01*
X155408731Y-110891632D01*
X155282068Y-111032306D01*
X155187423Y-111196236D01*
X155187420Y-111196243D01*
X155128929Y-111376261D01*
X155128928Y-111376265D01*
X155109142Y-111564521D01*
X133687816Y-111564521D01*
X133360156Y-111091573D01*
X133261106Y-110941518D01*
X133159849Y-110780369D01*
X132879304Y-110333884D01*
X132787068Y-110179507D01*
X132432902Y-109555335D01*
X132403669Y-109501011D01*
X132347710Y-109397022D01*
X132021900Y-108757585D01*
X131943883Y-108595582D01*
X131647091Y-107942173D01*
X131576427Y-107776847D01*
X131309234Y-107110745D01*
X131246077Y-106942462D01*
X131009040Y-106265050D01*
X130953483Y-106094060D01*
X130913084Y-105959524D01*
X130802493Y-105591240D01*
X146039912Y-105591240D01*
X146059698Y-105779496D01*
X146059699Y-105779499D01*
X146118190Y-105959517D01*
X146118193Y-105959524D01*
X146212839Y-106123456D01*
X146339500Y-106264128D01*
X146339501Y-106264128D01*
X146492637Y-106375388D01*
X146492642Y-106375391D01*
X146665564Y-106452382D01*
X146665569Y-106452384D01*
X146850726Y-106491740D01*
X146850727Y-106491740D01*
X147040016Y-106491740D01*
X147040018Y-106491740D01*
X147225175Y-106452384D01*
X147398102Y-106375391D01*
X147551243Y-106264128D01*
X147677905Y-106123456D01*
X147772551Y-105959524D01*
X147831046Y-105779496D01*
X147850832Y-105591240D01*
X147831046Y-105402984D01*
X147772551Y-105222956D01*
X147677905Y-105059024D01*
X147551243Y-104918352D01*
X147551242Y-104918351D01*
X147398106Y-104807091D01*
X147398101Y-104807088D01*
X147225179Y-104730097D01*
X147225174Y-104730095D01*
X147079373Y-104699105D01*
X147040018Y-104690740D01*
X146850726Y-104690740D01*
X146818269Y-104697638D01*
X146665569Y-104730095D01*
X146665564Y-104730097D01*
X146492642Y-104807088D01*
X146492637Y-104807091D01*
X146339501Y-104918351D01*
X146212838Y-105059025D01*
X146118193Y-105222955D01*
X146118190Y-105222962D01*
X146085943Y-105322210D01*
X146059698Y-105402984D01*
X146039912Y-105591240D01*
X130802493Y-105591240D01*
X130747076Y-105406692D01*
X130699257Y-105233422D01*
X130523888Y-104537454D01*
X130483893Y-104362218D01*
X130438540Y-104140716D01*
X136424963Y-104140716D01*
X136444749Y-104328972D01*
X136444750Y-104328975D01*
X136503241Y-104508993D01*
X136503244Y-104509000D01*
X136597890Y-104672932D01*
X136649360Y-104730095D01*
X136724552Y-104813604D01*
X136877688Y-104924864D01*
X136877693Y-104924867D01*
X137050615Y-105001858D01*
X137050620Y-105001860D01*
X137235777Y-105041216D01*
X137235778Y-105041216D01*
X137425067Y-105041216D01*
X137425069Y-105041216D01*
X137610226Y-105001860D01*
X137783153Y-104924867D01*
X137936294Y-104813604D01*
X138062956Y-104672932D01*
X138157602Y-104509000D01*
X138216097Y-104328972D01*
X138235883Y-104140716D01*
X138216097Y-103952460D01*
X138157602Y-103772432D01*
X138062956Y-103608500D01*
X137936294Y-103467828D01*
X137936293Y-103467827D01*
X137783157Y-103356567D01*
X137783152Y-103356564D01*
X137610230Y-103279573D01*
X137610225Y-103279571D01*
X137464423Y-103248581D01*
X137425069Y-103240216D01*
X137235777Y-103240216D01*
X137203320Y-103247114D01*
X137050620Y-103279571D01*
X137050615Y-103279573D01*
X136877693Y-103356564D01*
X136877688Y-103356567D01*
X136724552Y-103467827D01*
X136597889Y-103608501D01*
X136503244Y-103772431D01*
X136503241Y-103772438D01*
X136444750Y-103952456D01*
X136444749Y-103952460D01*
X136424963Y-104140716D01*
X130438540Y-104140716D01*
X130339938Y-103659148D01*
X130307831Y-103482220D01*
X130195567Y-102773416D01*
X130171432Y-102595242D01*
X130142428Y-102337824D01*
X130091078Y-101882081D01*
X130084196Y-101805610D01*
X158307990Y-101805610D01*
X158327776Y-101993866D01*
X158327777Y-101993869D01*
X158386268Y-102173887D01*
X158386271Y-102173894D01*
X158480917Y-102337826D01*
X158607579Y-102478498D01*
X158760715Y-102589758D01*
X158760720Y-102589761D01*
X158933642Y-102666752D01*
X158933647Y-102666754D01*
X159118804Y-102706110D01*
X159118805Y-102706110D01*
X159308094Y-102706110D01*
X159308096Y-102706110D01*
X159493253Y-102666754D01*
X159666180Y-102589761D01*
X159819321Y-102478498D01*
X159945983Y-102337826D01*
X160040629Y-102173894D01*
X160099124Y-101993866D01*
X160118910Y-101805610D01*
X160099124Y-101617354D01*
X160040629Y-101437326D01*
X159945983Y-101273394D01*
X159819321Y-101132722D01*
X159819320Y-101132721D01*
X159666184Y-101021461D01*
X159666179Y-101021458D01*
X159493257Y-100944467D01*
X159493252Y-100944465D01*
X159347450Y-100913475D01*
X159308096Y-100905110D01*
X159118804Y-100905110D01*
X159086347Y-100912008D01*
X158933647Y-100944465D01*
X158933642Y-100944467D01*
X158760720Y-101021458D01*
X158760715Y-101021461D01*
X158607579Y-101132721D01*
X158480916Y-101273395D01*
X158386271Y-101437325D01*
X158386268Y-101437332D01*
X158327777Y-101617350D01*
X158327776Y-101617354D01*
X158318772Y-101703025D01*
X158309343Y-101792741D01*
X158307990Y-101805610D01*
X130084196Y-101805610D01*
X130074963Y-101703025D01*
X130069187Y-101617354D01*
X130026684Y-100986950D01*
X130018620Y-100807403D01*
X130002517Y-100089869D01*
X130002517Y-99910130D01*
X130018620Y-99192596D01*
X130026687Y-99013012D01*
X130074964Y-98296962D01*
X130082833Y-98209528D01*
X130091079Y-98117909D01*
X130171432Y-97404751D01*
X130179068Y-97348384D01*
X130195562Y-97226617D01*
X130302453Y-96551733D01*
X141112667Y-96551733D01*
X141132453Y-96739989D01*
X141132454Y-96739992D01*
X141190945Y-96920010D01*
X141190948Y-96920017D01*
X141285594Y-97083949D01*
X141354186Y-97160128D01*
X141412256Y-97224621D01*
X141565392Y-97335881D01*
X141565397Y-97335884D01*
X141738319Y-97412875D01*
X141738324Y-97412877D01*
X141923481Y-97452233D01*
X141923482Y-97452233D01*
X142112771Y-97452233D01*
X142112773Y-97452233D01*
X142297930Y-97412877D01*
X142442782Y-97348384D01*
X146723765Y-97348384D01*
X146743551Y-97536640D01*
X146743552Y-97536643D01*
X146802043Y-97716661D01*
X146802046Y-97716668D01*
X146896692Y-97880600D01*
X147023354Y-98021271D01*
X147023354Y-98021272D01*
X147176490Y-98132532D01*
X147176495Y-98132535D01*
X147349417Y-98209526D01*
X147349422Y-98209528D01*
X147534579Y-98248884D01*
X147534580Y-98248884D01*
X147723869Y-98248884D01*
X147723871Y-98248884D01*
X147909028Y-98209528D01*
X148081955Y-98132535D01*
X148235096Y-98021272D01*
X148361758Y-97880600D01*
X148456404Y-97716668D01*
X148514899Y-97536640D01*
X148534685Y-97348384D01*
X148514899Y-97160128D01*
X148456404Y-96980100D01*
X148361758Y-96816168D01*
X148235096Y-96675496D01*
X148235095Y-96675495D01*
X148081959Y-96564235D01*
X148081954Y-96564232D01*
X147909032Y-96487241D01*
X147909027Y-96487239D01*
X147763225Y-96456249D01*
X147723871Y-96447884D01*
X147534579Y-96447884D01*
X147502122Y-96454782D01*
X147349422Y-96487239D01*
X147349417Y-96487241D01*
X147176495Y-96564232D01*
X147176490Y-96564235D01*
X147023354Y-96675495D01*
X146896691Y-96816169D01*
X146802046Y-96980099D01*
X146802043Y-96980106D01*
X146768303Y-97083949D01*
X146743551Y-97160128D01*
X146723765Y-97348384D01*
X142442782Y-97348384D01*
X142470857Y-97335884D01*
X142623998Y-97224621D01*
X142750660Y-97083949D01*
X142845306Y-96920017D01*
X142903801Y-96739989D01*
X142923587Y-96551733D01*
X142903801Y-96363477D01*
X142845306Y-96183449D01*
X142772354Y-96057092D01*
X153026577Y-96057092D01*
X153046363Y-96245348D01*
X153046364Y-96245351D01*
X153104855Y-96425369D01*
X153104858Y-96425376D01*
X153199504Y-96589308D01*
X153326165Y-96729980D01*
X153326166Y-96729980D01*
X153479302Y-96841240D01*
X153479307Y-96841243D01*
X153652229Y-96918234D01*
X153652234Y-96918236D01*
X153837391Y-96957592D01*
X153837392Y-96957592D01*
X154026681Y-96957592D01*
X154026683Y-96957592D01*
X154211840Y-96918236D01*
X154384767Y-96841243D01*
X154537908Y-96729980D01*
X154664570Y-96589308D01*
X154759216Y-96425376D01*
X154817711Y-96245348D01*
X154837497Y-96057092D01*
X154817711Y-95868836D01*
X154759216Y-95688808D01*
X154664570Y-95524876D01*
X154537908Y-95384204D01*
X154537907Y-95384203D01*
X154384771Y-95272943D01*
X154384766Y-95272940D01*
X154211844Y-95195949D01*
X154211839Y-95195947D01*
X154066038Y-95164957D01*
X154026683Y-95156592D01*
X153837391Y-95156592D01*
X153804934Y-95163490D01*
X153652234Y-95195947D01*
X153652229Y-95195949D01*
X153479307Y-95272940D01*
X153479302Y-95272943D01*
X153326166Y-95384203D01*
X153199503Y-95524877D01*
X153104858Y-95688807D01*
X153104855Y-95688814D01*
X153046364Y-95868832D01*
X153046363Y-95868836D01*
X153026577Y-96057092D01*
X142772354Y-96057092D01*
X142750660Y-96019517D01*
X142623998Y-95878845D01*
X142610222Y-95868836D01*
X142470861Y-95767584D01*
X142470856Y-95767581D01*
X142297934Y-95690590D01*
X142297929Y-95690588D01*
X142152128Y-95659598D01*
X142112773Y-95651233D01*
X141923481Y-95651233D01*
X141891024Y-95658131D01*
X141738324Y-95690588D01*
X141738319Y-95690590D01*
X141565397Y-95767581D01*
X141565392Y-95767584D01*
X141412256Y-95878844D01*
X141285593Y-96019518D01*
X141190948Y-96183448D01*
X141190945Y-96183455D01*
X141132454Y-96363473D01*
X141132453Y-96363477D01*
X141112667Y-96551733D01*
X130302453Y-96551733D01*
X130307831Y-96517777D01*
X130320515Y-96447884D01*
X130339931Y-96340886D01*
X130483894Y-95637771D01*
X130523893Y-95462524D01*
X130699259Y-94766567D01*
X130747083Y-94593285D01*
X130953489Y-93905919D01*
X131009028Y-93734984D01*
X131246079Y-93057532D01*
X131309229Y-92889269D01*
X131576434Y-92223135D01*
X131647091Y-92057826D01*
X131943900Y-91404380D01*
X132021880Y-91242453D01*
X132347710Y-90602976D01*
X132432904Y-90444660D01*
X132719172Y-89940150D01*
X146679041Y-89940150D01*
X146698827Y-90128406D01*
X146698828Y-90128409D01*
X146757319Y-90308427D01*
X146757322Y-90308434D01*
X146851968Y-90472366D01*
X146894861Y-90520003D01*
X146978630Y-90613038D01*
X147131766Y-90724298D01*
X147131771Y-90724301D01*
X147304693Y-90801292D01*
X147304698Y-90801294D01*
X147489855Y-90840650D01*
X147489856Y-90840650D01*
X147679145Y-90840650D01*
X147679147Y-90840650D01*
X147864304Y-90801294D01*
X148037231Y-90724301D01*
X148190372Y-90613038D01*
X148317034Y-90472366D01*
X148411680Y-90308434D01*
X148470175Y-90128406D01*
X148489961Y-89940150D01*
X148470175Y-89751894D01*
X148411680Y-89571866D01*
X148317034Y-89407934D01*
X148190372Y-89267262D01*
X148190371Y-89267261D01*
X148037235Y-89156001D01*
X148037230Y-89155998D01*
X147864308Y-89079007D01*
X147864303Y-89079005D01*
X147718502Y-89048015D01*
X147679147Y-89039650D01*
X147489855Y-89039650D01*
X147457398Y-89046548D01*
X147304698Y-89079005D01*
X147304693Y-89079007D01*
X147131771Y-89155998D01*
X147131766Y-89156001D01*
X146978630Y-89267261D01*
X146851967Y-89407935D01*
X146757322Y-89571865D01*
X146757319Y-89571872D01*
X146698828Y-89751890D01*
X146698827Y-89751894D01*
X146679041Y-89940150D01*
X132719172Y-89940150D01*
X132787084Y-89820464D01*
X132879281Y-89666152D01*
X133261135Y-89058436D01*
X133360132Y-88908462D01*
X133768896Y-88318446D01*
X133874514Y-88173077D01*
X134309315Y-87602023D01*
X134421350Y-87461534D01*
X134881315Y-86910585D01*
X134999623Y-86775172D01*
X135039925Y-86731080D01*
X135044831Y-86725713D01*
X144680000Y-86725713D01*
X144695418Y-86877338D01*
X144756299Y-87071381D01*
X144756304Y-87071391D01*
X144855005Y-87249215D01*
X144855005Y-87249216D01*
X144987478Y-87403530D01*
X144987479Y-87403531D01*
X145148304Y-87528018D01*
X145330907Y-87617589D01*
X145430000Y-87643244D01*
X145430000Y-87079978D01*
X145449685Y-87012939D01*
X145502489Y-86967184D01*
X145571647Y-86957240D01*
X145587926Y-86960709D01*
X145651840Y-86978895D01*
X145763521Y-86968546D01*
X145763526Y-86968543D01*
X145772063Y-86966115D01*
X145841930Y-86966701D01*
X145900390Y-87004966D01*
X145928881Y-87068763D01*
X145930000Y-87085381D01*
X145930000Y-87648366D01*
X145931944Y-87648069D01*
X145931945Y-87648069D01*
X146122660Y-87577436D01*
X146122664Y-87577434D01*
X146295267Y-87469850D01*
X146442668Y-87329735D01*
X146442669Y-87329733D01*
X146558856Y-87162804D01*
X146639059Y-86975907D01*
X146680000Y-86776690D01*
X146680000Y-86375000D01*
X146104000Y-86375000D01*
X146036961Y-86355315D01*
X145991206Y-86302511D01*
X145980000Y-86251000D01*
X145980000Y-85999000D01*
X145999685Y-85931961D01*
X146052489Y-85886206D01*
X146104000Y-85875000D01*
X146651680Y-85875000D01*
X146718719Y-85894685D01*
X146745393Y-85917798D01*
X146746945Y-85919589D01*
X146850278Y-86009127D01*
X146850285Y-86009132D01*
X146947827Y-86053677D01*
X146974658Y-86065931D01*
X147075989Y-86080500D01*
X147075992Y-86080500D01*
X147144008Y-86080500D01*
X147144011Y-86080500D01*
X147245342Y-86065931D01*
X147369718Y-86009130D01*
X147473055Y-85919589D01*
X147546978Y-85804561D01*
X147585500Y-85673367D01*
X147585500Y-85536633D01*
X147546978Y-85405440D01*
X147546979Y-85405440D01*
X147473057Y-85290413D01*
X147473053Y-85290409D01*
X147369721Y-85200872D01*
X147369714Y-85200867D01*
X147245345Y-85144070D01*
X147245343Y-85144069D01*
X147245342Y-85144069D01*
X147245337Y-85144068D01*
X147245336Y-85144068D01*
X147144011Y-85129500D01*
X147075989Y-85129500D01*
X147075988Y-85129500D01*
X146974663Y-85144068D01*
X146974654Y-85144070D01*
X146850285Y-85200867D01*
X146850278Y-85200872D01*
X146804803Y-85240276D01*
X146741247Y-85269300D01*
X146672089Y-85259356D01*
X146619286Y-85213600D01*
X146605288Y-85183681D01*
X146603698Y-85178614D01*
X146603695Y-85178608D01*
X146554040Y-85089147D01*
X148981801Y-85089147D01*
X149001587Y-85277403D01*
X149001588Y-85277406D01*
X149060079Y-85457424D01*
X149060082Y-85457431D01*
X149154728Y-85621363D01*
X149201553Y-85673367D01*
X149281390Y-85762035D01*
X149434526Y-85873295D01*
X149434531Y-85873298D01*
X149607453Y-85950289D01*
X149607458Y-85950291D01*
X149792615Y-85989647D01*
X149792616Y-85989647D01*
X149981905Y-85989647D01*
X149981907Y-85989647D01*
X150167064Y-85950291D01*
X150339991Y-85873298D01*
X150493132Y-85762035D01*
X150572969Y-85673367D01*
X152414500Y-85673367D01*
X152453021Y-85804559D01*
X152453020Y-85804559D01*
X152526942Y-85919586D01*
X152526946Y-85919590D01*
X152630278Y-86009127D01*
X152630285Y-86009132D01*
X152727827Y-86053677D01*
X152754658Y-86065931D01*
X152855989Y-86080500D01*
X152855992Y-86080500D01*
X152924008Y-86080500D01*
X152924011Y-86080500D01*
X153025342Y-86065931D01*
X153149718Y-86009130D01*
X153253055Y-85919589D01*
X153253057Y-85919584D01*
X153254607Y-85917798D01*
X153256601Y-85916516D01*
X153259758Y-85913781D01*
X153260151Y-85914234D01*
X153313384Y-85880023D01*
X153348320Y-85875000D01*
X153896000Y-85875000D01*
X153963039Y-85894685D01*
X154008794Y-85947489D01*
X154020000Y-85999000D01*
X154020000Y-86251000D01*
X154000315Y-86318039D01*
X153947511Y-86363794D01*
X153896000Y-86375000D01*
X153320000Y-86375000D01*
X153320000Y-86725713D01*
X153335418Y-86877338D01*
X153396299Y-87071381D01*
X153396304Y-87071391D01*
X153495005Y-87249215D01*
X153495005Y-87249216D01*
X153627478Y-87403530D01*
X153627479Y-87403531D01*
X153788304Y-87528018D01*
X153970907Y-87617589D01*
X154070000Y-87643244D01*
X154070000Y-87079978D01*
X154089685Y-87012939D01*
X154142489Y-86967184D01*
X154211647Y-86957240D01*
X154227926Y-86960709D01*
X154291840Y-86978895D01*
X154403521Y-86968546D01*
X154403526Y-86968543D01*
X154412063Y-86966115D01*
X154481930Y-86966701D01*
X154540390Y-87004966D01*
X154568881Y-87068763D01*
X154570000Y-87085381D01*
X154570000Y-87648366D01*
X154571944Y-87648069D01*
X154571945Y-87648069D01*
X154762660Y-87577436D01*
X154762664Y-87577434D01*
X154935267Y-87469850D01*
X155082668Y-87329735D01*
X155082669Y-87329733D01*
X155198856Y-87162804D01*
X155279059Y-86975907D01*
X155320000Y-86776690D01*
X155320000Y-86375000D01*
X154744000Y-86375000D01*
X154676961Y-86355315D01*
X154631206Y-86302511D01*
X154620000Y-86251000D01*
X154620000Y-85999000D01*
X154639685Y-85931961D01*
X154692489Y-85886206D01*
X154744000Y-85875000D01*
X155320000Y-85875000D01*
X155320000Y-85524286D01*
X155304581Y-85372661D01*
X155243700Y-85178618D01*
X155243695Y-85178608D01*
X155144994Y-85000784D01*
X155144994Y-85000783D01*
X155012521Y-84846469D01*
X155012520Y-84846468D01*
X154851695Y-84721981D01*
X154669093Y-84632411D01*
X154570000Y-84606753D01*
X154570000Y-85170021D01*
X154550315Y-85237060D01*
X154497511Y-85282815D01*
X154428353Y-85292759D01*
X154412066Y-85289287D01*
X154348162Y-85271105D01*
X154348162Y-85271104D01*
X154236475Y-85281454D01*
X154227931Y-85283885D01*
X154158064Y-85283297D01*
X154099606Y-85245028D01*
X154071118Y-85181230D01*
X154070000Y-85164618D01*
X154070000Y-84601633D01*
X154068053Y-84601931D01*
X154068047Y-84601933D01*
X153877342Y-84672562D01*
X153877335Y-84672565D01*
X153704732Y-84780149D01*
X153557331Y-84920264D01*
X153557330Y-84920266D01*
X153441143Y-85087195D01*
X153393508Y-85198200D01*
X153348981Y-85252044D01*
X153282413Y-85273267D01*
X153214938Y-85255132D01*
X153198355Y-85243013D01*
X153149722Y-85200872D01*
X153149714Y-85200867D01*
X153025345Y-85144070D01*
X153025343Y-85144069D01*
X153025342Y-85144069D01*
X153025337Y-85144068D01*
X153025336Y-85144068D01*
X152924011Y-85129500D01*
X152855989Y-85129500D01*
X152855988Y-85129500D01*
X152754663Y-85144068D01*
X152754654Y-85144070D01*
X152630285Y-85200867D01*
X152630278Y-85200872D01*
X152526946Y-85290409D01*
X152526942Y-85290413D01*
X152453021Y-85405440D01*
X152414500Y-85536632D01*
X152414500Y-85673367D01*
X150572969Y-85673367D01*
X150619794Y-85621363D01*
X150714440Y-85457431D01*
X150772935Y-85277403D01*
X150792721Y-85089147D01*
X150772935Y-84900891D01*
X150714440Y-84720863D01*
X150619794Y-84556931D01*
X150493132Y-84416259D01*
X150493131Y-84416258D01*
X150339995Y-84304998D01*
X150339990Y-84304995D01*
X150167068Y-84228004D01*
X150167063Y-84228002D01*
X150021262Y-84197012D01*
X149981907Y-84188647D01*
X149792615Y-84188647D01*
X149760158Y-84195545D01*
X149607458Y-84228002D01*
X149607453Y-84228004D01*
X149434531Y-84304995D01*
X149434526Y-84304998D01*
X149281390Y-84416258D01*
X149154727Y-84556932D01*
X149060082Y-84720862D01*
X149060079Y-84720869D01*
X149007950Y-84881308D01*
X149001587Y-84900891D01*
X148981801Y-85089147D01*
X146554040Y-85089147D01*
X146504994Y-85000784D01*
X146504994Y-85000783D01*
X146372521Y-84846469D01*
X146372520Y-84846468D01*
X146211695Y-84721981D01*
X146029093Y-84632411D01*
X145930000Y-84606753D01*
X145930000Y-85170021D01*
X145910315Y-85237060D01*
X145857511Y-85282815D01*
X145788353Y-85292759D01*
X145772066Y-85289287D01*
X145708162Y-85271105D01*
X145708162Y-85271104D01*
X145596475Y-85281454D01*
X145587931Y-85283885D01*
X145518064Y-85283297D01*
X145459606Y-85245028D01*
X145431118Y-85181230D01*
X145430000Y-85164618D01*
X145430000Y-84601633D01*
X145428053Y-84601931D01*
X145428047Y-84601933D01*
X145237342Y-84672562D01*
X145237335Y-84672565D01*
X145064732Y-84780149D01*
X144917331Y-84920264D01*
X144917330Y-84920266D01*
X144801143Y-85087195D01*
X144720940Y-85274092D01*
X144680000Y-85473309D01*
X144680000Y-85875000D01*
X145256000Y-85875000D01*
X145323039Y-85894685D01*
X145368794Y-85947489D01*
X145380000Y-85999000D01*
X145380000Y-86251000D01*
X145360315Y-86318039D01*
X145307511Y-86363794D01*
X145256000Y-86375000D01*
X144680000Y-86375000D01*
X144680000Y-86725713D01*
X135044831Y-86725713D01*
X135483818Y-86245441D01*
X135608024Y-86115532D01*
X136115532Y-85608024D01*
X136245441Y-85483818D01*
X136775172Y-84999623D01*
X136866003Y-84920266D01*
X136910594Y-84881308D01*
X137461534Y-84421350D01*
X137602023Y-84309315D01*
X138173082Y-83874509D01*
X138318446Y-83768896D01*
X138908462Y-83360132D01*
X139058436Y-83261135D01*
X139666152Y-82879281D01*
X139820464Y-82787084D01*
X140444668Y-82432899D01*
X140456208Y-82426690D01*
X140602976Y-82347710D01*
X141242453Y-82021880D01*
X141404380Y-81943900D01*
X142057830Y-81647089D01*
X142223153Y-81576427D01*
X142889269Y-81309229D01*
X143057532Y-81246079D01*
X143734984Y-81009028D01*
X143905927Y-80953486D01*
X144593290Y-80747081D01*
X144766544Y-80699265D01*
X144772284Y-80697819D01*
X144842099Y-80700521D01*
X144899372Y-80740540D01*
X144925918Y-80805171D01*
X144913307Y-80873893D01*
X144904364Y-80888895D01*
X144801143Y-81037195D01*
X144720940Y-81224092D01*
X144680000Y-81423309D01*
X144680000Y-81675000D01*
X145256000Y-81675000D01*
X145323039Y-81694685D01*
X145368794Y-81747489D01*
X145380000Y-81799000D01*
X145380000Y-82051000D01*
X145360315Y-82118039D01*
X145307511Y-82163794D01*
X145256000Y-82175000D01*
X144680000Y-82175000D01*
X144680000Y-82375713D01*
X144695418Y-82527338D01*
X144756299Y-82721381D01*
X144756304Y-82721391D01*
X144855005Y-82899215D01*
X144855005Y-82899216D01*
X144987478Y-83053530D01*
X144987479Y-83053531D01*
X145148304Y-83178018D01*
X145330907Y-83267589D01*
X145430000Y-83293244D01*
X145430000Y-82729978D01*
X145449685Y-82662939D01*
X145502489Y-82617184D01*
X145571647Y-82607240D01*
X145587926Y-82610709D01*
X145651840Y-82628895D01*
X145763521Y-82618546D01*
X145763526Y-82618543D01*
X145772063Y-82616115D01*
X145841930Y-82616701D01*
X145900390Y-82654966D01*
X145928881Y-82718763D01*
X145930000Y-82735381D01*
X145930000Y-83298366D01*
X145931944Y-83298069D01*
X145931945Y-83298069D01*
X146122660Y-83227436D01*
X146122664Y-83227434D01*
X146295267Y-83119850D01*
X146442668Y-82979735D01*
X146442669Y-82979733D01*
X146558856Y-82812804D01*
X146639059Y-82625907D01*
X146680000Y-82426690D01*
X146680000Y-82175000D01*
X146104000Y-82175000D01*
X146036961Y-82155315D01*
X145991206Y-82102511D01*
X145980000Y-82051000D01*
X145980000Y-81799000D01*
X145999685Y-81731961D01*
X146052489Y-81686206D01*
X146104000Y-81675000D01*
X146680000Y-81675000D01*
X146680000Y-81474286D01*
X146664581Y-81322661D01*
X146603700Y-81128618D01*
X146603695Y-81128608D01*
X146504994Y-80950784D01*
X146504994Y-80950783D01*
X146372521Y-80796469D01*
X146372520Y-80796468D01*
X146211695Y-80671981D01*
X146098244Y-80616331D01*
X146046725Y-80569134D01*
X146028900Y-80501577D01*
X146050430Y-80435107D01*
X146104478Y-80390828D01*
X146127969Y-80383526D01*
X146340886Y-80339931D01*
X146517742Y-80307836D01*
X147226617Y-80195562D01*
X147404737Y-80171434D01*
X148117934Y-80091076D01*
X148296958Y-80074964D01*
X149013013Y-80026686D01*
X149192596Y-80018620D01*
X149910130Y-80002517D01*
X150089870Y-80002517D01*
X150807403Y-80018620D01*
G37*
%TD.AperFunction*%
%TD*%
M02*
