M48
; DRILL file {KiCad 7.0.7} date Mon Oct  9 00:15:44 2023
; FORMAT={-:-/ absolute / inch / decimal}
; #@! TF.CreationDate,2023-10-09T00:15:44+08:00
; #@! TF.GenerationSoftware,Kicad,Pcbnew,7.0.7
; #@! TF.FileFunction,Plated,1,4,PTH
FMAT,2
INCH
; #@! TA.AperFunction,Plated,PTH,ViaDrill
T1C0.0157
; #@! TA.AperFunction,Plated,PTH,ComponentDrill
T2C0.0236
; #@! TA.AperFunction,Plated,PTH,ComponentDrill
T3C0.0390
; #@! TA.AperFunction,Plated,PTH,ComponentDrill
T4C0.0512
%
G90
G05
T1
X5.2597Y-4.0109
X5.4067Y-4.1
X5.532Y-3.9948
X5.5913Y-3.8012
X5.667Y-4.3872
X5.7498Y-3.6236
X5.7853Y-4.1571
X5.8055Y-4.211
X5.8104Y-3.541
X5.8122Y-3.8326
X5.9011Y-3.35
X5.994Y-3.8315
X6.0603Y-3.7818
X6.0747Y-3.4758
X6.0986Y-3.625
X6.1423Y-4.3923
X6.2682Y-4.0081
X6.2811Y-3.8728
X6.4326Y-4.227
T3
X5.8163Y-4.6604
X5.9934Y-4.6604
T4
X5.767Y-4.5624
X6.043Y-4.5624
T2
G00X5.7354Y-3.2096
M15
G01X5.7354Y-3.2411
M16
G05
G00X5.7354Y-3.3691
M15
G01X5.7354Y-3.4124
M16
G05
G00X6.0756Y-3.2096
M15
G01X6.0756Y-3.2411
M16
G05
G00X6.0756Y-3.3691
M15
G01X6.0756Y-3.4124
M16
G05
T0
M30
