%TF.GenerationSoftware,KiCad,Pcbnew,7.0.7*%
%TF.CreationDate,2023-10-08T01:12:48+08:00*%
%TF.ProjectId,RM_47mm,524d5f34-376d-46d2-9e6b-696361645f70,rev?*%
%TF.SameCoordinates,Original*%
%TF.FileFunction,Copper,L3,Inr*%
%TF.FilePolarity,Positive*%
%FSLAX46Y46*%
G04 Gerber Fmt 4.6, Leading zero omitted, Abs format (unit mm)*
G04 Created by KiCad (PCBNEW 7.0.7) date 2023-10-08 01:12:48*
%MOMM*%
%LPD*%
G01*
G04 APERTURE LIST*
%TA.AperFunction,ComponentPad*%
%ADD10O,1.000000X1.800000*%
%TD*%
%TA.AperFunction,ComponentPad*%
%ADD11O,1.000000X2.100000*%
%TD*%
%TA.AperFunction,ComponentPad*%
%ADD12C,2.100000*%
%TD*%
%TA.AperFunction,ComponentPad*%
%ADD13C,1.750000*%
%TD*%
%TA.AperFunction,ViaPad*%
%ADD14C,0.800000*%
%TD*%
G04 APERTURE END LIST*
D10*
%TO.N,Earth*%
%TO.C,J1*%
X145680000Y-81925000D03*
D11*
X145680000Y-86125000D03*
X154320000Y-86125000D03*
D10*
X154320000Y-81925000D03*
%TD*%
D12*
%TO.N,Earth*%
%TO.C,SW3*%
X146482909Y-115884152D03*
X153492909Y-115884152D03*
D13*
%TO.N,Net-(SW3-3)*%
X147732909Y-118374152D03*
%TO.N,/VCC_3V3*%
X152232909Y-118374152D03*
%TD*%
D14*
%TO.N,Earth*%
X154297050Y-88284974D03*
%TO.N,/VCC_3V3*%
X137330423Y-104140716D03*
X145024288Y-91444939D03*
X152495852Y-91746808D03*
%TO.N,Earth*%
X163388735Y-107365477D03*
%TO.N,/VCC_3V3*%
X155317912Y-107634484D03*
X161294635Y-100164239D03*
X159823557Y-91243557D03*
%TO.N,/LED_IN*%
X149187047Y-94312934D03*
%TO.N,/VCC_3V3*%
X147629225Y-97348384D03*
X139498561Y-97730570D03*
X156014602Y-111564521D03*
X146945372Y-105591240D03*
X153932037Y-96057092D03*
%TO.N,Earth*%
X133597257Y-101877102D03*
X152248410Y-97319644D03*
X154905251Y-92074558D03*
X147459286Y-106959729D03*
X146043974Y-92040483D03*
X143942264Y-111435531D03*
X156249949Y-98366155D03*
X140513247Y-101468135D03*
%TD*%
%TA.AperFunction,Conductor*%
%TO.N,/VCC_3V3*%
G36*
X150807403Y-80018620D02*
G01*
X150986950Y-80026684D01*
X151703049Y-80074964D01*
X151882089Y-80091079D01*
X152595233Y-80171431D01*
X152595242Y-80171432D01*
X152773386Y-80195562D01*
X153407526Y-80296000D01*
X153482220Y-80307831D01*
X153517222Y-80314182D01*
X153659148Y-80339938D01*
X153865029Y-80382092D01*
X153926754Y-80414823D01*
X153960987Y-80475732D01*
X153956857Y-80545479D01*
X153915673Y-80601921D01*
X153883224Y-80619850D01*
X153877122Y-80622110D01*
X153877111Y-80622115D01*
X153704432Y-80729745D01*
X153704427Y-80729749D01*
X153556949Y-80869938D01*
X153556947Y-80869940D01*
X153556947Y-80869941D01*
X153543625Y-80889081D01*
X153440705Y-81036949D01*
X153360459Y-81223943D01*
X153319500Y-81423258D01*
X153319500Y-82375743D01*
X153334925Y-82527439D01*
X153395837Y-82721579D01*
X153395844Y-82721594D01*
X153494589Y-82899499D01*
X153494592Y-82899504D01*
X153627132Y-83053893D01*
X153627134Y-83053895D01*
X153788037Y-83178445D01*
X153788038Y-83178445D01*
X153788042Y-83178448D01*
X153970729Y-83268060D01*
X154167715Y-83319063D01*
X154370936Y-83329369D01*
X154572071Y-83298556D01*
X154762887Y-83227886D01*
X154935571Y-83120252D01*
X155083053Y-82980059D01*
X155199295Y-82813049D01*
X155279540Y-82626058D01*
X155320500Y-82426741D01*
X155320500Y-81474258D01*
X155305074Y-81322562D01*
X155305074Y-81322560D01*
X155244162Y-81128420D01*
X155244160Y-81128416D01*
X155244159Y-81128412D01*
X155145409Y-80950498D01*
X155100423Y-80898096D01*
X155071692Y-80834409D01*
X155081954Y-80765297D01*
X155127951Y-80712704D01*
X155195081Y-80693328D01*
X155224810Y-80697086D01*
X155233445Y-80699263D01*
X155406692Y-80747076D01*
X156028725Y-80933863D01*
X156094060Y-80953483D01*
X156265050Y-81009040D01*
X156942462Y-81246077D01*
X157110745Y-81309234D01*
X157776847Y-81576427D01*
X157942173Y-81647091D01*
X158390183Y-81850586D01*
X158595557Y-81943872D01*
X158595582Y-81943883D01*
X158757585Y-82021900D01*
X159397029Y-82347713D01*
X159501011Y-82403669D01*
X159555335Y-82432902D01*
X160179494Y-82787061D01*
X160222993Y-82813050D01*
X160333884Y-82879304D01*
X160941528Y-83261112D01*
X161091573Y-83360156D01*
X161681539Y-83768886D01*
X161826916Y-83874509D01*
X162397975Y-84309314D01*
X162538522Y-84421398D01*
X163089405Y-84881308D01*
X163224827Y-84999623D01*
X163754538Y-85483800D01*
X163884489Y-85608046D01*
X164391953Y-86115510D01*
X164516199Y-86245461D01*
X165000376Y-86775172D01*
X165118691Y-86910594D01*
X165253091Y-87071579D01*
X165530528Y-87403895D01*
X165578605Y-87461481D01*
X165604101Y-87493452D01*
X165690701Y-87602045D01*
X166125486Y-88173077D01*
X166231122Y-88318473D01*
X166639840Y-88908422D01*
X166738893Y-89058481D01*
X167120694Y-89666114D01*
X167212931Y-89820492D01*
X167567097Y-90444664D01*
X167652290Y-90602977D01*
X167978099Y-91242414D01*
X168056116Y-91404417D01*
X168352908Y-92057826D01*
X168423572Y-92223152D01*
X168690758Y-92889237D01*
X168753921Y-93057534D01*
X168990958Y-93734946D01*
X169046515Y-93905935D01*
X169252917Y-94593285D01*
X169300741Y-94766572D01*
X169476100Y-95462499D01*
X169511454Y-95617397D01*
X169516107Y-95637781D01*
X169660060Y-96340845D01*
X169692168Y-96517779D01*
X169804432Y-97226583D01*
X169828567Y-97404757D01*
X169908920Y-98117909D01*
X169925036Y-98296974D01*
X169973313Y-99013012D01*
X169981379Y-99192613D01*
X169999468Y-99998606D01*
X169999468Y-100001392D01*
X169981379Y-100807386D01*
X169973313Y-100986987D01*
X169925036Y-101703025D01*
X169908920Y-101882090D01*
X169828567Y-102595242D01*
X169804432Y-102773416D01*
X169692168Y-103482220D01*
X169660060Y-103659154D01*
X169516107Y-104362218D01*
X169476103Y-104537491D01*
X169300742Y-105233425D01*
X169252917Y-105406714D01*
X169046515Y-106094064D01*
X168990958Y-106265053D01*
X168753921Y-106942465D01*
X168690758Y-107110762D01*
X168423572Y-107776847D01*
X168352908Y-107942173D01*
X168056116Y-108595582D01*
X167978099Y-108757585D01*
X167652290Y-109397022D01*
X167567097Y-109555335D01*
X167212931Y-110179507D01*
X167120694Y-110333885D01*
X166738893Y-110941518D01*
X166639840Y-111091577D01*
X166231122Y-111681526D01*
X166125486Y-111826922D01*
X165690701Y-112397954D01*
X165578615Y-112538506D01*
X165118691Y-113089405D01*
X165000376Y-113224827D01*
X164516199Y-113754538D01*
X164391953Y-113884489D01*
X163884489Y-114391953D01*
X163754538Y-114516199D01*
X163224827Y-115000376D01*
X163089405Y-115118691D01*
X162538506Y-115578615D01*
X162397954Y-115690701D01*
X161826922Y-116125486D01*
X161681526Y-116231122D01*
X161091577Y-116639840D01*
X160941518Y-116738893D01*
X160333885Y-117120694D01*
X160179507Y-117212931D01*
X159555335Y-117567097D01*
X159397022Y-117652290D01*
X158757585Y-117978099D01*
X158595582Y-118056116D01*
X157942173Y-118352908D01*
X157776847Y-118423572D01*
X157110762Y-118690758D01*
X156942465Y-118753921D01*
X156265053Y-118990958D01*
X156094064Y-119046515D01*
X155406714Y-119252917D01*
X155233425Y-119300742D01*
X154537511Y-119476097D01*
X154431289Y-119500342D01*
X154362218Y-119516107D01*
X153659154Y-119660060D01*
X153482220Y-119692168D01*
X153072293Y-119757093D01*
X153002999Y-119748138D01*
X152949547Y-119703142D01*
X152928908Y-119636391D01*
X152947633Y-119569077D01*
X152983526Y-119532398D01*
X152983491Y-119532353D01*
X152983823Y-119532094D01*
X152985089Y-119530801D01*
X152987548Y-119529194D01*
X153013891Y-119508689D01*
X153013891Y-119508688D01*
X152488369Y-118983165D01*
X152454884Y-118921842D01*
X152459868Y-118852150D01*
X152497560Y-118801799D01*
X152496575Y-118800662D01*
X152503278Y-118794854D01*
X152610852Y-118701641D01*
X152646243Y-118646570D01*
X152699045Y-118600816D01*
X152768203Y-118590872D01*
X152831759Y-118619896D01*
X152838239Y-118625929D01*
X153366034Y-119153723D01*
X153446329Y-119030821D01*
X153537863Y-118822145D01*
X153593803Y-118601245D01*
X153593805Y-118601237D01*
X153612621Y-118374158D01*
X153612621Y-118374145D01*
X153593805Y-118147066D01*
X153593803Y-118147058D01*
X153537863Y-117926158D01*
X153446329Y-117717482D01*
X153390003Y-117631267D01*
X153369815Y-117564377D01*
X153388996Y-117497192D01*
X153441455Y-117451042D01*
X153488121Y-117440706D01*
X153488052Y-117439828D01*
X153492907Y-117439445D01*
X153492909Y-117439446D01*
X153736211Y-117420298D01*
X153973521Y-117363324D01*
X154198998Y-117269929D01*
X154407088Y-117142411D01*
X154592668Y-116983911D01*
X154751168Y-116798331D01*
X154878686Y-116590241D01*
X154972081Y-116364764D01*
X155029055Y-116127454D01*
X155048203Y-115884152D01*
X155029055Y-115640850D01*
X154972081Y-115403540D01*
X154878686Y-115178063D01*
X154878686Y-115178062D01*
X154751171Y-114969978D01*
X154751170Y-114969975D01*
X154715362Y-114928049D01*
X154592668Y-114784393D01*
X154469972Y-114679601D01*
X154407085Y-114625890D01*
X154407082Y-114625889D01*
X154198998Y-114498374D01*
X153973527Y-114404982D01*
X153973530Y-114404982D01*
X153867901Y-114379622D01*
X153736211Y-114348006D01*
X153736209Y-114348005D01*
X153736206Y-114348005D01*
X153492909Y-114328858D01*
X153249611Y-114348005D01*
X153249606Y-114348006D01*
X153249607Y-114348006D01*
X153066558Y-114391953D01*
X153012289Y-114404982D01*
X152786819Y-114498374D01*
X152578735Y-114625889D01*
X152578732Y-114625890D01*
X152393150Y-114784393D01*
X152234647Y-114969975D01*
X152234646Y-114969978D01*
X152107131Y-115178062D01*
X152013739Y-115403532D01*
X151956762Y-115640854D01*
X151937615Y-115884151D01*
X151956762Y-116127449D01*
X151956762Y-116127452D01*
X151956763Y-116127454D01*
X151970535Y-116184819D01*
X152013739Y-116364771D01*
X152107131Y-116590241D01*
X152198226Y-116738893D01*
X152234650Y-116798331D01*
X152234653Y-116798335D01*
X152237504Y-116802258D01*
X152260989Y-116868062D01*
X152245170Y-116936118D01*
X152195068Y-116984817D01*
X152137192Y-116999152D01*
X152118974Y-116999152D01*
X151894207Y-117036659D01*
X151678689Y-117110647D01*
X151678678Y-117110652D01*
X151478282Y-117219100D01*
X151451925Y-117239614D01*
X151977448Y-117765138D01*
X152010933Y-117826461D01*
X152005949Y-117896153D01*
X151968256Y-117946503D01*
X151969243Y-117947642D01*
X151962540Y-117953449D01*
X151962540Y-117953450D01*
X151880699Y-118024366D01*
X151854964Y-118046665D01*
X151819574Y-118101733D01*
X151766770Y-118147488D01*
X151697611Y-118157431D01*
X151634056Y-118128406D01*
X151627578Y-118122374D01*
X151099783Y-117594580D01*
X151019487Y-117717485D01*
X151019486Y-117717487D01*
X150927954Y-117926158D01*
X150872014Y-118147058D01*
X150872012Y-118147066D01*
X150853197Y-118374145D01*
X150853197Y-118374158D01*
X150872012Y-118601237D01*
X150872014Y-118601245D01*
X150927954Y-118822145D01*
X151019486Y-119030816D01*
X151019488Y-119030820D01*
X151099783Y-119153722D01*
X151627577Y-118625929D01*
X151688900Y-118592444D01*
X151758592Y-118597428D01*
X151814525Y-118639300D01*
X151819573Y-118646570D01*
X151847972Y-118690758D01*
X151854966Y-118701641D01*
X151915301Y-118753921D01*
X151969243Y-118800662D01*
X151967136Y-118803093D01*
X152002555Y-118843962D01*
X152012506Y-118913119D01*
X151983487Y-118976678D01*
X151977447Y-118983165D01*
X151451924Y-119508687D01*
X151451925Y-119508689D01*
X151478275Y-119529198D01*
X151478281Y-119529202D01*
X151678678Y-119637651D01*
X151678689Y-119637656D01*
X151797337Y-119678389D01*
X151854353Y-119718775D01*
X151880483Y-119783574D01*
X151867431Y-119852214D01*
X151819342Y-119902902D01*
X151768189Y-119919171D01*
X151703025Y-119925036D01*
X150986987Y-119973313D01*
X150807386Y-119981379D01*
X150089870Y-119997483D01*
X149910130Y-119997483D01*
X149192613Y-119981379D01*
X149013012Y-119973313D01*
X148296973Y-119925036D01*
X148205948Y-119916843D01*
X148140943Y-119891228D01*
X148100106Y-119834535D01*
X148096402Y-119764763D01*
X148131008Y-119704065D01*
X148176797Y-119676062D01*
X148287335Y-119638115D01*
X148487815Y-119529621D01*
X148667703Y-119389608D01*
X148822092Y-119221897D01*
X148946771Y-119031061D01*
X149038339Y-118822307D01*
X149094299Y-118601328D01*
X149094307Y-118601237D01*
X149113123Y-118374158D01*
X149113123Y-118374145D01*
X149094300Y-118146983D01*
X149094298Y-118146972D01*
X149038339Y-117925996D01*
X148946771Y-117717243D01*
X148822094Y-117526409D01*
X148671963Y-117363324D01*
X148667703Y-117358696D01*
X148667702Y-117358695D01*
X148667700Y-117358693D01*
X148667696Y-117358690D01*
X148487818Y-117218685D01*
X148487809Y-117218679D01*
X148287341Y-117110192D01*
X148287338Y-117110191D01*
X148287335Y-117110189D01*
X148287329Y-117110187D01*
X148287327Y-117110186D01*
X148071735Y-117036172D01*
X147903097Y-117008032D01*
X147846886Y-116998652D01*
X147838990Y-116998652D01*
X147771951Y-116978967D01*
X147726196Y-116926163D01*
X147716252Y-116857005D01*
X147738674Y-116801764D01*
X147741169Y-116798329D01*
X147741172Y-116798325D01*
X147868686Y-116590241D01*
X147962081Y-116364764D01*
X148019055Y-116127454D01*
X148038203Y-115884152D01*
X148019055Y-115640850D01*
X147962081Y-115403540D01*
X147868686Y-115178063D01*
X147868686Y-115178062D01*
X147741171Y-114969978D01*
X147741170Y-114969975D01*
X147705362Y-114928049D01*
X147582668Y-114784393D01*
X147459972Y-114679601D01*
X147397085Y-114625890D01*
X147397082Y-114625889D01*
X147188998Y-114498374D01*
X146963527Y-114404982D01*
X146963530Y-114404982D01*
X146857901Y-114379622D01*
X146726211Y-114348006D01*
X146726209Y-114348005D01*
X146726206Y-114348005D01*
X146482909Y-114328858D01*
X146239611Y-114348005D01*
X146239606Y-114348006D01*
X146239607Y-114348006D01*
X146056558Y-114391953D01*
X146002289Y-114404982D01*
X145776819Y-114498374D01*
X145568735Y-114625889D01*
X145568732Y-114625890D01*
X145383150Y-114784393D01*
X145224647Y-114969975D01*
X145224646Y-114969978D01*
X145097131Y-115178062D01*
X145003739Y-115403532D01*
X144946762Y-115640854D01*
X144927615Y-115884152D01*
X144946762Y-116127449D01*
X144946762Y-116127452D01*
X144946763Y-116127454D01*
X144960535Y-116184819D01*
X145003739Y-116364771D01*
X145097131Y-116590241D01*
X145224646Y-116798325D01*
X145224647Y-116798328D01*
X145224650Y-116798331D01*
X145383150Y-116983911D01*
X145526806Y-117106605D01*
X145568732Y-117142413D01*
X145568735Y-117142414D01*
X145776819Y-117269929D01*
X145958256Y-117345082D01*
X145991109Y-117358690D01*
X146002290Y-117363321D01*
X146002287Y-117363321D01*
X146002293Y-117363322D01*
X146002297Y-117363324D01*
X146239607Y-117420298D01*
X146481463Y-117439332D01*
X146546749Y-117464215D01*
X146588220Y-117520445D01*
X146592707Y-117590171D01*
X146575541Y-117630769D01*
X146519048Y-117717239D01*
X146427478Y-117925996D01*
X146371519Y-118146972D01*
X146371517Y-118146983D01*
X146352695Y-118374145D01*
X146352695Y-118374158D01*
X146371517Y-118601320D01*
X146371519Y-118601331D01*
X146427478Y-118822307D01*
X146519046Y-119031060D01*
X146643723Y-119221894D01*
X146798117Y-119389610D01*
X146798121Y-119389613D01*
X146977967Y-119529593D01*
X147018780Y-119586303D01*
X147022455Y-119656076D01*
X146987823Y-119716759D01*
X146925882Y-119749086D01*
X146882407Y-119749919D01*
X146517779Y-119692168D01*
X146340845Y-119660060D01*
X145637781Y-119516107D01*
X145605280Y-119508689D01*
X145462499Y-119476100D01*
X144766572Y-119300741D01*
X144593285Y-119252917D01*
X143905935Y-119046515D01*
X143734946Y-118990958D01*
X143057534Y-118753921D01*
X142889237Y-118690758D01*
X142223152Y-118423572D01*
X142057826Y-118352908D01*
X141404417Y-118056116D01*
X141242414Y-117978099D01*
X140602989Y-117652296D01*
X140558473Y-117628341D01*
X140444664Y-117567097D01*
X139820492Y-117212931D01*
X139666114Y-117120694D01*
X139058481Y-116738893D01*
X138908422Y-116639840D01*
X138318473Y-116231122D01*
X138173077Y-116125486D01*
X137602045Y-115690701D01*
X137539539Y-115640854D01*
X137461493Y-115578615D01*
X137228481Y-115384082D01*
X136910594Y-115118691D01*
X136775172Y-115000376D01*
X136245461Y-114516199D01*
X136115510Y-114391953D01*
X135608046Y-113884489D01*
X135483800Y-113754538D01*
X134999623Y-113224827D01*
X134881308Y-113089405D01*
X134421398Y-112538522D01*
X134309298Y-112397954D01*
X134232184Y-112296675D01*
X133874509Y-111826916D01*
X133768877Y-111681526D01*
X133598451Y-111435531D01*
X143036804Y-111435531D01*
X143056590Y-111623787D01*
X143056591Y-111623790D01*
X143115082Y-111803808D01*
X143115085Y-111803815D01*
X143209731Y-111967747D01*
X143336392Y-112108418D01*
X143336393Y-112108419D01*
X143489529Y-112219679D01*
X143489534Y-112219682D01*
X143662456Y-112296673D01*
X143662461Y-112296675D01*
X143847618Y-112336031D01*
X143847619Y-112336031D01*
X144036908Y-112336031D01*
X144036910Y-112336031D01*
X144222067Y-112296675D01*
X144394994Y-112219682D01*
X144548135Y-112108419D01*
X144674797Y-111967747D01*
X144769443Y-111803815D01*
X144827938Y-111623787D01*
X144847724Y-111435531D01*
X144827938Y-111247275D01*
X144769443Y-111067247D01*
X144674797Y-110903315D01*
X144548135Y-110762643D01*
X144548134Y-110762642D01*
X144394998Y-110651382D01*
X144394993Y-110651379D01*
X144222071Y-110574388D01*
X144222066Y-110574386D01*
X144076264Y-110543396D01*
X144036910Y-110535031D01*
X143847618Y-110535031D01*
X143815161Y-110541929D01*
X143662461Y-110574386D01*
X143662456Y-110574388D01*
X143489534Y-110651379D01*
X143489529Y-110651382D01*
X143336393Y-110762642D01*
X143209730Y-110903316D01*
X143115085Y-111067246D01*
X143115082Y-111067253D01*
X143056591Y-111247271D01*
X143056590Y-111247275D01*
X143036804Y-111435531D01*
X133598451Y-111435531D01*
X133360156Y-111091573D01*
X133261106Y-110941518D01*
X133237101Y-110903315D01*
X132879304Y-110333884D01*
X132787068Y-110179507D01*
X132432902Y-109555335D01*
X132403669Y-109501011D01*
X132347710Y-109397022D01*
X132021900Y-108757585D01*
X131943883Y-108595582D01*
X131647091Y-107942173D01*
X131576427Y-107776847D01*
X131486931Y-107553736D01*
X131309234Y-107110745D01*
X131252557Y-106959729D01*
X146553826Y-106959729D01*
X146573612Y-107147985D01*
X146573613Y-107147988D01*
X146632104Y-107328006D01*
X146632107Y-107328013D01*
X146726753Y-107491945D01*
X146782390Y-107553736D01*
X146853415Y-107632617D01*
X147006551Y-107743877D01*
X147006556Y-107743880D01*
X147179478Y-107820871D01*
X147179483Y-107820873D01*
X147364640Y-107860229D01*
X147364641Y-107860229D01*
X147553930Y-107860229D01*
X147553932Y-107860229D01*
X147739089Y-107820873D01*
X147912016Y-107743880D01*
X148065157Y-107632617D01*
X148191819Y-107491945D01*
X148264835Y-107365477D01*
X162483275Y-107365477D01*
X162503061Y-107553733D01*
X162503062Y-107553736D01*
X162561553Y-107733754D01*
X162561556Y-107733761D01*
X162656202Y-107897693D01*
X162782864Y-108038365D01*
X162936000Y-108149625D01*
X162936005Y-108149628D01*
X163108927Y-108226619D01*
X163108932Y-108226621D01*
X163294089Y-108265977D01*
X163294090Y-108265977D01*
X163483379Y-108265977D01*
X163483381Y-108265977D01*
X163668538Y-108226621D01*
X163841465Y-108149628D01*
X163994606Y-108038365D01*
X164121268Y-107897693D01*
X164215914Y-107733761D01*
X164274409Y-107553733D01*
X164294195Y-107365477D01*
X164274409Y-107177221D01*
X164215914Y-106997193D01*
X164121268Y-106833261D01*
X163994606Y-106692589D01*
X163994605Y-106692588D01*
X163841469Y-106581328D01*
X163841464Y-106581325D01*
X163668542Y-106504334D01*
X163668537Y-106504332D01*
X163522735Y-106473342D01*
X163483381Y-106464977D01*
X163294089Y-106464977D01*
X163261632Y-106471875D01*
X163108932Y-106504332D01*
X163108927Y-106504334D01*
X162936005Y-106581325D01*
X162936000Y-106581328D01*
X162782864Y-106692588D01*
X162656201Y-106833262D01*
X162561556Y-106997192D01*
X162561553Y-106997199D01*
X162524648Y-107110783D01*
X162503061Y-107177221D01*
X162483275Y-107365477D01*
X148264835Y-107365477D01*
X148286465Y-107328013D01*
X148344960Y-107147985D01*
X148364746Y-106959729D01*
X148344960Y-106771473D01*
X148286465Y-106591445D01*
X148191819Y-106427513D01*
X148065157Y-106286841D01*
X148065156Y-106286840D01*
X147912020Y-106175580D01*
X147912015Y-106175577D01*
X147739093Y-106098586D01*
X147739088Y-106098584D01*
X147593286Y-106067594D01*
X147553932Y-106059229D01*
X147364640Y-106059229D01*
X147332183Y-106066127D01*
X147179483Y-106098584D01*
X147179478Y-106098586D01*
X147006556Y-106175577D01*
X147006551Y-106175580D01*
X146853415Y-106286840D01*
X146726752Y-106427514D01*
X146632107Y-106591444D01*
X146632104Y-106591451D01*
X146573613Y-106771469D01*
X146573612Y-106771473D01*
X146553826Y-106959729D01*
X131252557Y-106959729D01*
X131246077Y-106942462D01*
X131009040Y-106265050D01*
X130953483Y-106094060D01*
X130933863Y-106028725D01*
X130747076Y-105406692D01*
X130699257Y-105233422D01*
X130523888Y-104537454D01*
X130483893Y-104362218D01*
X130339938Y-103659148D01*
X130307831Y-103482220D01*
X130195567Y-102773416D01*
X130171432Y-102595242D01*
X130111729Y-102065361D01*
X130091078Y-101882081D01*
X130090630Y-101877102D01*
X132691797Y-101877102D01*
X132711583Y-102065358D01*
X132711584Y-102065361D01*
X132770075Y-102245379D01*
X132770078Y-102245386D01*
X132864724Y-102409318D01*
X132991385Y-102549990D01*
X132991386Y-102549990D01*
X133144522Y-102661250D01*
X133144527Y-102661253D01*
X133317449Y-102738244D01*
X133317454Y-102738246D01*
X133502611Y-102777602D01*
X133502612Y-102777602D01*
X133691901Y-102777602D01*
X133691903Y-102777602D01*
X133877060Y-102738246D01*
X134049987Y-102661253D01*
X134203128Y-102549990D01*
X134329790Y-102409318D01*
X134424436Y-102245386D01*
X134482931Y-102065358D01*
X134502717Y-101877102D01*
X134482931Y-101688846D01*
X134424436Y-101508818D01*
X134400948Y-101468135D01*
X139607787Y-101468135D01*
X139627573Y-101656391D01*
X139627574Y-101656394D01*
X139686065Y-101836412D01*
X139686068Y-101836419D01*
X139780714Y-102000351D01*
X139907376Y-102141023D01*
X140060512Y-102252283D01*
X140060517Y-102252286D01*
X140233439Y-102329277D01*
X140233444Y-102329279D01*
X140418601Y-102368635D01*
X140418602Y-102368635D01*
X140607891Y-102368635D01*
X140607893Y-102368635D01*
X140793050Y-102329279D01*
X140965977Y-102252286D01*
X141119118Y-102141023D01*
X141245780Y-102000351D01*
X141340426Y-101836419D01*
X141398921Y-101656391D01*
X141418707Y-101468135D01*
X141398921Y-101279879D01*
X141340426Y-101099851D01*
X141245780Y-100935919D01*
X141119118Y-100795247D01*
X141119117Y-100795246D01*
X140965981Y-100683986D01*
X140965976Y-100683983D01*
X140793054Y-100606992D01*
X140793049Y-100606990D01*
X140647248Y-100576000D01*
X140607893Y-100567635D01*
X140418601Y-100567635D01*
X140386144Y-100574533D01*
X140233444Y-100606990D01*
X140233439Y-100606992D01*
X140060517Y-100683983D01*
X140060512Y-100683986D01*
X139907376Y-100795246D01*
X139780713Y-100935920D01*
X139686068Y-101099850D01*
X139686065Y-101099857D01*
X139652158Y-101204214D01*
X139627573Y-101279879D01*
X139607787Y-101468135D01*
X134400948Y-101468135D01*
X134329790Y-101344886D01*
X134203128Y-101204214D01*
X134203127Y-101204213D01*
X134049991Y-101092953D01*
X134049986Y-101092950D01*
X133877064Y-101015959D01*
X133877059Y-101015957D01*
X133731258Y-100984967D01*
X133691903Y-100976602D01*
X133502611Y-100976602D01*
X133470154Y-100983500D01*
X133317454Y-101015957D01*
X133317449Y-101015959D01*
X133144527Y-101092950D01*
X133144522Y-101092953D01*
X132991386Y-101204213D01*
X132864723Y-101344887D01*
X132770078Y-101508817D01*
X132770075Y-101508824D01*
X132722128Y-101656391D01*
X132711583Y-101688846D01*
X132691797Y-101877102D01*
X130090630Y-101877102D01*
X130074963Y-101703025D01*
X130071819Y-101656391D01*
X130026684Y-100986950D01*
X130018620Y-100807403D01*
X130002517Y-100089869D01*
X130002517Y-99910130D01*
X130018620Y-99192596D01*
X130026687Y-99013012D01*
X130070299Y-98366155D01*
X155344489Y-98366155D01*
X155364275Y-98554411D01*
X155364276Y-98554414D01*
X155422767Y-98734432D01*
X155422770Y-98734439D01*
X155517416Y-98898371D01*
X155620613Y-99012982D01*
X155644078Y-99039043D01*
X155797214Y-99150303D01*
X155797219Y-99150306D01*
X155970141Y-99227297D01*
X155970146Y-99227299D01*
X156155303Y-99266655D01*
X156155304Y-99266655D01*
X156344593Y-99266655D01*
X156344595Y-99266655D01*
X156529752Y-99227299D01*
X156702679Y-99150306D01*
X156855820Y-99039043D01*
X156982482Y-98898371D01*
X157077128Y-98734439D01*
X157135623Y-98554411D01*
X157155409Y-98366155D01*
X157135623Y-98177899D01*
X157077128Y-97997871D01*
X156982482Y-97833939D01*
X156855820Y-97693267D01*
X156855819Y-97693266D01*
X156702683Y-97582006D01*
X156702678Y-97582003D01*
X156529756Y-97505012D01*
X156529751Y-97505010D01*
X156383950Y-97474020D01*
X156344595Y-97465655D01*
X156155303Y-97465655D01*
X156122846Y-97472553D01*
X155970146Y-97505010D01*
X155970141Y-97505012D01*
X155797219Y-97582003D01*
X155797214Y-97582006D01*
X155644078Y-97693266D01*
X155517415Y-97833940D01*
X155422770Y-97997870D01*
X155422767Y-97997877D01*
X155383767Y-98117909D01*
X155364275Y-98177899D01*
X155344489Y-98366155D01*
X130070299Y-98366155D01*
X130074964Y-98296962D01*
X130091079Y-98117909D01*
X130092670Y-98103795D01*
X130171432Y-97404751D01*
X130182961Y-97319644D01*
X151342950Y-97319644D01*
X151362736Y-97507900D01*
X151362737Y-97507903D01*
X151421228Y-97687921D01*
X151421231Y-97687928D01*
X151515877Y-97851860D01*
X151642538Y-97992532D01*
X151642539Y-97992532D01*
X151795675Y-98103792D01*
X151795680Y-98103795D01*
X151968602Y-98180786D01*
X151968607Y-98180788D01*
X152153764Y-98220144D01*
X152153765Y-98220144D01*
X152343054Y-98220144D01*
X152343056Y-98220144D01*
X152528213Y-98180788D01*
X152701140Y-98103795D01*
X152854281Y-97992532D01*
X152980943Y-97851860D01*
X153075589Y-97687928D01*
X153134084Y-97507900D01*
X153153870Y-97319644D01*
X153134084Y-97131388D01*
X153075589Y-96951360D01*
X152980943Y-96787428D01*
X152854281Y-96646756D01*
X152854280Y-96646755D01*
X152701144Y-96535495D01*
X152701139Y-96535492D01*
X152528217Y-96458501D01*
X152528212Y-96458499D01*
X152382411Y-96427509D01*
X152343056Y-96419144D01*
X152153764Y-96419144D01*
X152121307Y-96426042D01*
X151968607Y-96458499D01*
X151968602Y-96458501D01*
X151795680Y-96535492D01*
X151795675Y-96535495D01*
X151642539Y-96646755D01*
X151515876Y-96787429D01*
X151421231Y-96951359D01*
X151421228Y-96951366D01*
X151362737Y-97131384D01*
X151362736Y-97131388D01*
X151342950Y-97319644D01*
X130182961Y-97319644D01*
X130195562Y-97226617D01*
X130307831Y-96517777D01*
X130318588Y-96458501D01*
X130339931Y-96340886D01*
X130483894Y-95637771D01*
X130523893Y-95462524D01*
X130699259Y-94766567D01*
X130747083Y-94593285D01*
X130831268Y-94312934D01*
X148281587Y-94312934D01*
X148301373Y-94501190D01*
X148301374Y-94501193D01*
X148359865Y-94681211D01*
X148359868Y-94681218D01*
X148454514Y-94845150D01*
X148581175Y-94985821D01*
X148581176Y-94985822D01*
X148734312Y-95097082D01*
X148734317Y-95097085D01*
X148907239Y-95174076D01*
X148907244Y-95174078D01*
X149092401Y-95213434D01*
X149092402Y-95213434D01*
X149281691Y-95213434D01*
X149281693Y-95213434D01*
X149466850Y-95174078D01*
X149639777Y-95097085D01*
X149792918Y-94985822D01*
X149919580Y-94845150D01*
X150014226Y-94681218D01*
X150072721Y-94501190D01*
X150092507Y-94312934D01*
X150072721Y-94124678D01*
X150014226Y-93944650D01*
X149919580Y-93780718D01*
X149792918Y-93640046D01*
X149792917Y-93640045D01*
X149639781Y-93528785D01*
X149639776Y-93528782D01*
X149466854Y-93451791D01*
X149466849Y-93451789D01*
X149321047Y-93420799D01*
X149281693Y-93412434D01*
X149092401Y-93412434D01*
X149059944Y-93419332D01*
X148907244Y-93451789D01*
X148907239Y-93451791D01*
X148734317Y-93528782D01*
X148734312Y-93528785D01*
X148581176Y-93640045D01*
X148454513Y-93780719D01*
X148359868Y-93944649D01*
X148359865Y-93944656D01*
X148301374Y-94124674D01*
X148301373Y-94124678D01*
X148281587Y-94312934D01*
X130831268Y-94312934D01*
X130953489Y-93905919D01*
X130994169Y-93780719D01*
X131009028Y-93734984D01*
X131246079Y-93057532D01*
X131309229Y-92889269D01*
X131576434Y-92223135D01*
X131647091Y-92057826D01*
X131654969Y-92040483D01*
X145138514Y-92040483D01*
X145158300Y-92228739D01*
X145158301Y-92228742D01*
X145216792Y-92408760D01*
X145216795Y-92408767D01*
X145311441Y-92572699D01*
X145438102Y-92713371D01*
X145438103Y-92713371D01*
X145591239Y-92824631D01*
X145591244Y-92824634D01*
X145764166Y-92901625D01*
X145764171Y-92901627D01*
X145949328Y-92940983D01*
X145949329Y-92940983D01*
X146138618Y-92940983D01*
X146138620Y-92940983D01*
X146323777Y-92901627D01*
X146496704Y-92824634D01*
X146649845Y-92713371D01*
X146776507Y-92572699D01*
X146871153Y-92408767D01*
X146929648Y-92228739D01*
X146945853Y-92074558D01*
X153999791Y-92074558D01*
X154019577Y-92262814D01*
X154019578Y-92262817D01*
X154078069Y-92442835D01*
X154078072Y-92442842D01*
X154172718Y-92606774D01*
X154268699Y-92713371D01*
X154299380Y-92747446D01*
X154452516Y-92858706D01*
X154452521Y-92858709D01*
X154625443Y-92935700D01*
X154625448Y-92935702D01*
X154810605Y-92975058D01*
X154810606Y-92975058D01*
X154999895Y-92975058D01*
X154999897Y-92975058D01*
X155185054Y-92935702D01*
X155357981Y-92858709D01*
X155511122Y-92747446D01*
X155637784Y-92606774D01*
X155732430Y-92442842D01*
X155790925Y-92262814D01*
X155810711Y-92074558D01*
X155790925Y-91886302D01*
X155732430Y-91706274D01*
X155637784Y-91542342D01*
X155511122Y-91401670D01*
X155464222Y-91367595D01*
X155357985Y-91290409D01*
X155357980Y-91290406D01*
X155185058Y-91213415D01*
X155185053Y-91213413D01*
X155024742Y-91179339D01*
X154999897Y-91174058D01*
X154810605Y-91174058D01*
X154785760Y-91179339D01*
X154625448Y-91213413D01*
X154625443Y-91213415D01*
X154452521Y-91290406D01*
X154452516Y-91290409D01*
X154299380Y-91401669D01*
X154172717Y-91542343D01*
X154078072Y-91706273D01*
X154078069Y-91706280D01*
X154019578Y-91886298D01*
X154019577Y-91886302D01*
X153999791Y-92074558D01*
X146945853Y-92074558D01*
X146949434Y-92040483D01*
X146929648Y-91852227D01*
X146871153Y-91672199D01*
X146776507Y-91508267D01*
X146649845Y-91367595D01*
X146587835Y-91322542D01*
X146496708Y-91256334D01*
X146496703Y-91256331D01*
X146323781Y-91179340D01*
X146323776Y-91179338D01*
X146177974Y-91148348D01*
X146138620Y-91139983D01*
X145949328Y-91139983D01*
X145916871Y-91146881D01*
X145764171Y-91179338D01*
X145764166Y-91179340D01*
X145591244Y-91256331D01*
X145591239Y-91256334D01*
X145438103Y-91367594D01*
X145311440Y-91508268D01*
X145216795Y-91672198D01*
X145216792Y-91672205D01*
X145158301Y-91852223D01*
X145158300Y-91852227D01*
X145138514Y-92040483D01*
X131654969Y-92040483D01*
X131725001Y-91886302D01*
X131943900Y-91404380D01*
X132021880Y-91242453D01*
X132347710Y-90602976D01*
X132432904Y-90444660D01*
X132787084Y-89820464D01*
X132879281Y-89666152D01*
X133261135Y-89058436D01*
X133360132Y-88908462D01*
X133768896Y-88318446D01*
X133874514Y-88173077D01*
X134309315Y-87602023D01*
X134421350Y-87461534D01*
X134881315Y-86910585D01*
X134999623Y-86775172D01*
X135044803Y-86725743D01*
X144679500Y-86725743D01*
X144694925Y-86877439D01*
X144755837Y-87071579D01*
X144755844Y-87071594D01*
X144854589Y-87249499D01*
X144854592Y-87249504D01*
X144987132Y-87403893D01*
X144987134Y-87403895D01*
X145148037Y-87528445D01*
X145148038Y-87528445D01*
X145148042Y-87528448D01*
X145330729Y-87618060D01*
X145527715Y-87669063D01*
X145730936Y-87679369D01*
X145932071Y-87648556D01*
X146122887Y-87577886D01*
X146295571Y-87470252D01*
X146443053Y-87330059D01*
X146559295Y-87163049D01*
X146639540Y-86976058D01*
X146680500Y-86776741D01*
X146680500Y-86124540D01*
X146700185Y-86057501D01*
X146752989Y-86011746D01*
X146822147Y-86001802D01*
X146856006Y-86011744D01*
X146974658Y-86065931D01*
X147075989Y-86080500D01*
X147075992Y-86080500D01*
X147144008Y-86080500D01*
X147144011Y-86080500D01*
X147245342Y-86065931D01*
X147369718Y-86009130D01*
X147473055Y-85919589D01*
X147546978Y-85804561D01*
X147585500Y-85673367D01*
X152414500Y-85673367D01*
X152453021Y-85804559D01*
X152453020Y-85804559D01*
X152526942Y-85919586D01*
X152526946Y-85919590D01*
X152630278Y-86009127D01*
X152630285Y-86009132D01*
X152677791Y-86030827D01*
X152754658Y-86065931D01*
X152855989Y-86080500D01*
X152855992Y-86080500D01*
X152924008Y-86080500D01*
X152924011Y-86080500D01*
X153025342Y-86065931D01*
X153143990Y-86011745D01*
X153213147Y-86001802D01*
X153276702Y-86030827D01*
X153314477Y-86089605D01*
X153319500Y-86124540D01*
X153319500Y-86725743D01*
X153334925Y-86877439D01*
X153395837Y-87071579D01*
X153395844Y-87071594D01*
X153494589Y-87249499D01*
X153494592Y-87249504D01*
X153627130Y-87403891D01*
X153627131Y-87403892D01*
X153627134Y-87403895D01*
X153669713Y-87436853D01*
X153710675Y-87493452D01*
X153714536Y-87563215D01*
X153685961Y-87617880D01*
X153564514Y-87752761D01*
X153469871Y-87916689D01*
X153469868Y-87916696D01*
X153411377Y-88096714D01*
X153411376Y-88096718D01*
X153391590Y-88284974D01*
X153411376Y-88473230D01*
X153411377Y-88473233D01*
X153469868Y-88653251D01*
X153469871Y-88653258D01*
X153564517Y-88817190D01*
X153646663Y-88908422D01*
X153691179Y-88957862D01*
X153844315Y-89069122D01*
X153844320Y-89069125D01*
X154017242Y-89146116D01*
X154017247Y-89146118D01*
X154202404Y-89185474D01*
X154202405Y-89185474D01*
X154391694Y-89185474D01*
X154391696Y-89185474D01*
X154576853Y-89146118D01*
X154749780Y-89069125D01*
X154902921Y-88957862D01*
X155029583Y-88817190D01*
X155124229Y-88653258D01*
X155182724Y-88473230D01*
X155202510Y-88284974D01*
X155182724Y-88096718D01*
X155124229Y-87916690D01*
X155029583Y-87752758D01*
X154929926Y-87642078D01*
X154899696Y-87579087D01*
X154908321Y-87509751D01*
X154936644Y-87469232D01*
X154944826Y-87461454D01*
X155083053Y-87330059D01*
X155199295Y-87163049D01*
X155279540Y-86976058D01*
X155320500Y-86776741D01*
X155320500Y-85524258D01*
X155308418Y-85405440D01*
X155305074Y-85372560D01*
X155244162Y-85178420D01*
X155244160Y-85178416D01*
X155244159Y-85178412D01*
X155145409Y-85000498D01*
X155145408Y-85000497D01*
X155145407Y-85000495D01*
X155012867Y-84846106D01*
X155012865Y-84846104D01*
X154851962Y-84721554D01*
X154851959Y-84721553D01*
X154851958Y-84721552D01*
X154669271Y-84631940D01*
X154472285Y-84580937D01*
X154472287Y-84580937D01*
X154336804Y-84574066D01*
X154269064Y-84570631D01*
X154269063Y-84570631D01*
X154269061Y-84570631D01*
X154067936Y-84601442D01*
X154067924Y-84601445D01*
X153877118Y-84672111D01*
X153877111Y-84672115D01*
X153704432Y-84779745D01*
X153704427Y-84779749D01*
X153556949Y-84919938D01*
X153556947Y-84919940D01*
X153556947Y-84919941D01*
X153518199Y-84975610D01*
X153440703Y-85086953D01*
X153440703Y-85086954D01*
X153393110Y-85197857D01*
X153348583Y-85251700D01*
X153282015Y-85272923D01*
X153214540Y-85254787D01*
X153197958Y-85242669D01*
X153149722Y-85200872D01*
X153149714Y-85200867D01*
X153025345Y-85144070D01*
X153025343Y-85144069D01*
X153025342Y-85144069D01*
X153025337Y-85144068D01*
X153025336Y-85144068D01*
X152924011Y-85129500D01*
X152855989Y-85129500D01*
X152855988Y-85129500D01*
X152754663Y-85144068D01*
X152754654Y-85144070D01*
X152630285Y-85200867D01*
X152630278Y-85200872D01*
X152526946Y-85290409D01*
X152526942Y-85290413D01*
X152453021Y-85405440D01*
X152414500Y-85536632D01*
X152414500Y-85673367D01*
X147585500Y-85673367D01*
X147585500Y-85536633D01*
X147581866Y-85524258D01*
X147566238Y-85471036D01*
X147546978Y-85405440D01*
X147546979Y-85405440D01*
X147473057Y-85290413D01*
X147473053Y-85290409D01*
X147369721Y-85200872D01*
X147369714Y-85200867D01*
X147245345Y-85144070D01*
X147245343Y-85144069D01*
X147245342Y-85144069D01*
X147245337Y-85144068D01*
X147245336Y-85144068D01*
X147144011Y-85129500D01*
X147075989Y-85129500D01*
X147075988Y-85129500D01*
X146974663Y-85144068D01*
X146974654Y-85144070D01*
X146850285Y-85200867D01*
X146850278Y-85200872D01*
X146805215Y-85239919D01*
X146741659Y-85268943D01*
X146672501Y-85258999D01*
X146619698Y-85213243D01*
X146605700Y-85183323D01*
X146604161Y-85178418D01*
X146604160Y-85178417D01*
X146604159Y-85178412D01*
X146505409Y-85000498D01*
X146505408Y-85000497D01*
X146505407Y-85000495D01*
X146372867Y-84846106D01*
X146372865Y-84846104D01*
X146211962Y-84721554D01*
X146211959Y-84721553D01*
X146211958Y-84721552D01*
X146029271Y-84631940D01*
X145832285Y-84580937D01*
X145832287Y-84580937D01*
X145696804Y-84574066D01*
X145629064Y-84570631D01*
X145629063Y-84570631D01*
X145629061Y-84570631D01*
X145427936Y-84601442D01*
X145427924Y-84601445D01*
X145237118Y-84672111D01*
X145237111Y-84672115D01*
X145064432Y-84779745D01*
X145064427Y-84779749D01*
X144916949Y-84919938D01*
X144916947Y-84919940D01*
X144916947Y-84919941D01*
X144896113Y-84949873D01*
X144800705Y-85086949D01*
X144720459Y-85273943D01*
X144679500Y-85473258D01*
X144679500Y-86725743D01*
X135044803Y-86725743D01*
X135044804Y-86725742D01*
X135483818Y-86245441D01*
X135608024Y-86115532D01*
X136115532Y-85608024D01*
X136245441Y-85483818D01*
X136750646Y-85022039D01*
X136775172Y-84999623D01*
X136910594Y-84881308D01*
X137461534Y-84421350D01*
X137602023Y-84309315D01*
X138173082Y-83874509D01*
X138318446Y-83768896D01*
X138908462Y-83360132D01*
X139058436Y-83261135D01*
X139666152Y-82879281D01*
X139820464Y-82787084D01*
X140444668Y-82432899D01*
X140456113Y-82426741D01*
X140602976Y-82347710D01*
X141242453Y-82021880D01*
X141404380Y-81943900D01*
X142057830Y-81647089D01*
X142223153Y-81576427D01*
X142889269Y-81309229D01*
X143057532Y-81246079D01*
X143734984Y-81009028D01*
X143905927Y-80953486D01*
X144593290Y-80747081D01*
X144766544Y-80699265D01*
X144771538Y-80698007D01*
X144841352Y-80700704D01*
X144898628Y-80740719D01*
X144925178Y-80805348D01*
X144912572Y-80874071D01*
X144903625Y-80889081D01*
X144800705Y-81036949D01*
X144720459Y-81223943D01*
X144679500Y-81423258D01*
X144679500Y-82375743D01*
X144694925Y-82527439D01*
X144755837Y-82721579D01*
X144755844Y-82721594D01*
X144854589Y-82899499D01*
X144854592Y-82899504D01*
X144987132Y-83053893D01*
X144987134Y-83053895D01*
X145148037Y-83178445D01*
X145148038Y-83178445D01*
X145148042Y-83178448D01*
X145330729Y-83268060D01*
X145527715Y-83319063D01*
X145730936Y-83329369D01*
X145932071Y-83298556D01*
X146122887Y-83227886D01*
X146295571Y-83120252D01*
X146443053Y-82980059D01*
X146559295Y-82813049D01*
X146639540Y-82626058D01*
X146680500Y-82426741D01*
X146680500Y-81474258D01*
X146665074Y-81322562D01*
X146665074Y-81322560D01*
X146604162Y-81128420D01*
X146604160Y-81128416D01*
X146604159Y-81128412D01*
X146505409Y-80950498D01*
X146505408Y-80950497D01*
X146505407Y-80950495D01*
X146372867Y-80796106D01*
X146372865Y-80796104D01*
X146211962Y-80671554D01*
X146211959Y-80671553D01*
X146211958Y-80671552D01*
X146111174Y-80622115D01*
X146099046Y-80616166D01*
X146047527Y-80568969D01*
X146029702Y-80501411D01*
X146051232Y-80434941D01*
X146105281Y-80390663D01*
X146128763Y-80383363D01*
X146340859Y-80339936D01*
X146517742Y-80307836D01*
X147226617Y-80195562D01*
X147404737Y-80171434D01*
X148117934Y-80091076D01*
X148296958Y-80074964D01*
X149013013Y-80026686D01*
X149192596Y-80018620D01*
X149910130Y-80002517D01*
X150089870Y-80002517D01*
X150807403Y-80018620D01*
G37*
%TD.AperFunction*%
%TD*%
M02*
